<svg width="83" height="83" viewBox="0 0 83 83" fill="none" xmlns="http://www.w3.org/2000/svg">
<g filter="url(#filter0_d_372_102)">
<circle cx="41.5" cy="37.5" r="37.5" fill="#142944"/>
</g>
<g clip-path="url(#clip0_372_102)">
<path d="M41 53C39.6739 53 38.4021 52.4732 37.4645 51.5355C36.5268 50.5979 36 49.3261 36 48V43H31C29.6739 43 28.4021 42.4732 27.4645 41.5355C26.5268 40.5979 26 39.3261 26 38C26 36.6739 26.5268 35.4021 27.4645 34.4645C28.4021 33.5268 29.6739 33 31 33H36V28C36 26.6739 36.5268 25.4021 37.4645 24.4645C38.4021 23.5268 39.6739 23 41 23C42.3261 23 43.5979 23.5268 44.5355 24.4645C45.4732 25.4021 46 26.6739 46 28V33H51C52.3261 33 53.5979 33.5268 54.5355 34.4645C55.4732 35.4021 56 36.6739 56 38C56 39.3261 55.4732 40.5979 54.5355 41.5355C53.5979 42.4732 52.3261 43 51 43H46V48C46 49.3261 45.4732 50.5979 44.5355 51.5355C43.5979 52.4732 42.3261 53 41 53Z" fill="#F30E0E"/>
</g>
<defs>
<filter id="filter0_d_372_102" x="0" y="0" width="83" height="83" filterUnits="userSpaceOnUse" color-interpolation-filters="sRGB">
<feFlood flood-opacity="0" result="BackgroundImageFix"/>
<feColorMatrix in="SourceAlpha" type="matrix" values="0 0 0 0 0 0 0 0 0 0 0 0 0 0 0 0 0 0 127 0" result="hardAlpha"/>
<feOffset dy="4"/>
<feGaussianBlur stdDeviation="2"/>
<feComposite in2="hardAlpha" operator="out"/>
<feColorMatrix type="matrix" values="0 0 0 0 0 0 0 0 0 0 0 0 0 0 0 0 0 0 0.1 0"/>
<feBlend mode="normal" in2="BackgroundImageFix" result="effect1_dropShadow_372_102"/>
<feBlend mode="normal" in="SourceGraphic" in2="effect1_dropShadow_372_102" result="shape"/>
</filter>
<clipPath id="clip0_372_102">
<rect width="30" height="30" fill="white" transform="translate(26 23)"/>
</clipPath>
</defs>
</svg>
