<svg width="20" height="19" viewBox="0 0 20 19" fill="none" xmlns="http://www.w3.org/2000/svg">
<path d="M14.5833 1.09717C13.645 1.11176 12.7271 1.37371 11.9223 1.85656C11.1176 2.33941 10.4545 3.02606 10 3.84717C9.54554 3.02606 8.88245 2.33941 8.0777 1.85656C7.27296 1.37371 6.35505 1.11176 5.41667 1.09717C3.92079 1.16216 2.51143 1.81655 1.49649 2.91736C0.481556 4.01818 -0.0564528 5.47594 5.93227e-06 6.97217C5.93227e-06 10.7613 3.98834 14.8997 7.33334 17.7055C8.08019 18.3331 9.02447 18.6772 10 18.6772C10.9755 18.6772 11.9198 18.3331 12.6667 17.7055C16.0117 14.8997 20 10.7613 20 6.97217C20.0565 5.47594 19.5185 4.01818 18.5035 2.91736C17.4886 1.81655 16.0792 1.16216 14.5833 1.09717ZM11.5958 16.4305C11.1492 16.8066 10.584 17.0129 10 17.0129C9.41604 17.0129 8.85085 16.8066 8.40417 16.4305C4.12251 12.838 1.66667 9.39133 1.66667 6.97217C1.60971 5.91776 1.97198 4.88361 2.67448 4.09525C3.37697 3.30689 4.3627 2.82829 5.41667 2.76383C6.47064 2.82829 7.45637 3.30689 8.15887 4.09525C8.86137 4.88361 9.22364 5.91776 9.16667 6.97217C9.16667 7.19318 9.25447 7.40514 9.41075 7.56142C9.56703 7.7177 9.77899 7.8055 10 7.8055C10.221 7.8055 10.433 7.7177 10.5893 7.56142C10.7455 7.40514 10.8333 7.19318 10.8333 6.97217C10.7764 5.91776 11.1386 4.88361 11.8411 4.09525C12.5436 3.30689 13.5294 2.82829 14.5833 2.76383C15.6373 2.82829 16.623 3.30689 17.3255 4.09525C18.028 4.88361 18.3903 5.91776 18.3333 6.97217C18.3333 9.39133 15.8775 12.838 11.5958 16.4272V16.4305Z" fill="#8C8C8C" stroke="white" stroke-width="0.5"/>
</svg>
