<svg width="20" height="21" viewBox="0 0 20 21" fill="none" xmlns="http://www.w3.org/2000/svg">
<path d="M17.8836 3.94476C17.7151 2.97913 17.2111 2.10401 16.4604 1.47374C15.7096 0.843463 14.7605 0.498526 13.7803 0.499761H6.20943C5.22845 0.498269 4.2785 0.843499 3.52737 1.47447C2.77624 2.10545 2.27226 2.98157 2.10444 3.94809L0.0636082 15.6148C-0.0411949 16.2136 -0.0137007 16.8281 0.144162 17.4151C0.302024 18.0022 0.586431 18.5476 0.977428 19.013C1.36842 19.4785 1.85654 19.8528 2.40753 20.1096C2.95852 20.3665 3.55903 20.4996 4.16694 20.4998H15.8336C16.4419 20.4998 17.0428 20.3667 17.5942 20.1097C18.1456 19.8528 18.634 19.4782 19.0251 19.0123C19.4163 18.5464 19.7007 18.0005 19.8583 17.413C20.016 16.8255 20.0431 16.2105 19.9377 15.6114L17.8836 3.94476ZM17.7503 17.9406C17.5154 18.2204 17.2221 18.4452 16.8909 18.5994C16.5598 18.7536 16.1989 18.8334 15.8336 18.8331H4.16694C3.80208 18.8331 3.44165 18.7532 3.11094 18.5991C2.78023 18.445 2.48726 18.2204 2.2526 17.941C2.01793 17.6617 1.84726 17.3343 1.75256 16.982C1.65787 16.6296 1.64144 16.2608 1.70444 15.9014L3.74527 4.23476C3.84688 3.65512 4.14971 3.1299 4.60045 2.75156C5.0512 2.37323 5.62096 2.16602 6.20943 2.16643H13.7803C14.3681 2.16654 14.937 2.37378 15.3872 2.75173C15.8374 3.12968 16.14 3.65418 16.2419 4.23309L18.2944 15.8998C18.3581 16.259 18.3425 16.6279 18.2484 16.9805C18.1544 17.333 17.9844 17.6607 17.7503 17.9406ZM10.8336 4.66643V6.33309C10.8336 6.55411 10.7458 6.76607 10.5895 6.92235C10.4332 7.07863 10.2213 7.16643 10.0003 7.16643C9.77925 7.16643 9.56729 7.07863 9.41101 6.92235C9.25473 6.76607 9.16693 6.55411 9.16693 6.33309V4.66643C9.16693 4.44541 9.25473 4.23345 9.41101 4.07717C9.56729 3.92089 9.77925 3.83309 10.0003 3.83309C10.2213 3.83309 10.4332 3.92089 10.5895 4.07717C10.7458 4.23345 10.8336 4.44541 10.8336 4.66643ZM10.8336 9.66643V11.3331C10.8336 11.5541 10.7458 11.7661 10.5895 11.9223C10.4332 12.0786 10.2213 12.1664 10.0003 12.1664C9.77925 12.1664 9.56729 12.0786 9.41101 11.9223C9.25473 11.7661 9.16693 11.5541 9.16693 11.3331V9.66643C9.16693 9.44541 9.25473 9.23345 9.41101 9.07717C9.56729 8.92089 9.77925 8.83309 10.0003 8.83309C10.2213 8.83309 10.4332 8.92089 10.5895 9.07717C10.7458 9.23345 10.8336 9.44541 10.8336 9.66643ZM10.8336 14.6664V16.3331C10.8336 16.5541 10.7458 16.7661 10.5895 16.9223C10.4332 17.0786 10.2213 17.1664 10.0003 17.1664C9.77925 17.1664 9.56729 17.0786 9.41101 16.9223C9.25473 16.7661 9.16693 16.5541 9.16693 16.3331V14.6664C9.16693 14.4454 9.25473 14.2335 9.41101 14.0772C9.56729 13.9209 9.77925 13.8331 10.0003 13.8331C10.2213 13.8331 10.4332 13.9209 10.5895 14.0772C10.7458 14.2335 10.8336 14.4454 10.8336 14.6664Z" fill="#C5C5C5"/>
</svg>
