<svg width="192" height="15" viewBox="0 0 192 15" fill="none" xmlns="http://www.w3.org/2000/svg">
<mask id="path-1-outside-1_144_56" maskUnits="userSpaceOnUse" x="-1" y="-1.85315" width="194" height="18" fill="black">
<rect fill="white" x="-1" y="-1.85315" width="194" height="18"/>
<path d="M7.60352 7.1449C8.1569 7.48344 8.59635 7.93917 8.92188 8.51208C9.25391 9.085 9.41992 9.70349 9.41992 10.3676C9.41992 11.4092 9.04883 12.3011 8.30664 13.0433C7.57096 13.779 6.68229 14.1469 5.64062 14.1469H0.865234C0.682943 14.1469 0.542969 14.0948 0.445312 13.9906C0.347656 13.8799 0.298828 13.7465 0.298828 13.5902C0.298828 13.434 0.347656 13.3005 0.445312 13.1898C0.542969 13.0791 0.682943 13.0238 0.865234 13.0238H5.64062C6.3763 13.0238 7.00456 12.7666 7.52539 12.2523C8.04622 11.738 8.30664 11.1097 8.30664 10.3676C8.30664 9.63839 8.04622 9.01339 7.52539 8.49255C7.00456 7.97172 6.3763 7.7113 5.64062 7.7113C5.45182 7.7113 5.30859 7.65597 5.21094 7.54529C5.11328 7.43461 5.06445 7.30115 5.06445 7.1449C5.06445 6.98865 5.11328 6.85844 5.21094 6.75427C5.30859 6.6436 5.45182 6.58826 5.64062 6.58826C6.3763 6.58826 7.00456 6.3311 7.52539 5.81677C8.04622 5.29594 8.30664 4.66443 8.30664 3.92224C8.30664 3.18005 8.04622 2.5518 7.52539 2.03748C7.00456 1.52315 6.3763 1.26599 5.64062 1.26599H0.865234C0.682943 1.26599 0.542969 1.21391 0.445312 1.10974C0.347656 0.999064 0.298828 0.865601 0.298828 0.709351C0.298828 0.553101 0.347656 0.419637 0.445312 0.30896C0.542969 0.198283 0.682943 0.142944 0.865234 0.142944H5.64062C6.68229 0.142944 7.57096 0.514038 8.30664 1.25623C9.04883 1.9919 9.41992 2.88057 9.41992 3.92224C9.41992 4.5863 9.25391 5.20479 8.92188 5.77771C8.59635 6.35063 8.1569 6.80636 7.60352 7.1449ZM24.6602 7.73083H16.5547V13.0043H24.6602C24.8359 13.0043 24.9727 13.0629 25.0703 13.1801C25.168 13.2972 25.2168 13.434 25.2168 13.5902C25.2168 13.7465 25.168 13.8799 25.0703 13.9906C24.9792 14.0948 24.8424 14.1469 24.6602 14.1469H15.998C15.8353 14.1469 15.6953 14.0915 15.5781 13.9808C15.4674 13.8702 15.4121 13.7334 15.4121 13.5707V7.1449C15.4121 6.99516 15.4707 6.86169 15.5879 6.74451C15.7051 6.62732 15.8418 6.56873 15.998 6.56873H24.6602C24.8359 6.56873 24.9727 6.62732 25.0703 6.74451C25.168 6.85518 25.2168 6.98865 25.2168 7.1449C25.2168 7.30766 25.168 7.44763 25.0703 7.56482C24.9792 7.6755 24.8424 7.73083 24.6602 7.73083ZM24.6602 1.28552H15.998C15.8092 1.28552 15.6628 1.23344 15.5586 1.12927C15.4609 1.0186 15.4121 0.885132 15.4121 0.728882C15.4121 0.572632 15.4609 0.435913 15.5586 0.318726C15.6628 0.201538 15.8092 0.142944 15.998 0.142944H24.6602C24.8359 0.142944 24.9727 0.201538 25.0703 0.318726C25.168 0.435913 25.2168 0.572632 25.2168 0.728882C25.2168 0.885132 25.168 1.0186 25.0703 1.12927C24.9792 1.23344 24.8424 1.28552 24.6602 1.28552ZM37.6543 13.8832L32.2148 3.06287V13.5902C32.2148 13.766 32.166 13.9027 32.0684 14.0004C31.9707 14.098 31.8535 14.1469 31.7168 14.1469C31.5736 14.1469 31.4531 14.1013 31.3555 14.0101C31.2578 13.9125 31.209 13.7725 31.209 13.5902V0.709351C31.209 0.331746 31.3652 0.142944 31.6777 0.142944C31.7428 0.142944 31.7884 0.149455 31.8145 0.162476C31.9447 0.182007 32.0521 0.256877 32.1367 0.387085L38.0352 12.2035L43.8945 0.523804C44.0052 0.31547 44.1647 0.211304 44.373 0.211304C44.5033 0.211304 44.6139 0.256877 44.7051 0.348022C44.8027 0.432658 44.8516 0.54659 44.8516 0.689819V13.5902C44.8516 13.7595 44.7995 13.8962 44.6953 14.0004C44.5911 14.098 44.4902 14.1469 44.3926 14.1469C44.1973 14.1469 44.054 14.085 43.9629 13.9613C43.8783 13.8311 43.8359 13.7074 43.8359 13.5902V3.0824L38.4355 13.8832C38.3053 13.9939 38.1719 14.0492 38.0352 14.0492C37.8919 14.0492 37.765 13.9939 37.6543 13.8832ZM51.4395 6.56873H59.6621C59.8184 6.56873 59.9486 6.62081 60.0527 6.72498C60.1764 6.84867 60.2383 6.98865 60.2383 7.1449C60.2383 7.30115 60.1764 7.44112 60.0527 7.56482C59.9421 7.6755 59.8118 7.73083 59.6621 7.73083H51.4395C51.2832 7.73083 51.1497 7.6755 51.0391 7.56482C50.9154 7.44112 50.8535 7.30115 50.8535 7.1449C50.8535 6.98865 50.9154 6.84867 51.0391 6.72498C51.1432 6.62081 51.2767 6.56873 51.4395 6.56873ZM78.2031 0.982788C78.112 1.15206 77.2038 3.32654 75.4785 7.50623C73.7598 11.6859 72.9004 13.792 72.9004 13.8246C72.7832 14.1045 72.6107 14.2445 72.3828 14.2445C72.168 14.2445 72.002 14.1045 71.8848 13.8246L66.3086 0.924194C66.263 0.833049 66.2402 0.754924 66.2402 0.689819C66.2402 0.533569 66.2988 0.403361 66.416 0.299194C66.5397 0.195028 66.6764 0.142944 66.8262 0.142944C67.054 0.142944 67.2135 0.256877 67.3047 0.484741L72.3633 12.184L74.4629 7.10583C76.1491 2.9587 77.0833 0.732137 77.2656 0.426147C77.3763 0.237345 77.5293 0.142944 77.7246 0.142944C77.8743 0.142944 78.0046 0.198283 78.1152 0.30896C78.2259 0.413127 78.2812 0.54008 78.2812 0.689819C78.2812 0.800496 78.2552 0.898153 78.2031 0.982788ZM85.4648 0.728882V13.5707C85.4648 13.7399 85.4062 13.8734 85.2891 13.9711C85.1719 14.0883 85.0319 14.1469 84.8691 14.1469C84.6999 14.1469 84.5664 14.0883 84.4688 13.9711C84.3451 13.8669 84.2832 13.7334 84.2832 13.5707V0.728882C84.2832 0.566121 84.3451 0.432658 84.4688 0.328491C84.5729 0.204793 84.7064 0.142944 84.8691 0.142944C85.0254 0.142944 85.1654 0.204793 85.2891 0.328491C85.4062 0.426147 85.4648 0.559611 85.4648 0.728882ZM91.4668 13.5902V0.787476C91.4668 0.592163 91.5156 0.435913 91.6133 0.318726C91.7174 0.201538 91.8379 0.142944 91.9746 0.142944C92.1439 0.142944 92.3099 0.243856 92.4727 0.445679L100.969 11.891V0.748413C100.969 0.579142 101.021 0.448934 101.125 0.357788C101.229 0.260132 101.356 0.211304 101.506 0.211304C101.662 0.211304 101.796 0.260132 101.906 0.357788C102.017 0.448934 102.072 0.579142 102.072 0.748413V13.4828C102.072 13.6781 102.03 13.8344 101.945 13.9515C101.861 14.0687 101.75 14.1273 101.613 14.1273C101.411 14.1273 101.236 14.0199 101.086 13.8051L92.5703 2.44763V13.5902C92.5703 13.7725 92.515 13.9125 92.4043 14.0101C92.3001 14.1013 92.1699 14.1469 92.0137 14.1469C91.8574 14.1469 91.7272 14.1013 91.623 14.0101C91.5189 13.9125 91.4668 13.7725 91.4668 13.5902ZM108.65 0.142944H112.527C113.471 0.142944 114.376 0.328491 115.242 0.699585C116.108 1.07068 116.854 1.56873 117.479 2.19373C118.104 2.81873 118.602 3.56417 118.973 4.43005C119.344 5.29594 119.529 6.20089 119.529 7.1449C119.529 8.08891 119.344 8.99386 118.973 9.85974C118.602 10.7256 118.104 11.4711 117.479 12.0961C116.854 12.7211 116.108 13.2191 115.242 13.5902C114.376 13.9613 113.471 14.1469 112.527 14.1469H108.65C108.462 14.1469 108.315 14.0948 108.211 13.9906C108.113 13.8799 108.064 13.7465 108.064 13.5902C108.064 13.434 108.113 13.2972 108.211 13.1801C108.315 13.0629 108.462 13.0043 108.65 13.0043H112.527C113.322 13.0043 114.077 12.8513 114.793 12.5453C115.516 12.2328 116.137 11.8161 116.658 11.2953C117.179 10.7745 117.592 10.1527 117.898 9.43005C118.211 8.70089 118.367 7.93917 118.367 7.1449C118.367 6.35063 118.211 5.59216 117.898 4.86951C117.592 4.14034 117.179 3.51534 116.658 2.99451C116.137 2.47367 115.516 2.06026 114.793 1.75427C114.077 1.44177 113.322 1.28552 112.527 1.28552H108.65C108.462 1.28552 108.315 1.23344 108.211 1.12927C108.113 1.0186 108.064 0.885132 108.064 0.728882C108.064 0.572632 108.113 0.435913 108.211 0.318726C108.315 0.201538 108.462 0.142944 108.65 0.142944ZM136.801 2.96521C135.642 1.80636 134.249 1.22693 132.621 1.22693C130.993 1.22693 129.6 1.80636 128.441 2.96521C127.283 4.12406 126.703 5.51729 126.703 7.1449C126.703 8.7725 127.283 10.1657 128.441 11.3246C129.6 12.4834 130.993 13.0629 132.621 13.0629C134.249 13.0629 135.642 12.4834 136.801 11.3246C137.966 10.1592 138.549 8.76599 138.549 7.1449C138.549 5.5238 137.966 4.13057 136.801 2.96521ZM137.641 12.1644C136.254 13.5511 134.581 14.2445 132.621 14.2445C130.661 14.2445 128.988 13.5511 127.602 12.1644C126.215 10.7777 125.521 9.10453 125.521 7.1449C125.521 5.18526 126.215 3.51208 127.602 2.12537C128.988 0.738647 130.661 0.0452881 132.621 0.0452881C134.581 0.0452881 136.254 0.738647 137.641 2.12537C139.027 3.51208 139.721 5.18526 139.721 7.1449C139.721 9.10453 139.027 10.7777 137.641 12.1644ZM159.713 13.5902V6.03162C159.713 4.97042 159.977 3.98735 160.504 3.0824C161.031 2.17745 161.747 1.4613 162.652 0.93396C163.557 0.406616 164.54 0.142944 165.602 0.142944C166.402 0.142944 167.167 0.299194 167.896 0.611694C168.626 0.924194 169.251 1.34412 169.771 1.87146C170.299 2.39229 170.719 3.01729 171.031 3.74646C171.344 4.47563 171.5 5.23735 171.5 6.03162V13.5902C171.5 13.766 171.445 13.9027 171.334 14.0004C171.223 14.098 171.09 14.1469 170.934 14.1469C170.777 14.1469 170.644 14.1013 170.533 14.0101C170.429 13.9125 170.377 13.7725 170.377 13.5902V6.03162C170.377 4.72302 169.908 3.60323 168.971 2.67224C168.04 1.73474 166.917 1.26599 165.602 1.26599C164.286 1.26599 163.163 1.73474 162.232 2.67224C161.301 3.60323 160.836 4.72302 160.836 6.03162V13.5902C160.836 13.7725 160.781 13.9125 160.67 14.0101C160.566 14.1013 160.436 14.1469 160.279 14.1469C160.123 14.1469 159.99 14.098 159.879 14.0004C159.768 13.9027 159.713 13.766 159.713 13.5902ZM188.781 2.96521C187.622 1.80636 186.229 1.22693 184.602 1.22693C182.974 1.22693 181.581 1.80636 180.422 2.96521C179.263 4.12406 178.684 5.51729 178.684 7.1449C178.684 8.7725 179.263 10.1657 180.422 11.3246C181.581 12.4834 182.974 13.0629 184.602 13.0629C186.229 13.0629 187.622 12.4834 188.781 11.3246C189.947 10.1592 190.529 8.76599 190.529 7.1449C190.529 5.5238 189.947 4.13057 188.781 2.96521ZM189.621 12.1644C188.234 13.5511 186.561 14.2445 184.602 14.2445C182.642 14.2445 180.969 13.5511 179.582 12.1644C178.195 10.7777 177.502 9.10453 177.502 7.1449C177.502 5.18526 178.195 3.51208 179.582 2.12537C180.969 0.738647 182.642 0.0452881 184.602 0.0452881C186.561 0.0452881 188.234 0.738647 189.621 2.12537C191.008 3.51208 191.701 5.18526 191.701 7.1449C191.701 9.10453 191.008 10.7777 189.621 12.1644Z"/>
</mask>
<path d="M7.60352 7.1449C8.1569 7.48344 8.59635 7.93917 8.92188 8.51208C9.25391 9.085 9.41992 9.70349 9.41992 10.3676C9.41992 11.4092 9.04883 12.3011 8.30664 13.0433C7.57096 13.779 6.68229 14.1469 5.64062 14.1469H0.865234C0.682943 14.1469 0.542969 14.0948 0.445312 13.9906C0.347656 13.8799 0.298828 13.7465 0.298828 13.5902C0.298828 13.434 0.347656 13.3005 0.445312 13.1898C0.542969 13.0791 0.682943 13.0238 0.865234 13.0238H5.64062C6.3763 13.0238 7.00456 12.7666 7.52539 12.2523C8.04622 11.738 8.30664 11.1097 8.30664 10.3676C8.30664 9.63839 8.04622 9.01339 7.52539 8.49255C7.00456 7.97172 6.3763 7.7113 5.64062 7.7113C5.45182 7.7113 5.30859 7.65597 5.21094 7.54529C5.11328 7.43461 5.06445 7.30115 5.06445 7.1449C5.06445 6.98865 5.11328 6.85844 5.21094 6.75427C5.30859 6.6436 5.45182 6.58826 5.64062 6.58826C6.3763 6.58826 7.00456 6.3311 7.52539 5.81677C8.04622 5.29594 8.30664 4.66443 8.30664 3.92224C8.30664 3.18005 8.04622 2.5518 7.52539 2.03748C7.00456 1.52315 6.3763 1.26599 5.64062 1.26599H0.865234C0.682943 1.26599 0.542969 1.21391 0.445312 1.10974C0.347656 0.999064 0.298828 0.865601 0.298828 0.709351C0.298828 0.553101 0.347656 0.419637 0.445312 0.30896C0.542969 0.198283 0.682943 0.142944 0.865234 0.142944H5.64062C6.68229 0.142944 7.57096 0.514038 8.30664 1.25623C9.04883 1.9919 9.41992 2.88057 9.41992 3.92224C9.41992 4.5863 9.25391 5.20479 8.92188 5.77771C8.59635 6.35063 8.1569 6.80636 7.60352 7.1449ZM24.6602 7.73083H16.5547V13.0043H24.6602C24.8359 13.0043 24.9727 13.0629 25.0703 13.1801C25.168 13.2972 25.2168 13.434 25.2168 13.5902C25.2168 13.7465 25.168 13.8799 25.0703 13.9906C24.9792 14.0948 24.8424 14.1469 24.6602 14.1469H15.998C15.8353 14.1469 15.6953 14.0915 15.5781 13.9808C15.4674 13.8702 15.4121 13.7334 15.4121 13.5707V7.1449C15.4121 6.99516 15.4707 6.86169 15.5879 6.74451C15.7051 6.62732 15.8418 6.56873 15.998 6.56873H24.6602C24.8359 6.56873 24.9727 6.62732 25.0703 6.74451C25.168 6.85518 25.2168 6.98865 25.2168 7.1449C25.2168 7.30766 25.168 7.44763 25.0703 7.56482C24.9792 7.6755 24.8424 7.73083 24.6602 7.73083ZM24.6602 1.28552H15.998C15.8092 1.28552 15.6628 1.23344 15.5586 1.12927C15.4609 1.0186 15.4121 0.885132 15.4121 0.728882C15.4121 0.572632 15.4609 0.435913 15.5586 0.318726C15.6628 0.201538 15.8092 0.142944 15.998 0.142944H24.6602C24.8359 0.142944 24.9727 0.201538 25.0703 0.318726C25.168 0.435913 25.2168 0.572632 25.2168 0.728882C25.2168 0.885132 25.168 1.0186 25.0703 1.12927C24.9792 1.23344 24.8424 1.28552 24.6602 1.28552ZM37.6543 13.8832L32.2148 3.06287V13.5902C32.2148 13.766 32.166 13.9027 32.0684 14.0004C31.9707 14.098 31.8535 14.1469 31.7168 14.1469C31.5736 14.1469 31.4531 14.1013 31.3555 14.0101C31.2578 13.9125 31.209 13.7725 31.209 13.5902V0.709351C31.209 0.331746 31.3652 0.142944 31.6777 0.142944C31.7428 0.142944 31.7884 0.149455 31.8145 0.162476C31.9447 0.182007 32.0521 0.256877 32.1367 0.387085L38.0352 12.2035L43.8945 0.523804C44.0052 0.31547 44.1647 0.211304 44.373 0.211304C44.5033 0.211304 44.6139 0.256877 44.7051 0.348022C44.8027 0.432658 44.8516 0.54659 44.8516 0.689819V13.5902C44.8516 13.7595 44.7995 13.8962 44.6953 14.0004C44.5911 14.098 44.4902 14.1469 44.3926 14.1469C44.1973 14.1469 44.054 14.085 43.9629 13.9613C43.8783 13.8311 43.8359 13.7074 43.8359 13.5902V3.0824L38.4355 13.8832C38.3053 13.9939 38.1719 14.0492 38.0352 14.0492C37.8919 14.0492 37.765 13.9939 37.6543 13.8832ZM51.4395 6.56873H59.6621C59.8184 6.56873 59.9486 6.62081 60.0527 6.72498C60.1764 6.84867 60.2383 6.98865 60.2383 7.1449C60.2383 7.30115 60.1764 7.44112 60.0527 7.56482C59.9421 7.6755 59.8118 7.73083 59.6621 7.73083H51.4395C51.2832 7.73083 51.1497 7.6755 51.0391 7.56482C50.9154 7.44112 50.8535 7.30115 50.8535 7.1449C50.8535 6.98865 50.9154 6.84867 51.0391 6.72498C51.1432 6.62081 51.2767 6.56873 51.4395 6.56873ZM78.2031 0.982788C78.112 1.15206 77.2038 3.32654 75.4785 7.50623C73.7598 11.6859 72.9004 13.792 72.9004 13.8246C72.7832 14.1045 72.6107 14.2445 72.3828 14.2445C72.168 14.2445 72.002 14.1045 71.8848 13.8246L66.3086 0.924194C66.263 0.833049 66.2402 0.754924 66.2402 0.689819C66.2402 0.533569 66.2988 0.403361 66.416 0.299194C66.5397 0.195028 66.6764 0.142944 66.8262 0.142944C67.054 0.142944 67.2135 0.256877 67.3047 0.484741L72.3633 12.184L74.4629 7.10583C76.1491 2.9587 77.0833 0.732137 77.2656 0.426147C77.3763 0.237345 77.5293 0.142944 77.7246 0.142944C77.8743 0.142944 78.0046 0.198283 78.1152 0.30896C78.2259 0.413127 78.2812 0.54008 78.2812 0.689819C78.2812 0.800496 78.2552 0.898153 78.2031 0.982788ZM85.4648 0.728882V13.5707C85.4648 13.7399 85.4062 13.8734 85.2891 13.9711C85.1719 14.0883 85.0319 14.1469 84.8691 14.1469C84.6999 14.1469 84.5664 14.0883 84.4688 13.9711C84.3451 13.8669 84.2832 13.7334 84.2832 13.5707V0.728882C84.2832 0.566121 84.3451 0.432658 84.4688 0.328491C84.5729 0.204793 84.7064 0.142944 84.8691 0.142944C85.0254 0.142944 85.1654 0.204793 85.2891 0.328491C85.4062 0.426147 85.4648 0.559611 85.4648 0.728882ZM91.4668 13.5902V0.787476C91.4668 0.592163 91.5156 0.435913 91.6133 0.318726C91.7174 0.201538 91.8379 0.142944 91.9746 0.142944C92.1439 0.142944 92.3099 0.243856 92.4727 0.445679L100.969 11.891V0.748413C100.969 0.579142 101.021 0.448934 101.125 0.357788C101.229 0.260132 101.356 0.211304 101.506 0.211304C101.662 0.211304 101.796 0.260132 101.906 0.357788C102.017 0.448934 102.072 0.579142 102.072 0.748413V13.4828C102.072 13.6781 102.03 13.8344 101.945 13.9515C101.861 14.0687 101.75 14.1273 101.613 14.1273C101.411 14.1273 101.236 14.0199 101.086 13.8051L92.5703 2.44763V13.5902C92.5703 13.7725 92.515 13.9125 92.4043 14.0101C92.3001 14.1013 92.1699 14.1469 92.0137 14.1469C91.8574 14.1469 91.7272 14.1013 91.623 14.0101C91.5189 13.9125 91.4668 13.7725 91.4668 13.5902ZM108.65 0.142944H112.527C113.471 0.142944 114.376 0.328491 115.242 0.699585C116.108 1.07068 116.854 1.56873 117.479 2.19373C118.104 2.81873 118.602 3.56417 118.973 4.43005C119.344 5.29594 119.529 6.20089 119.529 7.1449C119.529 8.08891 119.344 8.99386 118.973 9.85974C118.602 10.7256 118.104 11.4711 117.479 12.0961C116.854 12.7211 116.108 13.2191 115.242 13.5902C114.376 13.9613 113.471 14.1469 112.527 14.1469H108.65C108.462 14.1469 108.315 14.0948 108.211 13.9906C108.113 13.8799 108.064 13.7465 108.064 13.5902C108.064 13.434 108.113 13.2972 108.211 13.1801C108.315 13.0629 108.462 13.0043 108.65 13.0043H112.527C113.322 13.0043 114.077 12.8513 114.793 12.5453C115.516 12.2328 116.137 11.8161 116.658 11.2953C117.179 10.7745 117.592 10.1527 117.898 9.43005C118.211 8.70089 118.367 7.93917 118.367 7.1449C118.367 6.35063 118.211 5.59216 117.898 4.86951C117.592 4.14034 117.179 3.51534 116.658 2.99451C116.137 2.47367 115.516 2.06026 114.793 1.75427C114.077 1.44177 113.322 1.28552 112.527 1.28552H108.65C108.462 1.28552 108.315 1.23344 108.211 1.12927C108.113 1.0186 108.064 0.885132 108.064 0.728882C108.064 0.572632 108.113 0.435913 108.211 0.318726C108.315 0.201538 108.462 0.142944 108.65 0.142944ZM136.801 2.96521C135.642 1.80636 134.249 1.22693 132.621 1.22693C130.993 1.22693 129.6 1.80636 128.441 2.96521C127.283 4.12406 126.703 5.51729 126.703 7.1449C126.703 8.7725 127.283 10.1657 128.441 11.3246C129.6 12.4834 130.993 13.0629 132.621 13.0629C134.249 13.0629 135.642 12.4834 136.801 11.3246C137.966 10.1592 138.549 8.76599 138.549 7.1449C138.549 5.5238 137.966 4.13057 136.801 2.96521ZM137.641 12.1644C136.254 13.5511 134.581 14.2445 132.621 14.2445C130.661 14.2445 128.988 13.5511 127.602 12.1644C126.215 10.7777 125.521 9.10453 125.521 7.1449C125.521 5.18526 126.215 3.51208 127.602 2.12537C128.988 0.738647 130.661 0.0452881 132.621 0.0452881C134.581 0.0452881 136.254 0.738647 137.641 2.12537C139.027 3.51208 139.721 5.18526 139.721 7.1449C139.721 9.10453 139.027 10.7777 137.641 12.1644ZM159.713 13.5902V6.03162C159.713 4.97042 159.977 3.98735 160.504 3.0824C161.031 2.17745 161.747 1.4613 162.652 0.93396C163.557 0.406616 164.54 0.142944 165.602 0.142944C166.402 0.142944 167.167 0.299194 167.896 0.611694C168.626 0.924194 169.251 1.34412 169.771 1.87146C170.299 2.39229 170.719 3.01729 171.031 3.74646C171.344 4.47563 171.5 5.23735 171.5 6.03162V13.5902C171.5 13.766 171.445 13.9027 171.334 14.0004C171.223 14.098 171.09 14.1469 170.934 14.1469C170.777 14.1469 170.644 14.1013 170.533 14.0101C170.429 13.9125 170.377 13.7725 170.377 13.5902V6.03162C170.377 4.72302 169.908 3.60323 168.971 2.67224C168.04 1.73474 166.917 1.26599 165.602 1.26599C164.286 1.26599 163.163 1.73474 162.232 2.67224C161.301 3.60323 160.836 4.72302 160.836 6.03162V13.5902C160.836 13.7725 160.781 13.9125 160.67 14.0101C160.566 14.1013 160.436 14.1469 160.279 14.1469C160.123 14.1469 159.99 14.098 159.879 14.0004C159.768 13.9027 159.713 13.766 159.713 13.5902ZM188.781 2.96521C187.622 1.80636 186.229 1.22693 184.602 1.22693C182.974 1.22693 181.581 1.80636 180.422 2.96521C179.263 4.12406 178.684 5.51729 178.684 7.1449C178.684 8.7725 179.263 10.1657 180.422 11.3246C181.581 12.4834 182.974 13.0629 184.602 13.0629C186.229 13.0629 187.622 12.4834 188.781 11.3246C189.947 10.1592 190.529 8.76599 190.529 7.1449C190.529 5.5238 189.947 4.13057 188.781 2.96521ZM189.621 12.1644C188.234 13.5511 186.561 14.2445 184.602 14.2445C182.642 14.2445 180.969 13.5511 179.582 12.1644C178.195 10.7777 177.502 9.10453 177.502 7.1449C177.502 5.18526 178.195 3.51208 179.582 2.12537C180.969 0.738647 182.642 0.0452881 184.602 0.0452881C186.561 0.0452881 188.234 0.738647 189.621 2.12537C191.008 3.51208 191.701 5.18526 191.701 7.1449C191.701 9.10453 191.008 10.7777 189.621 12.1644Z" fill="white"/>
<path d="M7.60352 7.1449L7.08166 6.29186L5.68728 7.1449L7.08166 7.99793L7.60352 7.1449ZM8.92188 8.51208L8.05239 9.00611L8.05667 9.01351L8.92188 8.51208ZM0.445312 13.9906L-0.304525 14.6522L-0.294543 14.6635L-0.284225 14.6745L0.445312 13.9906ZM5.21094 6.75427L5.94047 7.43821L5.95079 7.42721L5.96078 7.41589L5.21094 6.75427ZM7.52539 5.81677L8.22805 6.52833L8.2325 6.52388L7.52539 5.81677ZM0.445312 1.10974L-0.304525 1.77136L-0.294543 1.78268L-0.284225 1.79368L0.445312 1.10974ZM8.30664 1.25623L7.5964 1.96024L7.60266 1.96644L8.30664 1.25623ZM8.92188 5.77771L8.05664 5.27627L8.05242 5.2837L8.92188 5.77771ZM7.08166 7.99793C7.4883 8.2467 7.80914 8.57792 8.05242 9.00609L9.79133 8.01808C9.38357 7.30042 8.8255 6.72018 8.12537 6.29186L7.08166 7.99793ZM8.05667 9.01351C8.30014 9.43361 8.41992 9.87906 8.41992 10.3676H10.4199C10.4199 9.52792 10.2077 8.73639 9.78708 8.01066L8.05667 9.01351ZM8.41992 10.3676C8.41992 11.1417 8.15579 11.78 7.59953 12.3362L9.01375 13.7504C9.94186 12.8223 10.4199 11.6767 10.4199 10.3676H8.41992ZM7.59953 12.3362C7.05165 12.8841 6.41744 13.1469 5.64062 13.1469V15.1469C6.94715 15.1469 8.09028 14.6739 9.01375 13.7504L7.59953 12.3362ZM5.64062 13.1469H0.865234V15.1469H5.64062V13.1469ZM0.865234 13.1469C0.86772 13.1469 0.909102 13.1471 0.972269 13.1706C1.04023 13.1959 1.11312 13.2408 1.17485 13.3067L-0.284225 14.6745C0.0515598 15.0327 0.487574 15.1469 0.865234 15.1469V13.1469ZM1.19515 13.329C1.22543 13.3633 1.25458 13.4093 1.27457 13.4639C1.29424 13.5177 1.29883 13.5628 1.29883 13.5902H-0.701172C-0.701172 13.9746 -0.573392 14.3475 -0.304525 14.6522L1.19515 13.329ZM1.29883 13.5902C1.29883 13.6177 1.29424 13.6627 1.27457 13.7165C1.25458 13.7711 1.22543 13.8171 1.19515 13.8514L-0.304525 12.5282C-0.573392 12.8329 -0.701172 13.2059 -0.701172 13.5902H1.29883ZM1.19515 13.8514C1.13743 13.9169 1.06498 13.9661 0.991194 13.9953C0.922269 14.0225 0.874096 14.0238 0.865234 14.0238V12.0238C0.469009 12.0238 0.0264248 12.1531 -0.304525 12.5282L1.19515 13.8514ZM0.865234 14.0238H5.64062V12.0238H0.865234V14.0238ZM5.64062 14.0238C6.63785 14.0238 7.51898 13.6641 8.22804 12.9639L6.82274 11.5408C6.49013 11.8692 6.11476 12.0238 5.64062 12.0238V14.0238ZM8.22804 12.9639C8.9421 12.2587 9.30664 11.3729 9.30664 10.3676H7.30664C7.30664 10.8465 7.15035 11.2173 6.82274 11.5408L8.22804 12.9639ZM9.30664 10.3676C9.30664 9.37016 8.93873 8.49168 8.2325 7.78545L6.81828 9.19966C7.15372 9.5351 7.30664 9.90662 7.30664 10.3676H9.30664ZM8.2325 7.78545C7.52438 7.07733 6.64188 6.7113 5.64062 6.7113V8.7113C6.11072 8.7113 6.48473 8.86611 6.81828 9.19966L8.2325 7.78545ZM5.64062 6.7113C5.64209 6.7113 5.68561 6.71135 5.752 6.737C5.82384 6.76476 5.89909 6.81376 5.96078 6.88367L4.4611 8.20691C4.79873 8.58955 5.25057 8.7113 5.64062 8.7113V6.7113ZM5.96078 6.88367C5.99105 6.91798 6.02021 6.96396 6.0402 7.0186C6.05987 7.07236 6.06445 7.11745 6.06445 7.1449H4.06445C4.06445 7.52924 4.19223 7.90219 4.4611 8.20691L5.96078 6.88367ZM6.06445 7.1449C6.06445 7.17197 6.05997 7.221 6.0374 7.28118C6.01426 7.3429 5.97938 7.39671 5.94047 7.43821L4.4814 6.07033C4.19292 6.37805 4.06445 6.76069 4.06445 7.1449H6.06445ZM5.96078 7.41589C5.89909 7.4858 5.82384 7.5348 5.752 7.56256C5.68561 7.58821 5.64209 7.58826 5.64062 7.58826V5.58826C5.25057 5.58826 4.79873 5.71001 4.4611 6.09265L5.96078 7.41589ZM5.64062 7.58826C6.63785 7.58826 7.51898 7.2285 8.22804 6.52831L6.82274 5.10523C6.49013 5.43369 6.11476 5.58826 5.64062 5.58826V7.58826ZM8.2325 6.52388C8.94247 5.81391 9.30664 4.92737 9.30664 3.92224H7.30664C7.30664 4.40149 7.14998 4.77797 6.81828 5.10967L8.2325 6.52388ZM9.30664 3.92224C9.30664 2.91685 8.9421 2.03107 8.22804 1.32594L6.82274 2.74902C7.15035 3.07253 7.30664 3.44325 7.30664 3.92224H9.30664ZM8.22804 1.32594C7.51898 0.625745 6.63785 0.265991 5.64062 0.265991V2.26599C6.11476 2.26599 6.49013 2.42056 6.82274 2.74902L8.22804 1.32594ZM5.64062 0.265991H0.865234V2.26599H5.64062V0.265991ZM0.865234 0.265991C0.86772 0.265991 0.909102 0.266203 0.972269 0.289707C1.04023 0.314993 1.11312 0.359959 1.17485 0.4258L-0.284225 1.79368C0.0515598 2.15185 0.487574 2.26599 0.865234 2.26599V0.265991ZM1.19515 0.44812C1.22543 0.482431 1.25458 0.528418 1.27457 0.583054C1.29424 0.636818 1.29883 0.681901 1.29883 0.709351H-0.701172C-0.701172 1.09369 -0.573392 1.46665 -0.304525 1.77136L1.19515 0.44812ZM1.29883 0.709351C1.29883 0.7368 1.29424 0.781883 1.27457 0.835647C1.25458 0.890283 1.22543 0.93627 1.19515 0.970582L-0.304525 -0.352662C-0.573392 -0.0479461 -0.701172 0.325007 -0.701172 0.709351H1.29883ZM1.19515 0.970582C1.13743 1.036 1.06498 1.08524 0.991194 1.11441C0.922269 1.14166 0.874096 1.14294 0.865234 1.14294V-0.857056C0.469009 -0.857056 0.0264248 -0.727738 -0.304525 -0.352662L1.19515 0.970582ZM0.865234 1.14294H5.64062V-0.857056H0.865234V1.14294ZM5.64062 1.14294C6.41458 1.14294 7.04785 1.40678 7.59643 1.96021L9.01686 0.552241C8.09408 -0.378705 6.95 -0.857056 5.64062 -0.857056V1.14294ZM7.60266 1.96644C8.15609 2.51502 8.41992 3.14828 8.41992 3.92224H10.4199C10.4199 2.61286 9.94157 1.46879 9.01063 0.546011L7.60266 1.96644ZM8.41992 3.92224C8.41992 4.41074 8.30014 4.85618 8.05667 5.27629L9.78708 6.27913C10.2077 5.5534 10.4199 4.76187 10.4199 3.92224H8.41992ZM8.05242 5.2837C7.80914 5.71188 7.4883 6.04309 7.08166 6.29186L8.12537 7.99793C8.8255 7.56962 9.38357 6.98938 9.79133 6.27172L8.05242 5.2837ZM16.5547 7.73083V6.73083H15.5547V7.73083H16.5547ZM16.5547 13.0043H15.5547V14.0043H16.5547V13.0043ZM25.0703 13.9906L24.3205 13.329L24.3177 13.3321L25.0703 13.9906ZM15.5781 13.9808L14.871 14.6879L14.8811 14.698L14.8915 14.7078L15.5781 13.9808ZM25.0703 6.74451L24.3021 7.38469L24.3111 7.39554L24.3205 7.40613L25.0703 6.74451ZM25.0703 7.56482L24.3021 6.92462L24.2984 6.92911L25.0703 7.56482ZM15.5586 1.12927L14.8088 1.79089L14.8294 1.8143L14.8515 1.83638L15.5586 1.12927ZM15.5586 0.318726L14.8112 -0.345638L14.8006 -0.333714L14.7904 -0.321459L15.5586 0.318726ZM25.0703 1.12927L24.3205 0.467645L24.3177 0.470768L25.0703 1.12927ZM24.6602 6.73083H16.5547V8.73083H24.6602V6.73083ZM15.5547 7.73083V13.0043H17.5547V7.73083H15.5547ZM16.5547 14.0043H24.6602V12.0043H16.5547V14.0043ZM24.6602 14.0043C24.6369 14.0043 24.5772 14.0002 24.5006 13.9674C24.4202 13.9329 24.3516 13.8797 24.3021 13.8202L25.8385 12.5399C25.5208 12.1585 25.0822 12.0043 24.6602 12.0043V14.0043ZM24.3021 13.8202C24.2795 13.7932 24.2555 13.7547 24.2384 13.7068C24.2215 13.6593 24.2168 13.6179 24.2168 13.5902H26.2168C26.2168 13.2062 26.0899 12.8415 25.8385 12.5399L24.3021 13.8202ZM24.2168 13.5902C24.2168 13.5628 24.2214 13.5177 24.2411 13.4639C24.261 13.4093 24.2902 13.3633 24.3205 13.329L25.8202 14.6522C26.089 14.3475 26.2168 13.9746 26.2168 13.5902H24.2168ZM24.3177 13.3321C24.386 13.2541 24.468 13.202 24.5434 13.1733C24.6129 13.1468 24.6585 13.1469 24.6602 13.1469V15.1469C25.0339 15.1469 25.4862 15.0339 25.8229 14.6491L24.3177 13.3321ZM24.6602 13.1469H15.998V15.1469H24.6602V13.1469ZM15.998 13.1469C16.0322 13.1469 16.0824 13.1531 16.1387 13.1754C16.1951 13.1977 16.2375 13.2281 16.2647 13.2538L14.8915 14.7078C15.1963 14.9957 15.5827 15.1469 15.998 15.1469V13.1469ZM16.2852 13.2737C16.3188 13.3073 16.3549 13.3567 16.3806 13.4201C16.4059 13.4827 16.4121 13.5368 16.4121 13.5707H14.4121C14.4121 13.9869 14.5646 14.3815 14.871 14.6879L16.2852 13.2737ZM16.4121 13.5707V7.1449H14.4121V13.5707H16.4121ZM16.4121 7.1449C16.4121 7.20454 16.3996 7.271 16.3717 7.33449C16.3447 7.39602 16.3123 7.43428 16.295 7.45161L14.8808 6.0374C14.598 6.32016 14.4121 6.70042 14.4121 7.1449H16.4121ZM16.295 7.45161C16.2739 7.47272 16.2334 7.50559 16.1722 7.53182C16.1099 7.55854 16.0484 7.56873 15.998 7.56873V5.56873C15.5592 5.56873 15.1729 5.7453 14.8808 6.0374L16.295 7.45161ZM15.998 7.56873H24.6602V5.56873H15.998V7.56873ZM24.6602 7.56873C24.6369 7.56873 24.5772 7.56465 24.5006 7.53182C24.4202 7.49733 24.3516 7.4441 24.3021 7.38469L25.8385 6.10432C25.5208 5.72299 25.0822 5.56873 24.6602 5.56873V7.56873ZM24.3205 7.40613C24.2902 7.37182 24.261 7.32583 24.2411 7.27119C24.2214 7.21743 24.2168 7.17235 24.2168 7.1449H26.2168C26.2168 6.76055 26.089 6.3876 25.8202 6.08289L24.3205 7.40613ZM24.2168 7.1449C24.2168 7.12508 24.22 7.08833 24.236 7.04258C24.2522 6.99594 24.2763 6.95553 24.3021 6.92463L25.8385 8.205C26.0964 7.89553 26.2168 7.52469 26.2168 7.1449H24.2168ZM24.2984 6.92911C24.3618 6.85205 24.4428 6.79536 24.5242 6.76238C24.5996 6.73189 24.6521 6.73083 24.6602 6.73083V8.73083C25.0533 8.73083 25.5115 8.60212 25.8422 8.20053L24.2984 6.92911ZM24.6602 0.285522H15.998V2.28552H24.6602V0.285522ZM15.998 0.285522C15.9941 0.285522 16.027 0.284843 16.0816 0.304245C16.1404 0.325145 16.207 0.363424 16.2657 0.422166L14.8515 1.83638C15.1921 2.17698 15.6223 2.28552 15.998 2.28552V0.285522ZM16.3084 0.467651C16.3387 0.501962 16.3679 0.547949 16.3879 0.602586C16.4075 0.656349 16.4121 0.701432 16.4121 0.728882H14.4121C14.4121 1.11323 14.5399 1.48618 14.8088 1.79089L16.3084 0.467651ZM16.4121 0.728882C16.4121 0.75661 16.4075 0.797946 16.3905 0.845492C16.3734 0.893364 16.3494 0.931837 16.3268 0.95891L14.7904 -0.321459C14.539 -0.0198512 14.4121 0.344894 14.4121 0.728882H16.4121ZM16.306 0.983089C16.2543 1.04128 16.1879 1.08738 16.118 1.11537C16.0523 1.14162 16.0064 1.14294 15.998 1.14294V-0.857056C15.5872 -0.857056 15.1436 -0.719612 14.8112 -0.345638L16.306 0.983089ZM15.998 1.14294H24.6602V-0.857056H15.998V1.14294ZM24.6602 1.14294C24.6369 1.14294 24.5772 1.13887 24.5006 1.10603C24.4202 1.07155 24.3516 1.01832 24.3021 0.95891L25.8385 -0.321459C25.5208 -0.702787 25.0822 -0.857056 24.6602 -0.857056V1.14294ZM24.3021 0.95891C24.2795 0.931837 24.2555 0.893364 24.2384 0.845492C24.2215 0.797946 24.2168 0.75661 24.2168 0.728882H26.2168C26.2168 0.344894 26.0899 -0.0198512 25.8385 -0.321459L24.3021 0.95891ZM24.2168 0.728882C24.2168 0.701432 24.2214 0.656349 24.2411 0.602586C24.261 0.547949 24.2902 0.501962 24.3205 0.467651L25.8202 1.79089C26.089 1.48618 26.2168 1.11323 26.2168 0.728882H24.2168ZM24.3177 0.470768C24.386 0.392789 24.468 0.340705 24.5434 0.311972C24.6129 0.28551 24.6585 0.285522 24.6602 0.285522V2.28552C25.0339 2.28552 25.4862 2.17257 25.8229 1.78778L24.3177 0.470768ZM37.6543 13.8832L36.7608 14.3323L36.8332 14.4763L36.9472 14.5903L37.6543 13.8832ZM32.2148 3.06287L33.1083 2.61372L31.2148 3.06287H32.2148ZM31.3555 14.0101L30.6484 14.7172L30.6605 14.7294L30.6732 14.7412L31.3555 14.0101ZM31.8145 0.162476L31.3672 1.0569L31.5092 1.12787L31.6661 1.15141L31.8145 0.162476ZM32.1367 0.387085L33.0314 -0.0595369L33.0061 -0.110317L32.9752 -0.157903L32.1367 0.387085ZM38.0352 12.2035L37.1404 12.6501L38.0329 14.438L38.929 12.6519L38.0352 12.2035ZM43.8945 0.523804L43.0114 0.0546485L43.0059 0.064959L43.0007 0.0753947L43.8945 0.523804ZM44.7051 0.348022L43.998 1.05513L44.0232 1.08035L44.0501 1.10371L44.7051 0.348022ZM44.6953 14.0004L45.3793 14.7299L45.391 14.7189L45.4024 14.7075L44.6953 14.0004ZM43.9629 13.9613L43.1244 14.5063L43.1404 14.5309L43.1578 14.5545L43.9629 13.9613ZM43.8359 3.0824H44.8359L42.9415 2.63518L43.8359 3.0824ZM38.4355 13.8832L39.0832 14.6451L39.2387 14.5129L39.33 14.3304L38.4355 13.8832ZM38.5478 13.434L33.1083 2.61372L31.3214 3.51201L36.7608 14.3323L38.5478 13.434ZM31.2148 3.06287V13.5902H33.2148V3.06287H31.2148ZM31.2148 13.5902C31.2148 13.5869 31.2152 13.5479 31.2365 13.4882C31.2593 13.4245 31.3 13.3545 31.3613 13.2933L32.7755 14.7075C33.1083 14.3746 33.2148 13.9552 33.2148 13.5902H31.2148ZM31.3613 13.2933C31.3966 13.2579 31.4504 13.2172 31.5226 13.1872C31.595 13.157 31.6634 13.1469 31.7168 13.1469V15.1469C32.1217 15.1469 32.4924 14.9905 32.7755 14.7075L31.3613 13.2933ZM31.7168 13.1469C31.7526 13.1469 31.8081 13.1528 31.8729 13.1774C31.939 13.2024 31.9951 13.2392 32.0378 13.2791L30.6732 14.7412C30.9701 15.0184 31.3403 15.1469 31.7168 15.1469V13.1469ZM32.0626 13.303C32.1279 13.3684 32.1683 13.441 32.1898 13.5025C32.2097 13.5596 32.209 13.594 32.209 13.5902H30.209C30.209 13.9497 30.309 14.3779 30.6484 14.7172L32.0626 13.303ZM32.209 13.5902V0.709351H30.209V13.5902H32.209ZM32.209 0.709351C32.209 0.633499 32.2286 0.762618 32.0966 0.922114C32.0262 1.00716 31.937 1.06938 31.8463 1.10593C31.7616 1.14002 31.6983 1.14294 31.6777 1.14294V-0.857056C31.3123 -0.857056 30.874 -0.737561 30.5558 -0.353022C30.2675 -0.00472426 30.209 0.407598 30.209 0.709351H32.209ZM31.6777 1.14294C31.6777 1.14294 31.6729 1.14295 31.6642 1.14244C31.6557 1.14194 31.6402 1.14076 31.6193 1.13778C31.599 1.13487 31.5673 1.12938 31.5281 1.11869C31.49 1.10828 31.4331 1.08983 31.3672 1.0569L32.2617 -0.731952C32.0077 -0.858935 31.7516 -0.857056 31.6777 -0.857056V1.14294ZM31.6661 1.15141C31.5799 1.13847 31.4942 1.10477 31.4209 1.05367C31.351 1.005 31.3134 0.955376 31.2983 0.932073L32.9752 -0.157903C32.7653 -0.48075 32.4273 -0.756787 31.9628 -0.826461L31.6661 1.15141ZM31.242 0.833707L37.1404 12.6501L38.9299 11.7569L33.0314 -0.0595369L31.242 0.833707ZM38.929 12.6519L44.7884 0.972213L43.0007 0.0753947L37.1413 11.7551L38.929 12.6519ZM44.7776 0.992959C44.7724 1.00284 44.7355 1.06691 44.644 1.1267C44.546 1.19069 44.4442 1.2113 44.373 1.2113V-0.788696C44.0936 -0.788696 43.8079 -0.716002 43.5504 -0.547842C43.2993 -0.383891 43.1273 -0.163565 43.0114 0.0546485L44.7776 0.992959ZM44.373 1.2113C44.3191 1.2113 44.2486 1.20132 44.173 1.17016C44.0971 1.13892 44.0385 1.09566 43.998 1.05513L45.4122 -0.359084C45.1314 -0.639896 44.7654 -0.788696 44.373 -0.788696V1.2113ZM44.0501 1.10371C43.9897 1.05131 43.9335 0.978878 43.8958 0.890867C43.8592 0.805502 43.8516 0.732752 43.8516 0.689819H45.8516C45.8516 0.291842 45.7021 -0.111149 45.36 -0.407667L44.0501 1.10371ZM43.8516 0.689819V13.5902H45.8516V0.689819H43.8516ZM43.8516 13.5902C43.8516 13.572 43.8545 13.5254 43.878 13.4637C43.9025 13.3994 43.9413 13.3402 43.9882 13.2933L45.4024 14.7075C45.7224 14.3875 45.8516 13.9818 45.8516 13.5902H43.8516ZM44.0114 13.2708C44.0139 13.2685 44.0445 13.2398 44.1059 13.2101C44.1712 13.1785 44.2697 13.1469 44.3926 13.1469V15.1469C44.8405 15.1469 45.1744 14.9219 45.3793 14.7299L44.0114 13.2708ZM44.3926 13.1469C44.398 13.1469 44.4543 13.1475 44.5351 13.1824C44.6234 13.2205 44.7068 13.2851 44.7679 13.3681L43.1578 14.5545C43.4876 15.0021 43.9748 15.1469 44.3926 15.1469V13.1469ZM44.8013 13.4163C44.7885 13.3966 44.8359 13.4603 44.8359 13.5902H42.8359C42.8359 13.9544 42.968 14.2656 43.1244 14.5063L44.8013 13.4163ZM44.8359 13.5902V3.0824H42.8359V13.5902H44.8359ZM42.9415 2.63518L37.5411 13.436L39.33 14.3304L44.7304 3.52961L42.9415 2.63518ZM37.7879 13.1212C37.788 13.1212 37.8097 13.1026 37.8548 13.0839C37.9025 13.0642 37.9647 13.0492 38.0352 13.0492V15.0492C38.4639 15.0492 38.8188 14.8699 39.0832 14.6451L37.7879 13.1212ZM38.0352 13.0492C38.0962 13.0492 38.1652 13.0618 38.2321 13.091C38.2973 13.1194 38.3397 13.1544 38.3614 13.1761L36.9472 14.5903C37.2262 14.8693 37.6008 15.0492 38.0352 15.0492V13.0492ZM60.0527 6.72498L60.7598 6.01787L60.0527 6.72498ZM60.0527 7.56482L59.3456 6.85771L60.0527 7.56482ZM51.0391 7.56482L51.7462 6.85771L51.0391 7.56482ZM51.4395 7.56873H59.6621V5.56873H51.4395V7.56873ZM59.6621 7.56873C59.6275 7.56873 59.5713 7.56257 59.5056 7.53626C59.4386 7.50949 59.3844 7.47084 59.3456 7.43208L60.7598 6.01787C60.4559 5.71391 60.0657 5.56873 59.6621 5.56873V7.56873ZM59.3456 7.43208C59.3325 7.419 59.3028 7.3848 59.2772 7.32689C59.2507 7.26684 59.2383 7.20295 59.2383 7.1449H61.2383C61.2383 6.69066 61.0466 6.30459 60.7598 6.01787L59.3456 7.43208ZM59.2383 7.1449C59.2383 7.08684 59.2507 7.02296 59.2772 6.9629C59.3028 6.905 59.3325 6.8708 59.3456 6.85771L60.7598 8.27193C61.0466 7.98521 61.2383 7.59913 61.2383 7.1449H59.2383ZM59.3456 6.85771C59.3713 6.83202 59.4161 6.79656 59.4809 6.769C59.5467 6.74107 59.6105 6.73083 59.6621 6.73083V8.73083C60.0902 8.73083 60.4711 8.56068 60.7598 8.27193L59.3456 6.85771ZM59.6621 6.73083H51.4395V8.73083H59.6621V6.73083ZM51.4395 6.73083C51.482 6.73083 51.5409 6.73894 51.6052 6.76559C51.6694 6.79223 51.7165 6.82807 51.7462 6.85771L50.332 8.27193C50.6298 8.56977 51.0175 8.73083 51.4395 8.73083V6.73083ZM51.7462 6.85771C51.7593 6.8708 51.789 6.905 51.8146 6.9629C51.8411 7.02296 51.8535 7.08684 51.8535 7.1449H49.8535C49.8535 7.59913 50.0452 7.98521 50.332 8.27193L51.7462 6.85771ZM51.8535 7.1449C51.8535 7.20295 51.8411 7.26684 51.8146 7.32689C51.789 7.3848 51.7593 7.419 51.7462 7.43208L50.332 6.01787C50.0452 6.30459 49.8535 6.69066 49.8535 7.1449H51.8535ZM51.7462 7.43208C51.7033 7.47494 51.6466 7.5137 51.5808 7.53937C51.517 7.56427 51.4657 7.56873 51.4395 7.56873V5.56873C51.042 5.56873 50.6442 5.70564 50.332 6.01787L51.7462 7.43208ZM78.2031 0.982788L77.3515 0.458691L77.3363 0.483274L77.3227 0.508688L78.2031 0.982788ZM75.4785 7.50623L74.5542 7.12468L74.5537 7.12591L75.4785 7.50623ZM72.9004 13.8246L73.8228 14.2107L73.9004 14.0254V13.8246H72.9004ZM71.8848 13.8246L72.8073 13.4384L72.8027 13.4278L71.8848 13.8246ZM66.3086 0.924194L67.2265 0.527426L67.2155 0.501876L67.203 0.476981L66.3086 0.924194ZM66.416 0.299194L65.7719 -0.465717L65.7617 -0.457101L65.7517 -0.448215L66.416 0.299194ZM67.3047 0.484741L66.3762 0.856132L66.3813 0.868948L66.3868 0.881618L67.3047 0.484741ZM72.3633 12.184L71.4454 12.5808L72.3839 14.7513L73.2874 12.5661L72.3633 12.184ZM74.4629 7.10583L75.387 7.48793L75.3892 7.48248L74.4629 7.10583ZM77.2656 0.426147L78.1247 0.937965L78.1283 0.931867L77.2656 0.426147ZM78.1152 0.30896L77.4081 1.01607L77.4188 1.02678L77.4299 1.03716L78.1152 0.30896ZM77.3227 0.508688C77.2721 0.602562 77.1745 0.829005 77.0617 1.0935C76.9353 1.38989 76.7582 1.81086 76.5309 2.3552C76.0759 3.4444 75.4169 5.03449 74.5542 7.12468L76.4029 7.88777C77.2654 5.79828 77.9231 4.21128 78.3764 3.126C78.6031 2.5831 78.778 2.16749 78.9014 1.87794C79.0385 1.55649 79.0886 1.44765 79.0836 1.45689L77.3227 0.508688ZM74.5537 7.12591C73.6942 9.21595 73.0493 10.7884 72.619 11.8428C72.404 12.3697 72.2421 12.7686 72.1336 13.0385C72.0796 13.173 72.0378 13.2781 72.009 13.3519C71.9949 13.388 71.9821 13.4213 71.9721 13.4487C71.9674 13.4612 71.9605 13.4804 71.9536 13.501C71.9506 13.5103 71.944 13.5305 71.937 13.5556C71.9337 13.5678 71.9274 13.5912 71.9213 13.621C71.9185 13.6344 71.9004 13.7175 71.9004 13.8246H73.9004C73.9004 13.9312 73.8824 14.0135 73.8798 14.0259C73.8739 14.0546 73.8679 14.0768 73.865 14.0875C73.8589 14.1095 73.8536 14.1257 73.8522 14.1299C73.8487 14.1404 73.8468 14.1454 73.8489 14.1397C73.8522 14.1305 73.8596 14.1113 73.8723 14.0785C73.8973 14.0145 73.936 13.9171 73.9894 13.7842C74.0958 13.5194 74.2561 13.1245 74.4708 12.5984C74.9 11.5466 75.5441 9.97619 76.4034 7.88654L74.5537 7.12591ZM71.978 13.4384C71.9609 13.4793 71.9728 13.4281 72.0531 13.363C72.0952 13.3288 72.1493 13.2967 72.2133 13.2743C72.277 13.252 72.3358 13.2445 72.3828 13.2445V15.2445C72.7198 15.2445 73.0438 15.1346 73.3131 14.9161C73.5659 14.711 73.7227 14.4499 73.8228 14.2107L71.978 13.4384ZM72.3828 13.2445C72.4398 13.2445 72.5065 13.2542 72.5758 13.2796C72.6449 13.305 72.7006 13.3403 72.7418 13.375C72.8186 13.4398 72.8275 13.4869 72.8072 13.4384L70.9623 14.2107C71.1593 14.6812 71.5992 15.2445 72.3828 15.2445V13.2445ZM72.8027 13.4278L67.2265 0.527426L65.3907 1.32096L70.9669 14.2214L72.8027 13.4278ZM67.203 0.476981C67.2007 0.472299 67.2083 0.486462 67.2173 0.517241C67.2261 0.547484 67.2402 0.607426 67.2402 0.689819H65.2402C65.2402 0.9735 65.3345 1.21207 65.4142 1.37141L67.203 0.476981ZM67.2402 0.689819C67.2402 0.739697 67.2301 0.809679 67.1961 0.88534C67.1621 0.960915 67.1167 1.01431 67.0804 1.0466L65.7517 -0.448215C65.4218 -0.155036 65.2402 0.246797 65.2402 0.689819H67.2402ZM67.0602 1.06411C67.0451 1.07674 67.0143 1.0986 66.9673 1.11649C66.9193 1.13479 66.87 1.14294 66.8262 1.14294V-0.857056C66.4212 -0.857056 66.0603 -0.708636 65.7719 -0.465717L67.0602 1.06411ZM66.8262 1.14294C66.7666 1.14294 66.6517 1.12516 66.5355 1.04213C66.4246 0.962911 66.3838 0.875186 66.3762 0.856132L68.2332 0.113351C68.1344 -0.133568 67.9683 -0.392192 67.6979 -0.58534C67.4222 -0.782303 67.1136 -0.857056 66.8262 -0.857056V1.14294ZM66.3868 0.881618L71.4454 12.5808L73.2812 11.7871L68.2226 0.087865L66.3868 0.881618ZM73.2874 12.5661L75.387 7.48793L73.5388 6.72374L71.4392 11.8019L73.2874 12.5661ZM75.3892 7.48248C76.2319 5.40999 76.8854 3.8206 77.3503 2.71247C77.583 2.15795 77.7669 1.72768 77.9029 1.41916C77.9711 1.2646 78.0254 1.14473 78.0667 1.05703C78.1132 0.95836 78.1295 0.929954 78.1247 0.937953L76.4065 -0.0856577C76.3227 0.0549685 76.2037 0.315625 76.0729 0.612339C75.9298 0.936955 75.7406 1.37989 75.5061 1.93865C75.0368 3.05708 74.3801 4.65455 73.5365 6.72919L75.3892 7.48248ZM78.1283 0.931867C78.1188 0.948103 78.0782 1.00945 77.9885 1.06478C77.8936 1.12334 77.7958 1.14294 77.7246 1.14294V-0.857056C77.1258 -0.857056 76.6671 -0.530177 76.4029 -0.0795721L78.1283 0.931867ZM77.7246 1.14294C77.673 1.14294 77.6092 1.13271 77.5434 1.10478C77.4786 1.07722 77.4338 1.04176 77.4081 1.01607L78.8223 -0.398147C78.5336 -0.686897 78.1527 -0.857056 77.7246 -0.857056V1.14294ZM77.4299 1.03716C77.3963 1.00558 77.3545 0.954087 77.3231 0.881885C77.2914 0.80935 77.2812 0.741157 77.2812 0.689819H79.2812C79.2812 0.259692 79.1086 -0.129314 78.8006 -0.41924L77.4299 1.03716ZM77.2812 0.689819C77.2812 0.637101 77.2958 0.549147 77.3515 0.458691L79.0548 1.50689C79.2146 1.24716 79.2812 0.963892 79.2812 0.689819H77.2812ZM85.2891 13.9711L84.6489 13.2028L84.614 13.2319L84.582 13.264L85.2891 13.9711ZM84.4688 13.9711L85.237 13.3309L85.1804 13.263L85.1129 13.2062L84.4688 13.9711ZM84.4688 0.328491L85.1129 1.0934L85.1785 1.03819L85.2337 0.972627L84.4688 0.328491ZM85.2891 0.328491L84.582 1.0356L84.614 1.06767L84.6489 1.09671L85.2891 0.328491ZM84.4648 0.728882V13.5707H86.4648V0.728882H84.4648ZM84.4648 13.5707C84.4648 13.5391 84.4707 13.4745 84.5053 13.3957C84.5411 13.3141 84.5942 13.2484 84.6489 13.2028L85.9292 14.7393C86.3012 14.4293 86.4648 14 86.4648 13.5707H84.4648ZM84.582 13.264C84.6068 13.2391 84.6494 13.2058 84.7101 13.1805C84.771 13.1549 84.8277 13.1469 84.8691 13.1469V15.1469C85.3025 15.1469 85.6953 14.9791 85.9962 14.6782L84.582 13.264ZM84.8691 13.1469C84.9008 13.1469 84.9653 13.1527 85.0441 13.1873C85.1257 13.2231 85.1914 13.2762 85.237 13.3309L83.7005 14.6113C84.0105 14.9832 84.4399 15.1469 84.8691 15.1469V13.1469ZM85.1129 13.2062C85.1516 13.2388 85.2004 13.2937 85.2369 13.3724C85.2733 13.4509 85.2832 13.5224 85.2832 13.5707H83.2832C83.2832 14.0262 83.4736 14.4404 83.8246 14.736L85.1129 13.2062ZM85.2832 13.5707V0.728882H83.2832V13.5707H85.2832ZM85.2832 0.728882C85.2832 0.777125 85.2733 0.848692 85.2369 0.927175C85.2004 1.00584 85.1516 1.06076 85.1129 1.0934L83.8246 -0.43642C83.4736 -0.140831 83.2832 0.273351 83.2832 0.728882H85.2832ZM85.2337 0.972627C85.201 1.01139 85.1461 1.06019 85.0674 1.09664C84.989 1.13301 84.9174 1.14294 84.8691 1.14294V-0.857056C84.4136 -0.857056 83.9994 -0.666656 83.7038 -0.315645L85.2337 0.972627ZM84.8691 1.14294C84.8111 1.14294 84.7472 1.13055 84.6871 1.10402C84.6292 1.07843 84.595 1.04868 84.582 1.0356L85.9962 -0.378616C85.7094 -0.665335 85.3234 -0.857056 84.8691 -0.857056V1.14294ZM84.6489 1.09671C84.5942 1.05118 84.5411 0.985482 84.5053 0.903821C84.4707 0.825031 84.4648 0.760506 84.4648 0.728882H86.4648C86.4648 0.299595 86.3012 -0.129736 85.9292 -0.43973L84.6489 1.09671ZM91.6133 0.318726L90.8659 -0.345638L90.8553 -0.333714L90.8451 -0.321459L91.6133 0.318726ZM92.4727 0.445679L93.2756 -0.150368L93.2637 -0.166467L93.2511 -0.182074L92.4727 0.445679ZM100.969 11.891L100.166 12.487L101.969 14.9158V11.891H100.969ZM101.125 0.357788L101.784 1.11036L101.796 1.09906L101.809 1.08733L101.125 0.357788ZM101.906 0.357788L101.245 1.10763L101.257 1.11889L101.271 1.12972L101.906 0.357788ZM101.086 13.8051L101.906 13.2333L101.896 13.219L101.886 13.2052L101.086 13.8051ZM92.5703 2.44763L93.3704 1.84774L91.5703 -0.553056V2.44763H92.5703ZM92.4043 14.0101L93.0628 14.7627L93.0659 14.76L92.4043 14.0101ZM91.623 14.0101L90.9391 14.7397L90.9516 14.7514L90.9645 14.7627L91.623 14.0101ZM92.4668 13.5902V0.787476H90.4668V13.5902H92.4668ZM92.4668 0.787476C92.4668 0.772054 92.4688 0.787117 92.4579 0.822079C92.4461 0.859781 92.4225 0.909655 92.3815 0.95891L90.8451 -0.321459C90.5598 0.0209106 90.4668 0.42516 90.4668 0.787476H92.4668ZM92.3607 0.983089C92.3404 1.00586 92.295 1.04927 92.2192 1.08612C92.1402 1.12455 92.0546 1.14294 91.9746 1.14294V-0.857056C91.5089 -0.857056 91.129 -0.641634 90.8659 -0.345638L92.3607 0.983089ZM91.9746 1.14294C91.8503 1.14294 91.7566 1.10352 91.7067 1.07315C91.664 1.04722 91.6626 1.03425 91.6942 1.07343L93.2511 -0.182074C93.0009 -0.492285 92.5785 -0.857056 91.9746 -0.857056V1.14294ZM91.6697 1.04173L100.166 12.487L101.772 11.2949L93.2756 -0.150368L91.6697 1.04173ZM101.969 11.891V0.748413H99.9688V11.891H101.969ZM101.969 0.748413C101.969 0.765323 101.966 0.820476 101.936 0.895194C101.904 0.974673 101.852 1.05055 101.784 1.11036L100.466 -0.394789C100.098 -0.0721192 99.9688 0.360679 99.9688 0.748413H101.969ZM101.809 1.08733C101.772 1.12231 101.72 1.15707 101.657 1.18127C101.595 1.20515 101.541 1.2113 101.506 1.2113V-0.788696C101.116 -0.788696 100.74 -0.652277 100.441 -0.371749L101.809 1.08733ZM101.506 1.2113C101.478 1.2113 101.433 1.20672 101.38 1.18705C101.325 1.16706 101.279 1.1379 101.245 1.10763L102.568 -0.39205C102.263 -0.660916 101.89 -0.788696 101.506 -0.788696V1.2113ZM101.271 1.12972C101.204 1.07451 101.147 0.999856 101.11 0.914944C101.076 0.834559 101.072 0.772297 101.072 0.748413H103.072C103.072 0.340293 102.926 -0.0979482 102.542 -0.414142L101.271 1.12972ZM101.072 0.748413V13.4828H103.072V0.748413H101.072ZM101.072 13.4828C101.072 13.5405 101.06 13.47 101.135 13.366L102.756 14.537C103 14.1987 103.072 13.8157 103.072 13.4828H101.072ZM101.135 13.366C101.168 13.3194 101.231 13.2524 101.331 13.1996C101.433 13.1457 101.534 13.1273 101.613 13.1273V15.1273C102.092 15.1273 102.496 14.897 102.756 14.537L101.135 13.366ZM101.613 13.1273C101.7 13.1273 101.786 13.1533 101.852 13.1935C101.909 13.2286 101.923 13.2568 101.906 13.2333L100.266 14.3768C100.541 14.7714 100.99 15.1273 101.613 15.1273V13.1273ZM101.886 13.2052L93.3704 1.84774L91.7702 3.04752L100.286 14.4049L101.886 13.2052ZM91.5703 2.44763V13.5902H93.5703V2.44763H91.5703ZM91.5703 13.5902C91.5703 13.5813 91.5716 13.5332 91.5988 13.4643C91.628 13.3905 91.6773 13.318 91.7427 13.2603L93.0659 14.76C93.441 14.429 93.5703 13.9864 93.5703 13.5902H91.5703ZM91.7458 13.2576C91.7895 13.2193 91.8423 13.1884 91.8982 13.1688C91.9523 13.1499 91.994 13.1469 92.0137 13.1469V15.1469C92.3788 15.1469 92.7527 15.034 93.0628 14.7627L91.7458 13.2576ZM92.0137 13.1469C92.0333 13.1469 92.075 13.1499 92.1292 13.1688C92.1851 13.1884 92.2378 13.2193 92.2816 13.2576L90.9645 14.7627C91.2746 15.034 91.6486 15.1469 92.0137 15.1469V13.1469ZM92.307 13.2806C92.3728 13.3423 92.4178 13.4152 92.4431 13.4832C92.4666 13.5463 92.4668 13.5877 92.4668 13.5902H90.4668C90.4668 13.9679 90.5809 14.4039 90.9391 14.7397L92.307 13.2806ZM118.973 4.43005L118.054 4.82397L118.973 4.43005ZM118.973 9.85974L118.054 9.46582L118.973 9.85974ZM108.211 13.9906L107.461 14.6522L107.482 14.6756L107.504 14.6977L108.211 13.9906ZM108.211 13.1801L107.464 12.5157L107.453 12.5276L107.443 12.5399L108.211 13.1801ZM114.793 12.5453L115.186 13.4649L115.19 13.4631L114.793 12.5453ZM116.658 11.2953L117.365 12.0024L116.658 11.2953ZM117.898 9.43005L116.979 9.03613L116.978 9.04014L117.898 9.43005ZM117.898 4.86951L116.976 5.25648L116.981 5.26642L117.898 4.86951ZM116.658 2.99451L117.365 2.2874L116.658 2.99451ZM114.793 1.75427L114.393 2.67087L114.403 2.67513L114.793 1.75427ZM108.211 1.12927L107.461 1.79089L107.482 1.8143L107.504 1.83638L108.211 1.12927ZM108.211 0.318726L107.464 -0.345638L107.453 -0.333714L107.443 -0.321459L108.211 0.318726ZM108.65 1.14294H112.527V-0.857056H108.65V1.14294ZM112.527 1.14294C113.336 1.14294 114.107 1.3011 114.848 1.61873L115.636 -0.21956C114.645 -0.644115 113.606 -0.857056 112.527 -0.857056V1.14294ZM114.848 1.61873C115.605 1.94304 116.242 2.37159 116.771 2.90083L118.186 1.48662C117.465 0.765864 116.611 0.198314 115.636 -0.21956L114.848 1.61873ZM116.771 2.90083C117.301 3.43008 117.729 4.06724 118.054 4.82397L119.892 4.03613C119.474 3.06109 118.906 2.20737 118.186 1.48662L116.771 2.90083ZM118.054 4.82397C118.371 5.56512 118.529 6.33602 118.529 7.1449H120.529C120.529 6.06575 120.316 5.02676 119.892 4.03613L118.054 4.82397ZM118.529 7.1449C118.529 7.95377 118.371 8.72468 118.054 9.46582L119.892 10.2537C120.316 9.26303 120.529 8.22404 120.529 7.1449H118.529ZM118.054 9.46582C117.729 10.2226 117.301 10.8597 116.771 11.389L118.186 12.8032C118.906 12.0824 119.474 11.2287 119.892 10.2537L118.054 9.46582ZM116.771 11.389C116.242 11.9182 115.605 12.3468 114.848 12.6711L115.636 14.5094C116.611 14.0915 117.465 13.5239 118.186 12.8032L116.771 11.389ZM114.848 12.6711C114.107 12.9887 113.336 13.1469 112.527 13.1469V15.1469C113.606 15.1469 114.645 14.9339 115.636 14.5094L114.848 12.6711ZM112.527 13.1469H108.65V15.1469H112.527V13.1469ZM108.65 13.1469C108.646 13.1469 108.679 13.1462 108.734 13.1656C108.793 13.1865 108.859 13.2248 108.918 13.2835L107.504 14.6977C107.844 15.0383 108.275 15.1469 108.65 15.1469V13.1469ZM108.961 13.329C108.991 13.3633 109.02 13.4093 109.04 13.4639C109.06 13.5177 109.064 13.5628 109.064 13.5902H107.064C107.064 13.9746 107.192 14.3475 107.461 14.6522L108.961 13.329ZM109.064 13.5902C109.064 13.6179 109.06 13.6593 109.043 13.7068C109.026 13.7547 109.002 13.7932 108.979 13.8202L107.443 12.5399C107.191 12.8415 107.064 13.2062 107.064 13.5902H109.064ZM108.958 13.8444C108.907 13.9026 108.84 13.9487 108.77 13.9767C108.705 14.003 108.659 14.0043 108.65 14.0043V12.0043C108.24 12.0043 107.796 12.1417 107.464 12.5157L108.958 13.8444ZM108.65 14.0043H112.527V12.0043H108.65V14.0043ZM112.527 14.0043C113.454 14.0043 114.343 13.825 115.186 13.4649L114.4 11.6257C113.811 11.8776 113.189 12.0043 112.527 12.0043V14.0043ZM115.19 13.4631C116.02 13.1041 116.749 12.6184 117.365 12.0024L115.951 10.5882C115.525 11.0138 115.011 11.3615 114.396 11.6274L115.19 13.4631ZM117.365 12.0024C117.983 11.3847 118.466 10.6533 118.819 9.81996L116.978 9.04014C116.718 9.65214 116.375 10.1642 115.951 10.5882L117.365 12.0024ZM118.818 9.82397C119.183 8.97017 119.367 8.07443 119.367 7.1449H117.367C117.367 7.80391 117.238 8.4316 116.979 9.03613L118.818 9.82397ZM119.367 7.1449C119.367 6.21534 119.183 5.32169 118.816 4.4726L116.981 5.26642C117.238 5.86263 117.367 6.48591 117.367 7.1449H119.367ZM118.821 4.48255C118.468 3.64262 117.984 2.90657 117.365 2.2874L115.951 3.70161C116.374 4.12411 116.717 4.63806 116.976 5.25646L118.821 4.48255ZM117.365 2.2874C116.748 1.66974 116.016 1.18626 115.183 0.83342L114.403 2.67513C115.015 2.93426 115.527 3.27761 115.951 3.70161L117.365 2.2874ZM115.193 0.837733C114.348 0.469258 113.457 0.285522 112.527 0.285522V2.28552C113.186 2.28552 113.805 2.41429 114.393 2.67081L115.193 0.837733ZM112.527 0.285522H108.65V2.28552H112.527V0.285522ZM108.65 0.285522C108.646 0.285522 108.679 0.284843 108.734 0.304245C108.793 0.325145 108.859 0.363424 108.918 0.422166L107.504 1.83638C107.844 2.17698 108.275 2.28552 108.65 2.28552V0.285522ZM108.961 0.467651C108.991 0.501962 109.02 0.547949 109.04 0.602586C109.06 0.656349 109.064 0.701432 109.064 0.728882H107.064C107.064 1.11323 107.192 1.48618 107.461 1.79089L108.961 0.467651ZM109.064 0.728882C109.064 0.75661 109.06 0.797946 109.043 0.845492C109.026 0.893364 109.002 0.931837 108.979 0.95891L107.443 -0.321459C107.191 -0.0198512 107.064 0.344894 107.064 0.728882H109.064ZM108.958 0.983089C108.907 1.04128 108.84 1.08738 108.77 1.11537C108.705 1.14162 108.659 1.14294 108.65 1.14294V-0.857056C108.24 -0.857056 107.796 -0.719612 107.464 -0.345638L108.958 0.983089ZM136.801 11.3246L137.508 12.0317L136.801 11.3246ZM137.508 2.2581C136.163 0.913173 134.516 0.226929 132.621 0.226929V2.22693C133.981 2.22693 135.121 2.69954 136.094 3.67232L137.508 2.2581ZM132.621 0.226929C130.726 0.226929 129.079 0.913173 127.734 2.2581L129.149 3.67232C130.121 2.69954 131.261 2.22693 132.621 2.22693V0.226929ZM127.734 2.2581C126.389 3.60303 125.703 5.25002 125.703 7.1449H127.703C127.703 5.78457 128.176 4.64509 129.149 3.67232L127.734 2.2581ZM125.703 7.1449C125.703 9.03978 126.389 10.6868 127.734 12.0317L129.149 10.6175C128.176 9.6447 127.703 8.50523 127.703 7.1449H125.703ZM127.734 12.0317C129.079 13.3766 130.726 14.0629 132.621 14.0629V12.0629C131.261 12.0629 130.121 11.5903 129.149 10.6175L127.734 12.0317ZM132.621 14.0629C134.516 14.0629 136.163 13.3766 137.508 12.0317L136.094 10.6175C135.121 11.5903 133.981 12.0629 132.621 12.0629V14.0629ZM137.508 12.0317C138.857 10.6823 139.549 9.03612 139.549 7.1449H137.549C137.549 8.49586 137.075 9.63615 136.094 10.6175L137.508 12.0317ZM139.549 7.1449C139.549 5.25367 138.857 3.6075 137.508 2.2581L136.094 3.67232C137.075 4.65365 137.549 5.79393 137.549 7.1449H139.549ZM136.934 11.4573C135.734 12.6567 134.315 13.2445 132.621 13.2445V15.2445C134.846 15.2445 136.774 14.4456 138.348 12.8715L136.934 11.4573ZM132.621 13.2445C130.927 13.2445 129.508 12.6567 128.309 11.4573L126.894 12.8715C128.469 14.4456 130.396 15.2445 132.621 15.2445V13.2445ZM128.309 11.4573C127.109 10.258 126.521 8.83909 126.521 7.1449H124.521C124.521 9.36998 125.32 11.2974 126.894 12.8715L128.309 11.4573ZM126.521 7.1449C126.521 5.4507 127.109 4.03182 128.309 2.83247L126.894 1.41826C125.32 2.99235 124.521 4.91982 124.521 7.1449H126.521ZM128.309 2.83247C129.508 1.63313 130.927 1.04529 132.621 1.04529V-0.954712C130.396 -0.954712 128.469 -0.155836 126.894 1.41826L128.309 2.83247ZM132.621 1.04529C134.315 1.04529 135.734 1.63313 136.934 2.83247L138.348 1.41826C136.774 -0.155836 134.846 -0.954712 132.621 -0.954712V1.04529ZM136.934 2.83247C138.133 4.03182 138.721 5.4507 138.721 7.1449H140.721C140.721 4.91982 139.922 2.99235 138.348 1.41826L136.934 2.83247ZM138.721 7.1449C138.721 8.83909 138.133 10.258 136.934 11.4573L138.348 12.8715C139.922 11.2974 140.721 9.36998 140.721 7.1449H138.721ZM169.771 1.87146L169.06 2.57422L169.069 2.58294L169.771 1.87146ZM171.031 3.74646L170.112 4.14038L171.031 3.74646ZM170.533 14.0101L169.849 14.7397L169.873 14.7616L169.897 14.7821L170.533 14.0101ZM168.971 2.67224L168.261 3.3769L168.266 3.38181L168.971 2.67224ZM162.232 2.67224L162.94 3.37935L162.942 3.37688L162.232 2.67224ZM160.67 14.0101L161.328 14.7627L161.332 14.76L160.67 14.0101ZM159.879 14.0004L159.217 14.7502L159.879 14.0004ZM160.713 13.5902V6.03162H158.713V13.5902H160.713ZM160.713 6.03162C160.713 5.14487 160.931 4.33588 161.368 3.58588L159.64 2.57891C159.022 3.63881 158.713 4.79597 158.713 6.03162H160.713ZM161.368 3.58588C161.808 2.83024 162.4 2.2383 163.156 1.79796L162.149 0.0699557C161.095 0.684304 160.254 1.52466 159.64 2.57891L161.368 3.58588ZM163.156 1.79796C163.906 1.36091 164.715 1.14294 165.602 1.14294V-0.857056C164.366 -0.857056 163.209 -0.547682 162.149 0.0699557L163.156 1.79796ZM165.602 1.14294C166.268 1.14294 166.899 1.2722 167.503 1.53084L168.29 -0.307451C167.436 -0.673813 166.536 -0.857056 165.602 -0.857056V1.14294ZM167.503 1.53084C168.121 1.79602 168.636 2.14514 169.06 2.57416L170.483 1.16876C169.865 0.543094 169.13 0.0523666 168.29 -0.307451L167.503 1.53084ZM169.069 2.58294C169.498 3.00667 169.847 3.52162 170.112 4.14038L171.95 3.35254C171.591 2.51297 171.1 1.77792 170.474 1.15998L169.069 2.58294ZM170.112 4.14038C170.371 4.74491 170.5 5.3726 170.5 6.03162H172.5C172.5 5.10209 172.316 4.20634 171.95 3.35254L170.112 4.14038ZM170.5 6.03162V13.5902H172.5V6.03162H170.5ZM170.5 13.5902C170.5 13.5737 170.503 13.5207 170.532 13.4494C170.562 13.3739 170.611 13.3042 170.672 13.2505L171.996 14.7502C172.363 14.4263 172.5 13.9929 172.5 13.5902H170.5ZM170.672 13.2505C170.707 13.2203 170.753 13.1911 170.807 13.1711C170.861 13.1514 170.906 13.1469 170.934 13.1469V15.1469C171.318 15.1469 171.691 15.0191 171.996 14.7502L170.672 13.2505ZM170.934 13.1469C170.954 13.1469 170.992 13.15 171.039 13.1663C171.088 13.1831 171.133 13.2086 171.169 13.2382L169.897 14.7821C170.204 15.0342 170.568 15.1469 170.934 15.1469V13.1469ZM171.217 13.2806C171.283 13.3423 171.328 13.4152 171.353 13.4832C171.377 13.5463 171.377 13.5877 171.377 13.5902H169.377C169.377 13.9679 169.491 14.4039 169.849 14.7397L171.217 13.2806ZM171.377 13.5902V6.03162H169.377V13.5902H171.377ZM171.377 6.03162C171.377 4.45372 170.8 3.07936 169.675 1.96267L168.266 3.38181C169.017 4.1271 169.377 4.99233 169.377 6.03162H171.377ZM169.68 1.9676C168.563 0.842049 167.184 0.265991 165.602 0.265991V2.26599C166.649 2.26599 167.517 2.62743 168.261 3.37688L169.68 1.9676ZM165.602 0.265991C164.019 0.265991 162.641 0.842049 161.523 1.9676L162.942 3.37688C163.686 2.62743 164.554 2.26599 165.602 2.26599V0.265991ZM161.525 1.96513C160.408 3.08237 159.836 4.45598 159.836 6.03162H161.836C161.836 4.99006 162.195 4.1241 162.94 3.37935L161.525 1.96513ZM159.836 6.03162V13.5902H161.836V6.03162H159.836ZM159.836 13.5902C159.836 13.5813 159.837 13.5332 159.864 13.4643C159.894 13.3905 159.943 13.318 160.008 13.2603L161.332 14.76C161.707 14.429 161.836 13.9864 161.836 13.5902H159.836ZM160.011 13.2576C160.055 13.2193 160.108 13.1884 160.164 13.1688C160.218 13.1499 160.26 13.1469 160.279 13.1469V15.1469C160.644 15.1469 161.018 15.034 161.328 14.7627L160.011 13.2576ZM160.279 13.1469C160.307 13.1469 160.352 13.1514 160.406 13.1711C160.46 13.1911 160.506 13.2203 160.541 13.2505L159.217 14.7502C159.522 15.0191 159.895 15.1469 160.279 15.1469V13.1469ZM160.541 13.2505C160.601 13.3042 160.651 13.3739 160.681 13.4494C160.71 13.5207 160.713 13.5737 160.713 13.5902H158.713C158.713 13.9929 158.85 14.4263 159.217 14.7502L160.541 13.2505ZM188.781 11.3246L189.488 12.0317L188.781 11.3246ZM189.488 2.2581C188.143 0.913173 186.496 0.226929 184.602 0.226929V2.22693C185.962 2.22693 187.101 2.69954 188.074 3.67232L189.488 2.2581ZM184.602 0.226929C182.707 0.226929 181.06 0.913173 179.715 2.2581L181.129 3.67232C182.102 2.69954 183.241 2.22693 184.602 2.22693V0.226929ZM179.715 2.2581C178.37 3.60303 177.684 5.25002 177.684 7.1449H179.684C179.684 5.78457 180.156 4.64509 181.129 3.67232L179.715 2.2581ZM177.684 7.1449C177.684 9.03978 178.37 10.6868 179.715 12.0317L181.129 10.6175C180.156 9.6447 179.684 8.50523 179.684 7.1449H177.684ZM179.715 12.0317C181.06 13.3766 182.707 14.0629 184.602 14.0629V12.0629C183.241 12.0629 182.102 11.5903 181.129 10.6175L179.715 12.0317ZM184.602 14.0629C186.496 14.0629 188.143 13.3766 189.488 12.0317L188.074 10.6175C187.101 11.5903 185.962 12.0629 184.602 12.0629V14.0629ZM189.488 12.0317C190.838 10.6823 191.529 9.03612 191.529 7.1449H189.529C189.529 8.49586 189.055 9.63615 188.074 10.6175L189.488 12.0317ZM191.529 7.1449C191.529 5.25367 190.838 3.6075 189.488 2.2581L188.074 3.67232C189.055 4.65365 189.529 5.79393 189.529 7.1449H191.529ZM188.914 11.4573C187.715 12.6567 186.296 13.2445 184.602 13.2445V15.2445C186.827 15.2445 188.754 14.4456 190.328 12.8715L188.914 11.4573ZM184.602 13.2445C182.907 13.2445 181.488 12.6567 180.289 11.4573L178.875 12.8715C180.449 14.4456 182.376 15.2445 184.602 15.2445V13.2445ZM180.289 11.4573C179.09 10.258 178.502 8.83909 178.502 7.1449H176.502C176.502 9.36998 177.301 11.2974 178.875 12.8715L180.289 11.4573ZM178.502 7.1449C178.502 5.4507 179.09 4.03182 180.289 2.83247L178.875 1.41826C177.301 2.99235 176.502 4.91982 176.502 7.1449H178.502ZM180.289 2.83247C181.488 1.63313 182.907 1.04529 184.602 1.04529V-0.954712C182.376 -0.954712 180.449 -0.155836 178.875 1.41826L180.289 2.83247ZM184.602 1.04529C186.296 1.04529 187.715 1.63313 188.914 2.83247L190.328 1.41826C188.754 -0.155836 186.827 -0.954712 184.602 -0.954712V1.04529ZM188.914 2.83247C190.113 4.03182 190.701 5.4507 190.701 7.1449H192.701C192.701 4.91982 191.902 2.99235 190.328 1.41826L188.914 2.83247ZM190.701 7.1449C190.701 8.83909 190.113 10.258 188.914 11.4573L190.328 12.8715C191.902 11.2974 192.701 9.36998 192.701 7.1449H190.701Z" fill="white" mask="url(#path-1-outside-1_144_56)"/>
</svg>
