<svg width="83" height="83" viewBox="0 0 83 83" fill="none" xmlns="http://www.w3.org/2000/svg">
<g filter="url(#filter0_d_369_98)">
<circle cx="41.5" cy="37.5" r="37.5" fill="#142944"/>
</g>
<path d="M44.6826 45.8178C44.6826 43.9428 43.3938 41.3803 41.0576 38.6016C40.9283 38.4473 40.7663 38.3237 40.5835 38.2396C40.4006 38.1555 40.2013 38.1131 40.0001 38.1153V38.1153C39.7973 38.1144 39.5968 38.1576 39.4124 38.242C39.2281 38.3264 39.0643 38.45 38.9326 38.6041C36.3751 41.6003 35.1251 44.2503 35.3413 46.2816C35.4264 46.9238 35.6466 47.5407 35.9875 48.0916C36.3283 48.6426 36.7821 49.115 37.3188 49.4778C38.078 50.1004 39.0191 50.4592 40.0001 50.5003C41.2415 50.499 42.4318 50.0052 43.3096 49.1274C44.1875 48.2495 44.6812 47.0593 44.6826 45.8178Z" fill="#FFA800"/>
<path d="M45.7862 26.6255C44.8037 25.7905 43.7725 24.9155 42.7225 23.9605C42.3244 23.5991 41.852 23.329 41.3386 23.1692C40.8251 23.0094 40.2829 22.9638 39.75 23.0355C39.2335 23.1039 38.7383 23.2849 38.2994 23.5657C37.8605 23.8465 37.4886 24.2202 37.21 24.6605C35.7205 27.1503 34.667 29.8762 34.095 32.7205C33.8712 32.3965 33.6723 32.0559 33.5 31.7018C33.3231 31.329 33.0566 31.0058 32.7244 30.7611C32.3922 30.5163 32.0046 30.3576 31.5962 30.299C31.1877 30.2405 30.7711 30.2839 30.3836 30.4255C29.996 30.5671 29.6495 30.8025 29.375 31.1105C27.2791 33.2535 26.1173 36.1394 26.1437 39.1368C26.1148 42.1986 27.1105 45.1821 28.9726 47.6128C30.8347 50.0434 33.4562 51.7815 36.42 52.5505C37.5548 52.8361 38.7198 52.9838 39.89 52.9905C38.3947 52.9348 36.9574 52.3972 35.7925 51.458C34.9855 50.8901 34.307 50.1588 33.8009 49.3116C33.2948 48.4644 32.9726 47.5203 32.855 46.5405C32.5675 43.778 33.9712 40.5618 37.0275 36.9818C37.3941 36.552 37.8499 36.2072 38.3632 35.9712C38.8766 35.7353 39.4351 35.6139 40 35.6155H40.0125C40.5758 35.616 41.1322 35.7393 41.643 35.9767C42.1537 36.2142 42.6066 36.5602 42.97 36.9905C44.8925 39.2743 47.1862 42.6593 47.1862 45.8168C47.1835 47.6364 46.4905 49.3872 45.2472 50.7159C44.004 52.0446 42.3029 52.8521 40.4875 52.9755C44.0771 52.8599 47.4806 51.3514 49.9772 48.7697C52.4738 46.1879 53.8673 42.7357 53.8625 39.1443C53.8562 33.4818 50.1162 30.3068 45.7862 26.6255Z" fill="#FFA800"/>
<defs>
<filter id="filter0_d_369_98" x="0" y="0" width="83" height="83" filterUnits="userSpaceOnUse" color-interpolation-filters="sRGB">
<feFlood flood-opacity="0" result="BackgroundImageFix"/>
<feColorMatrix in="SourceAlpha" type="matrix" values="0 0 0 0 0 0 0 0 0 0 0 0 0 0 0 0 0 0 127 0" result="hardAlpha"/>
<feOffset dy="4"/>
<feGaussianBlur stdDeviation="2"/>
<feComposite in2="hardAlpha" operator="out"/>
<feColorMatrix type="matrix" values="0 0 0 0 0 0 0 0 0 0 0 0 0 0 0 0 0 0 0.1 0"/>
<feBlend mode="normal" in2="BackgroundImageFix" result="effect1_dropShadow_369_98"/>
<feBlend mode="normal" in="SourceGraphic" in2="effect1_dropShadow_369_98" result="shape"/>
</filter>
</defs>
</svg>
