<svg width="23" height="23" viewBox="0 0 23 23" fill="none" xmlns="http://www.w3.org/2000/svg">
<path d="M11.5 0C9.22552 0 7.00211 0.674463 5.11095 1.9381C3.21978 3.20174 1.7458 4.99779 0.875391 7.09914C0.00498279 9.20049 -0.222756 11.5128 0.220974 13.7435C0.664704 15.9743 1.75997 18.0234 3.36828 19.6317C4.97658 21.24 7.02569 22.3353 9.25647 22.779C11.4872 23.2228 13.7995 22.995 15.9009 22.1246C18.0022 21.2542 19.7983 19.7802 21.0619 17.8891C22.3255 15.9979 23 13.7745 23 11.5C22.9967 8.45102 21.784 5.52787 19.6281 3.37191C17.4721 1.21596 14.549 0.0032977 11.5 0V0ZM21.0833 11.5C21.0845 13.3781 20.5303 15.2145 19.4906 16.7785L18.3483 15.6352C18.2587 15.5454 18.2084 15.4238 18.2083 15.2969V14.375C18.2083 13.6125 17.9054 12.8812 17.3663 12.3421C16.8271 11.8029 16.0958 11.5 15.3333 11.5H12.4583C12.2042 11.5 11.9604 11.399 11.7807 11.2193C11.601 11.0396 11.5 10.7958 11.5 10.5417V10.0625C11.5 9.93542 11.5505 9.81354 11.6403 9.72368C11.7302 9.63382 11.8521 9.58333 11.9792 9.58333C12.6146 9.58333 13.224 9.33092 13.6733 8.88161C14.1226 8.43231 14.375 7.82292 14.375 7.1875V6.22917C14.375 6.10208 14.4255 5.98021 14.5153 5.89035C14.6052 5.80048 14.7271 5.75 14.8542 5.75H16.1757C16.8105 5.74819 17.419 5.49613 17.8691 5.0485L18.2304 4.68721C19.1343 5.57662 19.852 6.63707 20.3419 7.80675C20.8317 8.97642 21.0837 10.2319 21.0833 11.5ZM1.96363 12.4229L4.99005 15.4493C5.25637 15.7173 5.57327 15.9298 5.92236 16.0744C6.27145 16.219 6.64578 16.2929 7.02363 16.2917H9.58334C9.8375 16.2917 10.0813 16.3926 10.261 16.5724C10.4407 16.7521 10.5417 16.9958 10.5417 17.25V21.0345C8.33769 20.8095 6.27938 19.829 4.71589 18.2594C3.15241 16.6898 2.18 14.6277 1.96363 12.4229ZM12.4583 21.0345V17.25C12.4583 16.4875 12.1554 15.7562 11.6163 15.2171C11.0771 14.6779 10.3458 14.375 9.58334 14.375H7.02363C6.89763 14.3751 6.77284 14.3504 6.65642 14.3022C6.53999 14.254 6.43421 14.1833 6.34513 14.0942L2.07288 9.82196C2.34713 8.26294 3.00413 6.7964 3.98492 5.55391C4.96572 4.31142 6.23963 3.33185 7.69235 2.70309C9.14507 2.07433 10.7312 1.81606 12.3083 1.95144C13.8855 2.08682 15.4044 2.61162 16.7287 3.47875L16.514 3.69342C16.4238 3.78238 16.3024 3.83258 16.1757 3.83333H14.8542C14.2188 3.83333 13.6094 4.08575 13.1601 4.53506C12.7108 4.98436 12.4583 5.59375 12.4583 6.22917V7.1875C12.4583 7.31458 12.4079 7.43646 12.318 7.52632C12.2281 7.61618 12.1063 7.66667 11.9792 7.66667C11.3438 7.66667 10.7344 7.91909 10.2851 8.36839C9.83576 8.8177 9.58334 9.42709 9.58334 10.0625V10.5417C9.58334 11.3042 9.88624 12.0354 10.4254 12.5746C10.9646 13.1138 11.6958 13.4167 12.4583 13.4167H15.3333C15.5875 13.4167 15.8313 13.5176 16.011 13.6974C16.1907 13.8771 16.2917 14.1208 16.2917 14.375V15.2969C16.2935 15.9317 16.5455 16.5402 16.9932 16.9903L18.2745 18.2716C16.7138 19.8377 14.6583 20.8141 12.4583 21.0345Z" fill="#8C8C8C" stroke="white"/>
</svg>
