<svg width="18" height="20" viewBox="0 0 18 20" fill="none" xmlns="http://www.w3.org/2000/svg">
<path d="M14.8333 7.02V5.83332C14.8333 2.61168 12.2217 0 9.00001 0C5.77833 0 3.16669 2.61168 3.16669 5.83332V7.02C1.65005 7.68191 0.668875 9.17856 0.666687 10.8333V15.8333C0.669421 18.1334 2.53329 19.9973 4.83333 20H13.1666C15.4667 19.9973 17.3306 18.1334 17.3333 15.8333V10.8333C17.3312 9.17856 16.35 7.68191 14.8333 7.02ZM9.83333 14.1667C9.83333 14.6269 9.46024 15 9.00001 15C8.53977 15 8.16669 14.6269 8.16669 14.1667V12.5C8.16669 12.0398 8.53977 11.6667 9.00001 11.6667C9.46024 11.6667 9.83333 12.0398 9.83333 12.5V14.1667V14.1667ZM13.1667 6.66668H4.83333V5.83336C4.83333 3.53219 6.6988 1.66668 9.00001 1.66668C11.3012 1.66668 13.1667 3.53215 13.1667 5.83336V6.66668V6.66668Z" fill="black" fill-opacity="0.1"/>
</svg>
