<svg width="20" height="21" viewBox="0 0 20 21" fill="none" xmlns="http://www.w3.org/2000/svg">
<path d="M0.833156 20.5003C1.05415 20.5003 1.26608 20.4124 1.42232 20.2561L6.93816 14.7403L7.97816 15.817C8.76201 16.6453 9.84237 17.129 10.9823 17.162C11.3623 17.1631 11.7397 17.0991 12.0982 16.9728C12.6519 16.7821 13.1385 16.4348 13.4987 15.973C13.8589 15.5111 14.0773 14.9547 14.1273 14.3711C14.2177 13.526 14.1551 12.6715 13.9423 11.8486L13.764 10.9803C13.7302 10.8414 13.7327 10.6962 13.7712 10.5586C13.8097 10.421 13.883 10.2956 13.984 10.1945L15.3065 8.87114C15.3587 8.81877 15.4292 8.78886 15.5032 8.7878C15.5291 8.78298 15.5559 8.78549 15.5805 8.79506C15.605 8.80463 15.6265 8.82088 15.6423 8.84197C16.0609 9.28585 16.624 9.56594 17.2305 9.63192C17.8371 9.6979 18.4473 9.54546 18.9515 9.20197C19.2474 8.99104 19.4937 8.71815 19.6734 8.40231C19.853 8.08646 19.9616 7.73525 19.9917 7.37314C20.0218 7.01102 19.9725 6.6467 19.8474 6.30556C19.7223 5.96441 19.5244 5.65463 19.2673 5.3978L15.1665 1.2953C14.7454 0.863719 14.186 0.593872 13.5862 0.53294C12.9863 0.472008 12.3841 0.623868 11.8848 0.961969C11.5889 1.17283 11.3425 1.44567 11.1628 1.76148C10.983 2.07729 10.8743 2.42849 10.8442 2.79061C10.814 3.15272 10.8632 3.51706 10.9882 3.85824C11.1133 4.19942 11.3112 4.50925 11.5682 4.76614L11.6315 4.82947C11.6792 4.87755 11.706 4.94255 11.706 5.0103C11.706 5.07805 11.6792 5.14306 11.6315 5.19114L10.2982 6.52447C10.1959 6.62654 10.0688 6.70025 9.92943 6.73839C9.79005 6.77652 9.64315 6.77775 9.50316 6.74197L8.82232 6.5678C7.98487 6.34909 7.11481 6.28331 6.25399 6.37364C5.64346 6.43687 5.06372 6.67333 4.58313 7.05514C4.10254 7.43696 3.74113 7.94821 3.54149 8.52864C3.32363 9.1251 3.28067 9.77138 3.41767 10.3914C3.55467 11.0115 3.86593 11.5795 4.31482 12.0286L5.77982 13.5453L0.243989 19.0778C0.127481 19.1943 0.0481425 19.3428 0.0160029 19.5044C-0.0161367 19.6661 0.000365755 19.8336 0.0634241 19.9858C0.126482 20.1381 0.233265 20.2682 0.370274 20.3598C0.507282 20.4514 0.668364 20.5003 0.833156 20.5003ZM5.11232 9.08364C5.20623 8.79973 5.38042 8.54914 5.6138 8.36219C5.84719 8.17525 6.12977 8.05996 6.42732 8.0303C6.61917 8.01033 6.81193 8.00032 7.00482 8.0003C7.47759 8.00033 7.94839 8.0611 8.40566 8.18114L9.09149 8.35614C9.51167 8.46244 9.95223 8.45806 10.3702 8.34341C10.7882 8.22877 11.1693 8.00777 11.4765 7.70197L12.8098 6.36864C13.1696 6.00779 13.3716 5.51902 13.3716 5.00947C13.3716 4.49991 13.1696 4.01114 12.8098 3.6503L12.7465 3.58697C12.6602 3.50089 12.5939 3.39693 12.5521 3.28242C12.5104 3.16791 12.4943 3.04563 12.5049 2.92422C12.5156 2.8028 12.5527 2.6852 12.6137 2.57971C12.6748 2.47421 12.7582 2.38338 12.8582 2.31364C13.036 2.20599 13.2455 2.16296 13.4513 2.1918C13.6572 2.22065 13.8468 2.3196 13.9882 2.47197L18.0915 6.5753C18.1778 6.66138 18.2441 6.76534 18.2859 6.87985C18.3276 6.99436 18.3437 7.11664 18.3331 7.23805C18.3224 7.35947 18.2853 7.47707 18.2242 7.58256C18.1632 7.68806 18.0798 7.77889 17.9798 7.84864C17.8001 7.95775 17.5879 8.00081 17.3798 7.97039C17.1718 7.93997 16.9808 7.83798 16.8398 7.68197C16.6684 7.50518 16.4632 7.36454 16.2365 7.26836C16.0098 7.17218 15.7661 7.1224 15.5198 7.12197C15.0003 7.12433 14.5021 7.32876 14.1307 7.69197L12.809 9.01447C12.5089 9.31479 12.2902 9.68659 12.1736 10.0948C12.0569 10.5031 12.0462 10.9343 12.1423 11.3478L12.3248 12.2295C12.493 12.8723 12.5441 13.5402 12.4757 14.2011C12.4557 14.4707 12.357 14.7285 12.1919 14.9424C12.0267 15.1563 11.8022 15.317 11.5465 15.4045C11.1202 15.5165 10.6709 15.5056 10.2506 15.3728C9.83023 15.2401 9.4561 14.991 9.17149 14.6545L5.50482 10.8628C5.27619 10.6348 5.1177 10.346 5.04813 10.0307C4.97857 9.71535 5.00085 9.38669 5.11232 9.08364Z" fill="#C5C5C5"/>
</svg>
