<svg width="20" height="20" viewBox="0 0 20 20" fill="none" xmlns="http://www.w3.org/2000/svg">
<path d="M19.1667 18.3333H18.3333V11.6666C18.332 10.562 17.8926 9.50293 17.1115 8.72181C16.3304 7.9407 15.2713 7.50129 14.1667 7.49996H10.8333V5.03246C11.2046 4.87045 11.5205 4.60373 11.7425 4.26494C11.9645 3.92616 12.083 3.53001 12.0833 3.12496C11.8582 2.05978 11.3511 1.07462 10.615 0.272464C10.5369 0.187072 10.4419 0.118876 10.336 0.0722183C10.2301 0.0255609 10.1157 0.00146484 10 0.00146484C9.88429 0.00146484 9.76985 0.0255609 9.66397 0.0722183C9.55809 0.118876 9.46308 0.187072 9.385 0.272464C8.64889 1.07462 8.14178 2.05978 7.91667 3.12496C7.91704 3.53001 8.03547 3.92616 8.25748 4.26494C8.47949 4.60373 8.79544 4.87045 9.16667 5.03246V7.49996H5.83333C4.72867 7.50129 3.66963 7.9407 2.88852 8.72181C2.1074 9.50293 1.66799 10.562 1.66667 11.6666V18.3333H0.833333C0.61232 18.3333 0.400358 18.4211 0.244078 18.5774C0.0877974 18.7337 0 18.9456 0 19.1666C0 19.3876 0.0877974 19.5996 0.244078 19.7559C0.400358 19.9122 0.61232 20 0.833333 20H19.1667C19.3877 20 19.5996 19.9122 19.7559 19.7559C19.9122 19.5996 20 19.3876 20 19.1666C20 18.9456 19.9122 18.7337 19.7559 18.5774C19.5996 18.4211 19.3877 18.3333 19.1667 18.3333ZM5.83333 9.16663H14.1667C14.8297 9.16663 15.4656 9.43002 15.9344 9.89886C16.4033 10.3677 16.6667 11.0036 16.6667 11.6666V13.3166C15.8867 13.2333 15.4167 12.7333 15.4167 12.5C15.4167 12.279 15.3289 12.067 15.1726 11.9107C15.0163 11.7544 14.8043 11.6666 14.5833 11.6666C14.3623 11.6666 14.1504 11.7544 13.9941 11.9107C13.8378 12.067 13.75 12.279 13.75 12.5C13.75 12.7858 13.1817 13.3333 12.2917 13.3333C11.3842 13.3333 10.8333 12.755 10.8333 12.5C10.8333 12.279 10.7455 12.067 10.5893 11.9107C10.433 11.7544 10.221 11.6666 10 11.6666C9.77899 11.6666 9.56702 11.7544 9.41074 11.9107C9.25446 12.067 9.16667 12.279 9.16667 12.5C9.16667 12.7858 8.59833 13.3333 7.70833 13.3333C6.80083 13.3333 6.25 12.755 6.25 12.5C6.25 12.279 6.1622 12.067 6.00592 11.9107C5.84964 11.7544 5.63768 11.6666 5.41667 11.6666C5.19565 11.6666 4.98369 11.7544 4.82741 11.9107C4.67113 12.067 4.58333 12.279 4.58333 12.5C4.58333 12.7625 4.10083 13.24 3.33333 13.3175V11.6666C3.33333 11.0036 3.59673 10.3677 4.06557 9.89886C4.53441 9.43002 5.17029 9.16663 5.83333 9.16663V9.16663ZM3.33333 14.9825C4.09891 14.9485 4.83161 14.6616 5.41667 14.1666C6.05947 14.7025 6.86924 14.997 7.70608 14.9992C8.54292 15.0015 9.35428 14.7114 10 14.1791C10.6457 14.7114 11.4571 15.0015 12.2939 14.9992C13.1308 14.997 13.9405 14.7025 14.5833 14.1666C15.1685 14.6613 15.9012 14.9479 16.6667 14.9816V18.3333H3.33333V14.9825Z" fill="#8C8C8C" stroke="white" stroke-width="0.5"/>
</svg>
