<svg width="18" height="25" viewBox="0 0 18 25" fill="none" xmlns="http://www.w3.org/2000/svg">
<g clip-path="url(#clip0_807_96)">
<path d="M8.99998 4.21411C8.53219 4.21411 8.0749 4.34817 7.68594 4.59932C7.29698 4.85048 6.99383 5.20746 6.81481 5.62512C6.63579 6.04278 6.58895 6.50236 6.68021 6.94575C6.77148 7.38913 6.99674 7.79641 7.32752 8.11607C7.6583 8.43573 8.07975 8.65343 8.53855 8.74162C8.99736 8.82982 9.47293 8.78455 9.90511 8.61155C10.3373 8.43855 10.7067 8.14558 10.9666 7.7697C11.2265 7.39382 11.3652 6.9519 11.3652 6.49983C11.3652 5.89362 11.116 5.31224 10.6724 4.88358C10.2289 4.45493 9.62728 4.21411 8.99998 4.21411ZM8.99998 7.64268C8.76609 7.64268 8.53744 7.57565 8.34296 7.45008C8.14848 7.3245 7.99691 7.14601 7.9074 6.93718C7.81789 6.72835 7.79447 6.49856 7.8401 6.27687C7.88573 6.05517 7.99836 5.85154 8.16375 5.6917C8.32914 5.53187 8.53987 5.42303 8.76927 5.37893C8.99867 5.33483 9.23646 5.35746 9.45255 5.44396C9.66864 5.53046 9.85334 5.67695 9.98329 5.86489C10.1132 6.05283 10.1826 6.27379 10.1826 6.49983C10.1826 6.80293 10.058 7.09362 9.83622 7.30795C9.61443 7.52227 9.31363 7.64268 8.99998 7.64268Z" fill="#C5C5C5"/>
<path d="M9.00001 14.5001C8.5021 14.5026 8.01082 14.3897 7.56732 14.171C7.12381 13.9523 6.74099 13.634 6.4509 13.243C4.19743 10.239 3.05444 7.98067 3.05444 6.53038C3.05444 5.00652 3.68085 3.54508 4.79586 2.46755C5.91087 1.39002 7.42315 0.784668 9.00001 0.784668C10.5769 0.784668 12.0891 1.39002 13.2042 2.46755C14.3192 3.54508 14.9456 5.00652 14.9456 6.53038C14.9456 7.98067 13.8026 10.239 11.5491 13.243C11.259 13.634 10.8762 13.9523 10.4327 14.171C9.9892 14.3897 9.49792 14.5026 9.00001 14.5001ZM9.00001 2.0321C7.76561 2.03346 6.58218 2.50794 5.70932 3.35145C4.83647 4.19496 4.34549 5.33862 4.34408 6.53153C4.34408 7.6801 5.46342 9.8041 7.49514 12.5121C7.66762 12.7417 7.8939 12.9285 8.15546 13.0574C8.41702 13.1862 8.70643 13.2534 9.00001 13.2534C9.29359 13.2534 9.583 13.1862 9.84456 13.0574C10.1061 12.9285 10.3324 12.7417 10.5049 12.5121C12.5366 9.8041 13.6559 7.6801 13.6559 6.53153C13.6545 5.33862 13.1635 4.19496 12.2907 3.35145C11.4178 2.50794 10.2344 2.03346 9.00001 2.0321Z" fill="#C5C5C5"/>
</g>
<path d="M8.53159 24.0978L1.1993 17.0119C1.1012 16.9171 1.12471 16.7541 1.2456 16.6909L5.27567 14.5832C5.36618 14.5359 5.47717 14.5627 5.53686 14.6456C5.93658 15.2007 7.44902 17.1632 8.98261 17.3571C10.5175 17.5512 12.2466 15.9414 12.7079 15.479C12.7776 15.4092 12.8865 15.3978 12.9684 15.4528L16.7623 18.004C16.8777 18.0816 16.8807 18.2504 16.7681 18.3319L8.78795 24.1159C8.70941 24.1728 8.60134 24.1652 8.53159 24.0978Z" stroke="#C5C5C5" stroke-width="1.7"/>
<defs>
<clipPath id="clip0_807_96">
<rect width="14.1913" height="13.7143" fill="white" transform="translate(1.9043 0.785645)"/>
</clipPath>
</defs>
</svg>
