<svg width="21" height="21" viewBox="0 0 21 21" fill="none" xmlns="http://www.w3.org/2000/svg">
<g clip-path="url(#clip0_173_339)">
<path d="M20.3585 8.23161C19.5689 6.93858 18.5728 5.78359 17.4099 4.8125L19.859 2.36342C20.1946 2.01594 20.185 1.46223 19.8375 1.12664C19.4985 0.799256 18.9612 0.799256 18.6222 1.12664L15.9588 3.79352C14.3078 2.81287 12.4202 2.30172 10.5 2.31533C5.08485 2.31533 1.999 6.02222 0.641513 8.23165C-0.213838 9.61512 -0.213838 11.3632 0.641513 12.7467C1.43114 14.0398 2.42716 15.1947 3.59006 16.1658L1.14098 18.6149C0.793501 18.9505 0.783866 19.5043 1.11945 19.8517C1.45504 20.1992 2.00879 20.2088 2.35623 19.8732C2.36353 19.8662 2.37071 19.859 2.37776 19.8517L5.04725 17.1822C6.69625 18.1627 8.58153 18.6747 10.5 18.663C15.9151 18.663 19.001 14.9561 20.3584 12.7467C21.2138 11.3632 21.2138 9.61512 20.3585 8.23161ZM5.25197 10.4892C5.24701 7.59557 7.58866 5.24583 10.4823 5.24087C11.5771 5.23899 12.645 5.58015 13.536 6.21639L12.266 7.48642C11.7328 7.1649 11.1226 6.99352 10.5 6.99048C8.56775 6.99048 7.00133 8.5569 7.00133 10.4892C7.00437 11.1118 7.17575 11.722 7.49727 12.2551L6.22724 13.5252C5.59305 12.6398 5.25201 11.5782 5.25197 10.4892ZM10.5 15.7372C9.41101 15.7372 8.34934 15.3961 7.46402 14.7619L8.73405 13.4919C9.26722 13.8134 9.87743 13.9848 10.5 13.9879C12.4323 13.9879 13.9987 12.4214 13.9987 10.4892C13.9957 9.86658 13.8243 9.25637 13.5028 8.7232L14.7728 7.45317C16.4543 9.80799 15.9086 13.0801 13.5538 14.7617C12.6628 15.3979 11.5949 15.7391 10.5 15.7372Z" fill="black" fill-opacity="0.2"/>
</g>
<defs>
<clipPath id="clip0_173_339">
<rect width="21" height="21" fill="white"/>
</clipPath>
</defs>
</svg>
