<svg width="20" height="21" viewBox="0 0 20 21" fill="none" xmlns="http://www.w3.org/2000/svg">
<path d="M18.3331 0.5H14.9998C14.7788 0.5 14.5668 0.587797 14.4105 0.744078C14.2542 0.900358 14.1665 1.11232 14.1665 1.33333C14.1665 1.55435 14.2542 1.76631 14.4105 1.92259C14.5668 2.07887 14.7788 2.16667 14.9998 2.16667H17.1548L15.1548 4.16667C14.2427 3.4779 13.147 3.07478 12.0061 3.00819C10.8651 2.9416 9.72995 3.21452 8.74395 3.7925C8.00081 3.36308 7.17194 3.10322 6.31664 3.03151C5.46135 2.9598 4.60078 3.07801 3.79651 3.37768C2.99223 3.67736 2.26413 4.15109 1.6643 4.76498C1.06446 5.37887 0.607725 6.11775 0.32676 6.92875C0.0457953 7.73975 -0.0524501 8.60283 0.0390529 9.45623C0.130556 10.3096 0.409545 11.1323 0.85606 11.8653C1.30258 12.5983 1.90558 13.2235 2.62193 13.6963C3.33827 14.169 4.15026 14.4776 4.99978 14.6V16.3333H3.33312C3.1121 16.3333 2.90014 16.4211 2.74386 16.5774C2.58758 16.7337 2.49978 16.9457 2.49978 17.1667C2.49978 17.3877 2.58758 17.5996 2.74386 17.7559C2.90014 17.9122 3.1121 18 3.33312 18H4.99978V19.6667C4.99978 19.8877 5.08758 20.0996 5.24386 20.2559C5.40014 20.4122 5.6121 20.5 5.83312 20.5C6.05413 20.5 6.26609 20.4122 6.42237 20.2559C6.57865 20.0996 6.66645 19.8877 6.66645 19.6667V18H8.33312C8.55413 18 8.76609 17.9122 8.92237 17.7559C9.07865 17.5996 9.16645 17.3877 9.16645 17.1667C9.16645 16.9457 9.07865 16.7337 8.92237 16.5774C8.76609 16.4211 8.55413 16.3333 8.33312 16.3333H6.66645V14.6058C7.399 14.4967 8.10373 14.2477 8.74228 13.8725C9.90329 14.5516 11.2636 14.8077 12.5921 14.5973C13.9205 14.3869 15.1352 13.7231 16.0296 12.7185C16.9239 11.7139 17.4429 10.4307 17.4982 9.08681C17.5536 7.74294 17.1419 6.42136 16.3331 5.34667L18.3331 3.34667V5.5C18.3331 5.72101 18.4209 5.93298 18.5772 6.08926C18.7335 6.24554 18.9454 6.33333 19.1665 6.33333C19.3875 6.33333 19.5994 6.24554 19.7557 6.08926C19.912 5.93298 19.9998 5.72101 19.9998 5.5V2.16667C19.9998 1.72464 19.8242 1.30072 19.5116 0.988155C19.1991 0.675595 18.7751 0.5 18.3331 0.5V0.5ZM1.66645 8.83333C1.6625 8.15654 1.82444 7.48909 2.1381 6.88935C2.45176 6.28962 2.90758 5.77587 3.46571 5.39304C4.02384 5.01021 4.66726 4.76997 5.33971 4.69331C6.01216 4.61666 6.69315 4.70594 7.32312 4.95333C6.3639 6.01802 5.83307 7.40028 5.83307 8.83333C5.83307 10.2664 6.3639 11.6486 7.32312 12.7133C6.69315 12.9607 6.01216 13.05 5.33971 12.9734C4.66726 12.8967 4.02384 12.6565 3.46571 12.2736C2.90758 11.8908 2.45176 11.377 2.1381 10.7773C1.82444 10.1776 1.6625 9.51013 1.66645 8.83333V8.83333ZM11.6665 13C10.8424 13 10.0368 12.7556 9.35157 12.2978C8.66637 11.84 8.13232 11.1892 7.81695 10.4278C7.50159 9.66649 7.41907 8.82871 7.57985 8.02046C7.74062 7.2122 8.13745 6.46977 8.72017 5.88705C9.30289 5.30434 10.0453 4.9075 10.8536 4.74673C11.6618 4.58596 12.4996 4.66847 13.261 4.98384C14.0223 5.2992 14.6731 5.83325 15.1309 6.51846C15.5887 7.20366 15.8331 8.00924 15.8331 8.83333C15.8318 9.938 15.3924 10.997 14.6113 11.7781C13.8302 12.5593 12.7711 12.9987 11.6665 13Z" fill="#8C8C8C" stroke="white" stroke-width="0.5"/>
</svg>
