<svg width="20" height="21" viewBox="0 0 20 21" fill="none" xmlns="http://www.w3.org/2000/svg">
<g clip-path="url(#clip0_807_176)">
<path d="M10.0001 5.5C9.34081 5.5 8.69635 5.6955 8.14818 6.06177C7.60002 6.42804 7.17278 6.94863 6.92048 7.55772C6.66819 8.16681 6.60218 8.83703 6.7308 9.48363C6.85942 10.1302 7.17689 10.7242 7.64306 11.1904C8.10924 11.6565 8.70318 11.974 9.34978 12.1026C9.99639 12.2312 10.6666 12.1652 11.2757 11.9129C11.8848 11.6606 12.4054 11.2334 12.7716 10.6852C13.1379 10.1371 13.3334 9.4926 13.3334 8.83333C13.3334 7.94928 12.9822 7.10143 12.3571 6.47631C11.732 5.85119 10.8841 5.5 10.0001 5.5ZM10.0001 10.5C9.67045 10.5 9.34822 10.4023 9.07413 10.2191C8.80005 10.036 8.58643 9.77568 8.46028 9.47114C8.33414 9.1666 8.30113 8.83148 8.36544 8.50818C8.42975 8.18488 8.58848 7.88791 8.82157 7.65482C9.05466 7.42173 9.35163 7.263 9.67493 7.19869C9.99823 7.13438 10.3333 7.16739 10.6379 7.29353C10.9424 7.41968 11.2027 7.6333 11.3859 7.90738C11.569 8.18146 11.6668 8.5037 11.6668 8.83333C11.6668 9.27536 11.4912 9.69928 11.1786 10.0118C10.866 10.3244 10.4421 10.5 10.0001 10.5Z" fill="#C5C5C5"/>
<path d="M10 20.5002C9.2983 20.5038 8.60594 20.3392 7.9809 20.0202C7.35587 19.7013 6.81635 19.2372 6.40752 18.6669C3.23168 14.286 1.62085 10.9927 1.62085 8.8777C1.62085 6.65541 2.50365 4.52414 4.07505 2.95274C5.64645 1.38134 7.77772 0.498535 10 0.498535C12.2223 0.498535 14.3536 1.38134 15.925 2.95274C17.4964 4.52414 18.3792 6.65541 18.3792 8.8777C18.3792 10.9927 16.7684 14.286 13.5925 18.6669C13.1837 19.2372 12.6442 19.7013 12.0191 20.0202C11.3941 20.3392 10.7017 20.5038 10 20.5002ZM10 2.3177C8.26036 2.31969 6.59253 3.01164 5.36241 4.24176C4.13229 5.47188 3.44033 7.13972 3.43835 8.87937C3.43835 10.5544 5.01585 13.6519 7.87918 17.601C8.12226 17.9359 8.44116 18.2084 8.80978 18.3963C9.1784 18.5842 9.58627 18.6821 10 18.6821C10.4138 18.6821 10.8216 18.5842 11.1903 18.3963C11.5589 18.2084 11.8778 17.9359 12.1208 17.601C14.9842 13.6519 16.5617 10.5544 16.5617 8.87937C16.5597 7.13972 15.8677 5.47188 14.6376 4.24176C13.4075 3.01164 11.7397 2.31969 10 2.3177Z" fill="#C5C5C5"/>
</g>
<defs>
<clipPath id="clip0_807_176">
<rect width="20" height="20" fill="white" transform="translate(0 0.5)"/>
</clipPath>
</defs>
</svg>
