<svg width="50" height="50" viewBox="0 0 50 50" fill="none" xmlns="http://www.w3.org/2000/svg">
<g clip-path="url(#clip0_189_404)">
<path d="M20.8335 24.9992C20.8335 25.5517 20.614 26.0816 20.2233 26.4723C19.8326 26.863 19.3027 27.0825 18.7502 27.0825H8.47725C8.98169 31.1089 10.939 34.8126 13.9815 37.4977C17.024 40.1828 20.9423 41.6646 25.0002 41.6646C29.0581 41.6646 32.9763 40.1828 36.0188 37.4977C39.0613 34.8126 41.0186 31.1089 41.5231 27.0825H31.2502C30.6976 27.0825 30.1677 26.863 29.777 26.4723C29.3863 26.0816 29.1668 25.5517 29.1668 24.9992C29.1668 24.4467 29.3863 23.9168 29.777 23.5261C30.1677 23.1354 30.6976 22.9159 31.2502 22.9159H41.6668V18.7492H31.2502C30.6976 18.7492 30.1677 18.5297 29.777 18.139C29.3863 17.7483 29.1668 17.2184 29.1668 16.6659C29.1668 16.1133 29.3863 15.5834 29.777 15.1927C30.1677 14.802 30.6976 14.5825 31.2502 14.5825H41.5231C41.0186 10.5561 39.0613 6.85243 36.0188 4.16733C32.9763 1.48223 29.0581 0.000488281 25.0002 0.000488281C20.9423 0.000488281 17.024 1.48223 13.9815 4.16733C10.939 6.85243 8.98169 10.5561 8.47725 14.5825H18.7502C19.3027 14.5825 19.8326 14.802 20.2233 15.1927C20.614 15.5834 20.8335 16.1133 20.8335 16.6659C20.8335 17.2184 20.614 17.7483 20.2233 18.139C19.8326 18.5297 19.3027 18.7492 18.7502 18.7492H8.3335V22.9159H18.7502C19.3027 22.9159 19.8326 23.1354 20.2233 23.5261C20.614 23.9168 20.8335 24.4467 20.8335 24.9992Z" fill="#003470"/>
<path d="M47.9166 25C47.3641 25 46.8342 25.2195 46.4435 25.6102C46.0528 26.0009 45.8333 26.5308 45.8333 27.0833C45.8278 32.0544 43.8506 36.8204 40.3355 40.3355C36.8204 43.8506 32.0544 45.8278 27.0833 45.8333H22.9166C17.9457 45.8273 13.1801 43.8499 9.66508 40.3349C6.15009 36.8199 4.1727 32.0543 4.16664 27.0833C4.16664 26.5308 3.94714 26.0009 3.55644 25.6102C3.16574 25.2195 2.63584 25 2.0833 25C1.53077 25 1.00086 25.2195 0.610164 25.6102C0.219463 26.0009 -3.05176e-05 26.5308 -3.05176e-05 27.0833C0.00713713 33.159 2.42387 38.9838 6.72002 43.2799C11.0162 47.5761 16.841 49.9928 22.9166 50H27.0833C33.159 49.9928 38.9838 47.5761 43.2799 43.2799C47.5761 38.9838 49.9928 33.159 50 27.0833C50 26.5308 49.7805 26.0009 49.3898 25.6102C48.9991 25.2195 48.4692 25 47.9166 25Z" fill="#003470"/>
</g>
<defs>
<clipPath id="clip0_189_404">
<rect width="50" height="50" fill="white"/>
</clipPath>
</defs>
</svg>
