<svg width="20" height="20" viewBox="0 0 20 20" fill="none" xmlns="http://www.w3.org/2000/svg">
<g clip-path="url(#clip0_200_475)">
<path d="M19.1667 18.3334H18.3333V11.6668C18.332 10.5621 17.8926 9.50305 17.1115 8.72194C16.3304 7.94082 15.2713 7.50141 14.1667 7.50009H10.8333V5.03259C11.2046 4.87057 11.5205 4.60385 11.7425 4.26507C11.9645 3.92628 12.083 3.53013 12.0833 3.12509C11.8582 2.0599 11.3511 1.07474 10.615 0.272586C10.5369 0.187194 10.4419 0.118998 10.336 0.0723404C10.2301 0.0256829 10.1157 0.00158691 10 0.00158691C9.88429 0.00158691 9.76985 0.0256829 9.66397 0.0723404C9.55809 0.118998 9.46308 0.187194 9.385 0.272586C8.64889 1.07474 8.14178 2.0599 7.91667 3.12509C7.91704 3.53013 8.03547 3.92628 8.25748 4.26507C8.47949 4.60385 8.79544 4.87057 9.16667 5.03259V7.50009H5.83333C4.72867 7.50141 3.66963 7.94082 2.88852 8.72194C2.1074 9.50305 1.66799 10.5621 1.66667 11.6668V18.3334H0.833333C0.61232 18.3334 0.400358 18.4212 0.244078 18.5775C0.0877974 18.7338 0 18.9457 0 19.1668C0 19.3878 0.0877974 19.5997 0.244078 19.756C0.400358 19.9123 0.61232 20.0001 0.833333 20.0001H19.1667C19.3877 20.0001 19.5996 19.9123 19.7559 19.756C19.9122 19.5997 20 19.3878 20 19.1668C20 18.9457 19.9122 18.7338 19.7559 18.5775C19.5996 18.4212 19.3877 18.3334 19.1667 18.3334ZM5.83333 9.16675H14.1667C14.8297 9.16675 15.4656 9.43014 15.9344 9.89899C16.4033 10.3678 16.6667 11.0037 16.6667 11.6668V13.3168C15.8867 13.2334 15.4167 12.7334 15.4167 12.5001C15.4167 12.2791 15.3289 12.0671 15.1726 11.9108C15.0163 11.7545 14.8043 11.6668 14.5833 11.6668C14.3623 11.6668 14.1504 11.7545 13.9941 11.9108C13.8378 12.0671 13.75 12.2791 13.75 12.5001C13.75 12.7859 13.1817 13.3334 12.2917 13.3334C11.3842 13.3334 10.8333 12.7551 10.8333 12.5001C10.8333 12.2791 10.7455 12.0671 10.5893 11.9108C10.433 11.7545 10.221 11.6668 10 11.6668C9.77899 11.6668 9.56702 11.7545 9.41074 11.9108C9.25446 12.0671 9.16667 12.2791 9.16667 12.5001C9.16667 12.7859 8.59833 13.3334 7.70833 13.3334C6.80083 13.3334 6.25 12.7551 6.25 12.5001C6.25 12.2791 6.1622 12.0671 6.00592 11.9108C5.84964 11.7545 5.63768 11.6668 5.41667 11.6668C5.19565 11.6668 4.98369 11.7545 4.82741 11.9108C4.67113 12.0671 4.58333 12.2791 4.58333 12.5001C4.58333 12.7626 4.10083 13.2401 3.33333 13.3176V11.6668C3.33333 11.0037 3.59673 10.3678 4.06557 9.89899C4.53441 9.43014 5.17029 9.16675 5.83333 9.16675ZM3.33333 14.9826C4.09891 14.9486 4.83161 14.6617 5.41667 14.1668C6.05947 14.7026 6.86924 14.9971 7.70608 14.9994C8.54292 15.0016 9.35428 14.7116 10 14.1793C10.6457 14.7116 11.4571 15.0016 12.2939 14.9994C13.1308 14.9971 13.9405 14.7026 14.5833 14.1668C15.1685 14.6614 15.9012 14.948 16.6667 14.9818V18.3334H3.33333V14.9826Z" fill="black" fill-opacity="0.1"/>
</g>
<defs>
<clipPath id="clip0_200_475">
<rect width="20" height="20" fill="white"/>
</clipPath>
</defs>
</svg>
