<svg width="20" height="20" viewBox="0 0 20 20" fill="none" xmlns="http://www.w3.org/2000/svg">
<g clip-path="url(#clip0_196_430)">
<path d="M16.6667 6.66667C15.7826 6.66667 14.9348 6.31548 14.3097 5.69036C13.6846 5.06523 13.3334 4.21739 13.3334 3.33333C13.3334 2.44928 13.6846 1.60143 14.3097 0.976311C14.9348 0.35119 15.7826 0 16.6667 0C17.5508 0 18.3986 0.35119 19.0237 0.976311C19.6488 1.60143 20 2.44928 20 3.33333C20 4.21739 19.6488 5.06523 19.0237 5.69036C18.3986 6.31548 17.5508 6.66667 16.6667 6.66667ZM16.6667 1.66667C16.2247 1.66667 15.8007 1.84226 15.4882 2.15482C15.1756 2.46738 15 2.89131 15 3.33333C15 3.77536 15.1756 4.19928 15.4882 4.51184C15.8007 4.82441 16.2247 5 16.6667 5C17.1087 5 17.5326 4.82441 17.8452 4.51184C18.1578 4.19928 18.3334 3.77536 18.3334 3.33333C18.3334 2.89131 18.1578 2.46738 17.8452 2.15482C17.5326 1.84226 17.1087 1.66667 16.6667 1.66667ZM17.8767 20H10.4909C10.1173 20.0033 9.74939 19.9079 9.42442 19.7236C9.09945 19.5392 8.82888 19.2724 8.64003 18.95C8.45496 18.6393 8.35526 18.2853 8.35101 17.9237C8.34677 17.5621 8.43814 17.2058 8.61586 16.8908L12.3125 10.2583C12.5029 9.92961 12.7763 9.65671 13.1054 9.46699C13.4345 9.27727 13.8077 9.1774 14.1875 9.1774C14.5674 9.1774 14.9406 9.27727 15.2697 9.46699C15.5988 9.65671 15.8722 9.92961 16.0625 10.2583L19.75 16.8858C19.9281 17.2012 20.0197 17.5581 20.0156 17.9202C20.0115 18.2824 19.9119 18.637 19.7267 18.9483C19.5379 19.2707 19.2675 19.5377 18.9428 19.7223C18.618 19.9069 18.2503 20.0027 17.8767 20ZM14.1859 10.8333C14.1016 10.8313 14.0183 10.8522 13.945 10.8937C13.8716 10.9353 13.8109 10.9959 13.7692 11.0692L10.0725 17.7017C10.0368 17.7632 10.0184 17.8333 10.0193 17.9044C10.0202 17.9756 10.0403 18.0452 10.0775 18.1058C10.1202 18.1776 10.1814 18.2366 10.2547 18.2766C10.328 18.3167 10.4107 18.3362 10.4942 18.3333H17.88C17.9636 18.3358 18.0463 18.3159 18.1196 18.2756C18.1929 18.2353 18.254 18.1761 18.2967 18.1042C18.3333 18.0425 18.3526 17.9721 18.3526 17.9004C18.3526 17.8287 18.3333 17.7583 18.2967 17.6967L14.6034 11.07C14.5619 10.9963 14.5011 10.9353 14.4275 10.8936C14.3539 10.8519 14.2704 10.8311 14.1859 10.8333ZM6.6667 19.1667C6.6667 18.9457 6.5789 18.7337 6.42262 18.5774C6.26634 18.4211 6.05438 18.3333 5.83336 18.3333H2.7917C2.59681 18.3332 2.4053 18.2824 2.23596 18.186C2.06662 18.0895 1.92527 17.9507 1.82576 17.7831C1.72626 17.6155 1.67204 17.425 1.6684 17.2301C1.66476 17.0353 1.71185 16.8428 1.80503 16.6717L7.34836 6.42167C7.44317 6.24301 7.5851 6.09372 7.75874 5.99001C7.93238 5.88629 8.13111 5.83211 8.33336 5.83333C8.53581 5.83168 8.73483 5.88567 8.90868 5.98942C9.08253 6.09318 9.22454 6.2427 9.3192 6.42167L10.3417 8.31083C10.3938 8.40714 10.4643 8.49224 10.5493 8.56127C10.6343 8.63031 10.732 8.68194 10.837 8.7132C10.9419 8.74446 11.052 8.75475 11.1609 8.74348C11.2698 8.7322 11.3754 8.69959 11.4717 8.6475C11.568 8.59541 11.6531 8.52486 11.7221 8.43988C11.7912 8.3549 11.8428 8.25716 11.8741 8.15223C11.9053 8.0473 11.9156 7.93723 11.9043 7.82833C11.8931 7.71942 11.8605 7.6138 11.8084 7.5175L10.7867 5.62917C10.5479 5.18687 10.1939 4.8174 9.76223 4.55989C9.33055 4.30239 8.83726 4.16643 8.33461 4.16643C7.83197 4.16643 7.33868 4.30239 6.907 4.55989C6.47533 4.8174 6.12134 5.18687 5.88253 5.62917L0.338362 15.8792C0.108449 16.3043 -0.00717811 16.7819 0.0027915 17.2651C0.0127611 17.7483 0.147986 18.2207 0.395239 18.636C0.642492 19.0513 0.993307 19.3953 1.41337 19.6344C1.83343 19.8735 2.30836 19.9995 2.7917 20H5.83336C6.05438 20 6.26634 19.9122 6.42262 19.7559C6.5789 19.5996 6.6667 19.3877 6.6667 19.1667Z" fill="black" fill-opacity="0.1"/>
</g>
<defs>
<clipPath id="clip0_196_430">
<rect width="20" height="20" fill="white"/>
</clipPath>
</defs>
</svg>
