<svg width="20" height="21" viewBox="0 0 20 21" fill="none" xmlns="http://www.w3.org/2000/svg">
<path d="M19.2678 8.05751L12.9469 1.73584C12.1646 0.955835 11.105 0.517822 10.0003 0.517822C8.89554 0.517822 7.83589 0.955835 7.05359 1.73584L0.732754 8.05751C0.499775 8.289 0.315062 8.56443 0.189323 8.86783C0.0635835 9.17124 -0.000681193 9.49658 0.000254207 9.82501V18.0058C0.000254207 18.6689 0.263646 19.3048 0.732487 19.7736C1.20133 20.2425 1.83721 20.5058 2.50025 20.5058H17.5003C18.1633 20.5058 18.7992 20.2425 19.268 19.7736C19.7369 19.3048 20.0003 18.6689 20.0003 18.0058V9.82501C20.0012 9.49658 19.9369 9.17124 19.8112 8.86783C19.6854 8.56443 19.5007 8.289 19.2678 8.05751ZM12.5003 18.8392H7.50026V15.5608C7.50026 14.8978 7.76365 14.2619 8.23249 13.7931C8.70133 13.3242 9.33721 13.0608 10.0003 13.0608C10.6633 13.0608 11.2992 13.3242 11.768 13.7931C12.2369 14.2619 12.5003 14.8978 12.5003 15.5608V18.8392ZM18.3336 18.0058C18.3336 18.2269 18.2458 18.4388 18.0895 18.5951C17.9332 18.7514 17.7213 18.8392 17.5003 18.8392H14.1669V15.5608C14.1669 14.4558 13.7279 13.396 12.9465 12.6146C12.1651 11.8332 11.1053 11.3942 10.0003 11.3942C8.89519 11.3942 7.83538 11.8332 7.05398 12.6146C6.27258 13.396 5.83359 14.4558 5.83359 15.5608V18.8392H2.50025C2.27924 18.8392 2.06728 18.7514 1.911 18.5951C1.75472 18.4388 1.66692 18.2269 1.66692 18.0058V9.82501C1.66769 9.60416 1.75541 9.3925 1.91109 9.23584L8.23192 2.91668C8.70167 2.44912 9.33748 2.18663 10.0003 2.18663C10.663 2.18663 11.2988 2.44912 11.7686 2.91668L18.0894 9.23834C18.2445 9.39438 18.3322 9.60503 18.3336 9.82501V18.0058Z" fill="#C5C5C5"/>
</svg>
