<svg width="251" height="10" viewBox="0 0 251 10" fill="none" xmlns="http://www.w3.org/2000/svg">
<path d="M7.91473 4.49C7.91473 4.97667 7.82806 5.44 7.65473 5.88C7.48139 6.31333 7.23806 6.69667 6.92473 7.03C6.61139 7.36333 6.23473 7.63 5.79473 7.83C5.35473 8.02333 4.86806 8.12 4.33473 8.12C3.80139 8.12 3.31473 8.02333 2.87473 7.83C2.44139 7.63667 2.06806 7.37667 1.75473 7.05C1.44139 6.71667 1.19806 6.33333 1.02473 5.9C0.85806 5.46 0.774727 4.99667 0.774727 4.51C0.774727 4.02333 0.861393 3.56333 1.03473 3.13C1.20806 2.69 1.45139 2.30333 1.76473 1.97C2.07806 1.63667 2.45473 1.37333 2.89473 1.18C3.33473 0.98 3.82139 0.88 4.35473 0.88C4.88806 0.88 5.37139 0.976666 5.80473 1.17C6.24473 1.36333 6.62139 1.62667 6.93473 1.96C7.24806 2.28667 7.48806 2.67 7.65473 3.11C7.82806 3.54333 7.91473 4.00333 7.91473 4.49ZM7.09473 4.51C7.09473 4.11 7.02473 3.73333 6.88473 3.38C6.75139 3.02667 6.56139 2.72 6.31473 2.46C6.06806 2.2 5.77473 1.99333 5.43473 1.84C5.10139 1.68667 4.73473 1.61 4.33473 1.61C3.93473 1.61 3.56473 1.68667 3.22473 1.84C2.89139 1.98667 2.60473 2.19 2.36473 2.45C2.12473 2.71 1.93473 3.01667 1.79473 3.37C1.66139 3.71667 1.59473 4.09 1.59473 4.49C1.59473 4.89 1.66139 5.26667 1.79473 5.62C1.93473 5.97333 2.12806 6.28 2.37473 6.54C2.62139 6.8 2.91139 7.00667 3.24473 7.16C3.58473 7.31333 3.95473 7.39 4.35473 7.39C4.75473 7.39 5.12139 7.31667 5.45473 7.17C5.79473 7.01667 6.08473 6.81 6.32473 6.55C6.56473 6.29 6.75139 5.98667 6.88473 5.64C7.02473 5.28667 7.09473 4.91 7.09473 4.51ZM12.5608 1C12.9075 1 13.2208 1.04333 13.5008 1.13C13.7808 1.21 14.0208 1.32667 14.2208 1.48C14.4208 1.62667 14.5742 1.81 14.6808 2.03C14.7875 2.24333 14.8408 2.48333 14.8408 2.75C14.8408 2.98333 14.8075 3.18667 14.7408 3.36C14.6808 3.53333 14.5975 3.68667 14.4908 3.82C14.3842 3.95333 14.2642 4.06667 14.1308 4.16C14.0042 4.24667 13.8708 4.32 13.7308 4.38C13.9375 4.44 14.1308 4.52 14.3108 4.62C14.4975 4.71333 14.6575 4.82667 14.7908 4.96C14.9242 5.09333 15.0308 5.25333 15.1108 5.44C15.1908 5.62667 15.2308 5.84 15.2308 6.08C15.2308 6.38 15.1708 6.65 15.0508 6.89C14.9308 7.13 14.7575 7.33333 14.5308 7.5C14.3108 7.66 14.0442 7.78333 13.7308 7.87C13.4175 7.95667 13.0708 8 12.6908 8H9.58082V1H12.5608ZM12.4308 4.12C12.9042 4.12 13.2908 4.01333 13.5908 3.8C13.8908 3.58667 14.0408 3.27333 14.0408 2.86C14.0408 2.50667 13.9075 2.22667 13.6408 2.02C13.3742 1.81333 12.9908 1.71 12.4908 1.71H10.3608V4.12H12.4308ZM12.7108 7.29C13.2442 7.29 13.6642 7.18 13.9708 6.96C14.2775 6.74 14.4308 6.43 14.4308 6.03C14.4308 5.64333 14.2742 5.34667 13.9608 5.14C13.6475 4.92667 13.1842 4.82 12.5708 4.82H10.3608V7.29H12.7108ZM19.2816 1.73V8H18.4816V1.73H16.1316V1H21.6316V1.73H19.2816ZM28.176 1V1.72H23.906V4.11H27.726V4.83H23.906V7.28H28.226V8H23.116V1H28.176ZM35.6052 8H34.6352L32.6052 5.28H30.6052V8H29.8152V1H32.8252C33.2119 1 33.5585 1.05 33.8652 1.15C34.1785 1.25 34.4452 1.39333 34.6652 1.58C34.8852 1.76 35.0552 1.98 35.1752 2.24C35.2952 2.49333 35.3552 2.77667 35.3552 3.09C35.3552 3.38333 35.3085 3.64667 35.2152 3.88C35.1219 4.10667 34.9885 4.30667 34.8152 4.48C34.6485 4.64667 34.4485 4.78667 34.2152 4.9C33.9819 5.01333 33.7285 5.09333 33.4552 5.14L35.6052 8ZM34.5552 3.12C34.5552 2.68 34.3985 2.34 34.0852 2.1C33.7719 1.85333 33.3319 1.73 32.7652 1.73H30.6052V4.57H32.7552C33.0152 4.57 33.2552 4.53667 33.4752 4.47C33.6952 4.40333 33.8852 4.31 34.0452 4.19C34.2052 4.06333 34.3285 3.91 34.4152 3.73C34.5085 3.55 34.5552 3.34667 34.5552 3.12ZM40.8898 9.28H40.2398V0.0199996H40.8898V9.28ZM51.8552 8H50.8852L48.8552 5.28H46.8552V8H46.0652V1H49.0752C49.4619 1 49.8085 1.05 50.1152 1.15C50.4285 1.25 50.6952 1.39333 50.9152 1.58C51.1352 1.76 51.3052 1.98 51.4252 2.24C51.5452 2.49333 51.6052 2.77667 51.6052 3.09C51.6052 3.38333 51.5585 3.64667 51.4652 3.88C51.3719 4.10667 51.2385 4.30667 51.0652 4.48C50.8985 4.64667 50.6985 4.78667 50.4652 4.9C50.2319 5.01333 49.9785 5.09333 49.7052 5.14L51.8552 8ZM50.8052 3.12C50.8052 2.68 50.6485 2.34 50.3352 2.1C50.0219 1.85333 49.5819 1.73 49.0152 1.73H46.8552V4.57H49.0052C49.2652 4.57 49.5052 4.53667 49.7252 4.47C49.9452 4.40333 50.1352 4.31 50.2952 4.19C50.4552 4.06333 50.5785 3.91 50.6652 3.73C50.7585 3.55 50.8052 3.34667 50.8052 3.12ZM56.6218 0.95L59.8118 8H58.9618L58.1418 6.15H54.3318L53.5018 8H52.6918L55.8818 0.95H56.6218ZM57.8318 5.44L56.2418 1.87L54.6418 5.44H57.8318ZM61.6654 2.75C61.6654 2.91667 61.6921 3.06667 61.7454 3.2C61.7988 3.33333 61.8954 3.45667 62.0354 3.57C62.1754 3.67667 62.3688 3.77667 62.6154 3.87C62.8621 3.95667 63.1788 4.04 63.5654 4.12C64.3454 4.29333 64.9188 4.53333 65.2854 4.84C65.6588 5.14667 65.8454 5.57 65.8454 6.11C65.8454 6.41 65.7854 6.68333 65.6654 6.93C65.5454 7.17667 65.3788 7.38667 65.1654 7.56C64.9588 7.73333 64.7088 7.86667 64.4154 7.96C64.1221 8.05333 63.8021 8.1 63.4554 8.1C62.8954 8.1 62.3821 8.01 61.9154 7.83C61.4554 7.64333 61.0154 7.36 60.5954 6.98L61.0854 6.4C61.4521 6.73333 61.8221 6.98333 62.1954 7.15C62.5688 7.31 62.9988 7.39 63.4854 7.39C63.9588 7.39 64.3354 7.28 64.6154 7.06C64.9021 6.84 65.0454 6.55 65.0454 6.19C65.0454 6.02333 65.0188 5.87667 64.9654 5.75C64.9121 5.61667 64.8188 5.49667 64.6854 5.39C64.5521 5.28333 64.3654 5.18667 64.1254 5.1C63.8921 5.01333 63.5921 4.93 63.2254 4.85C62.8254 4.76333 62.4754 4.66333 62.1754 4.55C61.8821 4.43667 61.6388 4.3 61.4454 4.14C61.2521 3.98 61.1088 3.79333 61.0154 3.58C60.9221 3.36667 60.8754 3.11333 60.8754 2.82C60.8754 2.54 60.9321 2.28333 61.0454 2.05C61.1588 1.81667 61.3188 1.61667 61.5254 1.45C61.7321 1.27667 61.9754 1.14333 62.2554 1.05C62.5354 0.95 62.8421 0.9 63.1754 0.9C63.6888 0.9 64.1354 0.973333 64.5154 1.12C64.9021 1.26 65.2754 1.47333 65.6354 1.76L65.1754 2.37C64.8488 2.10333 64.5188 1.91 64.1854 1.79C63.8588 1.67 63.5154 1.61 63.1554 1.61C62.9288 1.61 62.7221 1.64 62.5354 1.7C62.3554 1.76 62.1988 1.84 62.0654 1.94C61.9388 2.04 61.8388 2.16 61.7654 2.3C61.6988 2.44 61.6654 2.59 61.6654 2.75ZM69.9554 1.73V8H69.1554V1.73H66.8054V1H72.3054V1.73H69.9554ZM79.5798 8H78.6098L76.5798 5.28H74.5798V8H73.7898V1H76.7998C77.1865 1 77.5331 1.05 77.8398 1.15C78.1531 1.25 78.4198 1.39333 78.6398 1.58C78.8598 1.76 79.0298 1.98 79.1498 2.24C79.2698 2.49333 79.3298 2.77667 79.3298 3.09C79.3298 3.38333 79.2831 3.64667 79.1898 3.88C79.0965 4.10667 78.9631 4.30667 78.7898 4.48C78.6231 4.64667 78.4231 4.78667 78.1898 4.9C77.9565 5.01333 77.7031 5.09333 77.4298 5.14L79.5798 8ZM78.5298 3.12C78.5298 2.68 78.3731 2.34 78.0598 2.1C77.7465 1.85333 77.3065 1.73 76.7398 1.73H74.5798V4.57H76.7298C76.9898 4.57 77.2298 4.53667 77.4498 4.47C77.6698 4.40333 77.8598 4.31 78.0198 4.19C78.1798 4.06333 78.3031 3.91 78.3898 3.73C78.4831 3.55 78.5298 3.34667 78.5298 3.12ZM86.0764 1V1.72H81.8064V4.11H85.6264V4.83H81.8064V7.28H86.1264V8H81.0164V1H86.0764ZM91.0456 0.95L94.2356 8H93.3856L92.5656 6.15H88.7556L87.9256 8H87.1156L90.3056 0.95H91.0456ZM92.2556 5.44L90.6656 1.87L89.0656 5.44H92.2556ZM101.406 8H100.436L98.406 5.28H96.406V8H95.616V1H98.626C99.0126 1 99.3593 1.05 99.666 1.15C99.9793 1.25 100.246 1.39333 100.466 1.58C100.686 1.76 100.856 1.98 100.976 2.24C101.096 2.49333 101.156 2.77667 101.156 3.09C101.156 3.38333 101.109 3.64667 101.016 3.88C100.923 4.10667 100.789 4.30667 100.616 4.48C100.449 4.64667 100.249 4.78667 100.016 4.9C99.7826 5.01333 99.5293 5.09333 99.256 5.14L101.406 8ZM100.356 3.12C100.356 2.68 100.199 2.34 99.886 2.1C99.5726 1.85333 99.1326 1.73 98.566 1.73H96.406V4.57H98.556C98.816 4.57 99.056 4.53667 99.276 4.47C99.496 4.40333 99.686 4.31 99.846 4.19C100.006 4.06333 100.129 3.91 100.216 3.73C100.309 3.55 100.356 3.34667 100.356 3.12ZM106.691 9.28H106.041V0.0199996H106.691V9.28ZM118.696 4.49C118.696 4.97667 118.609 5.44 118.436 5.88C118.263 6.31333 118.019 6.69667 117.706 7.03C117.393 7.36333 117.016 7.63 116.576 7.83C116.136 8.02333 115.649 8.12 115.116 8.12C114.583 8.12 114.096 8.02333 113.656 7.83C113.223 7.63667 112.849 7.37667 112.536 7.05C112.223 6.71667 111.979 6.33333 111.806 5.9C111.639 5.46 111.556 4.99667 111.556 4.51C111.556 4.02333 111.643 3.56333 111.816 3.13C111.989 2.69 112.233 2.30333 112.546 1.97C112.859 1.63667 113.236 1.37333 113.676 1.18C114.116 0.98 114.603 0.88 115.136 0.88C115.669 0.88 116.153 0.976666 116.586 1.17C117.026 1.36333 117.403 1.62667 117.716 1.96C118.029 2.28667 118.269 2.67 118.436 3.11C118.609 3.54333 118.696 4.00333 118.696 4.49ZM117.876 4.51C117.876 4.11 117.806 3.73333 117.666 3.38C117.533 3.02667 117.343 2.72 117.096 2.46C116.849 2.2 116.556 1.99333 116.216 1.84C115.883 1.68667 115.516 1.61 115.116 1.61C114.716 1.61 114.346 1.68667 114.006 1.84C113.673 1.98667 113.386 2.19 113.146 2.45C112.906 2.71 112.716 3.01667 112.576 3.37C112.443 3.71667 112.376 4.09 112.376 4.49C112.376 4.89 112.443 5.26667 112.576 5.62C112.716 5.97333 112.909 6.28 113.156 6.54C113.403 6.8 113.693 7.00667 114.026 7.16C114.366 7.31333 114.736 7.39 115.136 7.39C115.536 7.39 115.903 7.31667 116.236 7.17C116.576 7.01667 116.866 6.81 117.106 6.55C117.346 6.29 117.533 5.98667 117.666 5.64C117.806 5.28667 117.876 4.91 117.876 4.51ZM126.152 8H125.182L123.152 5.28H121.152V8H120.362V1H123.372C123.759 1 124.105 1.05 124.412 1.15C124.725 1.25 124.992 1.39333 125.212 1.58C125.432 1.76 125.602 1.98 125.722 2.24C125.842 2.49333 125.902 2.77667 125.902 3.09C125.902 3.38333 125.855 3.64667 125.762 3.88C125.669 4.10667 125.535 4.30667 125.362 4.48C125.195 4.64667 124.995 4.78667 124.762 4.9C124.529 5.01333 124.275 5.09333 124.002 5.14L126.152 8ZM125.102 3.12C125.102 2.68 124.945 2.34 124.632 2.1C124.319 1.85333 123.879 1.73 123.312 1.73H121.152V4.57H123.302C123.562 4.57 123.802 4.53667 124.022 4.47C124.242 4.40333 124.432 4.31 124.592 4.19C124.752 4.06333 124.875 3.91 124.962 3.73C125.055 3.55 125.102 3.34667 125.102 3.12ZM130.17 1.73V8H129.37V1.73H127.02V1H132.52V1.73H130.17ZM140.356 4.49C140.356 4.97667 140.269 5.44 140.096 5.88C139.923 6.31333 139.679 6.69667 139.366 7.03C139.053 7.36333 138.676 7.63 138.236 7.83C137.796 8.02333 137.309 8.12 136.776 8.12C136.243 8.12 135.756 8.02333 135.316 7.83C134.883 7.63667 134.509 7.37667 134.196 7.05C133.883 6.71667 133.639 6.33333 133.466 5.9C133.299 5.46 133.216 4.99667 133.216 4.51C133.216 4.02333 133.303 3.56333 133.476 3.13C133.649 2.69 133.893 2.30333 134.206 1.97C134.519 1.63667 134.896 1.37333 135.336 1.18C135.776 0.98 136.263 0.88 136.796 0.88C137.329 0.88 137.813 0.976666 138.246 1.17C138.686 1.36333 139.063 1.62667 139.376 1.96C139.689 2.28667 139.929 2.67 140.096 3.11C140.269 3.54333 140.356 4.00333 140.356 4.49ZM139.536 4.51C139.536 4.11 139.466 3.73333 139.326 3.38C139.193 3.02667 139.003 2.72 138.756 2.46C138.509 2.2 138.216 1.99333 137.876 1.84C137.543 1.68667 137.176 1.61 136.776 1.61C136.376 1.61 136.006 1.68667 135.666 1.84C135.333 1.98667 135.046 2.19 134.806 2.45C134.566 2.71 134.376 3.01667 134.236 3.37C134.103 3.71667 134.036 4.09 134.036 4.49C134.036 4.89 134.103 5.26667 134.236 5.62C134.376 5.97333 134.569 6.28 134.816 6.54C135.063 6.8 135.353 7.00667 135.686 7.16C136.026 7.31333 136.396 7.39 136.796 7.39C137.196 7.39 137.563 7.31667 137.896 7.17C138.236 7.01667 138.526 6.81 138.766 6.55C139.006 6.29 139.193 5.98667 139.326 5.64C139.466 5.28667 139.536 4.91 139.536 4.51ZM148.082 7.05C147.756 7.34333 147.352 7.59667 146.872 7.81C146.399 8.01667 145.866 8.12 145.272 8.12C144.719 8.12 144.222 8.02667 143.782 7.84C143.349 7.65333 142.976 7.39667 142.662 7.07C142.356 6.74333 142.119 6.36 141.952 5.92C141.792 5.48 141.712 5.01 141.712 4.51C141.712 4.03 141.796 3.57 141.962 3.13C142.136 2.69 142.376 2.30333 142.682 1.97C142.989 1.63667 143.356 1.37333 143.782 1.18C144.216 0.98 144.696 0.88 145.222 0.88C145.516 0.88 145.782 0.9 146.022 0.94C146.269 0.98 146.496 1.04 146.702 1.12C146.916 1.2 147.112 1.3 147.292 1.42C147.479 1.53333 147.659 1.66333 147.832 1.81L147.322 2.41C147.189 2.29 147.049 2.18333 146.902 2.09C146.756 1.99 146.596 1.90667 146.422 1.84C146.256 1.76667 146.069 1.71 145.862 1.67C145.662 1.63 145.439 1.61 145.192 1.61C144.806 1.61 144.449 1.68667 144.122 1.84C143.796 1.99333 143.516 2.2 143.282 2.46C143.049 2.72 142.866 3.02667 142.732 3.38C142.599 3.72667 142.532 4.09667 142.532 4.49C142.532 4.91 142.596 5.3 142.722 5.66C142.856 6.01333 143.042 6.32 143.282 6.58C143.522 6.84 143.812 7.04333 144.152 7.19C144.492 7.33667 144.876 7.41 145.302 7.41C145.702 7.41 146.079 7.34333 146.432 7.21C146.786 7.07 147.082 6.90333 147.322 6.71V4.97H145.192V4.26H148.082V7.05ZM155.654 8H154.684L152.654 5.28H150.654V8H149.864V1H152.874C153.261 1 153.607 1.05 153.914 1.15C154.227 1.25 154.494 1.39333 154.714 1.58C154.934 1.76 155.104 1.98 155.224 2.24C155.344 2.49333 155.404 2.77667 155.404 3.09C155.404 3.38333 155.357 3.64667 155.264 3.88C155.171 4.10667 155.037 4.30667 154.864 4.48C154.697 4.64667 154.497 4.78667 154.264 4.9C154.031 5.01333 153.777 5.09333 153.504 5.14L155.654 8ZM154.604 3.12C154.604 2.68 154.447 2.34 154.134 2.1C153.821 1.85333 153.381 1.73 152.814 1.73H150.654V4.57H152.804C153.064 4.57 153.304 4.53667 153.524 4.47C153.744 4.40333 153.934 4.31 154.094 4.19C154.254 4.06333 154.377 3.91 154.464 3.73C154.557 3.55 154.604 3.34667 154.604 3.12ZM160.421 0.95L163.611 8H162.761L161.941 6.15H158.131L157.301 8H156.491L159.681 0.95H160.421ZM161.631 5.44L160.041 1.87L158.441 5.44H161.631ZM170.021 1V1.73H165.781V4.23H169.571V4.95H165.781V8H164.991V1H170.021ZM174.083 0.95L177.273 8H176.423L175.603 6.15H171.793L170.963 8H170.153L173.343 0.95H174.083ZM175.293 5.44L173.703 1.87L172.103 5.44H175.293ZM184.443 8H183.473L181.443 5.28H179.443V8H178.653V1H181.663C182.05 1 182.396 1.05 182.703 1.15C183.016 1.25 183.283 1.39333 183.503 1.58C183.723 1.76 183.893 1.98 184.013 2.24C184.133 2.49333 184.193 2.77667 184.193 3.09C184.193 3.38333 184.146 3.64667 184.053 3.88C183.96 4.10667 183.826 4.30667 183.653 4.48C183.486 4.64667 183.286 4.78667 183.053 4.9C182.82 5.01333 182.566 5.09333 182.293 5.14L184.443 8ZM183.393 3.12C183.393 2.68 183.236 2.34 182.923 2.1C182.61 1.85333 182.17 1.73 181.603 1.73H179.443V4.57H181.593C181.853 4.57 182.093 4.53667 182.313 4.47C182.533 4.40333 182.723 4.31 182.883 4.19C183.043 4.06333 183.166 3.91 183.253 3.73C183.346 3.55 183.393 3.34667 183.393 3.12ZM189.728 9.28H189.078V0.0199996H189.728V9.28ZM195.513 2.75C195.513 2.91667 195.54 3.06667 195.593 3.2C195.646 3.33333 195.743 3.45667 195.883 3.57C196.023 3.67667 196.216 3.77667 196.463 3.87C196.71 3.95667 197.026 4.04 197.413 4.12C198.193 4.29333 198.766 4.53333 199.133 4.84C199.506 5.14667 199.693 5.57 199.693 6.11C199.693 6.41 199.633 6.68333 199.513 6.93C199.393 7.17667 199.226 7.38667 199.013 7.56C198.806 7.73333 198.556 7.86667 198.263 7.96C197.97 8.05333 197.65 8.1 197.303 8.1C196.743 8.1 196.23 8.01 195.763 7.83C195.303 7.64333 194.863 7.36 194.443 6.98L194.933 6.4C195.3 6.73333 195.67 6.98333 196.043 7.15C196.416 7.31 196.846 7.39 197.333 7.39C197.806 7.39 198.183 7.28 198.463 7.06C198.75 6.84 198.893 6.55 198.893 6.19C198.893 6.02333 198.866 5.87667 198.813 5.75C198.76 5.61667 198.666 5.49667 198.533 5.39C198.4 5.28333 198.213 5.18667 197.973 5.1C197.74 5.01333 197.44 4.93 197.073 4.85C196.673 4.76333 196.323 4.66333 196.023 4.55C195.73 4.43667 195.486 4.3 195.293 4.14C195.1 3.98 194.956 3.79333 194.863 3.58C194.77 3.36667 194.723 3.11333 194.723 2.82C194.723 2.54 194.78 2.28333 194.893 2.05C195.006 1.81667 195.166 1.61667 195.373 1.45C195.58 1.27667 195.823 1.14333 196.103 1.05C196.383 0.95 196.69 0.9 197.023 0.9C197.536 0.9 197.983 0.973333 198.363 1.12C198.75 1.26 199.123 1.47333 199.483 1.76L199.023 2.37C198.696 2.10333 198.366 1.91 198.033 1.79C197.706 1.67 197.363 1.61 197.003 1.61C196.776 1.61 196.57 1.64 196.383 1.7C196.203 1.76 196.046 1.84 195.913 1.94C195.786 2.04 195.686 2.16 195.613 2.3C195.546 2.44 195.513 2.59 195.513 2.75ZM207.02 1V5.01C207.02 5.52333 206.95 5.97333 206.81 6.36C206.67 6.74667 206.47 7.07 206.21 7.33C205.956 7.59 205.65 7.78667 205.29 7.92C204.936 8.04667 204.54 8.11 204.1 8.11C203.666 8.11 203.27 8.04667 202.91 7.92C202.556 7.78667 202.25 7.59333 201.99 7.34C201.736 7.08 201.54 6.76 201.4 6.38C201.26 6 201.19 5.56333 201.19 5.07V1H201.98V5.02C201.98 5.78 202.166 6.36333 202.54 6.77C202.92 7.17667 203.446 7.38 204.12 7.38C204.766 7.38 205.28 7.18667 205.66 6.8C206.04 6.41333 206.23 5.83667 206.23 5.07V1H207.02ZM211.867 1C212.214 1 212.527 1.04333 212.807 1.13C213.087 1.21 213.327 1.32667 213.527 1.48C213.727 1.62667 213.881 1.81 213.987 2.03C214.094 2.24333 214.147 2.48333 214.147 2.75C214.147 2.98333 214.114 3.18667 214.047 3.36C213.987 3.53333 213.904 3.68667 213.797 3.82C213.691 3.95333 213.571 4.06667 213.437 4.16C213.311 4.24667 213.177 4.32 213.037 4.38C213.244 4.44 213.437 4.52 213.617 4.62C213.804 4.71333 213.964 4.82667 214.097 4.96C214.231 5.09333 214.337 5.25333 214.417 5.44C214.497 5.62667 214.537 5.84 214.537 6.08C214.537 6.38 214.477 6.65 214.357 6.89C214.237 7.13 214.064 7.33333 213.837 7.5C213.617 7.66 213.351 7.78333 213.037 7.87C212.724 7.95667 212.377 8 211.997 8H208.887V1H211.867ZM211.737 4.12C212.211 4.12 212.597 4.01333 212.897 3.8C213.197 3.58667 213.347 3.27333 213.347 2.86C213.347 2.50667 213.214 2.22667 212.947 2.02C212.681 1.81333 212.297 1.71 211.797 1.71H209.667V4.12H211.737ZM212.017 7.29C212.551 7.29 212.971 7.18 213.277 6.96C213.584 6.74 213.737 6.43 213.737 6.03C213.737 5.64333 213.581 5.34667 213.267 5.14C212.954 4.92667 212.491 4.82 211.877 4.82H209.667V7.29H212.017ZM222.014 2.33L219.464 6.08H219.424L216.874 2.34V8H216.104V1H216.904L219.454 4.82L222.004 1H222.804V8H222.014V2.33ZM229.846 1V1.72H225.576V4.11H229.396V4.83H225.576V7.28H229.896V8H224.786V1H229.846ZM234.135 1.73V8H233.335V1.73H230.985V1H236.485V1.73H234.135ZM243.029 1V1.72H238.759V4.11H242.579V4.83H238.759V7.28H243.079V8H237.969V1H243.029ZM250.459 8H249.489L247.459 5.28H245.459V8H244.669V1H247.679C248.065 1 248.412 1.05 248.719 1.15C249.032 1.25 249.299 1.39333 249.519 1.58C249.739 1.76 249.909 1.98 250.029 2.24C250.149 2.49333 250.209 2.77667 250.209 3.09C250.209 3.38333 250.162 3.64667 250.069 3.88C249.975 4.10667 249.842 4.30667 249.669 4.48C249.502 4.64667 249.302 4.78667 249.069 4.9C248.835 5.01333 248.582 5.09333 248.309 5.14L250.459 8ZM249.409 3.12C249.409 2.68 249.252 2.34 248.939 2.1C248.625 1.85333 248.185 1.73 247.619 1.73H245.459V4.57H247.609C247.869 4.57 248.109 4.53667 248.329 4.47C248.549 4.40333 248.739 4.31 248.899 4.19C249.059 4.06333 249.182 3.91 249.269 3.73C249.362 3.55 249.409 3.34667 249.409 3.12Z" fill="white"/>
</svg>
