<svg width="20" height="21" viewBox="0 0 20 21" fill="none" xmlns="http://www.w3.org/2000/svg">
<g clip-path="url(#clip0_543_750)">
<path d="M7.5 10.5C8.48891 10.5 9.45561 10.2068 10.2779 9.65735C11.1001 9.10794 11.741 8.32705 12.1194 7.41342C12.4978 6.49979 12.5969 5.49446 12.4039 4.52455C12.211 3.55465 11.7348 2.66373 11.0355 1.96447C10.3363 1.26521 9.44536 0.789002 8.47545 0.596076C7.50555 0.40315 6.50021 0.502166 5.58658 0.880605C4.67295 1.25904 3.89206 1.89991 3.34265 2.72215C2.79324 3.5444 2.5 4.5111 2.5 5.5C2.50132 6.82568 3.02853 8.09668 3.96593 9.03407C4.90332 9.97147 6.17432 10.4987 7.5 10.5ZM7.5 2.16667C8.15927 2.16667 8.80374 2.36217 9.3519 2.72844C9.90007 3.09471 10.3273 3.6153 10.5796 4.22439C10.8319 4.83348 10.8979 5.5037 10.7693 6.1503C10.6407 6.79691 10.3232 7.39085 9.85702 7.85702C9.39085 8.3232 8.79691 8.64067 8.1503 8.76929C7.5037 8.8979 6.83348 8.83189 6.22439 8.5796C5.6153 8.32731 5.09471 7.90007 4.72843 7.3519C4.36216 6.80374 4.16667 6.15927 4.16667 5.5C4.16667 4.61595 4.51786 3.7681 5.14298 3.14298C5.7681 2.51786 6.61595 2.16667 7.5 2.16667V2.16667Z" fill="#8C8C8C" stroke="white" stroke-width="0.5"/>
<path d="M7.5 12.1665C5.51162 12.1689 3.60538 12.9599 2.19938 14.3659C0.793381 15.7719 0.0024258 17.6781 0 19.6665C0 19.8875 0.0877974 20.0995 0.244078 20.2557C0.400358 20.412 0.61232 20.4998 0.833333 20.4998C1.05435 20.4998 1.26631 20.412 1.42259 20.2557C1.57887 20.0995 1.66667 19.8875 1.66667 19.6665C1.66667 18.1194 2.28125 16.6357 3.37521 15.5417C4.46917 14.4477 5.9529 13.8332 7.5 13.8332C9.0471 13.8332 10.5308 14.4477 11.6248 15.5417C12.7188 16.6357 13.3333 18.1194 13.3333 19.6665C13.3333 19.8875 13.4211 20.0995 13.5774 20.2557C13.7337 20.412 13.9457 20.4998 14.1667 20.4998C14.3877 20.4998 14.5996 20.412 14.7559 20.2557C14.9122 20.0995 15 19.8875 15 19.6665C14.9976 17.6781 14.2066 15.7719 12.8006 14.3659C11.3946 12.9599 9.48838 12.1689 7.5 12.1665V12.1665Z" fill="#8C8C8C" stroke="white" stroke-width="0.5"/>
<path d="M18.3332 7.0625C17.8694 7.0856 17.4337 7.29147 17.1214 7.63506C16.809 7.97864 16.6455 8.43197 16.6666 8.89583C16.6876 8.43197 16.5241 7.97864 16.2117 7.63506C15.8994 7.29147 15.4637 7.0856 14.9999 7.0625C14.5361 7.0856 14.1004 7.29147 13.788 7.63506C13.4757 7.97864 13.3122 8.43197 13.3332 8.89583C13.3332 10.3375 15.2132 12.0267 16.1499 12.7783C16.2965 12.8957 16.4787 12.9597 16.6666 12.9597C16.8544 12.9597 17.0366 12.8957 17.1832 12.7783C18.1199 12.0283 19.9999 10.3375 19.9999 8.89583C20.0209 8.43197 19.8574 7.97864 19.5451 7.63506C19.2327 7.29147 18.797 7.0856 18.3332 7.0625V7.0625Z" fill="#8C8C8C" stroke="white" stroke-width="0.5"/>
</g>
<defs>
<clipPath id="clip0_543_750">
<rect width="20" height="20" fill="white" transform="translate(0 0.5)"/>
</clipPath>
</defs>
</svg>
