<svg width="203" height="47" viewBox="0 0 203 47" fill="none" xmlns="http://www.w3.org/2000/svg">
<mask id="path-1-outside-1_129_36" maskUnits="userSpaceOnUse" x="-2" y="-1.27502" width="207" height="50" fill="black">
<rect fill="white" x="-2" y="-1.27502" width="207" height="50"/>
<path d="M36.2812 9.94373C32.5729 6.23539 28.1146 4.38123 22.9062 4.38123C17.6979 4.38123 13.2396 6.23539 9.53125 9.94373C5.82292 13.6521 3.96875 18.1104 3.96875 23.3187C3.96875 28.5271 5.82292 32.9854 9.53125 36.6937C13.2396 40.4021 17.6979 42.2562 22.9062 42.2562C28.1146 42.2562 32.5729 40.4021 36.2812 36.6937C40.0104 32.9646 41.875 28.5062 41.875 23.3187C41.875 18.1312 40.0104 13.6729 36.2812 9.94373ZM38.9688 39.3812C34.5312 43.8187 29.1771 46.0375 22.9062 46.0375C16.6354 46.0375 11.2812 43.8187 6.84375 39.3812C2.40625 34.9437 0.1875 29.5896 0.1875 23.3187C0.1875 17.0479 2.40625 11.6937 6.84375 7.25623C11.2812 2.81873 16.6354 0.599976 22.9062 0.599976C29.1771 0.599976 34.5312 2.81873 38.9688 7.25623C43.4062 11.6937 45.625 17.0479 45.625 23.3187C45.625 29.5896 43.4062 34.9437 38.9688 39.3812ZM55.7812 41.8812V43.8812C55.7812 44.4229 55.5938 44.85 55.2188 45.1625C54.8438 45.5375 54.3958 45.725 53.875 45.725C53.3333 45.725 52.9062 45.5375 52.5938 45.1625C52.1979 44.8291 52 44.4021 52 43.8812V41.8812C52 41.3604 52.1979 40.9333 52.5938 40.6C52.9062 40.225 53.3333 40.0375 53.875 40.0375C54.3958 40.0375 54.8438 40.225 55.2188 40.6C55.5938 40.9125 55.7812 41.3396 55.7812 41.8812ZM82.2812 25.8187H81.1562C85.2396 27.7979 88.5312 30.35 91.0312 33.475C93.5312 36.6 94.7812 40.0687 94.7812 43.8812C94.7812 44.4854 94.5938 44.9437 94.2188 45.2562C93.8438 45.5687 93.4062 45.725 92.9062 45.725C92.3854 45.725 91.9479 45.5687 91.5938 45.2562C91.2396 44.9437 91.0625 44.4854 91.0625 43.8812C91.0625 40.6729 89.8229 37.6729 87.3438 34.8812C84.8854 32.0687 81.6875 29.8604 77.75 28.2562C73.8125 26.6312 69.7188 25.8187 65.4688 25.8187C64.8646 25.8187 64.3958 25.6416 64.0625 25.2875C63.75 24.9333 63.5938 24.4958 63.5938 23.975C63.5938 23.475 63.75 23.0375 64.0625 22.6625C64.3958 22.2875 64.8646 22.1 65.4688 22.1H82.2812C84.7188 22.1 86.7917 21.2562 88.5 19.5687C90.2083 17.8604 91.0625 15.7875 91.0625 13.35C91.0625 10.9333 90.2083 8.87081 88.5 7.16248C86.7917 5.43331 84.7188 4.56873 82.2812 4.56873H64.0625C63.4583 4.56873 62.9896 4.40206 62.6562 4.06873C62.3438 3.71456 62.1875 3.28748 62.1875 2.78748C62.1875 2.28748 62.3438 1.84998 62.6562 1.47498C62.9896 1.09998 63.4583 0.912476 64.0625 0.912476H82.2812C85.7396 0.912476 88.6875 2.13123 91.125 4.56873C93.5625 7.00623 94.7812 9.93331 94.7812 13.35C94.7812 16.8083 93.5625 19.7562 91.125 22.1937C88.6875 24.6104 85.7396 25.8187 82.2812 25.8187ZM104.969 41.8812V43.8812C104.969 44.4229 104.781 44.85 104.406 45.1625C104.031 45.5375 103.583 45.725 103.062 45.725C102.521 45.725 102.094 45.5375 101.781 45.1625C101.385 44.8291 101.188 44.4021 101.188 43.8812V41.8812C101.188 41.3604 101.385 40.9333 101.781 40.6C102.094 40.225 102.521 40.0375 103.062 40.0375C103.583 40.0375 104.031 40.225 104.406 40.6C104.781 40.9125 104.969 41.3396 104.969 41.8812ZM147.469 9.94373C143.76 6.23539 139.302 4.38123 134.094 4.38123C128.885 4.38123 124.427 6.23539 120.719 9.94373C117.01 13.6521 115.156 18.1104 115.156 23.3187C115.156 28.5271 117.01 32.9854 120.719 36.6937C124.427 40.4021 128.885 42.2562 134.094 42.2562C139.302 42.2562 143.76 40.4021 147.469 36.6937C151.198 32.9646 153.062 28.5062 153.062 23.3187C153.062 18.1312 151.198 13.6729 147.469 9.94373ZM150.156 39.3812C145.719 43.8187 140.365 46.0375 134.094 46.0375C127.823 46.0375 122.469 43.8187 118.031 39.3812C113.594 34.9437 111.375 29.5896 111.375 23.3187C111.375 17.0479 113.594 11.6937 118.031 7.25623C122.469 2.81873 127.823 0.599976 134.094 0.599976C140.365 0.599976 145.719 2.81873 150.156 7.25623C154.594 11.6937 156.812 17.0479 156.812 23.3187C156.812 29.5896 154.594 34.9437 150.156 39.3812ZM166.969 41.8812V43.8812C166.969 44.4229 166.781 44.85 166.406 45.1625C166.031 45.5375 165.583 45.725 165.062 45.725C164.521 45.725 164.094 45.5375 163.781 45.1625C163.385 44.8291 163.188 44.4021 163.188 43.8812V41.8812C163.188 41.3604 163.385 40.9333 163.781 40.6C164.094 40.225 164.521 40.0375 165.062 40.0375C165.583 40.0375 166.031 40.225 166.406 40.6C166.781 40.9125 166.969 41.3396 166.969 41.8812ZM190.781 25.1312H186.5H185.469C182.135 25.1312 179.281 23.9437 176.906 21.5687C174.552 19.1937 173.375 16.3396 173.375 13.0062C173.375 9.67289 174.552 6.82914 176.906 4.47498C179.281 2.09998 182.135 0.912476 185.469 0.912476H199.312C199.896 0.912476 200.333 1.08956 200.625 1.44373C200.938 1.79789 201.094 2.22498 201.094 2.72498C201.094 3.22498 200.938 3.65206 200.625 4.00623C200.333 4.33956 199.896 4.50623 199.312 4.50623H185.469C183.094 4.50623 181.083 5.32914 179.438 6.97498C177.792 8.62081 176.969 10.6312 176.969 13.0062C176.969 15.3812 177.792 17.4021 179.438 19.0687C181.083 20.7146 183.094 21.5375 185.469 21.5375H190.781C194.115 21.5375 196.969 22.725 199.344 25.1C201.719 27.4541 202.906 30.2979 202.906 33.6312C202.906 36.9646 201.719 39.8187 199.344 42.1937C196.969 44.5479 194.115 45.725 190.781 45.725H176.969C176.385 45.725 175.927 45.5479 175.594 45.1937C175.281 44.8396 175.125 44.4229 175.125 43.9437C175.125 43.4646 175.281 43.0479 175.594 42.6937C175.927 42.3187 176.385 42.1312 176.969 42.1312H190.781C193.156 42.1312 195.167 41.3083 196.812 39.6625C198.479 38.0166 199.312 36.0062 199.312 33.6312C199.312 31.2771 198.479 29.2771 196.812 27.6312C195.167 25.9646 193.156 25.1312 190.781 25.1312Z"/>
</mask>
<path d="M36.2812 9.94373C32.5729 6.23539 28.1146 4.38123 22.9062 4.38123C17.6979 4.38123 13.2396 6.23539 9.53125 9.94373C5.82292 13.6521 3.96875 18.1104 3.96875 23.3187C3.96875 28.5271 5.82292 32.9854 9.53125 36.6937C13.2396 40.4021 17.6979 42.2562 22.9062 42.2562C28.1146 42.2562 32.5729 40.4021 36.2812 36.6937C40.0104 32.9646 41.875 28.5062 41.875 23.3187C41.875 18.1312 40.0104 13.6729 36.2812 9.94373ZM38.9688 39.3812C34.5312 43.8187 29.1771 46.0375 22.9062 46.0375C16.6354 46.0375 11.2812 43.8187 6.84375 39.3812C2.40625 34.9437 0.1875 29.5896 0.1875 23.3187C0.1875 17.0479 2.40625 11.6937 6.84375 7.25623C11.2812 2.81873 16.6354 0.599976 22.9062 0.599976C29.1771 0.599976 34.5312 2.81873 38.9688 7.25623C43.4062 11.6937 45.625 17.0479 45.625 23.3187C45.625 29.5896 43.4062 34.9437 38.9688 39.3812ZM55.7812 41.8812V43.8812C55.7812 44.4229 55.5938 44.85 55.2188 45.1625C54.8438 45.5375 54.3958 45.725 53.875 45.725C53.3333 45.725 52.9062 45.5375 52.5938 45.1625C52.1979 44.8291 52 44.4021 52 43.8812V41.8812C52 41.3604 52.1979 40.9333 52.5938 40.6C52.9062 40.225 53.3333 40.0375 53.875 40.0375C54.3958 40.0375 54.8438 40.225 55.2188 40.6C55.5938 40.9125 55.7812 41.3396 55.7812 41.8812ZM82.2812 25.8187H81.1562C85.2396 27.7979 88.5312 30.35 91.0312 33.475C93.5312 36.6 94.7812 40.0687 94.7812 43.8812C94.7812 44.4854 94.5938 44.9437 94.2188 45.2562C93.8438 45.5687 93.4062 45.725 92.9062 45.725C92.3854 45.725 91.9479 45.5687 91.5938 45.2562C91.2396 44.9437 91.0625 44.4854 91.0625 43.8812C91.0625 40.6729 89.8229 37.6729 87.3438 34.8812C84.8854 32.0687 81.6875 29.8604 77.75 28.2562C73.8125 26.6312 69.7188 25.8187 65.4688 25.8187C64.8646 25.8187 64.3958 25.6416 64.0625 25.2875C63.75 24.9333 63.5938 24.4958 63.5938 23.975C63.5938 23.475 63.75 23.0375 64.0625 22.6625C64.3958 22.2875 64.8646 22.1 65.4688 22.1H82.2812C84.7188 22.1 86.7917 21.2562 88.5 19.5687C90.2083 17.8604 91.0625 15.7875 91.0625 13.35C91.0625 10.9333 90.2083 8.87081 88.5 7.16248C86.7917 5.43331 84.7188 4.56873 82.2812 4.56873H64.0625C63.4583 4.56873 62.9896 4.40206 62.6562 4.06873C62.3438 3.71456 62.1875 3.28748 62.1875 2.78748C62.1875 2.28748 62.3438 1.84998 62.6562 1.47498C62.9896 1.09998 63.4583 0.912476 64.0625 0.912476H82.2812C85.7396 0.912476 88.6875 2.13123 91.125 4.56873C93.5625 7.00623 94.7812 9.93331 94.7812 13.35C94.7812 16.8083 93.5625 19.7562 91.125 22.1937C88.6875 24.6104 85.7396 25.8187 82.2812 25.8187ZM104.969 41.8812V43.8812C104.969 44.4229 104.781 44.85 104.406 45.1625C104.031 45.5375 103.583 45.725 103.062 45.725C102.521 45.725 102.094 45.5375 101.781 45.1625C101.385 44.8291 101.188 44.4021 101.188 43.8812V41.8812C101.188 41.3604 101.385 40.9333 101.781 40.6C102.094 40.225 102.521 40.0375 103.062 40.0375C103.583 40.0375 104.031 40.225 104.406 40.6C104.781 40.9125 104.969 41.3396 104.969 41.8812ZM147.469 9.94373C143.76 6.23539 139.302 4.38123 134.094 4.38123C128.885 4.38123 124.427 6.23539 120.719 9.94373C117.01 13.6521 115.156 18.1104 115.156 23.3187C115.156 28.5271 117.01 32.9854 120.719 36.6937C124.427 40.4021 128.885 42.2562 134.094 42.2562C139.302 42.2562 143.76 40.4021 147.469 36.6937C151.198 32.9646 153.062 28.5062 153.062 23.3187C153.062 18.1312 151.198 13.6729 147.469 9.94373ZM150.156 39.3812C145.719 43.8187 140.365 46.0375 134.094 46.0375C127.823 46.0375 122.469 43.8187 118.031 39.3812C113.594 34.9437 111.375 29.5896 111.375 23.3187C111.375 17.0479 113.594 11.6937 118.031 7.25623C122.469 2.81873 127.823 0.599976 134.094 0.599976C140.365 0.599976 145.719 2.81873 150.156 7.25623C154.594 11.6937 156.812 17.0479 156.812 23.3187C156.812 29.5896 154.594 34.9437 150.156 39.3812ZM166.969 41.8812V43.8812C166.969 44.4229 166.781 44.85 166.406 45.1625C166.031 45.5375 165.583 45.725 165.062 45.725C164.521 45.725 164.094 45.5375 163.781 45.1625C163.385 44.8291 163.188 44.4021 163.188 43.8812V41.8812C163.188 41.3604 163.385 40.9333 163.781 40.6C164.094 40.225 164.521 40.0375 165.062 40.0375C165.583 40.0375 166.031 40.225 166.406 40.6C166.781 40.9125 166.969 41.3396 166.969 41.8812ZM190.781 25.1312H186.5H185.469C182.135 25.1312 179.281 23.9437 176.906 21.5687C174.552 19.1937 173.375 16.3396 173.375 13.0062C173.375 9.67289 174.552 6.82914 176.906 4.47498C179.281 2.09998 182.135 0.912476 185.469 0.912476H199.312C199.896 0.912476 200.333 1.08956 200.625 1.44373C200.938 1.79789 201.094 2.22498 201.094 2.72498C201.094 3.22498 200.938 3.65206 200.625 4.00623C200.333 4.33956 199.896 4.50623 199.312 4.50623H185.469C183.094 4.50623 181.083 5.32914 179.438 6.97498C177.792 8.62081 176.969 10.6312 176.969 13.0062C176.969 15.3812 177.792 17.4021 179.438 19.0687C181.083 20.7146 183.094 21.5375 185.469 21.5375H190.781C194.115 21.5375 196.969 22.725 199.344 25.1C201.719 27.4541 202.906 30.2979 202.906 33.6312C202.906 36.9646 201.719 39.8187 199.344 42.1937C196.969 44.5479 194.115 45.725 190.781 45.725H176.969C176.385 45.725 175.927 45.5479 175.594 45.1937C175.281 44.8396 175.125 44.4229 175.125 43.9437C175.125 43.4646 175.281 43.0479 175.594 42.6937C175.927 42.3187 176.385 42.1312 176.969 42.1312H190.781C193.156 42.1312 195.167 41.3083 196.812 39.6625C198.479 38.0166 199.312 36.0062 199.312 33.6312C199.312 31.2771 198.479 29.2771 196.812 27.6312C195.167 25.9646 193.156 25.1312 190.781 25.1312Z" fill="white"/>
<path d="M37.554 8.67093C33.5108 4.62766 28.5957 2.58123 22.9062 2.58123V6.18123C27.6335 6.18123 31.6351 7.84312 35.0085 11.2165L37.554 8.67093ZM22.9062 2.58123C17.2168 2.58123 12.3017 4.62766 8.25846 8.67093L10.804 11.2165C14.1774 7.84312 18.179 6.18123 22.9062 6.18123V2.58123ZM8.25846 8.67093C4.21519 12.7142 2.16875 17.6293 2.16875 23.3187H5.76875C5.76875 18.5915 7.43065 14.5899 10.804 11.2165L8.25846 8.67093ZM2.16875 23.3187C2.16875 29.0082 4.21519 33.9232 8.25846 37.9665L10.804 35.4209C7.43065 32.0475 5.76875 28.046 5.76875 23.3187H2.16875ZM8.25846 37.9665C12.3017 42.0098 17.2168 44.0562 22.9062 44.0562V40.4562C18.179 40.4562 14.1774 38.7943 10.804 35.4209L8.25846 37.9665ZM22.9062 44.0562C28.5957 44.0562 33.5108 42.0098 37.554 37.9665L35.0085 35.4209C31.6351 38.7943 27.6335 40.4562 22.9062 40.4562V44.0562ZM37.554 37.9665C41.6145 33.9061 43.675 28.9925 43.675 23.3187H40.075C40.075 28.02 38.4064 32.023 35.0085 35.4209L37.554 37.9665ZM43.675 23.3187C43.675 17.645 41.6145 12.7314 37.554 8.67093L35.0085 11.2165C38.4064 14.6144 40.075 18.6175 40.075 23.3187H43.675ZM37.696 38.1084C33.5957 42.2087 28.6993 44.2375 22.9062 44.2375V47.8375C29.6549 47.8375 35.4668 45.4288 40.2415 40.654L37.696 38.1084ZM22.9062 44.2375C17.1132 44.2375 12.2168 42.2087 8.11654 38.1084L5.57096 40.654C10.3457 45.4288 16.1576 47.8375 22.9062 47.8375V44.2375ZM8.11654 38.1084C4.01632 34.0082 1.9875 29.1118 1.9875 23.3187H-1.6125C-1.6125 30.0674 0.79618 35.8792 5.57096 40.654L8.11654 38.1084ZM1.9875 23.3187C1.9875 17.5257 4.01632 12.6292 8.11654 8.52902L5.57096 5.98343C0.79618 10.7582 -1.6125 16.5701 -1.6125 23.3187H1.9875ZM8.11654 8.52902C12.2168 4.4288 17.1132 2.39998 22.9062 2.39998V-1.20002C16.1576 -1.20002 10.3457 1.20866 5.57096 5.98343L8.11654 8.52902ZM22.9062 2.39998C28.6993 2.39998 33.5957 4.4288 37.696 8.52902L40.2415 5.98343C35.4668 1.20866 29.6549 -1.20002 22.9062 -1.20002V2.39998ZM37.696 8.52902C41.7962 12.6292 43.825 17.5257 43.825 23.3187H47.425C47.425 16.5701 45.0163 10.7582 40.2415 5.98343L37.696 8.52902ZM43.825 23.3187C43.825 29.1118 41.7962 34.0082 37.696 38.1084L40.2415 40.654C45.0163 35.8792 47.425 30.0674 47.425 23.3187H43.825ZM55.2188 45.1625L54.0664 43.7797L54.0037 43.8319L53.946 43.8897L55.2188 45.1625ZM52.5938 45.1625L53.9765 44.0101L53.8748 43.888L53.7532 43.7856L52.5938 45.1625ZM52.5938 40.6L53.7532 41.9768L53.8748 41.8744L53.9765 41.7523L52.5938 40.6ZM55.2188 40.6L53.946 41.8728L54.0037 41.9305L54.0664 41.9828L55.2188 40.6ZM53.9813 41.8812V43.8812H57.5812V41.8812H53.9813ZM53.9813 43.8812C53.9813 43.9428 53.9712 43.9326 53.9925 43.8842C54.0025 43.8614 54.0161 43.8381 54.0321 43.817C54.048 43.7961 54.0612 43.784 54.0664 43.7797L56.3711 46.5453C57.2047 45.8506 57.5812 44.8909 57.5812 43.8812H53.9813ZM53.946 43.8897C53.9261 43.9096 53.9132 43.9191 53.9081 43.9226C53.9033 43.9258 53.903 43.9254 53.9065 43.924C53.9101 43.9225 53.9119 43.9222 53.9099 43.9226C53.9076 43.9231 53.8968 43.925 53.875 43.925V47.525C54.8829 47.525 55.7859 47.1409 56.4915 46.4353L53.946 43.8897ZM53.875 43.925C53.8134 43.925 53.8236 43.9149 53.872 43.9362C53.8948 43.9462 53.9182 43.9598 53.9393 43.9759C53.9601 43.9917 53.9722 44.005 53.9765 44.0101L51.211 46.3148C51.9057 47.1485 52.8653 47.525 53.875 47.525V43.925ZM53.7532 43.7856C53.7429 43.777 53.7447 43.7769 53.7527 43.7871C53.761 43.7978 53.7718 43.8142 53.7816 43.8353C53.7914 43.8564 53.7966 43.8746 53.7991 43.8864C53.8015 43.8976 53.8 43.8971 53.8 43.8812H50.2C50.2 44.929 50.6293 45.8614 51.4343 46.5393L53.7532 43.7856ZM53.8 43.8812V41.8812H50.2V43.8812H53.8ZM53.8 41.8812C53.8 41.8654 53.8015 41.8648 53.7991 41.8761C53.7966 41.8879 53.7914 41.9061 53.7816 41.9271C53.7718 41.9482 53.761 41.9647 53.7527 41.9753C53.7447 41.9856 53.7429 41.9855 53.7532 41.9768L51.4343 39.2231C50.6293 39.901 50.2 40.8334 50.2 41.8812H53.8ZM53.9765 41.7523C53.9722 41.7575 53.9601 41.7707 53.9393 41.7866C53.9182 41.8026 53.8948 41.8162 53.872 41.8263C53.8236 41.8475 53.8134 41.8375 53.875 41.8375V38.2375C52.8653 38.2375 51.9057 38.614 51.211 39.4476L53.9765 41.7523ZM53.875 41.8375C53.8968 41.8375 53.9076 41.8394 53.9099 41.8398C53.9119 41.8402 53.9101 41.84 53.9065 41.8385C53.903 41.837 53.9033 41.8366 53.9081 41.8399C53.9132 41.8434 53.9261 41.8529 53.946 41.8728L56.4915 39.3272C55.7859 38.6215 54.8829 38.2375 53.875 38.2375V41.8375ZM54.0664 41.9828C54.0612 41.9785 54.048 41.9663 54.0321 41.9455C54.0161 41.9244 54.0025 41.9011 53.9925 41.8782C53.9712 41.8298 53.9813 41.8197 53.9813 41.8812H57.5812C57.5812 40.8715 57.2047 39.9119 56.3711 39.2172L54.0664 41.9828ZM81.1562 25.8187V24.0187L80.3712 27.4385L81.1562 25.8187ZM87.3438 34.8812L85.9885 36.0658L85.9932 36.0712L85.9979 36.0765L87.3438 34.8812ZM77.75 28.2562L77.0633 29.9201L77.0709 29.9232L77.75 28.2562ZM64.0625 25.2875L62.7128 26.4784L62.7319 26.5001L62.7517 26.5211L64.0625 25.2875ZM64.0625 22.6625L62.7172 21.4666L62.6981 21.4881L62.6797 21.5101L64.0625 22.6625ZM88.5 19.5687L89.765 20.8493L89.7728 20.8415L88.5 19.5687ZM88.5 7.16248L87.2195 8.42755L87.2272 8.43527L88.5 7.16248ZM62.6562 4.06873L61.3065 5.25964L61.3437 5.30178L61.3835 5.34152L62.6562 4.06873ZM62.6562 1.47498L61.3109 0.279121L61.2918 0.300583L61.2735 0.322644L62.6562 1.47498ZM91.125 22.1937L92.3923 23.472L92.3978 23.4665L91.125 22.1937ZM82.2812 24.0187H81.1562V27.6187H82.2812V24.0187ZM80.3712 27.4385C84.2458 29.3165 87.3142 31.7101 89.6257 34.5994L92.4368 32.3505C89.7483 28.9899 86.2334 26.2793 81.9413 24.199L80.3712 27.4385ZM89.6257 34.5994C91.884 37.4224 92.9812 40.4988 92.9812 43.8812H96.5813C96.5813 39.6386 95.1785 35.7776 92.4368 32.3505L89.6257 34.5994ZM92.9812 43.8812C92.9812 43.9996 92.9627 44.0256 92.9746 43.9966C92.9807 43.9817 92.9922 43.959 93.0108 43.9335C93.0295 43.9079 93.0494 43.8876 93.0664 43.8734L95.3711 46.639C96.2523 45.9047 96.5813 44.8809 96.5813 43.8812H92.9812ZM93.0664 43.8734C93.0234 43.9093 92.9963 43.925 92.9062 43.925V47.525C93.8162 47.525 94.6641 47.2282 95.3711 46.639L93.0664 43.8734ZM92.9062 43.925C92.8274 43.925 92.7953 43.9135 92.7929 43.9127C92.7908 43.9119 92.7911 43.9119 92.7921 43.9124C92.793 43.913 92.7907 43.9118 92.7847 43.9065L90.4028 46.6059C91.1205 47.2392 91.9954 47.525 92.9062 47.525V43.925ZM92.7847 43.9065C92.8052 43.9246 92.8258 43.9474 92.8434 43.9731C92.8609 43.9984 92.8703 44.019 92.8744 44.0294C92.8818 44.0486 92.8625 44.0107 92.8625 43.8812H89.2625C89.2625 44.8476 89.5591 45.8615 90.4028 46.6059L92.7847 43.9065ZM92.8625 43.8812C92.8625 40.1614 91.4105 36.7498 88.6896 33.686L85.9979 36.0765C88.2353 38.596 89.2625 41.1844 89.2625 43.8812H92.8625ZM88.699 33.6966C86.0319 30.6453 82.5904 28.2846 78.4291 26.5893L77.0709 29.9232C80.7846 31.4362 83.7389 33.4922 85.9885 36.0658L88.699 33.6966ZM78.4367 26.5924C74.2819 24.8777 69.9549 24.0187 65.4688 24.0187V27.6187C69.4826 27.6187 73.3431 28.3848 77.0633 29.9201L78.4367 26.5924ZM65.4688 24.0187C65.3405 24.0187 65.2942 23.9998 65.3002 24.0021C65.3035 24.0033 65.3155 24.0084 65.3318 24.0192C65.3484 24.0302 65.3627 24.0426 65.3733 24.0538L62.7517 26.5211C63.5043 27.3207 64.4967 27.6187 65.4688 27.6187V24.0187ZM65.4122 24.0966C65.4069 24.0906 65.4057 24.0882 65.4063 24.0891C65.4069 24.0901 65.4068 24.0904 65.4061 24.0883C65.4052 24.0859 65.3938 24.0539 65.3938 23.975H61.7937C61.7937 24.8858 62.0795 25.7607 62.7128 26.4784L65.4122 24.0966ZM65.3938 23.975C65.3938 23.8849 65.4094 23.8579 65.4453 23.8148L62.6797 21.5101C62.0906 22.2171 61.7937 23.065 61.7937 23.975H65.3938ZM65.4078 23.8583C65.4006 23.8664 65.3883 23.8783 65.3714 23.8901C65.3546 23.9019 65.3403 23.9088 65.3326 23.9119C65.3169 23.9181 65.3516 23.9 65.4688 23.9V20.3C64.4648 20.3 63.4614 20.6294 62.7172 21.4666L65.4078 23.8583ZM65.4688 23.9H82.2812V20.3H65.4688V23.9ZM82.2812 23.9C85.1843 23.9 87.7141 22.8752 89.765 20.8493L87.235 18.2881C85.8693 19.6373 84.2532 20.3 82.2812 20.3V23.9ZM89.7728 20.8415C91.8221 18.7922 92.8625 16.2601 92.8625 13.35H89.2625C89.2625 15.3149 88.5946 16.9285 87.2272 18.2959L89.7728 20.8415ZM92.8625 13.35C92.8625 10.4561 91.8188 7.9357 89.7728 5.88968L87.2272 8.43527C88.5979 9.80592 89.2625 11.4105 89.2625 13.35H92.8625ZM89.7805 5.89742C87.7329 3.82488 85.1984 2.76873 82.2812 2.76873V6.36873C84.2391 6.36873 85.8504 7.04173 87.2195 8.42753L89.7805 5.89742ZM82.2812 2.76873H64.0625V6.36873H82.2812V2.76873ZM64.0625 2.76873C63.9232 2.76873 63.8651 2.74927 63.8608 2.74774C63.8594 2.74722 63.8685 2.75039 63.8839 2.75997C63.8995 2.76972 63.9153 2.7822 63.929 2.79593L61.3835 5.34152C62.1424 6.10043 63.1218 6.36873 64.0625 6.36873V2.76873ZM64.006 2.87781C63.9977 2.86844 63.9948 2.86361 63.9947 2.86334C63.9945 2.86301 63.9946 2.86316 63.9948 2.86364C63.995 2.86412 63.9951 2.86442 63.9951 2.86434C63.9951 2.86425 63.9947 2.86326 63.9942 2.86113C63.9936 2.85898 63.9927 2.85524 63.9918 2.84965C63.9899 2.83865 63.9875 2.81855 63.9875 2.78748H60.3875C60.3875 3.69804 60.6859 4.55621 61.3065 5.25964L64.006 2.87781ZM63.9875 2.78748C63.9875 2.6974 64.0032 2.67035 64.039 2.62731L61.2735 0.322644C60.6843 1.0296 60.3875 1.87755 60.3875 2.78748H63.9875ZM64.0016 2.67083C63.9944 2.67894 63.982 2.69077 63.9652 2.7026C63.9483 2.7144 63.934 2.72127 63.9263 2.72436C63.9107 2.73061 63.9454 2.71248 64.0625 2.71248V-0.887524C63.0586 -0.887524 62.0551 -0.558094 61.3109 0.279121L64.0016 2.67083ZM64.0625 2.71248H82.2812V-0.887524H64.0625V2.71248ZM82.2812 2.71248C85.2639 2.71248 87.7535 3.74282 89.8522 5.84152L92.3978 3.29593C89.6215 0.519636 86.2152 -0.887524 82.2812 -0.887524V2.71248ZM89.8522 5.84152C91.9555 7.94484 92.9812 10.4155 92.9812 13.35H96.5813C96.5813 9.45115 95.1695 6.06761 92.3978 3.29593L89.8522 5.84152ZM92.9812 13.35C92.9812 16.3327 91.9509 18.8222 89.8522 20.9209L92.3978 23.4665C95.1741 20.6902 96.5813 17.284 96.5813 13.35H92.9812ZM89.8577 20.9155C87.7601 22.9951 85.2689 24.0187 82.2812 24.0187V27.6187C86.2103 27.6187 89.6149 26.2257 92.3923 23.472L89.8577 20.9155ZM104.406 45.1625L103.254 43.7797L103.191 43.8319L103.133 43.8897L104.406 45.1625ZM101.781 45.1625L103.164 44.0101L103.062 43.888L102.941 43.7856L101.781 45.1625ZM101.781 40.6L102.941 41.9768L103.062 41.8744L103.164 41.7523L101.781 40.6ZM104.406 40.6L103.133 41.8728L103.191 41.9305L103.254 41.9828L104.406 40.6ZM103.169 41.8812V43.8812H106.769V41.8812H103.169ZM103.169 43.8812C103.169 43.9428 103.159 43.9326 103.18 43.8842C103.19 43.8614 103.204 43.8381 103.22 43.817C103.235 43.7961 103.249 43.784 103.254 43.7797L105.559 46.5453C106.392 45.8506 106.769 44.8909 106.769 43.8812H103.169ZM103.133 43.8897C103.114 43.9096 103.101 43.9191 103.096 43.9226C103.091 43.9258 103.091 43.9254 103.094 43.924C103.098 43.9225 103.099 43.9222 103.097 43.9226C103.095 43.9231 103.084 43.925 103.062 43.925V47.525C104.07 47.525 104.973 47.1409 105.679 46.4353L103.133 43.8897ZM103.062 43.925C103.001 43.925 103.011 43.9149 103.06 43.9362C103.082 43.9462 103.106 43.9598 103.127 43.9759C103.148 43.9917 103.16 44.005 103.164 44.0101L100.398 46.3148C101.093 47.1485 102.053 47.525 103.062 47.525V43.925ZM102.941 43.7856C102.93 43.777 102.932 43.7769 102.94 43.7871C102.949 43.7978 102.959 43.8142 102.969 43.8353C102.979 43.8564 102.984 43.8746 102.987 43.8864C102.989 43.8976 102.988 43.8971 102.988 43.8812H99.3875C99.3875 44.929 99.8168 45.8614 100.622 46.5393L102.941 43.7856ZM102.988 43.8812V41.8812H99.3875V43.8812H102.988ZM102.988 41.8812C102.988 41.8654 102.989 41.8648 102.987 41.8761C102.984 41.8879 102.979 41.9061 102.969 41.9271C102.959 41.9482 102.949 41.9647 102.94 41.9753C102.932 41.9856 102.93 41.9855 102.941 41.9768L100.622 39.2231C99.8168 39.901 99.3875 40.8334 99.3875 41.8812H102.988ZM103.164 41.7523C103.16 41.7575 103.148 41.7707 103.127 41.7866C103.106 41.8026 103.082 41.8162 103.06 41.8263C103.011 41.8475 103.001 41.8375 103.062 41.8375V38.2375C102.053 38.2375 101.093 38.614 100.398 39.4476L103.164 41.7523ZM103.062 41.8375C103.084 41.8375 103.095 41.8394 103.097 41.8398C103.099 41.8402 103.098 41.84 103.094 41.8385C103.091 41.837 103.091 41.8366 103.096 41.8399C103.101 41.8434 103.114 41.8529 103.133 41.8728L105.679 39.3272C104.973 38.6215 104.07 38.2375 103.062 38.2375V41.8375ZM103.254 41.9828C103.249 41.9785 103.235 41.9663 103.22 41.9455C103.204 41.9244 103.19 41.9011 103.18 41.8782C103.159 41.8298 103.169 41.8197 103.169 41.8812H106.769C106.769 40.8715 106.392 39.9119 105.559 39.2172L103.254 41.9828ZM148.742 8.67093C144.698 4.62766 139.783 2.58123 134.094 2.58123V6.18123C138.821 6.18123 142.823 7.84312 146.196 11.2165L148.742 8.67093ZM134.094 2.58123C128.404 2.58123 123.489 4.62766 119.446 8.67093L121.992 11.2165C125.365 7.84312 129.367 6.18123 134.094 6.18123V2.58123ZM119.446 8.67093C115.403 12.7142 113.356 17.6293 113.356 23.3187H116.956C116.956 18.5915 118.618 14.5899 121.992 11.2165L119.446 8.67093ZM113.356 23.3187C113.356 29.0082 115.403 33.9232 119.446 37.9665L121.992 35.4209C118.618 32.0475 116.956 28.046 116.956 23.3187H113.356ZM119.446 37.9665C123.489 42.0098 128.404 44.0562 134.094 44.0562V40.4562C129.367 40.4562 125.365 38.7943 121.992 35.4209L119.446 37.9665ZM134.094 44.0562C139.783 44.0562 144.698 42.0098 148.742 37.9665L146.196 35.4209C142.823 38.7943 138.821 40.4562 134.094 40.4562V44.0562ZM148.742 37.9665C152.802 33.9061 154.863 28.9925 154.863 23.3187H151.262C151.262 28.02 149.594 32.023 146.196 35.4209L148.742 37.9665ZM154.863 23.3187C154.863 17.645 152.802 12.7314 148.742 8.67093L146.196 11.2165C149.594 14.6144 151.262 18.6175 151.262 23.3187H154.863ZM148.883 38.1084C144.783 42.2087 139.887 44.2375 134.094 44.2375V47.8375C140.842 47.8375 146.654 45.4288 151.429 40.654L148.883 38.1084ZM134.094 44.2375C128.301 44.2375 123.404 42.2087 119.304 38.1084L116.758 40.654C121.533 45.4288 127.345 47.8375 134.094 47.8375V44.2375ZM119.304 38.1084C115.204 34.0082 113.175 29.1118 113.175 23.3187H109.575C109.575 30.0674 111.984 35.8792 116.758 40.654L119.304 38.1084ZM113.175 23.3187C113.175 17.5257 115.204 12.6292 119.304 8.52902L116.758 5.98343C111.984 10.7582 109.575 16.5701 109.575 23.3187H113.175ZM119.304 8.52902C123.404 4.4288 128.301 2.39998 134.094 2.39998V-1.20002C127.345 -1.20002 121.533 1.20866 116.758 5.98343L119.304 8.52902ZM134.094 2.39998C139.887 2.39998 144.783 4.4288 148.883 8.52902L151.429 5.98343C146.654 1.20866 140.842 -1.20002 134.094 -1.20002V2.39998ZM148.883 8.52902C152.984 12.6292 155.012 17.5257 155.012 23.3187H158.613C158.613 16.5701 156.204 10.7582 151.429 5.98343L148.883 8.52902ZM155.012 23.3187C155.012 29.1118 152.984 34.0082 148.883 38.1084L151.429 40.654C156.204 35.8792 158.613 30.0674 158.613 23.3187H155.012ZM166.406 45.1625L165.254 43.7797L165.191 43.8319L165.133 43.8897L166.406 45.1625ZM163.781 45.1625L165.164 44.0101L165.062 43.888L164.941 43.7856L163.781 45.1625ZM163.781 40.6L164.941 41.9768L165.062 41.8744L165.164 41.7523L163.781 40.6ZM166.406 40.6L165.133 41.8728L165.191 41.9305L165.254 41.9828L166.406 40.6ZM165.169 41.8812V43.8812H168.769V41.8812H165.169ZM165.169 43.8812C165.169 43.9428 165.159 43.9326 165.18 43.8842C165.19 43.8614 165.204 43.8381 165.22 43.817C165.235 43.7961 165.249 43.784 165.254 43.7797L167.559 46.5453C168.392 45.8506 168.769 44.8909 168.769 43.8812H165.169ZM165.133 43.8897C165.114 43.9096 165.101 43.9191 165.096 43.9226C165.091 43.9258 165.091 43.9254 165.094 43.924C165.098 43.9225 165.099 43.9222 165.097 43.9226C165.095 43.9231 165.084 43.925 165.062 43.925V47.525C166.07 47.525 166.973 47.1409 167.679 46.4353L165.133 43.8897ZM165.062 43.925C165.001 43.925 165.011 43.9149 165.06 43.9362C165.082 43.9462 165.106 43.9598 165.127 43.9759C165.148 43.9917 165.16 44.005 165.164 44.0101L162.398 46.3148C163.093 47.1485 164.053 47.525 165.062 47.525V43.925ZM164.941 43.7856C164.93 43.777 164.932 43.7769 164.94 43.7871C164.949 43.7978 164.959 43.8142 164.969 43.8353C164.979 43.8564 164.984 43.8746 164.987 43.8864C164.989 43.8976 164.988 43.8971 164.988 43.8812H161.387C161.387 44.929 161.817 45.8614 162.622 46.5393L164.941 43.7856ZM164.988 43.8812V41.8812H161.387V43.8812H164.988ZM164.988 41.8812C164.988 41.8654 164.989 41.8648 164.987 41.8761C164.984 41.8879 164.979 41.9061 164.969 41.9271C164.959 41.9482 164.949 41.9647 164.94 41.9753C164.932 41.9856 164.93 41.9855 164.941 41.9768L162.622 39.2231C161.817 39.901 161.387 40.8334 161.387 41.8812H164.988ZM165.164 41.7523C165.16 41.7575 165.148 41.7707 165.127 41.7866C165.106 41.8026 165.082 41.8162 165.06 41.8263C165.011 41.8475 165.001 41.8375 165.062 41.8375V38.2375C164.053 38.2375 163.093 38.614 162.398 39.4476L165.164 41.7523ZM165.062 41.8375C165.084 41.8375 165.095 41.8394 165.097 41.8398C165.099 41.8402 165.098 41.84 165.094 41.8385C165.091 41.837 165.091 41.8366 165.096 41.8399C165.101 41.8434 165.114 41.8529 165.133 41.8728L167.679 39.3272C166.973 38.6215 166.07 38.2375 165.062 38.2375V41.8375ZM165.254 41.9828C165.249 41.9785 165.235 41.9663 165.22 41.9455C165.204 41.9244 165.19 41.9011 165.18 41.8782C165.159 41.8298 165.169 41.8197 165.169 41.8812H168.769C168.769 40.8715 168.392 39.9119 167.559 39.2172L165.254 41.9828ZM176.906 21.5687L175.628 22.8359L175.633 22.8415L176.906 21.5687ZM200.625 1.44373L199.236 2.588L199.255 2.61166L199.275 2.63464L200.625 1.44373ZM200.625 4.00623L199.275 2.8153L199.27 2.82092L200.625 4.00623ZM179.438 6.97498L178.165 5.70218L179.438 6.97498ZM179.438 19.0687L178.157 20.3335L178.165 20.3415L179.438 19.0687ZM199.344 25.1L198.071 26.3728L198.077 26.3784L199.344 25.1ZM199.344 42.1937L200.611 43.4721L200.617 43.4665L199.344 42.1937ZM175.594 45.1937L174.244 46.3846L174.263 46.4063L174.283 46.4274L175.594 45.1937ZM175.594 42.6937L174.248 41.4979L174.244 41.5028L175.594 42.6937ZM196.812 39.6625L195.548 38.3817L195.54 38.3897L196.812 39.6625ZM196.812 27.6312L195.532 28.896L195.54 28.904L195.548 28.912L196.812 27.6312ZM190.781 23.3312H186.5V26.9312H190.781V23.3312ZM186.5 23.3312H185.469V26.9312H186.5V23.3312ZM185.469 23.3312C182.617 23.3312 180.219 22.3363 178.179 20.2959L175.633 22.8415C178.343 25.5512 181.654 26.9312 185.469 26.9312V23.3312ZM178.185 20.3016C176.163 18.2624 175.175 15.8632 175.175 13.0062H171.575C171.575 16.8159 172.941 20.125 175.628 22.8359L178.185 20.3016ZM175.175 13.0062C175.175 10.1496 176.163 7.76391 178.179 5.74777L175.633 3.20218C172.941 5.89438 171.575 9.19615 171.575 13.0062H175.175ZM178.179 5.74777C180.219 3.70744 182.617 2.71248 185.469 2.71248V-0.887524C181.654 -0.887524 178.343 0.492514 175.633 3.20218L178.179 5.74777ZM185.469 2.71248H199.312V-0.887524H185.469V2.71248ZM199.312 2.71248C199.426 2.71248 199.443 2.72995 199.403 2.71379C199.382 2.70539 199.352 2.69033 199.319 2.66613C199.286 2.64178 199.257 2.61442 199.236 2.588L202.014 0.299453C201.292 -0.578361 200.275 -0.887524 199.312 -0.887524V2.71248ZM199.275 2.63464C199.284 2.64401 199.286 2.64884 199.287 2.64911C199.287 2.64944 199.287 2.6493 199.286 2.64881C199.286 2.64833 199.286 2.64803 199.286 2.64811C199.286 2.6482 199.287 2.64919 199.287 2.65133C199.288 2.65347 199.289 2.65721 199.289 2.6628C199.291 2.6738 199.294 2.6939 199.294 2.72498H202.894C202.894 1.81441 202.595 0.956243 201.975 0.252807L199.275 2.63464ZM199.294 2.72498C199.294 2.75605 199.291 2.77615 199.289 2.78715C199.289 2.79274 199.288 2.79648 199.287 2.79863C199.287 2.80076 199.286 2.80175 199.286 2.80184C199.286 2.80192 199.286 2.80162 199.286 2.80114C199.287 2.80066 199.287 2.80051 199.287 2.80084C199.286 2.80111 199.284 2.80594 199.275 2.81531L201.975 5.19714C202.595 4.49371 202.894 3.63554 202.894 2.72498H199.294ZM199.27 2.82092C199.297 2.79104 199.328 2.76337 199.361 2.74046C199.394 2.71782 199.421 2.7052 199.437 2.69915C199.467 2.68797 199.437 2.70623 199.312 2.70623V6.30623C200.24 6.30623 201.246 6.03 201.98 5.19153L199.27 2.82092ZM199.312 2.70623H185.469V6.30623H199.312V2.70623ZM185.469 2.70623C182.627 2.70623 180.156 3.71115 178.165 5.70218L180.71 8.24777C182.011 6.94714 183.56 6.30623 185.469 6.30623V2.70623ZM178.165 5.70218C176.174 7.69322 175.169 10.1647 175.169 13.0062H178.769C178.769 11.0977 179.41 9.5484 180.71 8.24777L178.165 5.70218ZM175.169 13.0062C175.169 15.8473 176.173 18.3247 178.157 20.3335L180.718 17.804C179.41 16.4794 178.769 14.9152 178.769 13.0062H175.169ZM178.165 20.3415C180.156 22.3326 182.627 23.3375 185.469 23.3375V19.7375C183.56 19.7375 182.011 19.0966 180.71 17.7959L178.165 20.3415ZM185.469 23.3375H190.781V19.7375H185.469V23.3375ZM190.781 23.3375C193.633 23.3375 196.031 24.3324 198.071 26.3728L200.617 23.8272C197.907 21.1175 194.596 19.7375 190.781 19.7375V23.3375ZM198.077 26.3784C200.112 28.3957 201.106 30.7798 201.106 33.6312H204.706C204.706 29.816 203.326 26.5125 200.611 23.8216L198.077 26.3784ZM201.106 33.6312C201.106 36.4831 200.111 38.8806 198.071 40.9209L200.617 43.4665C203.326 40.7568 204.706 37.446 204.706 33.6312H201.106ZM198.077 40.9153C196.037 42.9366 193.638 43.925 190.781 43.925V47.525C194.591 47.525 197.9 46.1592 200.611 43.4721L198.077 40.9153ZM190.781 43.925H176.969V47.525H190.781V43.925ZM176.969 43.925C176.858 43.925 176.824 43.9083 176.836 43.9131C176.842 43.9155 176.855 43.9212 176.87 43.9315C176.886 43.9418 176.897 43.9524 176.905 43.9601L174.283 46.4274C175.023 47.2141 175.996 47.525 176.969 47.525V43.925ZM176.943 44.0028C176.932 43.9901 176.928 43.9827 176.927 43.9811C176.926 43.9797 176.927 43.9808 176.928 43.9836C176.929 43.9863 176.928 43.9864 176.928 43.9821C176.927 43.9776 176.925 43.9654 176.925 43.9437H173.325C173.325 44.8545 173.637 45.6964 174.244 46.3846L176.943 44.0028ZM176.925 43.9437C176.925 43.9221 176.927 43.9099 176.928 43.9054C176.928 43.9011 176.929 43.9012 176.928 43.9039C176.927 43.9066 176.926 43.9077 176.927 43.9063C176.928 43.9047 176.932 43.8974 176.943 43.8846L174.244 41.5028C173.637 42.191 173.325 43.033 173.325 43.9437H176.925ZM176.939 43.8896C176.935 43.8941 176.925 43.9039 176.91 43.915C176.894 43.926 176.879 43.9336 176.869 43.9378C176.859 43.9419 176.859 43.9405 176.874 43.9379C176.888 43.9352 176.919 43.9312 176.969 43.9312V40.3312C175.963 40.3312 174.98 40.6747 174.248 41.4979L176.939 43.8896ZM176.969 43.9312H190.781V40.3312H176.969V43.9312ZM190.781 43.9312C193.623 43.9312 196.094 42.9263 198.085 40.9353L195.54 38.3897C194.239 39.6903 192.69 40.3312 190.781 40.3312V43.9312ZM198.077 40.9432C200.092 38.954 201.113 36.48 201.113 33.6312H197.512C197.512 35.5325 196.867 37.0793 195.548 38.3817L198.077 40.9432ZM201.113 33.6312C201.113 30.7985 200.088 28.3364 198.077 26.3505L195.548 28.912C196.87 30.2177 197.512 31.7556 197.512 33.6312H201.113ZM198.093 26.3665C196.104 24.352 193.63 23.3312 190.781 23.3312V26.9312C192.682 26.9312 194.229 27.5771 195.532 28.896L198.093 26.3665Z" fill="white" mask="url(#path-1-outside-1_129_36)"/>
</svg>
