<svg width="83" height="83" viewBox="0 0 83 83" fill="none" xmlns="http://www.w3.org/2000/svg">
<g filter="url(#filter0_d_372_101)">
<circle cx="41.5" cy="37.5" r="37.5" fill="#142944"/>
</g>
<g clip-path="url(#clip0_372_101)">
<path d="M45.4624 24.5H36.5374C36.9744 23.7413 37.6033 23.111 38.3609 22.6722C39.1185 22.2334 39.9782 22.0015 40.8537 22H41.1462C42.0217 22.0015 42.8814 22.2334 43.639 22.6722C44.3966 23.111 45.0255 23.7413 45.4624 24.5V24.5ZM51.6249 39.5H50.9999V42C50.9999 42.3315 50.8683 42.6495 50.6338 42.8839C50.3994 43.1183 50.0815 43.25 49.7499 43.25C49.4184 43.25 49.1005 43.1183 48.8661 42.8839C48.6316 42.6495 48.4999 42.3315 48.4999 42V39.5H33.4999V42C33.4999 42.3315 33.3683 42.6495 33.1338 42.8839C32.8994 43.1183 32.5815 43.25 32.2499 43.25C31.9184 43.25 31.6005 43.1183 31.3661 42.8839C31.1316 42.6495 30.9999 42.3315 30.9999 42V39.5H30.3749C29.27 39.4978 28.2054 39.9148 27.3958 40.6667C26.5862 41.4187 26.0919 42.4497 26.0126 43.5517C25.9333 44.6538 26.2749 45.7449 26.9685 46.6051C27.6621 47.4652 28.6561 48.0302 29.7499 48.1862V49.5C29.7499 50.163 30.0133 50.7989 30.4822 51.2678C30.951 51.7366 31.5869 52 32.2499 52C32.913 52 33.5489 51.7366 34.0177 51.2678C34.4866 50.7989 34.7499 50.163 34.7499 49.5V48.25H47.2499V49.5C47.2499 50.163 47.5133 50.7989 47.9822 51.2678C48.451 51.7366 49.0869 52 49.7499 52C50.413 52 51.0489 51.7366 51.5177 51.2678C51.9866 50.7989 52.2499 50.163 52.2499 49.5V48.1888C53.2866 48.0502 54.2378 47.5406 54.9273 46.7543C55.6169 45.968 55.998 44.9583 55.9999 43.9125V43.875C55.9999 42.7147 55.539 41.6019 54.7185 40.7814C53.8981 39.9609 52.7853 39.5 51.6249 39.5V39.5ZM28.0349 37.6138C28.9709 37.2084 29.98 36.9995 30.9999 37H50.9999C52.0199 36.9995 53.029 37.2084 53.9649 37.6138L52.0349 31.3988C51.6443 30.1218 50.853 29.0045 49.778 28.2123C48.703 27.4201 47.4015 26.995 46.0662 27H35.9337C34.5985 26.9949 33.2972 27.4198 32.2222 28.2118C31.1472 29.0038 30.3558 30.1208 29.9649 31.3975L28.0349 37.6138Z" fill="#0057FF"/>
</g>
<defs>
<filter id="filter0_d_372_101" x="0" y="0" width="83" height="83" filterUnits="userSpaceOnUse" color-interpolation-filters="sRGB">
<feFlood flood-opacity="0" result="BackgroundImageFix"/>
<feColorMatrix in="SourceAlpha" type="matrix" values="0 0 0 0 0 0 0 0 0 0 0 0 0 0 0 0 0 0 127 0" result="hardAlpha"/>
<feOffset dy="4"/>
<feGaussianBlur stdDeviation="2"/>
<feComposite in2="hardAlpha" operator="out"/>
<feColorMatrix type="matrix" values="0 0 0 0 0 0 0 0 0 0 0 0 0 0 0 0 0 0 0.1 0"/>
<feBlend mode="normal" in2="BackgroundImageFix" result="effect1_dropShadow_372_101"/>
<feBlend mode="normal" in="SourceGraphic" in2="effect1_dropShadow_372_101" result="shape"/>
</filter>
<clipPath id="clip0_372_101">
<rect width="30" height="30" fill="white" transform="translate(26 22)"/>
</clipPath>
</defs>
</svg>
