<svg width="23" height="23" viewBox="0 0 23 23" fill="none" xmlns="http://www.w3.org/2000/svg">
<path d="M18.2083 3.83333H17.1542C16.9317 2.75177 16.3432 1.77996 15.4879 1.08169C14.6325 0.38342 13.5625 0.00139392 12.4583 0L10.5417 0C9.43747 0.00139392 8.36751 0.38342 7.51213 1.08169C6.65676 1.77996 6.06826 2.75177 5.84583 3.83333H4.79167C3.5213 3.83485 2.30341 4.34018 1.40513 5.23846C0.506845 6.13674 0.0015217 7.35464 0 8.625L0 18.2083C0.0015217 19.4787 0.506845 20.6966 1.40513 21.5949C2.30341 22.4932 3.5213 22.9985 4.79167 23H18.2083C19.4787 22.9985 20.6966 22.4932 21.5949 21.5949C22.4932 20.6966 22.9985 19.4787 23 18.2083V8.625C22.9985 7.35464 22.4932 6.13674 21.5949 5.23846C20.6966 4.34018 19.4787 3.83485 18.2083 3.83333ZM10.5417 1.91667H12.4583C13.0508 1.91912 13.6281 2.10458 14.1112 2.44767C14.5942 2.79075 14.9595 3.27471 15.157 3.83333H7.843C8.0405 3.27471 8.40576 2.79075 8.88883 2.44767C9.3719 2.10458 9.94917 1.91912 10.5417 1.91667ZM4.79167 5.75H18.2083C18.9708 5.75 19.7021 6.0529 20.2413 6.59207C20.7804 7.13124 21.0833 7.8625 21.0833 8.625V11.5H1.91667V8.625C1.91667 7.8625 2.21957 7.13124 2.75873 6.59207C3.2979 6.0529 4.02917 5.75 4.79167 5.75ZM18.2083 21.0833H4.79167C4.02917 21.0833 3.2979 20.7804 2.75873 20.2413C2.21957 19.7021 1.91667 18.9708 1.91667 18.2083V13.4167H10.5417V14.375C10.5417 14.6292 10.6426 14.8729 10.8224 15.0526C11.0021 15.2324 11.2458 15.3333 11.5 15.3333C11.7542 15.3333 11.9979 15.2324 12.1776 15.0526C12.3574 14.8729 12.4583 14.6292 12.4583 14.375V13.4167H21.0833V18.2083C21.0833 18.9708 20.7804 19.7021 20.2413 20.2413C19.7021 20.7804 18.9708 21.0833 18.2083 21.0833Z" fill="#8C8C8C" stroke="white"/>
</svg>
