<svg width="19" height="15" viewBox="0 0 19 15" fill="none" xmlns="http://www.w3.org/2000/svg">
<path d="M16.8333 1H1.83333C1.61232 1 1.40036 1.0878 1.24408 1.24408C1.0878 1.40036 1 1.61232 1 1.83333V13.5C1 13.721 1.0878 13.933 1.24408 14.0893C1.40036 14.2455 1.61232 14.3333 1.83333 14.3333H16.8333C17.0543 14.3333 17.2663 14.2455 17.4226 14.0893C17.5789 13.933 17.6667 13.721 17.6667 13.5V1.83333C17.6667 1.61232 17.5789 1.40036 17.4226 1.24408C17.2663 1.0878 17.0543 1 16.8333 1Z" stroke="#8C8C8C" stroke-linejoin="round"/>
<path d="M14.3333 4.33325H11V7.66659H14.3333V4.33325Z" stroke="#8C8C8C" stroke-linejoin="round"/>
<path d="M4.33337 10.9999H14.3334M4.33337 4.33325H6.83337M4.33337 7.66659H6.83337" stroke="#8C8C8C" stroke-linecap="round" stroke-linejoin="round"/>
<path d="M16.8333 1H1.83333C1.61232 1 1.40036 1.0878 1.24408 1.24408C1.0878 1.40036 1 1.61232 1 1.83333V13.5C1 13.721 1.0878 13.933 1.24408 14.0893C1.40036 14.2455 1.61232 14.3333 1.83333 14.3333H16.8333C17.0543 14.3333 17.2663 14.2455 17.4226 14.0893C17.5789 13.933 17.6667 13.721 17.6667 13.5V1.83333C17.6667 1.61232 17.5789 1.40036 17.4226 1.24408C17.2663 1.0878 17.0543 1 16.8333 1Z" stroke="#8C8C8C" stroke-linejoin="round"/>
<path d="M14.3333 4.33325H11V7.66659H14.3333V4.33325Z" stroke="#8C8C8C" stroke-linejoin="round"/>
<path d="M4.33337 10.9999H14.3334M4.33337 4.33325H6.83337M4.33337 7.66659H6.83337" stroke="#8C8C8C" stroke-linecap="round" stroke-linejoin="round"/>
</svg>
