<svg width="23" height="23" viewBox="0 0 23 23" fill="none" xmlns="http://www.w3.org/2000/svg">
<g filter="url(#filter0_dd_741_283)">
<path d="M6.70833 13.4167C6.70833 13.6708 6.60737 13.9146 6.42764 14.0943C6.24792 14.274 6.00417 14.375 5.75 14.375H4.79167C4.5375 14.375 4.29375 14.274 4.11402 14.0943C3.9343 13.9146 3.83333 13.6708 3.83333 13.4167C3.83333 13.1625 3.9343 12.9187 4.11402 12.739C4.29375 12.5593 4.5375 12.4583 4.79167 12.4583H5.75C6.00417 12.4583 6.24792 12.5593 6.42764 12.739C6.60737 12.9187 6.70833 13.1625 6.70833 13.4167ZM10.5417 12.4583H9.58333C9.32917 12.4583 9.08541 12.5593 8.90569 12.739C8.72597 12.9187 8.625 13.1625 8.625 13.4167C8.625 13.6708 8.72597 13.9146 8.90569 14.0943C9.08541 14.274 9.32917 14.375 9.58333 14.375H10.5417C10.7958 14.375 11.0396 14.274 11.2193 14.0943C11.399 13.9146 11.5 13.6708 11.5 13.4167C11.5 13.1625 11.399 12.9187 11.2193 12.739C11.0396 12.5593 10.7958 12.4583 10.5417 12.4583ZM5.75 16.2917H4.79167C4.5375 16.2917 4.29375 16.3926 4.11402 16.5724C3.9343 16.7521 3.83333 16.9958 3.83333 17.25C3.83333 17.5042 3.9343 17.7479 4.11402 17.9276C4.29375 18.1074 4.5375 18.2083 4.79167 18.2083H5.75C6.00417 18.2083 6.24792 18.1074 6.42764 17.9276C6.60737 17.7479 6.70833 17.5042 6.70833 17.25C6.70833 16.9958 6.60737 16.7521 6.42764 16.5724C6.24792 16.3926 6.00417 16.2917 5.75 16.2917ZM10.5417 16.2917H9.58333C9.32917 16.2917 9.08541 16.3926 8.90569 16.5724C8.72597 16.7521 8.625 16.9958 8.625 17.25C8.625 17.5042 8.72597 17.7479 8.90569 17.9276C9.08541 18.1074 9.32917 18.2083 9.58333 18.2083H10.5417C10.7958 18.2083 11.0396 18.1074 11.2193 17.9276C11.399 17.7479 11.5 17.5042 11.5 17.25C11.5 16.9958 11.399 16.7521 11.2193 16.5724C11.0396 16.3926 10.7958 16.2917 10.5417 16.2917ZM5.75 4.79167H4.79167C4.5375 4.79167 4.29375 4.89263 4.11402 5.07236C3.9343 5.25208 3.83333 5.49583 3.83333 5.75C3.83333 6.00417 3.9343 6.24792 4.11402 6.42764C4.29375 6.60737 4.5375 6.70833 4.79167 6.70833H5.75C6.00417 6.70833 6.24792 6.60737 6.42764 6.42764C6.60737 6.24792 6.70833 6.00417 6.70833 5.75C6.70833 5.49583 6.60737 5.25208 6.42764 5.07236C6.24792 4.89263 6.00417 4.79167 5.75 4.79167ZM10.5417 4.79167H9.58333C9.32917 4.79167 9.08541 4.89263 8.90569 5.07236C8.72597 5.25208 8.625 5.49583 8.625 5.75C8.625 6.00417 8.72597 6.24792 8.90569 6.42764C9.08541 6.60737 9.32917 6.70833 9.58333 6.70833H10.5417C10.7958 6.70833 11.0396 6.60737 11.2193 6.42764C11.399 6.24792 11.5 6.00417 11.5 5.75C11.5 5.49583 11.399 5.25208 11.2193 5.07236C11.0396 4.89263 10.7958 4.79167 10.5417 4.79167ZM5.75 8.625H4.79167C4.5375 8.625 4.29375 8.72597 4.11402 8.90569C3.9343 9.08541 3.83333 9.32917 3.83333 9.58333C3.83333 9.8375 3.9343 10.0813 4.11402 10.261C4.29375 10.4407 4.5375 10.5417 4.79167 10.5417H5.75C6.00417 10.5417 6.24792 10.4407 6.42764 10.261C6.60737 10.0813 6.70833 9.8375 6.70833 9.58333C6.70833 9.32917 6.60737 9.08541 6.42764 8.90569C6.24792 8.72597 6.00417 8.625 5.75 8.625ZM10.5417 8.625H9.58333C9.32917 8.625 9.08541 8.72597 8.90569 8.90569C8.72597 9.08541 8.625 9.32917 8.625 9.58333C8.625 9.8375 8.72597 10.0813 8.90569 10.261C9.08541 10.4407 9.32917 10.5417 9.58333 10.5417H10.5417C10.7958 10.5417 11.0396 10.4407 11.2193 10.261C11.399 10.0813 11.5 9.8375 11.5 9.58333C11.5 9.32917 11.399 9.08541 11.2193 8.90569C11.0396 8.72597 10.7958 8.625 10.5417 8.625ZM23 9.58333V18.2083C22.9985 19.4787 22.4932 20.6966 21.5949 21.5949C20.6966 22.4932 19.4787 22.9985 18.2083 23H4.79167C3.5213 22.9985 2.30341 22.4932 1.40513 21.5949C0.506845 20.6966 0.0015217 19.4787 0 18.2083L0 4.79167C0.0015217 3.5213 0.506845 2.30341 1.40513 1.40513C2.30341 0.506845 3.5213 0.0015217 4.79167 0L10.5417 0C11.812 0.0015217 13.0299 0.506845 13.9282 1.40513C14.8265 2.30341 15.3318 3.5213 15.3333 4.79167H18.2083C19.4787 4.79319 20.6966 5.29851 21.5949 6.19679C22.4932 7.09508 22.9985 8.31297 23 9.58333ZM4.79167 21.0833H13.4167V4.79167C13.4167 4.02917 13.1138 3.2979 12.5746 2.75873C12.0354 2.21957 11.3042 1.91667 10.5417 1.91667H4.79167C4.02917 1.91667 3.2979 2.21957 2.75873 2.75873C2.21957 3.2979 1.91667 4.02917 1.91667 4.79167V18.2083C1.91667 18.9708 2.21957 19.7021 2.75873 20.2413C3.2979 20.7804 4.02917 21.0833 4.79167 21.0833ZM21.0833 9.58333C21.0833 8.82084 20.7804 8.08957 20.2413 7.5504C19.7021 7.01123 18.9708 6.70833 18.2083 6.70833H15.3333V21.0833H18.2083C18.9708 21.0833 19.7021 20.7804 20.2413 20.2413C20.7804 19.7021 21.0833 18.9708 21.0833 18.2083V9.58333ZM18.2083 12.4583C18.0188 12.4583 17.8335 12.5145 17.6759 12.6198C17.5183 12.7251 17.3955 12.8748 17.3229 13.0499C17.2504 13.225 17.2314 13.4177 17.2684 13.6036C17.3054 13.7895 17.3967 13.9603 17.5307 14.0943C17.6647 14.2283 17.8355 14.3196 18.0214 14.3566C18.2073 14.3936 18.4 14.3746 18.5751 14.3021C18.7502 14.2295 18.8999 14.1067 19.0052 13.9491C19.1105 13.7915 19.1667 13.6062 19.1667 13.4167C19.1667 13.1625 19.0657 12.9187 18.886 12.739C18.7063 12.5593 18.4625 12.4583 18.2083 12.4583ZM18.2083 16.2917C18.0188 16.2917 17.8335 16.3479 17.6759 16.4532C17.5183 16.5585 17.3955 16.7081 17.3229 16.8833C17.2504 17.0584 17.2314 17.2511 17.2684 17.437C17.3054 17.6229 17.3967 17.7936 17.5307 17.9276C17.6647 18.0617 17.8355 18.1529 18.0214 18.1899C18.2073 18.2269 18.4 18.2079 18.5751 18.1354C18.7502 18.0629 18.8999 17.94 19.0052 17.7824C19.1105 17.6248 19.1667 17.4395 19.1667 17.25C19.1667 16.9958 19.0657 16.7521 18.886 16.5724C18.7063 16.3926 18.4625 16.2917 18.2083 16.2917ZM18.2083 8.625C18.0188 8.625 17.8335 8.6812 17.6759 8.78651C17.5183 8.89181 17.3955 9.04148 17.3229 9.21659C17.2504 9.39171 17.2314 9.5844 17.2684 9.77029C17.3054 9.95619 17.3967 10.127 17.5307 10.261C17.6647 10.395 17.8355 10.4863 18.0214 10.5233C18.2073 10.5602 18.4 10.5413 18.5751 10.4687C18.7502 10.3962 18.8999 10.2734 19.0052 10.1158C19.1105 9.95816 19.1667 9.77287 19.1667 9.58333C19.1667 9.32917 19.0657 9.08541 18.886 8.90569C18.7063 8.72597 18.4625 8.625 18.2083 8.625Z" fill="#8C8C8C"/>
<path d="M6.70833 13.4167C6.70833 13.6708 6.60737 13.9146 6.42764 14.0943C6.24792 14.274 6.00417 14.375 5.75 14.375H4.79167C4.5375 14.375 4.29375 14.274 4.11402 14.0943C3.9343 13.9146 3.83333 13.6708 3.83333 13.4167C3.83333 13.1625 3.9343 12.9187 4.11402 12.739C4.29375 12.5593 4.5375 12.4583 4.79167 12.4583H5.75C6.00417 12.4583 6.24792 12.5593 6.42764 12.739C6.60737 12.9187 6.70833 13.1625 6.70833 13.4167ZM10.5417 12.4583H9.58333C9.32917 12.4583 9.08541 12.5593 8.90569 12.739C8.72597 12.9187 8.625 13.1625 8.625 13.4167C8.625 13.6708 8.72597 13.9146 8.90569 14.0943C9.08541 14.274 9.32917 14.375 9.58333 14.375H10.5417C10.7958 14.375 11.0396 14.274 11.2193 14.0943C11.399 13.9146 11.5 13.6708 11.5 13.4167C11.5 13.1625 11.399 12.9187 11.2193 12.739C11.0396 12.5593 10.7958 12.4583 10.5417 12.4583ZM5.75 16.2917H4.79167C4.5375 16.2917 4.29375 16.3926 4.11402 16.5724C3.9343 16.7521 3.83333 16.9958 3.83333 17.25C3.83333 17.5042 3.9343 17.7479 4.11402 17.9276C4.29375 18.1074 4.5375 18.2083 4.79167 18.2083H5.75C6.00417 18.2083 6.24792 18.1074 6.42764 17.9276C6.60737 17.7479 6.70833 17.5042 6.70833 17.25C6.70833 16.9958 6.60737 16.7521 6.42764 16.5724C6.24792 16.3926 6.00417 16.2917 5.75 16.2917ZM10.5417 16.2917H9.58333C9.32917 16.2917 9.08541 16.3926 8.90569 16.5724C8.72597 16.7521 8.625 16.9958 8.625 17.25C8.625 17.5042 8.72597 17.7479 8.90569 17.9276C9.08541 18.1074 9.32917 18.2083 9.58333 18.2083H10.5417C10.7958 18.2083 11.0396 18.1074 11.2193 17.9276C11.399 17.7479 11.5 17.5042 11.5 17.25C11.5 16.9958 11.399 16.7521 11.2193 16.5724C11.0396 16.3926 10.7958 16.2917 10.5417 16.2917ZM5.75 4.79167H4.79167C4.5375 4.79167 4.29375 4.89263 4.11402 5.07236C3.9343 5.25208 3.83333 5.49583 3.83333 5.75C3.83333 6.00417 3.9343 6.24792 4.11402 6.42764C4.29375 6.60737 4.5375 6.70833 4.79167 6.70833H5.75C6.00417 6.70833 6.24792 6.60737 6.42764 6.42764C6.60737 6.24792 6.70833 6.00417 6.70833 5.75C6.70833 5.49583 6.60737 5.25208 6.42764 5.07236C6.24792 4.89263 6.00417 4.79167 5.75 4.79167ZM10.5417 4.79167H9.58333C9.32917 4.79167 9.08541 4.89263 8.90569 5.07236C8.72597 5.25208 8.625 5.49583 8.625 5.75C8.625 6.00417 8.72597 6.24792 8.90569 6.42764C9.08541 6.60737 9.32917 6.70833 9.58333 6.70833H10.5417C10.7958 6.70833 11.0396 6.60737 11.2193 6.42764C11.399 6.24792 11.5 6.00417 11.5 5.75C11.5 5.49583 11.399 5.25208 11.2193 5.07236C11.0396 4.89263 10.7958 4.79167 10.5417 4.79167ZM5.75 8.625H4.79167C4.5375 8.625 4.29375 8.72597 4.11402 8.90569C3.9343 9.08541 3.83333 9.32917 3.83333 9.58333C3.83333 9.8375 3.9343 10.0813 4.11402 10.261C4.29375 10.4407 4.5375 10.5417 4.79167 10.5417H5.75C6.00417 10.5417 6.24792 10.4407 6.42764 10.261C6.60737 10.0813 6.70833 9.8375 6.70833 9.58333C6.70833 9.32917 6.60737 9.08541 6.42764 8.90569C6.24792 8.72597 6.00417 8.625 5.75 8.625ZM10.5417 8.625H9.58333C9.32917 8.625 9.08541 8.72597 8.90569 8.90569C8.72597 9.08541 8.625 9.32917 8.625 9.58333C8.625 9.8375 8.72597 10.0813 8.90569 10.261C9.08541 10.4407 9.32917 10.5417 9.58333 10.5417H10.5417C10.7958 10.5417 11.0396 10.4407 11.2193 10.261C11.399 10.0813 11.5 9.8375 11.5 9.58333C11.5 9.32917 11.399 9.08541 11.2193 8.90569C11.0396 8.72597 10.7958 8.625 10.5417 8.625ZM23 9.58333V18.2083C22.9985 19.4787 22.4932 20.6966 21.5949 21.5949C20.6966 22.4932 19.4787 22.9985 18.2083 23H4.79167C3.5213 22.9985 2.30341 22.4932 1.40513 21.5949C0.506845 20.6966 0.0015217 19.4787 0 18.2083L0 4.79167C0.0015217 3.5213 0.506845 2.30341 1.40513 1.40513C2.30341 0.506845 3.5213 0.0015217 4.79167 0L10.5417 0C11.812 0.0015217 13.0299 0.506845 13.9282 1.40513C14.8265 2.30341 15.3318 3.5213 15.3333 4.79167H18.2083C19.4787 4.79319 20.6966 5.29851 21.5949 6.19679C22.4932 7.09508 22.9985 8.31297 23 9.58333ZM4.79167 21.0833H13.4167V4.79167C13.4167 4.02917 13.1138 3.2979 12.5746 2.75873C12.0354 2.21957 11.3042 1.91667 10.5417 1.91667H4.79167C4.02917 1.91667 3.2979 2.21957 2.75873 2.75873C2.21957 3.2979 1.91667 4.02917 1.91667 4.79167V18.2083C1.91667 18.9708 2.21957 19.7021 2.75873 20.2413C3.2979 20.7804 4.02917 21.0833 4.79167 21.0833ZM21.0833 9.58333C21.0833 8.82084 20.7804 8.08957 20.2413 7.5504C19.7021 7.01123 18.9708 6.70833 18.2083 6.70833H15.3333V21.0833H18.2083C18.9708 21.0833 19.7021 20.7804 20.2413 20.2413C20.7804 19.7021 21.0833 18.9708 21.0833 18.2083V9.58333ZM18.2083 12.4583C18.0188 12.4583 17.8335 12.5145 17.6759 12.6198C17.5183 12.7251 17.3955 12.8748 17.3229 13.0499C17.2504 13.225 17.2314 13.4177 17.2684 13.6036C17.3054 13.7895 17.3967 13.9603 17.5307 14.0943C17.6647 14.2283 17.8355 14.3196 18.0214 14.3566C18.2073 14.3936 18.4 14.3746 18.5751 14.3021C18.7502 14.2295 18.8999 14.1067 19.0052 13.9491C19.1105 13.7915 19.1667 13.6062 19.1667 13.4167C19.1667 13.1625 19.0657 12.9187 18.886 12.739C18.7063 12.5593 18.4625 12.4583 18.2083 12.4583ZM18.2083 16.2917C18.0188 16.2917 17.8335 16.3479 17.6759 16.4532C17.5183 16.5585 17.3955 16.7081 17.3229 16.8833C17.2504 17.0584 17.2314 17.2511 17.2684 17.437C17.3054 17.6229 17.3967 17.7936 17.5307 17.9276C17.6647 18.0617 17.8355 18.1529 18.0214 18.1899C18.2073 18.2269 18.4 18.2079 18.5751 18.1354C18.7502 18.0629 18.8999 17.94 19.0052 17.7824C19.1105 17.6248 19.1667 17.4395 19.1667 17.25C19.1667 16.9958 19.0657 16.7521 18.886 16.5724C18.7063 16.3926 18.4625 16.2917 18.2083 16.2917ZM18.2083 8.625C18.0188 8.625 17.8335 8.6812 17.6759 8.78651C17.5183 8.89181 17.3955 9.04148 17.3229 9.21659C17.2504 9.39171 17.2314 9.5844 17.2684 9.77029C17.3054 9.95619 17.3967 10.127 17.5307 10.261C17.6647 10.395 17.8355 10.4863 18.0214 10.5233C18.2073 10.5602 18.4 10.5413 18.5751 10.4687C18.7502 10.3962 18.8999 10.2734 19.0052 10.1158C19.1105 9.95816 19.1667 9.77287 19.1667 9.58333C19.1667 9.32917 19.0657 9.08541 18.886 8.90569C18.7063 8.72597 18.4625 8.625 18.2083 8.625Z" stroke="white"/>
</g>
<defs>
<filter id="filter0_dd_741_283" x="-4.5" y="-0.5" width="32" height="32" filterUnits="userSpaceOnUse" color-interpolation-filters="sRGB">
<feFlood flood-opacity="0" result="BackgroundImageFix"/>
<feColorMatrix in="SourceAlpha" type="matrix" values="0 0 0 0 0 0 0 0 0 0 0 0 0 0 0 0 0 0 127 0" result="hardAlpha"/>
<feOffset dy="4"/>
<feGaussianBlur stdDeviation="2"/>
<feComposite in2="hardAlpha" operator="out"/>
<feColorMatrix type="matrix" values="0 0 0 0 0 0 0 0 0 0 0 0 0 0 0 0 0 0 0.25 0"/>
<feBlend mode="normal" in2="BackgroundImageFix" result="effect1_dropShadow_741_283"/>
<feColorMatrix in="SourceAlpha" type="matrix" values="0 0 0 0 0 0 0 0 0 0 0 0 0 0 0 0 0 0 127 0" result="hardAlpha"/>
<feOffset dy="4"/>
<feGaussianBlur stdDeviation="2"/>
<feComposite in2="hardAlpha" operator="out"/>
<feColorMatrix type="matrix" values="0 0 0 0 0 0 0 0 0 0 0 0 0 0 0 0 0 0 0.25 0"/>
<feBlend mode="normal" in2="effect1_dropShadow_741_283" result="effect2_dropShadow_741_283"/>
<feBlend mode="normal" in="SourceGraphic" in2="effect2_dropShadow_741_283" result="shape"/>
</filter>
</defs>
</svg>
