<svg width="21" height="23" viewBox="0 0 21 23" fill="none" xmlns="http://www.w3.org/2000/svg">
<path d="M1 2.33325V21.6666" stroke="#C5C5C5" stroke-width="1.2" stroke-linecap="round"/>
<path d="M8.48 1.3378C6.15221 1.24986 2.80792 2.4642 2.12467 2.72279C2.0479 2.75184 2 2.82463 2 2.90673V14.4799C2 14.602 2.10847 14.6955 2.22923 14.6777L8.48 13.7563C11.0106 13.3832 14.2311 17.2127 17.84 16.1444C18.5795 15.9255 19.5754 15.4141 19.896 15.2448C19.9607 15.2106 20 15.1436 20 15.0704V4.51507C20 4.36939 19.8488 4.27138 19.7147 4.32843C19.1811 4.55554 18.006 5.02518 17.12 5.15886C13.4104 5.71857 10.7478 1.42346 8.48 1.3378Z" stroke="#C5C5C5" stroke-width="1.2" stroke-linecap="round"/>
</svg>
