<svg width="53" height="54" viewBox="0 0 53 54" fill="none" xmlns="http://www.w3.org/2000/svg">
<g filter="url(#filter0_d_1200_1036)">
<circle cx="26.5" cy="25.5" r="22.5" fill="white"/>
<circle cx="26.5" cy="25.5" r="22.25" stroke="#C7D1ED" stroke-width="0.5"/>
</g>
<g clip-path="url(#clip0_1200_1036)">
<path d="M31 14.3C31.7058 14.542 32.348 14.9398 32.879 15.464L34.535 17.122C35.0598 17.6523 35.458 18.2943 35.7 19H31V14.3ZM36 21V33C35.9984 34.3256 35.4711 35.5964 34.5338 36.5338C33.5964 37.4711 32.3256 37.9984 31 38H23C21.6744 37.9984 20.4036 37.4711 19.4662 36.5338C18.5289 35.5964 18.0016 34.3256 18 33V19C18.0016 17.6744 18.5289 16.4036 19.4662 15.4662C20.4036 14.5289 21.6744 14.0016 23 14H29V19C29 19.5304 29.2107 20.0391 29.5858 20.4142C29.9609 20.7893 30.4696 21 31 21H36ZM31.808 31.413C31.7308 31.3062 31.6334 31.2158 31.5211 31.1468C31.4089 31.0779 31.2842 31.0317 31.1541 31.0111C31.024 30.9905 30.8912 30.9957 30.7631 31.0266C30.6351 31.0575 30.5144 31.1134 30.408 31.191C29.7361 31.6587 28.9513 31.938 28.135 32C27.8152 31.9913 27.5089 31.869 27.271 31.655C26.7491 31.2409 26.1051 31.0106 25.439 31C24.3297 31.1043 23.2731 31.5226 22.393 32.206C22.2838 32.2839 22.1913 32.3829 22.1212 32.4972C22.051 32.6115 22.0046 32.7388 21.9846 32.8714C21.9646 33.0041 21.9716 33.1394 22.005 33.2693C22.0384 33.3992 22.0976 33.5211 22.179 33.6276C22.2605 33.7342 22.3626 33.8233 22.4792 33.8896C22.5958 33.9559 22.7245 33.998 22.8577 34.0136C22.991 34.0291 23.126 34.0176 23.2547 33.9799C23.3834 33.9422 23.5032 33.879 23.607 33.794C24.1396 33.3769 24.7704 33.1035 25.439 33C25.685 33 25.81 33.078 26.139 33.3C26.7088 33.7501 27.4129 33.9965 28.139 34C29.3818 33.9432 30.5818 33.529 31.595 32.807C31.8075 32.6499 31.9491 32.4151 31.989 32.1539C32.0289 31.8927 31.9639 31.6264 31.808 31.413ZM32 28C32 27.7348 31.8946 27.4804 31.7071 27.2929C31.5196 27.1054 31.2652 27 31 27H23C22.7348 27 22.4804 27.1054 22.2929 27.2929C22.1053 27.4804 22 27.7348 22 28C22 28.2652 22.1053 28.5196 22.2929 28.7071C22.4804 28.8946 22.7348 29 23 29H31C31.2652 29 31.5196 28.8946 31.7071 28.7071C31.8946 28.5196 32 28.2652 32 28ZM32 24C32 23.7348 31.8946 23.4804 31.7071 23.2929C31.5196 23.1054 31.2652 23 31 23H23C22.7348 23 22.4804 23.1054 22.2929 23.2929C22.1053 23.4804 22 23.7348 22 24C22 24.2652 22.1053 24.5196 22.2929 24.7071C22.4804 24.8946 22.7348 25 23 25H31C31.2652 25 31.5196 24.8946 31.7071 24.7071C31.8946 24.5196 32 24.2652 32 24Z" fill="#374957"/>
</g>
<defs>
<filter id="filter0_d_1200_1036" x="0" y="0.5" width="53" height="53" filterUnits="userSpaceOnUse" color-interpolation-filters="sRGB">
<feFlood flood-opacity="0" result="BackgroundImageFix"/>
<feColorMatrix in="SourceAlpha" type="matrix" values="0 0 0 0 0 0 0 0 0 0 0 0 0 0 0 0 0 0 127 0" result="hardAlpha"/>
<feOffset dy="1.5"/>
<feGaussianBlur stdDeviation="2"/>
<feComposite in2="hardAlpha" operator="out"/>
<feColorMatrix type="matrix" values="0 0 0 0 0 0 0 0 0 0 0 0 0 0 0 0 0 0 0.08 0"/>
<feBlend mode="normal" in2="BackgroundImageFix" result="effect1_dropShadow_1200_1036"/>
<feBlend mode="normal" in="SourceGraphic" in2="effect1_dropShadow_1200_1036" result="shape"/>
</filter>
<clipPath id="clip0_1200_1036">
<rect width="24" height="24" fill="white" transform="translate(15 14)"/>
</clipPath>
</defs>
</svg>
