<svg width="20" height="21" viewBox="0 0 20 21" fill="none" xmlns="http://www.w3.org/2000/svg">
<g clip-path="url(#clip0_879_773)">
<path d="M15.8333 2.16667H15V1.33333C15 1.11232 14.9122 0.900358 14.7559 0.744078C14.5996 0.587797 14.3877 0.5 14.1667 0.5C13.9457 0.5 13.7337 0.587797 13.5774 0.744078C13.4211 0.900358 13.3333 1.11232 13.3333 1.33333V2.16667H6.66667V1.33333C6.66667 1.11232 6.57887 0.900358 6.42259 0.744078C6.26631 0.587797 6.05435 0.5 5.83333 0.5C5.61232 0.5 5.40036 0.587797 5.24408 0.744078C5.0878 0.900358 5 1.11232 5 1.33333V2.16667H4.16667C3.062 2.16799 2.00296 2.6074 1.22185 3.38852C0.440735 4.16963 0.00132321 5.22867 0 6.33333L0 16.3333C0.00132321 17.438 0.440735 18.497 1.22185 19.2782C2.00296 20.0593 3.062 20.4987 4.16667 20.5H15.8333C16.938 20.4987 17.997 20.0593 18.7782 19.2782C19.5593 18.497 19.9987 17.438 20 16.3333V6.33333C19.9987 5.22867 19.5593 4.16963 18.7782 3.38852C17.997 2.6074 16.938 2.16799 15.8333 2.16667V2.16667ZM1.66667 6.33333C1.66667 5.67029 1.93006 5.03441 2.3989 4.56557C2.86774 4.09673 3.50363 3.83333 4.16667 3.83333H15.8333C16.4964 3.83333 17.1323 4.09673 17.6011 4.56557C18.0699 5.03441 18.3333 5.67029 18.3333 6.33333V7.16667H1.66667V6.33333ZM15.8333 18.8333H4.16667C3.50363 18.8333 2.86774 18.5699 2.3989 18.1011C1.93006 17.6323 1.66667 16.9964 1.66667 16.3333V8.83333H18.3333V16.3333C18.3333 16.9964 18.0699 17.6323 17.6011 18.1011C17.1323 18.5699 16.4964 18.8333 15.8333 18.8333Z" fill="#C5C5C5"/>
<path d="M11 13C11 13.5523 10.5523 14 10 14C9.44772 14 9 13.5523 9 13C9 12.4477 9.44772 12 10 12C10.5523 12 11 12.4477 11 13Z" fill="#C5C5C5" stroke="white" stroke-width="0.5"/>
<path d="M6.83325 13C6.83325 13.5523 6.38554 14 5.83325 14C5.28097 14 4.83325 13.5523 4.83325 13C4.83325 12.4477 5.28097 12 5.83325 12C6.38554 12 6.83325 12.4477 6.83325 13Z" fill="#C5C5C5" stroke="white" stroke-width="0.5"/>
<path d="M15.1667 13C15.1667 13.5523 14.719 14 14.1667 14C13.6145 14 13.1667 13.5523 13.1667 13C13.1667 12.4477 13.6145 12 14.1667 12C14.719 12 15.1667 12.4477 15.1667 13Z" fill="#C5C5C5" stroke="white" stroke-width="0.5"/>
</g>
<defs>
<clipPath id="clip0_879_773">
<rect width="20" height="20" fill="white" transform="translate(0 0.5)"/>
</clipPath>
</defs>
</svg>
