<svg width="31" height="30" viewBox="0 0 31 30" fill="none" xmlns="http://www.w3.org/2000/svg">
<g clip-path="url(#clip0_189_380)">
<path d="M30.5 15C30.5 15.3315 30.3683 15.6495 30.1339 15.8839C29.8995 16.1183 29.5815 16.25 29.25 16.25H21.75C21.4185 16.25 21.1005 16.1183 20.8661 15.8839C20.6317 15.6495 20.5 15.3315 20.5 15C20.5 14.6685 20.6317 14.3505 20.8661 14.1161C21.1005 13.8817 21.4185 13.75 21.75 13.75H29.25C29.5815 13.75 29.8995 13.8817 30.1339 14.1161C30.3683 14.3505 30.5 14.6685 30.5 15ZM11.75 15C13.2334 15 14.6834 14.5601 15.9168 13.736C17.1501 12.9119 18.1114 11.7406 18.6791 10.3701C19.2468 8.99968 19.3953 7.49168 19.1059 6.03683C18.8165 4.58197 18.1022 3.2456 17.0533 2.1967C16.0044 1.14781 14.668 0.433503 13.2132 0.144114C11.7583 -0.145275 10.2503 0.00324965 8.87987 0.570907C7.50943 1.13856 6.33809 2.09986 5.51398 3.33323C4.68987 4.5666 4.25 6.01664 4.25 7.5C4.25199 9.48852 5.0428 11.395 6.44889 12.8011C7.85498 14.2072 9.76149 14.998 11.75 15ZM11.75 17.5C8.76733 17.5033 5.90777 18.6896 3.7987 20.7987C1.68964 22.9078 0.503309 25.7673 0.5 28.75C0.5 29.0815 0.631696 29.3995 0.866117 29.6339C1.10054 29.8683 1.41848 30 1.75 30H21.75C22.0815 30 22.3995 29.8683 22.6339 29.6339C22.8683 29.3995 23 29.0815 23 28.75C22.9967 25.7673 21.8104 22.9078 19.7013 20.7987C17.5922 18.6896 14.7327 17.5033 11.75 17.5Z" fill="#003470"/>
</g>
<defs>
<clipPath id="clip0_189_380">
<rect width="30" height="30" fill="white" transform="translate(0.5)"/>
</clipPath>
</defs>
</svg>
