<svg width="31" height="30" viewBox="0 0 31 30" fill="none" xmlns="http://www.w3.org/2000/svg">
<g clip-path="url(#clip0_173_358)">
<path d="M24.1886 28.7512H24.1473C23.5086 28.7412 22.9011 28.4699 22.4673 28.0011L20.0698 25.6499C19.5898 25.1536 19.6011 24.3624 20.0973 23.8824C20.0986 23.8811 20.0998 23.8799 20.1011 23.8786C20.5973 23.4024 21.3848 23.4161 21.8636 23.9086L24.1898 26.1874L28.3661 22.0111C28.8536 21.5236 29.6461 21.5236 30.1336 22.0111C30.6211 22.4986 30.6211 23.2911 30.1336 23.7786L25.8573 28.0549C25.4173 28.5012 24.8161 28.7524 24.1886 28.7512Z" fill="#003470"/>
<path d="M18.044 25.0187C18.039 20.8974 21.3752 17.5524 25.4952 17.5462C27.099 17.5437 28.6615 18.0587 29.949 19.0149C32.1652 11.0337 27.4915 2.76742 19.5115 0.55117C11.5315 -1.66508 3.26648 3.00742 1.05023 10.9887C-1.16602 18.9699 3.50773 27.2374 11.4877 29.4537C14.1127 30.1824 16.8865 30.1824 19.5115 29.4537C18.559 28.1712 18.044 26.6162 18.044 25.0187ZM16.7502 15.0274C16.7502 15.3599 16.6177 15.6774 16.3827 15.9124L12.6265 19.6699C12.129 20.1499 11.3365 20.1362 10.8565 19.6387C10.3877 19.1537 10.3877 18.3837 10.8565 17.8987L14.2465 14.5087V8.76617C14.2465 8.07492 14.8065 7.51367 15.499 7.51367C16.1902 7.51367 16.7502 8.07492 16.7502 8.76617V15.0274Z" fill="#003470"/>
</g>
<defs>
<clipPath id="clip0_173_358">
<rect width="30" height="30" fill="white" transform="translate(0.5)"/>
</clipPath>
</defs>
</svg>
