<svg width="29" height="30" viewBox="0 0 29 30" fill="none" xmlns="http://www.w3.org/2000/svg">
<path d="M28.7447 22.3729C28.8946 23.2278 28.8541 24.1049 28.6258 24.9426C28.3976 25.7804 27.9872 26.5586 27.4234 27.2227C26.8596 27.8867 26.156 28.4207 25.362 28.787C24.568 29.1534 23.7026 29.3433 22.8267 29.3436H19.2218C18.9031 29.3436 18.5975 29.2181 18.3722 28.9949C18.1468 28.7717 18.0202 28.4689 18.0202 28.1532V25.0702C16.8735 25.5257 15.6507 25.7639 14.4153 25.7725C13.1792 25.76 11.9564 25.5177 10.8105 25.0583V28.1532C10.8105 28.4689 10.6839 28.7717 10.4585 28.9949C10.2332 29.2181 9.92755 29.3436 9.60886 29.3436H6.004C5.12805 29.3433 4.26275 29.1534 3.4687 28.787C2.67466 28.4207 1.97109 27.8867 1.40729 27.2227C0.843488 26.5586 0.433091 25.7804 0.204852 24.9426C-0.0233865 24.1049 -0.0639456 23.2278 0.0860166 22.3729L0.446503 20.3017C0.566374 19.6129 0.891817 18.9754 1.38086 18.4715C1.86991 17.9676 2.50013 17.6203 3.19026 17.4745C3.8804 17.3288 4.59879 17.3911 5.2528 17.6536C5.90681 17.9161 6.46645 18.3666 6.85955 18.9471C8.3784 21.1588 11.3019 23.3919 14.4153 23.3919C18.1764 23.3919 21.8822 20.0839 22.9829 16.9926C23.0712 16.7602 23.2287 16.5599 23.4345 16.4181C23.6402 16.2764 23.8846 16.1998 24.1353 16.1986L24.6544 16.207C24.887 16.2098 25.1179 16.1668 25.3337 16.0805C25.5494 15.9941 25.7457 15.8661 25.911 15.704C26.0764 15.5418 26.2076 15.3487 26.2969 15.1359C26.3863 14.9231 26.4321 14.6948 26.4316 14.4643C26.4311 14.0468 26.283 13.6427 26.013 13.3221C25.743 13.0016 25.3681 12.7849 24.9536 12.7098C24.6979 12.6638 24.4642 12.537 24.2874 12.3484C24.1106 12.1597 24.0003 11.9194 23.973 11.6635C23.8136 10.1584 23.2927 8.71301 22.4537 7.44829C21.6148 6.18357 20.4823 5.13628 19.1509 4.39405C18.8111 5.44775 18.357 6.46188 17.7967 7.4187C16.237 9.60912 14.2022 11.4259 11.8415 12.7359C12.2013 12.8235 12.5252 13.0187 12.769 13.2951C13.0128 13.5716 13.1647 13.9157 13.204 14.2807C13.2433 14.6457 13.168 15.0138 12.9885 15.3349C12.809 15.656 12.534 15.9145 12.2008 16.0753C11.8677 16.236 11.4926 16.291 11.1268 16.233C10.7609 16.175 10.4219 16.0067 10.1561 15.7509C9.89025 15.4952 9.71043 15.1646 9.6411 14.804C9.57178 14.4434 9.61633 14.0704 9.76868 13.7358C7.00593 14.844 4.01868 15.2926 1.04851 15.0452C0.800947 15.0123 0.569872 14.9039 0.387428 14.7349C0.204983 14.5659 0.0802371 14.3447 0.0305394 14.1022C-0.0191583 13.8598 0.00866248 13.608 0.110133 13.3819C0.211603 13.1558 0.381678 12.9666 0.596705 12.8407C1.32312 12.0243 1.86367 11.0625 2.18164 10.0208C3.74976 6.33907 6.12416 0.775424 14.4153 0.775424C17.2444 0.768785 19.9846 1.75394 22.1508 3.55649C24.3171 5.35904 25.7696 7.86271 26.2513 10.6243C27.016 10.941 27.6692 11.4744 28.1288 12.1576C28.5884 12.8408 28.8341 13.6433 28.8348 14.4643C28.8328 15.4535 28.4681 16.4082 27.8086 17.1509C27.817 17.1819 27.8387 17.2069 27.8447 17.2402L28.7447 22.3729ZM19.2218 14.4643C19.2218 14.1112 19.1161 13.766 18.9181 13.4723C18.72 13.1787 18.4385 12.9499 18.1092 12.8147C17.7798 12.6796 17.4174 12.6442 17.0678 12.7131C16.7181 12.782 16.397 12.9521 16.1449 13.2018C15.8928 13.4515 15.7211 13.7696 15.6516 14.116C15.5821 14.4623 15.6177 14.8213 15.7542 15.1476C15.8906 15.4739 16.1216 15.7527 16.418 15.9489C16.7144 16.1451 17.0629 16.2498 17.4194 16.2498C17.8974 16.2498 18.3559 16.0617 18.6939 15.7269C19.0319 15.392 19.2218 14.9379 19.2218 14.4643Z" fill="#003470"/>
</svg>
