<svg width="30" height="30" viewBox="0 0 30 30" fill="none" xmlns="http://www.w3.org/2000/svg">
<g clip-path="url(#clip0_866_458)">
<path d="M15 29.2858C22.8898 29.2858 29.2857 22.8899 29.2857 15.0001C29.2857 7.11028 22.8898 0.714355 15 0.714355C7.11022 0.714355 0.714294 7.11028 0.714294 15.0001C0.722832 22.8863 7.11374 29.2772 15 29.2858ZM13.8096 7.85721C13.8096 7.19973 14.3425 6.66675 15 6.66675C15.6575 6.66675 16.1905 7.19973 16.1905 7.85721V17.381C16.1905 18.0385 15.6575 18.5715 15 18.5715C14.3425 18.5715 13.8096 18.0385 13.8096 17.381V7.85721ZM15 22.1429C15.6575 22.1429 16.1905 22.6759 16.1905 23.3334C16.1905 23.9909 15.6575 24.5238 15 24.5238C14.3425 24.5238 13.8096 23.9909 13.8096 23.3334C13.8096 22.6759 14.3425 22.1429 15 22.1429Z" fill="#FFC01D"/>
</g>
<defs>
<clipPath id="clip0_866_458">
<rect width="28.5714" height="28.5714" fill="white" transform="translate(0.714294 0.714355)"/>
</clipPath>
</defs>
</svg>
