<svg width="26" height="26" viewBox="0 0 26 26" fill="none" xmlns="http://www.w3.org/2000/svg">
<path d="M23.4167 10.9167H15.0833V2.58333C15.0833 2.0308 14.8638 1.5009 14.4731 1.11019C14.0824 0.719494 13.5525 0.5 13 0.5C12.4475 0.5 11.9176 0.719494 11.5269 1.11019C11.1362 1.5009 10.9167 2.0308 10.9167 2.58333V10.9167H2.58333C2.0308 10.9167 1.5009 11.1362 1.11019 11.5269C0.719494 11.9176 0.5 12.4475 0.5 13C0.5 13.5525 0.719494 14.0824 1.11019 14.4731C1.5009 14.8638 2.0308 15.0833 2.58333 15.0833H10.9167V23.4167C10.9167 23.9692 11.1362 24.4991 11.5269 24.8898C11.9176 25.2805 12.4475 25.5 13 25.5C13.5525 25.5 14.0824 25.2805 14.4731 24.8898C14.8638 24.4991 15.0833 23.9692 15.0833 23.4167V15.0833H23.4167C23.9692 15.0833 24.4991 14.8638 24.8898 14.4731C25.2805 14.0824 25.5 13.5525 25.5 13C25.5 12.4475 25.2805 11.9176 24.8898 11.5269C24.4991 11.1362 23.9692 10.9167 23.4167 10.9167Z" fill="#FF0000"/>
</svg>
