<svg width="30" height="30" viewBox="0 0 30 30" fill="none" xmlns="http://www.w3.org/2000/svg">
<path d="M19.6826 22.8178C19.6826 20.9428 18.3938 18.3803 16.0576 15.6016C15.9283 15.4473 15.7663 15.3237 15.5835 15.2396C15.4006 15.1555 15.2013 15.1131 15.0001 15.1153V15.1153C14.7973 15.1144 14.5968 15.1576 14.4124 15.242C14.2281 15.3264 14.0643 15.45 13.9326 15.6041C11.3751 18.6003 10.1251 21.2503 10.3413 23.2816C10.4264 23.9238 10.6466 24.5407 10.9875 25.0916C11.3283 25.6426 11.7821 26.115 12.3188 26.4778C13.078 27.1004 14.0191 27.4592 15.0001 27.5003C16.2415 27.499 17.4318 27.0052 18.3096 26.1274C19.1875 25.2495 19.6812 24.0593 19.6826 22.8178Z" fill="#FFA800"/>
<path d="M20.7862 3.62565C19.8037 2.79065 18.7725 1.91565 17.7225 0.960654C17.3244 0.599194 16.852 0.32912 16.3386 0.169339C15.8251 0.00955835 15.2829 -0.036068 14.75 0.0356541C14.2335 0.104062 13.7383 0.285053 13.2994 0.565843C12.8605 0.846632 12.4886 1.22037 12.21 1.66065C10.7205 4.15044 9.66701 6.87628 9.09499 9.72065C8.8712 9.3966 8.67229 9.05604 8.49999 8.7019C8.32307 8.32914 8.05662 8.00595 7.72443 7.76119C7.39224 7.51643 7.00463 7.3577 6.59618 7.29915C6.18773 7.24061 5.77114 7.28407 5.38357 7.42567C4.996 7.56727 4.6495 7.80259 4.37499 8.11065C2.27912 10.2536 1.11732 13.1395 1.14374 16.1369C1.11476 19.1987 2.11053 22.1822 3.97263 24.6129C5.83474 27.0435 8.45621 28.7816 11.42 29.5507C12.5548 29.8362 13.7198 29.9839 14.89 29.9907C13.3947 29.9349 11.9574 29.3974 10.7925 28.4582C9.98551 27.8902 9.30696 27.1589 8.8009 26.3117C8.29483 25.4646 7.97256 24.5204 7.85499 23.5407C7.56749 20.7782 8.97124 17.5619 12.0275 13.9819C12.3941 13.5521 12.8499 13.2073 13.3632 12.9713C13.8766 12.7354 14.4351 12.614 15 12.6157H15.0125C15.5758 12.6161 16.1322 12.7394 16.643 12.9768C17.1537 13.2143 17.6066 13.5603 17.97 13.9907C19.8925 16.2744 22.1862 19.6594 22.1862 22.8169C22.1835 24.6365 21.4905 26.3874 20.2472 27.716C19.004 29.0447 17.3029 29.8522 15.4875 29.9757C19.0771 29.86 22.4806 28.3516 24.9772 25.7698C27.4738 23.1881 28.8673 19.7358 28.8625 16.1444C28.8562 10.4819 25.1162 7.3069 20.7862 3.62565Z" fill="#FFA800"/>
</svg>
