<svg width="14" height="14" viewBox="0 0 14 14" fill="none" xmlns="http://www.w3.org/2000/svg">
<path d="M12.9584 6.45807C12.8147 6.45807 12.6769 6.401 12.5754 6.29942C12.4738 6.19783 12.4167 6.06006 12.4167 5.9164C12.4156 4.76748 11.9586 3.66595 11.1462 2.85354C10.3338 2.04113 9.23229 1.58421 8.08337 1.58307C7.93971 1.58307 7.80194 1.526 7.70036 1.42442C7.59877 1.32283 7.5417 1.18506 7.5417 1.0414C7.5417 0.89774 7.59877 0.759965 7.70036 0.658383C7.80194 0.556801 7.93971 0.499732 8.08337 0.499732C9.51948 0.50131 10.8963 1.0725 11.9118 2.08798C12.9273 3.10346 13.4985 4.48029 13.5 5.9164C13.5 6.06006 13.443 6.19783 13.3414 6.29942C13.2398 6.401 13.102 6.45807 12.9584 6.45807ZM11.3334 5.9164C11.3334 5.05445 10.991 4.2278 10.3815 3.6183C9.77198 3.00881 8.94533 2.6664 8.08337 2.6664C7.93971 2.6664 7.80194 2.72347 7.70036 2.82505C7.59877 2.92663 7.5417 3.06441 7.5417 3.20807C7.5417 3.35173 7.59877 3.4895 7.70036 3.59108C7.80194 3.69266 7.93971 3.74973 8.08337 3.74973C8.65801 3.74973 9.20911 3.97801 9.61544 4.38433C10.0218 4.79066 10.25 5.34176 10.25 5.9164C10.25 6.06006 10.3071 6.19783 10.4087 6.29942C10.5103 6.401 10.648 6.45807 10.7917 6.45807C10.9354 6.45807 11.0731 6.401 11.1747 6.29942C11.2763 6.19783 11.3334 6.06006 11.3334 5.9164ZM12.5158 12.5052L13.0087 11.937C13.3225 11.6223 13.4987 11.196 13.4987 10.7516C13.4987 10.3072 13.3225 9.8809 13.0087 9.56615C12.992 9.54936 11.6887 8.54673 11.6887 8.54673C11.3759 8.249 10.9605 8.08321 10.5286 8.08381C10.0968 8.08442 9.68178 8.25137 9.36983 8.54998L8.33741 9.4199C7.49468 9.07112 6.72914 8.55929 6.08478 7.91381C5.44041 7.26832 4.9299 6.50191 4.58258 5.65857L5.44925 4.6294C5.74809 4.31749 5.91524 3.90242 5.91595 3.47045C5.91665 3.03849 5.75086 2.62286 5.45304 2.30998C5.45304 2.30998 4.44933 1.00836 4.43254 0.991566C4.12349 0.680513 3.70447 0.503536 3.26602 0.498874C2.82757 0.494212 2.40488 0.662238 2.08929 0.966649L1.46637 1.50832C-2.21371 5.77773 5.71087 13.6411 10.1211 13.4997C10.5665 13.5023 11.0078 13.4156 11.4191 13.2448C11.8304 13.074 12.2033 12.8225 12.5158 12.5052V12.5052Z" fill="#003470"/>
</svg>
