<svg width="45" height="51" viewBox="0 0 45 51" fill="none" xmlns="http://www.w3.org/2000/svg">
<path d="M22.9812 0.0212474L23.4399 0.0399954L24.3572 0.117486L24.8147 0.162481L25.7271 0.296216L26.1808 0.371207L27.0832 0.561186L27.5331 0.663675L28.423 0.909897L28.8667 1.04113L29.7404 1.34485L31.029 1.86479L31.384 2.02227L32.0776 2.36223L32.4213 2.53721L33.095 2.91467L33.4287 3.10715L34.0799 3.5171L34.4024 3.72708L35.031 4.17078L35.3423 4.39575L35.9459 4.8707L36.2447 5.11192L36.8233 5.61687L37.1096 5.87309L37.6607 6.40553L37.9332 6.6755L38.4569 7.23668L38.7144 7.51915L39.2081 8.10533L39.4518 8.40155L39.9155 9.01273L40.143 9.3202L40.5742 9.95388L40.7854 10.2738L41.1841 10.9288L41.3791 11.2587L41.7428 11.9337L41.9203 12.2736L42.2477 12.9673L42.4065 13.3172L42.6977 14.0284L43.0901 15.1133L43.2451 15.5795L43.5076 16.5194L43.6313 16.9906L43.83 17.9367L43.9225 18.4092L44.0588 19.3578L44.1188 19.8328L44.1938 20.7814L44.2225 21.2563L44.235 22.2037L44.2337 22.6774L44.185 23.6198L44.1525 24.091L44.0438 25.0272L43.9813 25.4946L43.8113 26.422L43.7201 26.8832L43.4901 27.7994L43.3676 28.2543L43.0801 29.1555L42.9277 29.6042L42.5802 30.4878L42.4002 30.9278L41.994 31.7927L41.784 32.2226L41.3203 33.0663L41.0816 33.485L40.5617 34.3036L40.2942 34.7098L39.7168 35.5022L38.7881 36.6571L38.6431 36.8258L38.3832 37.1208L38.2519 37.267L37.9645 37.5633L37.8882 37.6408L37.7182 37.8045L37.6295 37.8895L37.4283 38.0732L37.3245 38.1694L37.0846 38.3819L36.9596 38.4919L36.6721 38.7394L36.5209 38.8681L36.1784 39.1593L35.9984 39.3106L35.5897 39.6505L35.3773 39.828L34.8948 40.2267L34.6436 40.4329L34.0799 40.8966L33.7862 41.1366L33.1313 41.6716L32.7925 41.949L32.0376 42.5652L31.8427 42.7239L31.4315 43.0589L31.2227 43.2289L30.7853 43.5851L30.5628 43.7663L30.0954 44.1475L29.3604 44.7449L29.0467 45.0012L28.453 45.4824L28.1631 45.7186L27.6156 46.1623L27.3469 46.3785L26.8445 46.7847L26.5982 46.9834L26.1383 47.3534L25.9133 47.5334L25.4959 47.8683L25.2921 48.0308L24.9159 48.3308L24.7322 48.4758L24.3947 48.742L24.231 48.8707L23.9311 49.1045L23.7873 49.2182L23.5248 49.4194L23.3986 49.5169L23.1724 49.6881L23.0636 49.7694L22.8737 49.9106L22.7824 49.9781L22.6249 50.0906L22.55 50.1431L22.425 50.2268L22.3662 50.2656L22.2725 50.3231L22.2287 50.3493L22.165 50.3806L22.1013 50.3981H22.0875L22.04 50.3818L22.0125 50.3706L21.9388 50.3306L21.8988 50.3081L21.7975 50.2431L21.7425 50.2081L21.6126 50.1193L21.5438 50.0718L21.3851 49.9569L21.3013 49.8956L21.1101 49.7544L21.0101 49.6806L20.7877 49.5107L20.6727 49.4232L20.4164 49.2257L20.2852 49.1232L19.9952 48.897L19.8453 48.7795L19.5203 48.5233L19.3528 48.3908L18.9916 48.1033L18.8054 47.9546L18.4067 47.6359L18.2029 47.4721L17.7642 47.1197L17.5405 46.9397L17.0631 46.5535L16.8194 46.3573L16.3019 45.9373L16.0369 45.7223L15.477 45.2674L15.0433 44.9149L14.1822 44.215L13.7559 43.8663L12.9235 43.1889L12.5136 42.8552L11.7324 42.2177L11.35 41.9053L10.6388 41.3241L10.2938 41.0429L9.67516 40.5367L9.52643 40.4142L9.25146 40.1892L9.11647 40.0792L8.8715 39.8767L8.75276 39.7793L8.53904 39.6043L8.4378 39.5205L8.25907 39.3743L8.17533 39.3043L8.03535 39.1881L7.87036 39.0518L7.39042 38.6494L6.48302 37.7807L6.03932 37.337L5.20817 36.3921L4.80321 35.9122L4.05329 34.8998L3.68959 34.3861L3.02716 33.3137L2.7072 32.7726L2.13601 31.6502L1.86229 31.0827L1.38735 29.9179L1.16362 29.3317L0.789912 28.1331L0.349959 26.307L0.308719 26.0946L0.236225 25.6121L0.202477 25.3621L0.143737 24.8197L0.116236 24.5435L0.0724939 23.9623L0.0524996 23.6686L0.0237476 23.0711L0 22.4737L0.00125108 21.3151L0.00624777 21.0364L0.0299954 20.5152L0.0874916 19.8065L0.132485 19.3916L0.257471 18.5729L0.324968 18.1642L0.491194 17.3593L0.579936 16.9581L0.789912 16.1694L0.8999 15.777L1.14987 15.0033L1.28111 14.6196L1.57232 13.8659L1.72356 13.491L2.05602 12.7548L2.226 12.3899L2.59846 11.6749L2.78843 11.32L3.19839 10.6275L3.40837 10.2826L3.85707 9.61266L4.08579 9.2802L4.57073 8.63278L4.8182 8.31281L5.34065 7.69163L5.60562 7.38292L6.16305 6.78798L6.44677 6.49302L7.04046 5.92558L7.34167 5.64436L7.9691 5.10442L8.28656 4.8382L8.94774 4.32826L9.97762 3.59834L10.3563 3.34337L11.1375 2.87592L11.5312 2.64845L12.3424 2.2335L12.7511 2.03352L13.5872 1.67231L14.0084 1.49733L14.8671 1.19112L15.2983 1.04363L16.1757 0.789911L16.6169 0.671174L17.5093 0.472447L17.9567 0.378707L18.8616 0.234973L19.3153 0.16998L20.2277 0.0812401L20.6852 0.0437449L21.6026 0.00999815L22.0613 0M22.1612 7.65789L22.1 7.68038L22.0388 7.71788L21.9988 7.74537L21.8163 7.88411L21.6988 7.98535L21.4451 8.20657L21.3026 8.34031L21.0076 8.61903L20.8552 8.77276L19.8303 9.7164L19.1366 10.2751L18.7829 10.5201L18.0717 10.9863L17.708 11.185L16.9781 11.5587L16.6044 11.7124L15.8532 11.9961L15.4683 12.1049L14.6933 12.2986L14.2959 12.3611L13.4947 12.4661L13.0835 12.4861L12.2549 12.5023L11.8299 12.4773L11.365 12.4511L11.1112 12.4398L11.0088 12.4361L10.8188 12.4311L10.7438 12.4323L10.6076 12.4361L10.5551 12.4423L10.4613 12.4561L10.4263 12.4673L10.3626 12.4923L10.3388 12.5098L10.2626 12.5923L10.2288 12.6548L10.1951 12.8161L10.1851 12.9098L10.1801 12.9685L10.1714 13.0948L10.1676 13.1698L10.1601 13.3297L10.1564 13.4222L10.1501 13.6172L10.1464 13.7272L10.1414 13.9572L10.1389 14.0859L10.1339 14.3534L10.1314 14.5009L10.1276 14.8058L10.1264 14.9733L10.1239 15.317L10.1226 15.5033L10.1214 15.887V16.0944L10.1201 16.5194V16.7469V17.2131L10.1214 17.463L10.1226 17.9717L10.1239 18.2429L10.1251 18.7966L10.1264 19.0903L10.1301 19.6878L10.1314 20.004L10.1401 21.3663L10.1451 22.1862L10.1476 22.555L10.1539 23.2674L10.1564 23.5861L10.1639 24.201L10.1676 24.4735L10.1776 24.9997L10.1826 25.2321L10.1951 25.6771L10.2026 25.8746L10.2188 26.2508L10.2288 26.4158L10.2488 26.732L10.2613 26.8695L10.2876 27.1357L10.3038 27.2519L10.3363 27.4756L10.3551 27.5756L10.4388 27.9456L10.4938 28.1056L10.6126 28.4143L10.6875 28.573L10.8475 28.898L10.9463 29.093L11.225 29.5892L11.4375 29.9216L11.5574 30.0866L11.8049 30.4191L11.9424 30.584L12.2236 30.914L12.3774 31.0777L13.021 31.7327L13.3885 32.0539L14.1522 32.6926L14.5746 33.0025L15.4458 33.6162L15.9182 33.9112L16.8856 34.4924L17.403 34.7673L18.4567 35.3073L19.0116 35.5585L20.139 36.0484L20.7264 36.2722L21.0814 36.4071L21.2426 36.4671L21.5513 36.5809L21.6788 36.6259L21.9113 36.7096L21.9875 36.7346L22.0575 36.7583L22.0813 36.7646L22.1188 36.7758H22.125L22.24 36.7621L22.3475 36.7384L22.415 36.7184L22.5612 36.6734L22.6462 36.6446L22.8237 36.5834L22.9237 36.5471L23.3511 36.3846L23.5973 36.2847L24.1073 36.0734L24.3797 35.9559L25.5096 35.4535L26.0583 35.191L26.597 34.9286L26.8445 34.8023L27.3207 34.5536L27.5231 34.4411L28.658 33.7599L29.3679 33.2887L29.6991 33.0463L30.3428 32.5551L30.639 32.3026L31.2152 31.7939L31.4764 31.5339L31.9826 31.0102L32.2076 30.744L32.6401 30.2078L32.8275 29.9354L33.1838 29.3892L33.3325 29.113L33.6112 28.5593L33.7199 28.2806L34.0374 27.4681L34.0737 20.219L34.0799 18.7566L34.0824 17.8217V17.3818V16.5194V16.1232L34.0799 15.3558L34.0787 15.0133L34.0762 14.6796L34.0749 14.5246L34.0737 14.2221L34.0724 14.0834L34.0699 13.8147L34.0674 13.6947L34.0649 13.4635L34.0624 13.3635L34.0599 13.1723L34.0574 13.0923L34.0537 12.9423L34.0512 12.8848L34.0474 12.7798L34.0449 12.7448L34.0399 12.6873L34.0374 12.6773L33.9724 12.5111L33.9337 12.4748L33.9049 12.4623L33.8387 12.4398L33.7899 12.4336L33.6837 12.4236L33.61 12.4223L33.4512 12.4236L33.3475 12.4273L33.1238 12.4361L32.9838 12.4436L32.6838 12.4611L32.5013 12.4723L31.2365 12.4811L30.4141 12.4186L30.0129 12.3549L29.218 12.2024L28.8305 12.0924L28.0593 11.8499L27.6819 11.6937L26.9332 11.3575L26.567 11.155L25.8383 10.7263L25.4809 10.4776L24.7697 9.95513L24.421 9.65766L23.7261 9.04023L23.3824 8.69527L22.9674 8.29281L22.7099 8.05659L22.5987 7.96285L22.3925 7.79287L22.3162 7.73913L22.2462 7.69288L22.22 7.67913L22.1737 7.65789M22.3137 13.2947L22.395 13.3222L22.4362 13.351L22.5175 13.421L22.5612 13.4785L22.6537 13.6097L22.7062 13.7047L22.8187 13.9172L22.8862 14.0584L23.0299 14.3684L23.1161 14.5671L23.2061 14.7721L23.2549 14.8871L23.3561 15.1245L23.4124 15.257L23.5261 15.5295L23.5898 15.6795L23.7186 15.9882L23.7886 16.1569L24.176 17.0681L24.296 17.3468L24.3535 17.4755L24.4647 17.7255L24.5147 17.838L24.6135 18.053L24.656 18.1442L24.7372 18.3179L24.771 18.3867L24.8334 18.5104L24.8559 18.5517L24.8959 18.6204L24.9072 18.6316L24.9872 18.6741L25.0809 18.7029L25.1497 18.7179L25.2996 18.7491L25.3959 18.7654L25.6009 18.7979L25.7233 18.8154L25.9833 18.8504L26.1333 18.8679L26.4483 18.9041L26.6257 18.9229L26.9932 18.9604L27.1982 18.9804L27.6194 19.0191L27.8506 19.0403L28.948 19.1466L29.2829 19.1828L29.4367 19.2003L29.7366 19.2366L29.8704 19.2541L30.1278 19.2878L30.2366 19.3041L30.4428 19.3366L30.5241 19.3503L30.6703 19.3791L30.7178 19.3903L30.7965 19.4141L30.809 19.4241L30.9415 19.564L30.9928 19.6628L30.9952 19.719L30.9853 19.8365L30.9528 19.9065L30.8715 20.0577L30.8015 20.149L30.639 20.3452L30.5241 20.4639L30.2703 20.7189L30.1053 20.8726L29.9354 21.0314L29.8391 21.1176L29.6417 21.2951L29.5329 21.3926L29.3067 21.5926L29.183 21.7013L28.9267 21.925L28.788 22.045L27.9393 22.7924L27.6831 23.0199L27.5669 23.1249L27.3419 23.3286L27.2432 23.4199L27.0544 23.5948L26.9757 23.6698L26.8295 23.8098L26.7732 23.8648L26.6745 23.9635L26.6457 23.996L26.6007 24.0498V24.0585L26.6082 24.111L26.6207 24.1735L26.6295 24.2173L26.6745 24.4247L26.707 24.5672L26.7795 24.8747L26.8232 25.0559L26.9145 25.4309L26.9645 25.6321L27.1932 26.567L27.3269 27.1232L27.3844 27.3707L27.4931 27.8431L27.5381 28.0493L27.6231 28.443L27.6556 28.6105L27.7169 28.9267L27.7394 29.0567L27.7769 29.3004L27.7881 29.3967L27.8044 29.5717V29.6342L27.7994 29.7441L27.7894 29.7766L27.7056 29.9654L27.6319 30.0541L27.5806 30.0791L27.4681 30.1128L27.3932 30.1078L27.2269 30.0829L27.1194 30.0454L26.8857 29.9554L26.7382 29.8841L26.422 29.7241L26.227 29.6167L26.0271 29.5042L25.9158 29.4404L25.6884 29.3079L25.5634 29.2342L25.3071 29.0817L25.1672 28.998L24.8809 28.8255L24.7247 28.7305L23.7848 28.1681L23.4961 27.9981L23.3636 27.9218L23.1036 27.7719L22.9874 27.7069L22.7649 27.5819L22.6687 27.5294L22.49 27.4319L22.4175 27.3957L22.2887 27.3294L22.245 27.3107L22.1725 27.2807H22.16L22.075 27.3094L21.9738 27.3582L21.9038 27.3944L21.7488 27.4756L21.6538 27.5269L21.4538 27.6381L21.3388 27.7031L21.0989 27.8394L20.9664 27.9156L20.6939 28.0743L20.5489 28.1593L19.9427 28.5205L19.6178 28.718L18.9779 29.1042L18.6866 29.2754L18.4017 29.4429L18.2704 29.5192L18.0142 29.6666L17.8992 29.7316L17.6793 29.8554L17.5855 29.9079L17.408 30.0029L17.338 30.0391L17.2106 30.1041L17.1681 30.1228L17.0968 30.1516H17.0856L16.8443 30.1016L16.7056 30.0279L16.6519 29.9741L16.5531 29.8579L16.5244 29.7866L16.4781 29.6379V29.5554L16.4919 29.4342L16.5119 29.3042L16.5281 29.2167L16.5631 29.0292L16.5856 28.9167L16.6331 28.6805L16.6606 28.5455L16.7194 28.2681L16.7531 28.1156L16.8206 27.8044L16.8581 27.6394L17.0131 26.9545L17.0981 26.5932L17.7143 23.9685L17.3705 23.6561L17.2643 23.5611L17.1593 23.4686L17.0918 23.4086L16.9481 23.2824L16.8643 23.2086L16.6869 23.0536L16.5881 22.9662L16.1669 22.5987L15.9295 22.3925L15.442 21.9675L15.1895 21.7488L14.5634 21.1976L14.2171 20.8851L14.0784 20.7527L13.8209 20.5014L13.7234 20.3964L13.5485 20.1977L13.4885 20.1152L13.3872 19.959L13.361 19.8928L13.326 19.7678L13.331 19.714L13.3547 19.6103L13.386 19.5628L13.4622 19.4703L13.5172 19.4253L13.5947 19.3941L13.6885 19.3703L13.7535 19.3578L13.8947 19.3303L13.9822 19.3166L14.1672 19.2878L14.2734 19.2728L14.7333 19.2128L15.0021 19.1828L15.5607 19.1253L15.8607 19.0991L16.5331 19.0403L16.9343 19.0066L17.1131 18.9916L17.458 18.9616L17.6105 18.9479L17.9017 18.9216L18.0292 18.9091L18.2729 18.8841L18.3779 18.8729L18.5792 18.8491L18.6641 18.8366L18.8266 18.8129L18.8954 18.8004L19.0241 18.7754L19.0778 18.7616L19.2653 18.7029L19.3266 18.6654L19.4328 18.5867L19.4691 18.5367L19.5328 18.4267L19.5615 18.3579L19.6215 18.2079L19.664 18.1155L19.7378 17.9467L19.8003 17.803L19.8378 17.7167L20.0002 17.3368L20.0965 17.1081L20.3002 16.6306L20.4077 16.3732L20.6264 15.852L20.7339 15.5945L21.0264 14.9033L21.1914 14.5209L21.2626 14.3634L21.3988 14.0722L21.4576 13.9572L21.5688 13.7459L21.6188 13.666L21.7163 13.521L21.7613 13.471L21.85 13.381L21.895 13.3535L21.9838 13.3085L22.03 13.2972L22.1263 13.2823H22.18" fill="#0400FF"/>
<path d="M20.6063 36.6143L20.0189 36.3905L18.8915 35.9006L18.3366 35.6494L17.2829 35.1094L16.7655 34.8345L15.7981 34.2533L15.3256 33.9583L14.4545 33.3446L14.032 33.0347L13.2684 32.396L12.9009 32.0748L12.2572 31.4199L12.1035 31.2561L11.8223 30.9262L11.6848 30.7612L11.4373 30.4287L11.3173 30.2637L11.1049 29.9313L10.8262 29.4351L10.7274 29.2401L10.5674 28.9151L10.4924 28.7564L10.3737 28.4477L10.3187 28.2877L10.235 27.9177L10.2162 27.8178L10.1837 27.594L10.1675 27.4778L10.1412 27.2116L10.1287 27.0741L10.1087 26.7579L10.0987 26.5929L10.0825 26.2167L10.075 26.0192L10.0625 25.5743L10.0575 25.3418L10.0475 24.8156L10.0437 24.5431L10.0362 23.9282L10.0337 23.6095L10.0275 22.8971L10.025 22.5284L10.02 21.7085L10.0112 20.3461L10.01 20.0299L10.0062 19.4325L10.005 19.1387L10.0037 18.5851L10.0025 18.3138L10.0013 17.8051L10 17.5552V17.089V16.8615L10.0013 16.4365V16.2291L10.0025 15.8454L10.0037 15.6591L10.0062 15.3154L10.0075 15.1479L10.0112 14.843L10.0137 14.6955L10.0187 14.428L10.0212 14.2993L10.0262 14.0693L10.03 13.9593L10.0362 13.7643L10.04 13.6719L10.0475 13.5119L10.0512 13.4369L10.06 13.3107L10.065 13.2519L10.075 13.1582L10.1087 12.9969L10.1425 12.9344L10.2187 12.852L10.2425 12.8345L10.3062 12.8095L10.3412 12.7982L10.4349 12.7845L10.4874 12.7782L10.6237 12.7745L10.6987 12.7732L10.8886 12.7782L10.9911 12.782L11.2449 12.7932L11.7098 12.8195L12.1348 12.8445L12.9634 12.8282L13.3746 12.8082L14.1758 12.7032L14.5732 12.6407L15.3481 12.447L15.7331 12.3383L16.4843 12.0545L16.858 11.9008L17.5879 11.5271L17.9516 11.3284L18.6628 10.8622L19.0165 10.6172L19.7102 10.0585L20.735 9.11487L20.8875 8.96114L21.1825 8.68242L21.325 8.54869L21.5787 8.32746L21.6962 8.22622L21.8787 8.08749L21.9187 8.05999L21.9799 8.0225L22.0411 8H22.0536L22.0999 8.02125L22.1261 8.035L22.1961 8.08124L22.2724 8.13498L22.4786 8.30497L22.5898 8.39871L22.8473 8.63493L23.2622 9.03738L23.606 9.38234L24.3009 9.99977L24.6496 10.2972L25.3608 10.8197L25.7182 11.0684L26.4469 11.4971L26.8131 11.6996L27.5618 12.0358L27.9392 12.192L28.7104 12.4345L29.0978 12.5445L29.8927 12.697L30.294 12.7607L31.1164 12.8232L32.3812 12.8145L32.5637 12.8032L32.8637 12.7857L33.0037 12.7782L33.2274 12.7695L33.3311 12.7657L33.4898 12.7645L33.5636 12.7657L33.6698 12.7757L33.7186 12.782L33.7848 12.8045L33.8136 12.817L33.8523 12.8532L33.9173 13.0194L33.9198 13.0294L33.9248 13.0869L33.9273 13.1219L33.931 13.2269L33.9335 13.2844L33.9373 13.4344L33.9398 13.5144L33.9423 13.7056L33.9448 13.8056L33.9473 14.0368L33.9498 14.1568L33.9523 14.4255L33.9535 14.5643L33.9548 14.8667L33.956 15.0217L33.9585 15.3554L33.9598 15.6979L33.9623 16.4653V16.8615V17.7239V18.1639L33.9598 19.0987L33.9535 20.5611L33.9173 27.8103L33.5998 28.6227L33.4911 28.9014L33.2124 29.4551L33.0636 29.7313L32.7074 30.2775L32.52 30.55L32.0875 31.0861L31.8625 31.3524L31.3563 31.8761L31.0951 32.136L30.5189 32.6447L30.2227 32.8972L29.579 33.3884L29.2478 33.6309L28.5379 34.1021L27.403 34.7832L27.2006 34.8957L26.7244 35.1444L26.4769 35.2707L25.9382 35.5331L25.3895 35.7956L24.2596 36.2981L23.9872 36.4155L23.4772 36.6268L23.231 36.7268L22.8036 36.8892L22.7036 36.9255L22.5261 36.9867L22.4411 37.0155L22.2949 37.0605L22.2274 37.0805L22.1199 37.1042L22.0049 37.118H21.9986L21.9612 37.1067L21.9374 37.1005L21.8674 37.0767L21.7912 37.0517L21.5587 36.968L21.4312 36.923L21.1225 36.8092L20.9613 36.7493M19.4977 29.0601L19.8226 28.8626L20.4288 28.5014L20.5738 28.4164L20.8463 28.2577L20.9788 28.1815L21.2187 28.0452L21.3337 27.9802L21.5337 27.869L21.6287 27.8178L21.7837 27.7365L21.8537 27.7003L21.9549 27.6515L22.0399 27.6228H22.0524L22.1249 27.6528L22.1686 27.6715L22.2974 27.7378L22.3698 27.774L22.5486 27.8715L22.6448 27.924L22.8673 28.049L22.9835 28.114L23.2435 28.264L23.376 28.3402L23.6647 28.5102L24.6046 29.0726L24.7608 29.1676L25.0471 29.3401L25.187 29.4238L25.4433 29.5763L25.5682 29.6501L25.7957 29.7825L25.9069 29.8463L26.1069 29.9588L26.3019 30.0663L26.6181 30.2262L26.7656 30.2975L26.9993 30.3875L27.1068 30.425L27.2731 30.45L27.348 30.455L27.4605 30.4212L27.5118 30.3962L27.5855 30.3075L27.6693 30.1188L27.6793 30.0875L27.6843 29.9763V29.9138L27.668 29.7388L27.6567 29.6426L27.6193 29.3988L27.5968 29.2689L27.5355 28.9526L27.503 28.7852L27.418 28.3914L27.373 28.1852L27.2643 27.7128L27.2068 27.4653L27.0731 26.9091L26.8443 25.9742L26.7944 25.773L26.7031 25.398L26.6594 25.2168L26.5869 24.9093L26.5544 24.7669L26.5094 24.5594L26.5006 24.5156L26.4881 24.4531L26.4806 24.4006V24.3919L26.5256 24.3382L26.5544 24.3057L26.6531 24.2069L26.7094 24.1519L26.8556 24.0119L26.9343 23.937L27.1231 23.762L27.2218 23.6707L27.4468 23.467L27.563 23.362L27.8192 23.1345L28.6679 22.3871L28.8066 22.2671L29.0628 22.0434L29.1866 21.9347L29.4128 21.7347L29.5215 21.6372L29.719 21.4597L29.8153 21.3735L29.9852 21.2148L30.1502 21.061L30.4039 20.8061L30.5189 20.6873L30.6814 20.4911L30.7514 20.3999L30.8326 20.2486L30.8651 20.1786L30.8751 20.0611L30.8726 20.0049L30.8214 19.9062L30.6889 19.7662L30.6764 19.7562L30.5977 19.7324L30.5502 19.7212L30.4039 19.6924L30.3227 19.6787L30.1165 19.6462L30.0077 19.6299L29.7503 19.5962L29.6165 19.5787L29.3166 19.5424L29.1628 19.525L28.8279 19.4887L27.7305 19.3825L27.4993 19.3612L27.0781 19.3225L26.8731 19.3025L26.5056 19.265L26.3282 19.2462L26.0132 19.21L25.8632 19.1925L25.6032 19.1575L25.4807 19.14L25.2758 19.1075L25.1795 19.0912L25.0296 19.06L24.9608 19.045L24.8671 19.0163L24.7871 18.9738L24.7758 18.9625L24.7358 18.8938L24.7133 18.8525L24.6508 18.7288L24.6171 18.66L24.5359 18.4863L24.4934 18.3951L24.3946 18.1801L24.3446 18.0676L24.2334 17.8176L24.1759 17.6889L24.0559 17.4102L23.6685 16.499L23.5985 16.3303L23.4697 16.0216L23.406 15.8716L23.2922 15.5991L23.236 15.4667L23.1348 15.2292L23.086 15.1142L22.996 14.9092L22.9098 14.7105L22.7661 14.4005L22.6986 14.2593L22.5861 14.0468L22.5336 13.9518L22.4411 13.8206L22.3974 13.7631L22.3161 13.6931L22.2749 13.6644L22.1936 13.6369L22.0599 13.6244H22.0061L21.9099 13.6394L21.8637 13.6506L21.7749 13.6956L21.7299 13.7231L21.6412 13.8131L21.5962 13.8631L21.4987 14.0081L21.4487 14.0881L21.3375 14.2993L21.2787 14.4143L21.1425 14.7055L21.0712 14.863L20.9063 15.2454L20.6138 15.9366L20.5063 16.1941L20.2876 16.7153L20.1801 16.9727L19.9764 17.4502L19.8801 17.6789L19.7177 18.0589L19.6802 18.1451L19.6177 18.2888L19.5439 18.4576L19.5014 18.5501L19.4414 18.7L19.4127 18.7688L19.3489 18.8788L19.3127 18.9288L19.2065 19.0075L19.1452 19.045L18.9577 19.1037L18.904 19.1175L18.7753 19.1425L18.7065 19.155L18.544 19.1787L18.459 19.1912L18.2578 19.215L18.1528 19.2262L17.9091 19.2512L17.7816 19.2637L17.4904 19.29L17.3379 19.3037L16.993 19.3337L16.8142 19.3487L16.413 19.3825L15.7406 19.4412L15.4406 19.4675L14.8819 19.525L14.6132 19.5549L14.1533 19.6149L14.047 19.6299L13.8621 19.6587L13.7746 19.6724L13.6333 19.6999L13.5683 19.7124L13.4746 19.7362L13.3971 19.7674L13.3421 19.8124L13.2659 19.9049L13.2346 19.9524L13.2109 20.0561L13.2059 20.1099L13.2409 20.2349L13.2671 20.3011L13.3684 20.4573L13.4284 20.5398L13.6033 20.7386L13.7008 20.8436L13.9583 21.0948L14.097 21.2273L14.4432 21.5397L15.0694 22.0909L15.3219 22.3096L15.8093 22.7346L16.0468 22.9408L16.468 23.3083L16.5668 23.3958L16.7442 23.5507L16.828 23.6245L16.9717 23.7507L17.0392 23.8107L17.1442 23.9032L17.2504 23.9982L17.5941 24.3107L16.978 26.9354L16.893 27.2966L16.738 27.9815L16.7005 28.1465L16.633 28.4577L16.5993 28.6102L16.5405 28.8876L16.513 29.0226L16.4655 29.2589L16.443 29.3713L16.408 29.5588L16.3918 29.6463L16.3718 29.7763L16.358 29.8975V29.98L16.4043 30.1287L16.433 30.2L16.5318 30.3162L16.5855 30.37L16.7242 30.4437L16.9655 30.4937H16.9767L17.048 30.465L17.0904 30.4462L17.2179 30.3812L17.2879 30.345L17.4654 30.25L17.5591 30.1975L17.7791 30.0738L17.8941 30.0088L18.1503 29.8613L18.2816 29.785L18.5665 29.6176L18.8577 29.4463L19.4977 29.0601Z" fill="#FDFDFD"/>
</svg>
