<svg width="24" height="24" viewBox="0 0 24 24" fill="none" xmlns="http://www.w3.org/2000/svg">
<path d="M14.0002 7.00025C14.0002 7.39581 13.8829 7.78249 13.6631 8.11139C13.4434 8.44029 13.131 8.69663 12.7656 8.84801C12.4001 8.99938 11.998 9.03899 11.61 8.96182C11.222 8.88465 10.8657 8.69417 10.586 8.41446C10.3063 8.13476 10.1158 7.77839 10.0386 7.39043C9.96144 7.00247 10.001 6.60034 10.1524 6.23488C10.3038 5.86943 10.5601 5.55707 10.889 5.33731C11.2179 5.11755 11.6046 5.00025 12.0002 5.00025C12.5306 5.00025 13.0393 5.21096 13.4144 5.58604C13.7895 5.96111 14.0002 6.46982 14.0002 7.00025ZM16.9582 12.1843L13.9002 15.2153C13.6521 15.4654 13.3569 15.664 13.0316 15.7995C12.7064 15.935 12.3575 16.0047 12.0052 16.0047C11.6528 16.0047 11.304 15.935 10.9787 15.7995C10.6535 15.664 10.3583 15.4654 10.1102 15.2153L7.05418 12.2003C5.74194 10.8474 5.00705 9.03739 5.00482 7.15268C5.00258 5.26796 5.73316 3.4562 7.04218 2.10025C7.68555 1.43554 8.45601 0.906982 9.30774 0.546011C10.1595 0.185039 11.0751 -0.000976562 12.0002 -0.000976562C12.9253 -0.000976562 13.8409 0.185039 14.6926 0.546011C15.5444 0.906982 16.3148 1.43554 16.9582 2.10025C18.2652 3.45328 18.9958 5.26101 18.9958 7.14225C18.9958 9.02349 18.2652 10.8312 16.9582 12.1843ZM16.0002 7.00025C16.0002 6.20912 15.7656 5.43577 15.3261 4.77797C14.8865 4.12017 14.2618 3.60748 13.5309 3.30473C12.8 3.00198 11.9957 2.92277 11.2198 3.07711C10.4439 3.23145 9.73117 3.61241 9.17176 4.17182C8.61235 4.73123 8.23138 5.44396 8.07704 6.21989C7.9227 6.99581 8.00191 7.80008 8.30466 8.53098C8.60742 9.26189 9.12011 9.8866 9.7779 10.3261C10.4357 10.7657 11.2091 11.0002 12.0002 11.0002C13.061 11.0002 14.0785 10.5788 14.8286 9.82868C15.5788 9.07853 16.0002 8.06112 16.0002 7.00025ZM20.7532 9.20025C20.3882 10.853 19.5696 12.3712 18.3892 13.5843L15.3112 16.6373C14.8782 17.0713 14.3638 17.4159 13.7976 17.6511C13.2314 17.8863 12.6243 18.0077 12.0112 18.0083C11.3984 18.0085 10.7915 17.888 10.2253 17.6536C9.65905 17.4192 9.14456 17.0755 8.71118 16.6423L5.64818 13.6193C4.48332 12.4234 3.66579 10.9332 3.28318 9.30825C2.63367 9.54632 2.03981 9.9149 1.53818 10.3912C1.04923 10.8561 0.660558 11.4161 0.396062 12.0367C0.131567 12.6574 -0.00315506 13.3256 0.000182602 14.0003V18.0753C0.0022842 19.1566 0.353975 20.2082 1.00277 21.0733C1.65157 21.9384 2.5627 22.5705 3.60018 22.8753L6.47018 23.7753C6.95225 23.9253 7.45432 24.0011 7.95918 24.0003C8.41717 23.9997 8.87298 23.9371 9.31418 23.8143L15.0942 22.1043C15.609 21.9632 16.1523 21.9632 16.6672 22.1043L19.0542 22.9043C19.6425 23.0474 20.2556 23.0552 20.8473 22.927C21.4391 22.7988 21.994 22.5379 22.4702 22.164C22.9465 21.7901 23.3316 21.313 23.5967 20.7686C23.8617 20.2242 23.9997 19.6267 24.0002 19.0213V13.8723C23.9968 12.8561 23.6843 11.865 23.1044 11.0305C22.5245 10.196 21.7044 9.55771 20.7532 9.20025Z" fill="#003470"/>
</svg>
