<svg width="45" height="51" viewBox="0 0 45 51" fill="none" xmlns="http://www.w3.org/2000/svg">
<path d="M22.9812 0.0212474L23.4399 0.0399954L24.3572 0.117486L24.8147 0.162481L25.7271 0.296216L26.1808 0.371207L27.0832 0.561186L27.5331 0.663675L28.423 0.909897L28.8667 1.04113L29.7404 1.34485L31.029 1.86479L31.384 2.02227L32.0776 2.36223L32.4213 2.53721L33.095 2.91467L33.4287 3.10715L34.0799 3.5171L34.4024 3.72708L35.031 4.17078L35.3423 4.39575L35.9459 4.8707L36.2447 5.11192L36.8233 5.61687L37.1096 5.87309L37.6607 6.40553L37.9332 6.6755L38.4569 7.23668L38.7144 7.51915L39.2081 8.10533L39.4518 8.40155L39.9155 9.01273L40.143 9.3202L40.5742 9.95388L40.7854 10.2738L41.1841 10.9288L41.3791 11.2587L41.7428 11.9337L41.9203 12.2736L42.2477 12.9673L42.4065 13.3172L42.6977 14.0284L43.0901 15.1133L43.2451 15.5795L43.5076 16.5194L43.6313 16.9906L43.83 17.9367L43.9225 18.4092L44.0588 19.3578L44.1188 19.8328L44.1938 20.7814L44.2225 21.2563L44.235 22.2037L44.2337 22.6774L44.185 23.6198L44.1525 24.091L44.0438 25.0272L43.9813 25.4946L43.8113 26.422L43.7201 26.8832L43.4901 27.7994L43.3676 28.2543L43.0801 29.1555L42.9277 29.6042L42.5802 30.4878L42.4002 30.9278L41.994 31.7927L41.784 32.2226L41.3203 33.0663L41.0816 33.485L40.5617 34.3036L40.2942 34.7098L39.7168 35.5022L38.7881 36.6571L38.6431 36.8258L38.3832 37.1208L38.2519 37.267L37.9645 37.5633L37.8882 37.6408L37.7182 37.8045L37.6295 37.8895L37.4283 38.0732L37.3245 38.1694L37.0846 38.3819L36.9596 38.4919L36.6721 38.7394L36.5209 38.8681L36.1784 39.1593L35.9984 39.3106L35.5897 39.6505L35.3773 39.828L34.8948 40.2267L34.6436 40.4329L34.0799 40.8966L33.7862 41.1366L33.1313 41.6716L32.7925 41.949L32.0376 42.5652L31.8427 42.7239L31.4315 43.0589L31.2227 43.2289L30.7853 43.5851L30.5628 43.7663L30.0954 44.1475L29.3604 44.7449L29.0467 45.0012L28.453 45.4824L28.1631 45.7186L27.6156 46.1623L27.3469 46.3785L26.8445 46.7847L26.5982 46.9834L26.1383 47.3534L25.9133 47.5334L25.4959 47.8683L25.2921 48.0308L24.9159 48.3308L24.7322 48.4758L24.3947 48.742L24.231 48.8707L23.9311 49.1045L23.7873 49.2182L23.5248 49.4194L23.3986 49.5169L23.1724 49.6881L23.0636 49.7694L22.8737 49.9106L22.7824 49.9781L22.6249 50.0906L22.55 50.1431L22.425 50.2268L22.3662 50.2656L22.2725 50.3231L22.2287 50.3493L22.165 50.3806L22.1013 50.3981H22.0875L22.04 50.3818L22.0125 50.3706L21.9388 50.3306L21.8988 50.3081L21.7975 50.2431L21.7425 50.2081L21.6126 50.1193L21.5438 50.0718L21.3851 49.9569L21.3013 49.8956L21.1101 49.7544L21.0101 49.6806L20.7877 49.5107L20.6727 49.4232L20.4164 49.2257L20.2852 49.1232L19.9952 48.897L19.8453 48.7795L19.5203 48.5233L19.3528 48.3908L18.9916 48.1033L18.8054 47.9546L18.4067 47.6359L18.2029 47.4721L17.7642 47.1197L17.5405 46.9397L17.0631 46.5535L16.8194 46.3573L16.3019 45.9373L16.0369 45.7223L15.477 45.2674L15.0433 44.9149L14.1822 44.215L13.7559 43.8663L12.9235 43.1889L12.5136 42.8552L11.7324 42.2177L11.35 41.9053L10.6388 41.3241L10.2938 41.0429L9.67516 40.5367L9.52643 40.4142L9.25146 40.1892L9.11647 40.0792L8.8715 39.8767L8.75276 39.7793L8.53904 39.6043L8.4378 39.5205L8.25907 39.3743L8.17533 39.3043L8.03535 39.1881L7.87036 39.0518L7.39042 38.6494L6.48302 37.7807L6.03932 37.337L5.20817 36.3921L4.80321 35.9122L4.05329 34.8998L3.68959 34.3861L3.02716 33.3137L2.7072 32.7726L2.13601 31.6502L1.86229 31.0827L1.38735 29.9179L1.16362 29.3317L0.789912 28.1331L0.349959 26.307L0.308719 26.0946L0.236225 25.6121L0.202477 25.3621L0.143737 24.8197L0.116236 24.5435L0.0724939 23.9623L0.0524996 23.6686L0.0237476 23.0711L0 22.4737L0.00125108 21.3151L0.00624777 21.0364L0.0299954 20.5152L0.0874916 19.8065L0.132485 19.3916L0.257471 18.5729L0.324968 18.1642L0.491194 17.3593L0.579936 16.9581L0.789912 16.1694L0.8999 15.777L1.14987 15.0033L1.28111 14.6196L1.57232 13.8659L1.72356 13.491L2.05602 12.7548L2.226 12.3899L2.59846 11.6749L2.78843 11.32L3.19839 10.6275L3.40837 10.2826L3.85707 9.61266L4.08579 9.2802L4.57073 8.63278L4.8182 8.31281L5.34065 7.69163L5.60562 7.38292L6.16305 6.78798L6.44677 6.49302L7.04046 5.92558L7.34167 5.64436L7.9691 5.10442L8.28656 4.8382L8.94774 4.32826L9.97762 3.59834L10.3563 3.34337L11.1375 2.87592L11.5312 2.64845L12.3424 2.2335L12.7511 2.03352L13.5872 1.67231L14.0084 1.49733L14.8671 1.19112L15.2983 1.04363L16.1757 0.789911L16.6169 0.671174L17.5093 0.472447L17.9567 0.378707L18.8616 0.234973L19.3153 0.16998L20.2277 0.0812401L20.6852 0.0437449L21.6026 0.00999815L22.0613 0M22.1612 7.65789L22.1 7.68038L22.0388 7.71788L21.9988 7.74537L21.8163 7.88411L21.6988 7.98535L21.4451 8.20657L21.3026 8.34031L21.0076 8.61903L20.8552 8.77276L19.8303 9.7164L19.1366 10.2751L18.7829 10.5201L18.0717 10.9863L17.708 11.185L16.9781 11.5587L16.6044 11.7124L15.8532 11.9961L15.4683 12.1049L14.6933 12.2986L14.2959 12.3611L13.4947 12.4661L13.0835 12.4861L12.2549 12.5023L11.8299 12.4773L11.365 12.4511L11.1112 12.4398L11.0088 12.4361L10.8188 12.4311L10.7438 12.4323L10.6076 12.4361L10.5551 12.4423L10.4613 12.4561L10.4263 12.4673L10.3626 12.4923L10.3388 12.5098L10.2626 12.5923L10.2288 12.6548L10.1951 12.8161L10.1851 12.9098L10.1801 12.9685L10.1714 13.0948L10.1676 13.1698L10.1601 13.3297L10.1564 13.4222L10.1501 13.6172L10.1464 13.7272L10.1414 13.9572L10.1389 14.0859L10.1339 14.3534L10.1314 14.5009L10.1276 14.8058L10.1264 14.9733L10.1239 15.317L10.1226 15.5033L10.1214 15.887V16.0944L10.1201 16.5194V16.7469V17.2131L10.1214 17.463L10.1226 17.9717L10.1239 18.2429L10.1251 18.7966L10.1264 19.0903L10.1301 19.6878L10.1314 20.004L10.1401 21.3663L10.1451 22.1862L10.1476 22.555L10.1539 23.2674L10.1564 23.5861L10.1639 24.201L10.1676 24.4735L10.1776 24.9997L10.1826 25.2321L10.1951 25.6771L10.2026 25.8746L10.2188 26.2508L10.2288 26.4158L10.2488 26.732L10.2613 26.8695L10.2876 27.1357L10.3038 27.2519L10.3363 27.4756L10.3551 27.5756L10.4388 27.9456L10.4938 28.1056L10.6126 28.4143L10.6875 28.573L10.8475 28.898L10.9463 29.093L11.225 29.5892L11.4375 29.9216L11.5574 30.0866L11.8049 30.4191L11.9424 30.584L12.2236 30.914L12.3774 31.0777L13.021 31.7327L13.3885 32.0539L14.1522 32.6926L14.5746 33.0025L15.4458 33.6162L15.9182 33.9112L16.8856 34.4924L17.403 34.7673L18.4567 35.3073L19.0116 35.5585L20.139 36.0484L20.7264 36.2722L21.0814 36.4071L21.2426 36.4671L21.5513 36.5809L21.6788 36.6259L21.9113 36.7096L21.9875 36.7346L22.0575 36.7583L22.0813 36.7646L22.1188 36.7758H22.125L22.24 36.7621L22.3475 36.7384L22.415 36.7184L22.5612 36.6734L22.6462 36.6446L22.8237 36.5834L22.9237 36.5471L23.3511 36.3846L23.5973 36.2847L24.1073 36.0734L24.3797 35.9559L25.5096 35.4535L26.0583 35.191L26.597 34.9286L26.8445 34.8023L27.3207 34.5536L27.5231 34.4411L28.658 33.7599L29.3679 33.2887L29.6991 33.0463L30.3428 32.5551L30.639 32.3026L31.2152 31.7939L31.4764 31.5339L31.9826 31.0102L32.2076 30.744L32.6401 30.2078L32.8275 29.9354L33.1838 29.3892L33.3325 29.113L33.6112 28.5593L33.7199 28.2806L34.0374 27.4681L34.0737 20.219L34.0799 18.7566L34.0824 17.8217V17.3818V16.5194V16.1232L34.0799 15.3558L34.0787 15.0133L34.0762 14.6796L34.0749 14.5246L34.0737 14.2221L34.0724 14.0834L34.0699 13.8147L34.0674 13.6947L34.0649 13.4635L34.0624 13.3635L34.0599 13.1723L34.0574 13.0923L34.0537 12.9423L34.0512 12.8848L34.0474 12.7798L34.0449 12.7448L34.0399 12.6873L34.0374 12.6773L33.9724 12.5111L33.9337 12.4748L33.9049 12.4623L33.8387 12.4398L33.7899 12.4336L33.6837 12.4236L33.61 12.4223L33.4512 12.4236L33.3475 12.4273L33.1238 12.4361L32.9838 12.4436L32.6838 12.4611L32.5013 12.4723L31.2365 12.4811L30.4141 12.4186L30.0129 12.3549L29.218 12.2024L28.8305 12.0924L28.0593 11.8499L27.6819 11.6937L26.9332 11.3575L26.567 11.155L25.8383 10.7263L25.4809 10.4776L24.7697 9.95513L24.421 9.65766L23.7261 9.04023L23.3824 8.69527L22.9674 8.29281L22.7099 8.05659L22.5987 7.96285L22.3925 7.79287L22.3162 7.73913L22.2462 7.69288L22.22 7.67913L22.1737 7.65789M22.3137 13.2947L22.395 13.3222L22.4362 13.351L22.5175 13.421L22.5612 13.4785L22.6537 13.6097L22.7062 13.7047L22.8187 13.9172L22.8862 14.0584L23.0299 14.3684L23.1161 14.5671L23.2061 14.7721L23.2549 14.8871L23.3561 15.1245L23.4124 15.257L23.5261 15.5295L23.5898 15.6795L23.7186 15.9882L23.7886 16.1569L24.176 17.0681L24.296 17.3468L24.3535 17.4755L24.4647 17.7255L24.5147 17.838L24.6135 18.053L24.656 18.1442L24.7372 18.3179L24.771 18.3867L24.8334 18.5104L24.8559 18.5517L24.8959 18.6204L24.9072 18.6316L24.9872 18.6741L25.0809 18.7029L25.1497 18.7179L25.2996 18.7491L25.3959 18.7654L25.6009 18.7979L25.7233 18.8154L25.9833 18.8504L26.1333 18.8679L26.4483 18.9041L26.6257 18.9229L26.9932 18.9604L27.1982 18.9804L27.6194 19.0191L27.8506 19.0403L28.948 19.1466L29.2829 19.1828L29.4367 19.2003L29.7366 19.2366L29.8704 19.2541L30.1278 19.2878L30.2366 19.3041L30.4428 19.3366L30.5241 19.3503L30.6703 19.3791L30.7178 19.3903L30.7965 19.4141L30.809 19.4241L30.9415 19.564L30.9928 19.6628L30.9952 19.719L30.9853 19.8365L30.9528 19.9065L30.8715 20.0577L30.8015 20.149L30.639 20.3452L30.5241 20.4639L30.2703 20.7189L30.1053 20.8726L29.9354 21.0314L29.8391 21.1176L29.6417 21.2951L29.5329 21.3926L29.3067 21.5926L29.183 21.7013L28.9267 21.925L28.788 22.045L27.9393 22.7924L27.6831 23.0199L27.5669 23.1249L27.3419 23.3286L27.2432 23.4199L27.0544 23.5948L26.9757 23.6698L26.8295 23.8098L26.7732 23.8648L26.6745 23.9635L26.6457 23.996L26.6007 24.0498V24.0585L26.6082 24.111L26.6207 24.1735L26.6295 24.2173L26.6745 24.4247L26.707 24.5672L26.7795 24.8747L26.8232 25.0559L26.9145 25.4309L26.9645 25.6321L27.1932 26.567L27.3269 27.1232L27.3844 27.3707L27.4931 27.8431L27.5381 28.0493L27.6231 28.443L27.6556 28.6105L27.7169 28.9267L27.7394 29.0567L27.7769 29.3004L27.7881 29.3967L27.8044 29.5717V29.6342L27.7994 29.7441L27.7894 29.7766L27.7056 29.9654L27.6319 30.0541L27.5806 30.0791L27.4681 30.1128L27.3932 30.1078L27.2269 30.0829L27.1194 30.0454L26.8857 29.9554L26.7382 29.8841L26.422 29.7241L26.227 29.6167L26.0271 29.5042L25.9158 29.4404L25.6884 29.3079L25.5634 29.2342L25.3071 29.0817L25.1672 28.998L24.8809 28.8255L24.7247 28.7305L23.7848 28.1681L23.4961 27.9981L23.3636 27.9218L23.1036 27.7719L22.9874 27.7069L22.7649 27.5819L22.6687 27.5294L22.49 27.4319L22.4175 27.3957L22.2887 27.3294L22.245 27.3107L22.1725 27.2807H22.16L22.075 27.3094L21.9738 27.3582L21.9038 27.3944L21.7488 27.4756L21.6538 27.5269L21.4538 27.6381L21.3388 27.7031L21.0989 27.8394L20.9664 27.9156L20.6939 28.0743L20.5489 28.1593L19.9427 28.5205L19.6178 28.718L18.9779 29.1042L18.6866 29.2754L18.4017 29.4429L18.2704 29.5192L18.0142 29.6666L17.8992 29.7316L17.6793 29.8554L17.5855 29.9079L17.408 30.0029L17.338 30.0391L17.2106 30.1041L17.1681 30.1228L17.0968 30.1516H17.0856L16.8443 30.1016L16.7056 30.0279L16.6519 29.9741L16.5531 29.8579L16.5244 29.7866L16.4781 29.6379V29.5554L16.4919 29.4342L16.5119 29.3042L16.5281 29.2167L16.5631 29.0292L16.5856 28.9167L16.6331 28.6805L16.6606 28.5455L16.7194 28.2681L16.7531 28.1156L16.8206 27.8044L16.8581 27.6394L17.0131 26.9545L17.0981 26.5932L17.7143 23.9685L17.3705 23.6561L17.2643 23.5611L17.1593 23.4686L17.0918 23.4086L16.9481 23.2824L16.8643 23.2086L16.6869 23.0536L16.5881 22.9662L16.1669 22.5987L15.9295 22.3925L15.442 21.9675L15.1895 21.7488L14.5634 21.1976L14.2171 20.8851L14.0784 20.7527L13.8209 20.5014L13.7234 20.3964L13.5485 20.1977L13.4885 20.1152L13.3872 19.959L13.361 19.8928L13.326 19.7678L13.331 19.714L13.3547 19.6103L13.386 19.5628L13.4622 19.4703L13.5172 19.4253L13.5947 19.3941L13.6885 19.3703L13.7535 19.3578L13.8947 19.3303L13.9822 19.3166L14.1672 19.2878L14.2734 19.2728L14.7333 19.2128L15.0021 19.1828L15.5607 19.1253L15.8607 19.0991L16.5331 19.0403L16.9343 19.0066L17.1131 18.9916L17.458 18.9616L17.6105 18.9479L17.9017 18.9216L18.0292 18.9091L18.2729 18.8841L18.3779 18.8729L18.5792 18.8491L18.6641 18.8366L18.8266 18.8129L18.8954 18.8004L19.0241 18.7754L19.0778 18.7616L19.2653 18.7029L19.3266 18.6654L19.4328 18.5867L19.4691 18.5367L19.5328 18.4267L19.5615 18.3579L19.6215 18.2079L19.664 18.1155L19.7378 17.9467L19.8003 17.803L19.8378 17.7167L20.0002 17.3368L20.0965 17.1081L20.3002 16.6306L20.4077 16.3732L20.6264 15.852L20.7339 15.5945L21.0264 14.9033L21.1914 14.5209L21.2626 14.3634L21.3988 14.0722L21.4576 13.9572L21.5688 13.7459L21.6188 13.666L21.7163 13.521L21.7613 13.471L21.85 13.381L21.895 13.3535L21.9838 13.3085L22.03 13.2972L22.1263 13.2823H22.18" fill="#FF00FF"/>
<path d="M20.7263 36.2717L20.1389 36.048L19.0115 35.5581L18.4566 35.3068L17.4029 34.7669L16.8855 34.4919L15.9181 33.9108L15.4457 33.6158L14.5745 33.0021L14.1521 32.6921L13.3884 32.0535L13.0209 31.7323L12.3773 31.0773L12.2235 30.9136L11.9423 30.5836L11.8048 30.4186L11.5574 30.0862L11.4374 29.9212L11.2249 29.5887L10.9462 29.0926L10.8474 28.8976L10.6875 28.5726L10.6125 28.4139L10.4937 28.1052L10.4387 27.9452L10.355 27.5752L10.3362 27.4752L10.3038 27.2515L10.2875 27.1353L10.2613 26.8691L10.2488 26.7316L10.2288 26.4154L10.2188 26.2504L10.2025 25.8742L10.195 25.6767L10.1825 25.2317L10.1775 24.9993L10.1675 24.4731L10.1638 24.2006L10.1563 23.5857L10.1538 23.267L10.1475 22.5545L10.145 22.1858L10.14 21.3659L10.1313 20.0036L10.13 19.6874L10.1263 19.0899L10.125 18.7962L10.1238 18.2425L10.1225 17.9713L10.1213 17.4626L10.12 17.2126V16.7464V16.519L10.1213 16.094V15.8865L10.1225 15.5028L10.1238 15.3166L10.1263 14.9729L10.1275 14.8054L10.1313 14.5004L10.1338 14.353L10.1388 14.0855L10.1413 13.9568L10.1463 13.7268L10.15 13.6168L10.1563 13.4218L10.16 13.3293L10.1675 13.1693L10.1713 13.0944L10.18 12.9681L10.185 12.9094L10.195 12.8156L10.2288 12.6544L10.2625 12.5919L10.3388 12.5094L10.3625 12.4919L10.4262 12.4669L10.4612 12.4557L10.555 12.4419L10.6075 12.4357L10.7437 12.4319L10.8187 12.4307L11.0087 12.4357L11.1112 12.4394L11.3649 12.4507L11.8298 12.4769L12.2548 12.5019L13.0834 12.4857L13.4946 12.4657L14.2958 12.3607L14.6933 12.2982L15.4682 12.1045L15.8531 11.9957L16.6043 11.712L16.978 11.5583L17.7079 11.1846L18.0716 10.9858L18.7828 10.5196L19.1365 10.2747L19.8302 9.71599L20.8551 8.77234L21.0075 8.61861L21.3025 8.33989L21.445 8.20616L21.6987 7.98493L21.8162 7.88369L21.9987 7.74496L22.0387 7.71746L22.0999 7.67997L22.1612 7.65747H22.1737L22.2199 7.67872L22.2462 7.69247L22.3161 7.73871L22.3924 7.79246L22.5986 7.96244L22.7099 8.05618L22.9673 8.2924L23.3823 8.69485L23.726 9.03981L24.4209 9.65724L24.7696 9.95471L25.4808 10.4772L25.8383 10.7259L26.5669 11.1546L26.9331 11.3571L27.6818 11.6933L28.0592 11.8495L28.8304 12.092L29.2179 12.202L30.0128 12.3544L30.414 12.4182L31.2364 12.4807L32.5012 12.4719L32.6837 12.4607L32.9837 12.4432L33.1237 12.4357L33.3474 12.4269L33.4511 12.4232L33.6099 12.4219L33.6836 12.4232L33.7899 12.4332L33.8386 12.4394L33.9048 12.4619L33.9336 12.4744L33.9723 12.5107L34.0373 12.6769L34.0398 12.6869L34.0448 12.7444L34.0473 12.7794L34.0511 12.8844L34.0536 12.9419L34.0573 13.0919L34.0598 13.1718L34.0623 13.3631L34.0648 13.4631L34.0673 13.6943L34.0698 13.8143L34.0723 14.083L34.0736 14.2217L34.0748 14.5242L34.0761 14.6792L34.0786 15.0129L34.0798 15.3554L34.0823 16.1228V16.519V17.3814V17.8213L34.0798 18.7562L34.0736 20.2186L34.0373 27.4677L33.7199 28.2801L33.6111 28.5589L33.3324 29.1125L33.1837 29.3888L32.8275 29.935L32.64 30.2074L32.2075 30.7436L31.9826 31.0098L31.4764 31.5335L31.2151 31.7935L30.639 32.3022L30.3427 32.5547L29.6991 33.0459L29.3679 33.2883L28.6579 33.7595L27.5231 34.4407L27.3206 34.5532L26.8444 34.8019L26.5969 34.9281L26.0582 35.1906L25.5095 35.4531L24.3797 35.9555L24.1072 36.073L23.5972 36.2842L23.351 36.3842L22.9236 36.5467L22.8236 36.583L22.6461 36.6442L22.5611 36.6729L22.4149 36.7179L22.3474 36.7379L22.2399 36.7617L22.1249 36.7754H22.1187L22.0812 36.7642L22.0574 36.7579L21.9874 36.7342L21.9112 36.7092L21.6787 36.6254L21.5512 36.5805L21.2425 36.4667L21.0813 36.4067M19.6177 28.7176L19.9427 28.5201L20.5488 28.1589L20.6938 28.0739L20.9663 27.9152L21.0988 27.8389L21.3388 27.7027L21.4537 27.6377L21.6537 27.5265L21.7487 27.4752L21.9037 27.394L21.9737 27.3577L22.0749 27.309L22.1599 27.2803H22.1724L22.2449 27.3103L22.2886 27.329L22.4174 27.3952L22.4899 27.4315L22.6686 27.529L22.7648 27.5815L22.9873 27.7065L23.1036 27.7714L23.3635 27.9214L23.496 27.9977L23.7847 28.1677L24.7246 28.7301L24.8809 28.8251L25.1671 28.9976L25.3071 29.0813L25.5633 29.2338L25.6883 29.3075L25.9157 29.44L26.027 29.5038L26.227 29.6162L26.4219 29.7237L26.7381 29.8837L26.8856 29.955L27.1194 30.0449L27.2268 30.0824L27.3931 30.1074L27.4681 30.1124L27.5806 30.0787L27.6318 30.0537L27.7055 29.965L27.7893 29.7762L27.7993 29.745L27.8043 29.6337V29.5712L27.788 29.3963L27.7768 29.3L27.7393 29.0563L27.7168 28.9263L27.6555 28.6101L27.623 28.4426L27.5381 28.0489L27.4931 27.8427L27.3843 27.3702L27.3268 27.1228L27.1931 26.5666L26.9644 25.6317L26.9144 25.4305L26.8231 25.0555L26.7794 24.8743L26.7069 24.5668L26.6744 24.4243L26.6294 24.2169L26.6207 24.1731L26.6082 24.1106L26.6007 24.0581V24.0494L26.6457 23.9956L26.6744 23.9631L26.7731 23.8644L26.8294 23.8094L26.9756 23.6694L27.0544 23.5944L27.2431 23.4194L27.3418 23.3282L27.5668 23.1245L27.683 23.0195L27.9393 22.792L28.7879 22.0446L28.9266 21.9246L29.1829 21.7009L29.3066 21.5921L29.5328 21.3922L29.6416 21.2947L29.839 21.1172L29.9353 21.031L30.1053 20.8722L30.2702 20.7185L30.524 20.4635L30.639 20.3448L30.8014 20.1486L30.8714 20.0573L30.9527 19.9061L30.9852 19.8361L30.9952 19.7186L30.9927 19.6624L30.9414 19.5636L30.8089 19.4236L30.7964 19.4136L30.7177 19.3899L30.6702 19.3786L30.524 19.3499L30.4427 19.3362L30.2365 19.3037L30.1278 19.2874L29.8703 19.2537L29.7366 19.2362L29.4366 19.1999L29.2829 19.1824L28.9479 19.1462L27.8505 19.0399L27.6193 19.0187L27.1981 18.9799L26.9931 18.9599L26.6257 18.9224L26.4482 18.9037L26.1332 18.8675L25.9832 18.85L25.7233 18.815L25.6008 18.7975L25.3958 18.765L25.2996 18.7487L25.1496 18.7175L25.0808 18.7025L24.9871 18.6737L24.9071 18.6312L24.8959 18.62L24.8559 18.5512L24.8334 18.51L24.7709 18.3863L24.7371 18.3175L24.6559 18.1438L24.6134 18.0525L24.5146 17.8376L24.4647 17.7251L24.3534 17.4751L24.2959 17.3464L24.1759 17.0677L23.7885 16.1565L23.7185 15.9878L23.5897 15.6791L23.526 15.5291L23.4123 15.2566L23.356 15.1241L23.2548 14.8867L23.206 14.7717L23.1161 14.5667L23.0298 14.368L22.8861 14.058L22.8186 13.9168L22.7061 13.7043L22.6536 13.6093L22.5611 13.4781L22.5174 13.4206L22.4361 13.3506L22.3949 13.3218L22.3136 13.2943L22.1799 13.2818H22.1262L22.0299 13.2968L21.9837 13.3081L21.8949 13.3531L21.8499 13.3806L21.7612 13.4706L21.7162 13.5206L21.6187 13.6655L21.5687 13.7455L21.4575 13.9568L21.3988 14.0717L21.2625 14.363L21.1913 14.5204L21.0263 14.9029L20.7338 15.5941L20.6263 15.8515L20.4076 16.3727L20.3001 16.6302L20.0964 17.1077L20.0002 17.3364L19.8377 17.7163L19.8002 17.8026L19.7377 17.9463L19.6639 18.115L19.6214 18.2075L19.5615 18.3575L19.5327 18.4263L19.469 18.5362L19.4327 18.5862L19.3265 18.665L19.2652 18.7025L19.0778 18.7612L19.024 18.775L18.8953 18.8L18.8265 18.8125L18.6641 18.8362L18.5791 18.8487L18.3778 18.8725L18.2729 18.8837L18.0291 18.9087L17.9016 18.9212L17.6104 18.9474L17.4579 18.9612L17.113 18.9912L16.9343 19.0062L16.5331 19.0399L15.8606 19.0987L15.5607 19.1249L15.002 19.1824L14.7333 19.2124L14.2733 19.2724L14.1671 19.2874L13.9821 19.3162L13.8946 19.3299L13.7534 19.3574L13.6884 19.3699L13.5946 19.3936L13.5171 19.4249L13.4621 19.4699L13.3859 19.5624L13.3547 19.6099L13.3309 19.7136L13.3259 19.7674L13.3609 19.8923L13.3872 19.9586L13.4884 20.1148L13.5484 20.1973L13.7234 20.396L13.8209 20.501L14.0783 20.7522L14.2171 20.8847L14.5633 21.1972L15.1895 21.7484L15.4419 21.9671L15.9294 22.3921L16.1668 22.5983L16.588 22.9657L16.6868 23.0532L16.8643 23.2082L16.948 23.282L17.0917 23.4082L17.1592 23.4682L17.2642 23.5607L17.3705 23.6557L17.7142 23.9681L17.098 26.5928L17.013 26.954L16.858 27.639L16.8205 27.8039L16.753 28.1152L16.7193 28.2676L16.6605 28.5451L16.633 28.6801L16.5855 28.9163L16.563 29.0288L16.528 29.2163L16.5118 29.3038L16.4918 29.4338L16.4781 29.555V29.6375L16.5243 29.7862L16.553 29.8575L16.6518 29.9737L16.7055 30.0274L16.8443 30.1012L17.0855 30.1512H17.0967L17.168 30.1224L17.2105 30.1037L17.338 30.0387L17.408 30.0024L17.5854 29.9075L17.6792 29.855L17.8991 29.7312L18.0141 29.6662L18.2704 29.5188L18.4016 29.4425L18.6866 29.275L18.9778 29.1038L19.6177 28.7176Z" fill="#FDFDFD"/>
</svg>
