<svg width="18" height="24" viewBox="0 0 18 24" fill="none" xmlns="http://www.w3.org/2000/svg">
<path d="M13 0.3C13.7058 0.541978 14.348 0.939823 14.879 1.464L16.535 3.122C17.0598 3.65229 17.458 4.29426 17.7 5H13V0.3ZM18 7V19C17.9984 20.3256 17.4711 21.5964 16.5338 22.5338C15.5964 23.4711 14.3256 23.9984 13 24H4.99999C3.6744 23.9984 2.40355 23.4711 1.46621 22.5338C0.528874 21.5964 0.00158023 20.3256 -7.62939e-06 19V5C0.00158023 3.67441 0.528874 2.40356 1.46621 1.46622C2.40355 0.528882 3.6744 0.00158786 4.99999 0L11 0V5C11 5.53043 11.2107 6.03914 11.5858 6.41421C11.9609 6.78929 12.4696 7 13 7H18ZM13.808 17.413C13.7308 17.3062 13.6334 17.2158 13.5211 17.1468C13.4089 17.0779 13.2842 17.0317 13.1541 17.0111C13.024 16.9905 12.8912 16.9957 12.7631 17.0266C12.6351 17.0575 12.5144 17.1134 12.408 17.191C11.7361 17.6587 10.9513 17.938 10.135 18C9.81516 17.9913 9.50888 17.869 9.27099 17.655C8.74911 17.2409 8.10513 17.0106 7.43899 17C6.32967 17.1043 5.27305 17.5226 4.39299 18.206C4.28377 18.2839 4.19133 18.3829 4.12117 18.4972C4.05101 18.6115 4.00457 18.7388 3.9846 18.8714C3.96464 19.0041 3.97156 19.1394 4.00496 19.2693C4.03836 19.3992 4.09756 19.5211 4.17902 19.6276C4.26049 19.7342 4.36255 19.8233 4.47915 19.8896C4.59575 19.9559 4.7245 19.998 4.85773 20.0136C4.99096 20.0291 5.12596 20.0176 5.25468 19.9799C5.3834 19.9422 5.50321 19.879 5.60699 19.794C6.13961 19.3769 6.77042 19.1035 7.43899 19C7.68499 19 7.80999 19.078 8.13899 19.3C8.70881 19.7501 9.41287 19.9965 10.139 20C11.3818 19.9432 12.5818 19.529 13.595 18.807C13.8075 18.6499 13.9491 18.4151 13.989 18.1539C14.0289 17.8927 13.9639 17.6264 13.808 17.413ZM14 14C14 13.7348 13.8946 13.4804 13.7071 13.2929C13.5196 13.1054 13.2652 13 13 13H4.99999C4.73478 13 4.48042 13.1054 4.29289 13.2929C4.10535 13.4804 3.99999 13.7348 3.99999 14C3.99999 14.2652 4.10535 14.5196 4.29289 14.7071C4.48042 14.8946 4.73478 15 4.99999 15H13C13.2652 15 13.5196 14.8946 13.7071 14.7071C13.8946 14.5196 14 14.2652 14 14ZM14 10C14 9.73478 13.8946 9.48043 13.7071 9.29289C13.5196 9.10536 13.2652 9 13 9H4.99999C4.73478 9 4.48042 9.10536 4.29289 9.29289C4.10535 9.48043 3.99999 9.73478 3.99999 10C3.99999 10.2652 4.10535 10.5196 4.29289 10.7071C4.48042 10.8946 4.73478 11 4.99999 11H13C13.2652 11 13.5196 10.8946 13.7071 10.7071C13.8946 10.5196 14 10.2652 14 10Z" fill="#374957"/>
</svg>
