<svg width="70" height="17" viewBox="0 0 70 17" fill="none" xmlns="http://www.w3.org/2000/svg">
<mask id="path-1-outside-1_879_678" maskUnits="userSpaceOnUse" x="-1" y="-1" width="72" height="18" fill="black">
<rect fill="white" x="-1" y="-1" width="72" height="18"/>
<path d="M12.5029 3.7002C11.2282 2.42546 9.69564 1.78809 7.90527 1.78809C6.11491 1.78809 4.58236 2.42546 3.30762 3.7002C2.03288 4.97493 1.39551 6.50749 1.39551 8.29785C1.39551 10.0882 2.03288 11.6208 3.30762 12.8955C4.58236 14.1702 6.11491 14.8076 7.90527 14.8076C9.69564 14.8076 11.2282 14.1702 12.5029 12.8955C13.7848 11.6136 14.4258 10.0811 14.4258 8.29785C14.4258 6.51465 13.7848 4.9821 12.5029 3.7002ZM13.4268 13.8193C11.9014 15.3447 10.0609 16.1074 7.90527 16.1074C5.74967 16.1074 3.90918 15.3447 2.38379 13.8193C0.858398 12.2939 0.0957031 10.4535 0.0957031 8.29785C0.0957031 6.14225 0.858398 4.30176 2.38379 2.77637C3.90918 1.25098 5.74967 0.488281 7.90527 0.488281C10.0609 0.488281 11.9014 1.25098 13.4268 2.77637C14.9521 4.30176 15.7148 6.14225 15.7148 8.29785C15.7148 10.4535 14.9521 12.2939 13.4268 13.8193ZM19.2061 14.6787V15.3662C19.2061 15.5524 19.1416 15.6992 19.0127 15.8066C18.8838 15.9355 18.7298 16 18.5508 16C18.3646 16 18.2178 15.9355 18.1104 15.8066C17.9743 15.6921 17.9062 15.5452 17.9062 15.3662V14.6787C17.9062 14.4997 17.9743 14.3529 18.1104 14.2383C18.2178 14.1094 18.3646 14.0449 18.5508 14.0449C18.7298 14.0449 18.8838 14.1094 19.0127 14.2383C19.1416 14.3457 19.2061 14.4925 19.2061 14.6787ZM28.3154 9.15723H27.9287C29.3324 9.83757 30.4639 10.7148 31.3232 11.7891C32.1826 12.8633 32.6123 14.0557 32.6123 15.3662C32.6123 15.5739 32.5479 15.7314 32.4189 15.8389C32.29 15.9463 32.1396 16 31.9678 16C31.7887 16 31.6383 15.9463 31.5166 15.8389C31.3949 15.7314 31.334 15.5739 31.334 15.3662C31.334 14.2633 30.9079 13.2321 30.0557 12.2725C29.2106 11.3057 28.1113 10.5465 26.7578 9.99512C25.4043 9.43652 23.9971 9.15723 22.5361 9.15723C22.3285 9.15723 22.1673 9.09635 22.0527 8.97461C21.9453 8.85286 21.8916 8.70247 21.8916 8.52344C21.8916 8.35156 21.9453 8.20117 22.0527 8.07227C22.1673 7.94336 22.3285 7.87891 22.5361 7.87891H28.3154C29.1533 7.87891 29.8659 7.58887 30.4531 7.00879C31.0404 6.42155 31.334 5.70898 31.334 4.87109C31.334 4.04036 31.0404 3.33138 30.4531 2.74414C29.8659 2.14974 29.1533 1.85254 28.3154 1.85254H22.0527C21.8451 1.85254 21.6839 1.79525 21.5693 1.68066C21.4619 1.55892 21.4082 1.41211 21.4082 1.24023C21.4082 1.06836 21.4619 0.917969 21.5693 0.789062C21.6839 0.660156 21.8451 0.595703 22.0527 0.595703H28.3154C29.5042 0.595703 30.5176 1.01465 31.3555 1.85254C32.1934 2.69043 32.6123 3.69661 32.6123 4.87109C32.6123 6.0599 32.1934 7.07324 31.3555 7.91113C30.5176 8.74186 29.5042 9.15723 28.3154 9.15723ZM36.1143 14.6787V15.3662C36.1143 15.5524 36.0498 15.6992 35.9209 15.8066C35.792 15.9355 35.638 16 35.459 16C35.2728 16 35.126 15.9355 35.0186 15.8066C34.8825 15.6921 34.8145 15.5452 34.8145 15.3662V14.6787C34.8145 14.4997 34.8825 14.3529 35.0186 14.2383C35.126 14.1094 35.2728 14.0449 35.459 14.0449C35.638 14.0449 35.792 14.1094 35.9209 14.2383C36.0498 14.3457 36.1143 14.4925 36.1143 14.6787ZM50.7236 3.7002C49.4489 2.42546 47.9163 1.78809 46.126 1.78809C44.3356 1.78809 42.8031 2.42546 41.5283 3.7002C40.2536 4.97493 39.6162 6.50749 39.6162 8.29785C39.6162 10.0882 40.2536 11.6208 41.5283 12.8955C42.8031 14.1702 44.3356 14.8076 46.126 14.8076C47.9163 14.8076 49.4489 14.1702 50.7236 12.8955C52.0055 11.6136 52.6465 10.0811 52.6465 8.29785C52.6465 6.51465 52.0055 4.9821 50.7236 3.7002ZM51.6475 13.8193C50.1221 15.3447 48.2816 16.1074 46.126 16.1074C43.9704 16.1074 42.1299 15.3447 40.6045 13.8193C39.0791 12.2939 38.3164 10.4535 38.3164 8.29785C38.3164 6.14225 39.0791 4.30176 40.6045 2.77637C42.1299 1.25098 43.9704 0.488281 46.126 0.488281C48.2816 0.488281 50.1221 1.25098 51.6475 2.77637C53.1729 4.30176 53.9355 6.14225 53.9355 8.29785C53.9355 10.4535 53.1729 12.2939 51.6475 13.8193ZM57.4268 14.6787V15.3662C57.4268 15.5524 57.3623 15.6992 57.2334 15.8066C57.1045 15.9355 56.9505 16 56.7715 16C56.5853 16 56.4385 15.9355 56.3311 15.8066C56.195 15.6921 56.127 15.5452 56.127 15.3662V14.6787C56.127 14.4997 56.195 14.3529 56.3311 14.2383C56.4385 14.1094 56.5853 14.0449 56.7715 14.0449C56.9505 14.0449 57.1045 14.1094 57.2334 14.2383C57.3623 14.3457 57.4268 14.4925 57.4268 14.6787ZM65.6123 8.9209H64.1406H63.7861C62.6403 8.9209 61.6592 8.5127 60.8428 7.69629C60.0335 6.87988 59.6289 5.89876 59.6289 4.75293C59.6289 3.6071 60.0335 2.62956 60.8428 1.82031C61.6592 1.00391 62.6403 0.595703 63.7861 0.595703H68.5449C68.7454 0.595703 68.8958 0.656576 68.9961 0.77832C69.1035 0.900065 69.1572 1.04688 69.1572 1.21875C69.1572 1.39062 69.1035 1.53743 68.9961 1.65918C68.8958 1.77376 68.7454 1.83105 68.5449 1.83105H63.7861C62.9697 1.83105 62.2786 2.11393 61.7129 2.67969C61.1471 3.24544 60.8643 3.93652 60.8643 4.75293C60.8643 5.56934 61.1471 6.264 61.7129 6.83691C62.2786 7.40267 62.9697 7.68555 63.7861 7.68555H65.6123C66.7581 7.68555 67.7393 8.09375 68.5557 8.91016C69.3721 9.7194 69.7803 10.6969 69.7803 11.8428C69.7803 12.9886 69.3721 13.9697 68.5557 14.7861C67.7393 15.5954 66.7581 16 65.6123 16H60.8643C60.6637 16 60.5062 15.9391 60.3916 15.8174C60.2842 15.6956 60.2305 15.5524 60.2305 15.3877C60.2305 15.223 60.2842 15.0798 60.3916 14.958C60.5062 14.8291 60.6637 14.7646 60.8643 14.7646H65.6123C66.4287 14.7646 67.1198 14.4818 67.6855 13.916C68.2585 13.3503 68.5449 12.6592 68.5449 11.8428C68.5449 11.0335 68.2585 10.346 67.6855 9.78027C67.1198 9.20736 66.4287 8.9209 65.6123 8.9209Z"/>
</mask>
<path d="M12.5029 3.7002C11.2282 2.42546 9.69564 1.78809 7.90527 1.78809C6.11491 1.78809 4.58236 2.42546 3.30762 3.7002C2.03288 4.97493 1.39551 6.50749 1.39551 8.29785C1.39551 10.0882 2.03288 11.6208 3.30762 12.8955C4.58236 14.1702 6.11491 14.8076 7.90527 14.8076C9.69564 14.8076 11.2282 14.1702 12.5029 12.8955C13.7848 11.6136 14.4258 10.0811 14.4258 8.29785C14.4258 6.51465 13.7848 4.9821 12.5029 3.7002ZM13.4268 13.8193C11.9014 15.3447 10.0609 16.1074 7.90527 16.1074C5.74967 16.1074 3.90918 15.3447 2.38379 13.8193C0.858398 12.2939 0.0957031 10.4535 0.0957031 8.29785C0.0957031 6.14225 0.858398 4.30176 2.38379 2.77637C3.90918 1.25098 5.74967 0.488281 7.90527 0.488281C10.0609 0.488281 11.9014 1.25098 13.4268 2.77637C14.9521 4.30176 15.7148 6.14225 15.7148 8.29785C15.7148 10.4535 14.9521 12.2939 13.4268 13.8193ZM19.2061 14.6787V15.3662C19.2061 15.5524 19.1416 15.6992 19.0127 15.8066C18.8838 15.9355 18.7298 16 18.5508 16C18.3646 16 18.2178 15.9355 18.1104 15.8066C17.9743 15.6921 17.9062 15.5452 17.9062 15.3662V14.6787C17.9062 14.4997 17.9743 14.3529 18.1104 14.2383C18.2178 14.1094 18.3646 14.0449 18.5508 14.0449C18.7298 14.0449 18.8838 14.1094 19.0127 14.2383C19.1416 14.3457 19.2061 14.4925 19.2061 14.6787ZM28.3154 9.15723H27.9287C29.3324 9.83757 30.4639 10.7148 31.3232 11.7891C32.1826 12.8633 32.6123 14.0557 32.6123 15.3662C32.6123 15.5739 32.5479 15.7314 32.4189 15.8389C32.29 15.9463 32.1396 16 31.9678 16C31.7887 16 31.6383 15.9463 31.5166 15.8389C31.3949 15.7314 31.334 15.5739 31.334 15.3662C31.334 14.2633 30.9079 13.2321 30.0557 12.2725C29.2106 11.3057 28.1113 10.5465 26.7578 9.99512C25.4043 9.43652 23.9971 9.15723 22.5361 9.15723C22.3285 9.15723 22.1673 9.09635 22.0527 8.97461C21.9453 8.85286 21.8916 8.70247 21.8916 8.52344C21.8916 8.35156 21.9453 8.20117 22.0527 8.07227C22.1673 7.94336 22.3285 7.87891 22.5361 7.87891H28.3154C29.1533 7.87891 29.8659 7.58887 30.4531 7.00879C31.0404 6.42155 31.334 5.70898 31.334 4.87109C31.334 4.04036 31.0404 3.33138 30.4531 2.74414C29.8659 2.14974 29.1533 1.85254 28.3154 1.85254H22.0527C21.8451 1.85254 21.6839 1.79525 21.5693 1.68066C21.4619 1.55892 21.4082 1.41211 21.4082 1.24023C21.4082 1.06836 21.4619 0.917969 21.5693 0.789062C21.6839 0.660156 21.8451 0.595703 22.0527 0.595703H28.3154C29.5042 0.595703 30.5176 1.01465 31.3555 1.85254C32.1934 2.69043 32.6123 3.69661 32.6123 4.87109C32.6123 6.0599 32.1934 7.07324 31.3555 7.91113C30.5176 8.74186 29.5042 9.15723 28.3154 9.15723ZM36.1143 14.6787V15.3662C36.1143 15.5524 36.0498 15.6992 35.9209 15.8066C35.792 15.9355 35.638 16 35.459 16C35.2728 16 35.126 15.9355 35.0186 15.8066C34.8825 15.6921 34.8145 15.5452 34.8145 15.3662V14.6787C34.8145 14.4997 34.8825 14.3529 35.0186 14.2383C35.126 14.1094 35.2728 14.0449 35.459 14.0449C35.638 14.0449 35.792 14.1094 35.9209 14.2383C36.0498 14.3457 36.1143 14.4925 36.1143 14.6787ZM50.7236 3.7002C49.4489 2.42546 47.9163 1.78809 46.126 1.78809C44.3356 1.78809 42.8031 2.42546 41.5283 3.7002C40.2536 4.97493 39.6162 6.50749 39.6162 8.29785C39.6162 10.0882 40.2536 11.6208 41.5283 12.8955C42.8031 14.1702 44.3356 14.8076 46.126 14.8076C47.9163 14.8076 49.4489 14.1702 50.7236 12.8955C52.0055 11.6136 52.6465 10.0811 52.6465 8.29785C52.6465 6.51465 52.0055 4.9821 50.7236 3.7002ZM51.6475 13.8193C50.1221 15.3447 48.2816 16.1074 46.126 16.1074C43.9704 16.1074 42.1299 15.3447 40.6045 13.8193C39.0791 12.2939 38.3164 10.4535 38.3164 8.29785C38.3164 6.14225 39.0791 4.30176 40.6045 2.77637C42.1299 1.25098 43.9704 0.488281 46.126 0.488281C48.2816 0.488281 50.1221 1.25098 51.6475 2.77637C53.1729 4.30176 53.9355 6.14225 53.9355 8.29785C53.9355 10.4535 53.1729 12.2939 51.6475 13.8193ZM57.4268 14.6787V15.3662C57.4268 15.5524 57.3623 15.6992 57.2334 15.8066C57.1045 15.9355 56.9505 16 56.7715 16C56.5853 16 56.4385 15.9355 56.3311 15.8066C56.195 15.6921 56.127 15.5452 56.127 15.3662V14.6787C56.127 14.4997 56.195 14.3529 56.3311 14.2383C56.4385 14.1094 56.5853 14.0449 56.7715 14.0449C56.9505 14.0449 57.1045 14.1094 57.2334 14.2383C57.3623 14.3457 57.4268 14.4925 57.4268 14.6787ZM65.6123 8.9209H64.1406H63.7861C62.6403 8.9209 61.6592 8.5127 60.8428 7.69629C60.0335 6.87988 59.6289 5.89876 59.6289 4.75293C59.6289 3.6071 60.0335 2.62956 60.8428 1.82031C61.6592 1.00391 62.6403 0.595703 63.7861 0.595703H68.5449C68.7454 0.595703 68.8958 0.656576 68.9961 0.77832C69.1035 0.900065 69.1572 1.04688 69.1572 1.21875C69.1572 1.39062 69.1035 1.53743 68.9961 1.65918C68.8958 1.77376 68.7454 1.83105 68.5449 1.83105H63.7861C62.9697 1.83105 62.2786 2.11393 61.7129 2.67969C61.1471 3.24544 60.8643 3.93652 60.8643 4.75293C60.8643 5.56934 61.1471 6.264 61.7129 6.83691C62.2786 7.40267 62.9697 7.68555 63.7861 7.68555H65.6123C66.7581 7.68555 67.7393 8.09375 68.5557 8.91016C69.3721 9.7194 69.7803 10.6969 69.7803 11.8428C69.7803 12.9886 69.3721 13.9697 68.5557 14.7861C67.7393 15.5954 66.7581 16 65.6123 16H60.8643C60.6637 16 60.5062 15.9391 60.3916 15.8174C60.2842 15.6956 60.2305 15.5524 60.2305 15.3877C60.2305 15.223 60.2842 15.0798 60.3916 14.958C60.5062 14.8291 60.6637 14.7646 60.8643 14.7646H65.6123C66.4287 14.7646 67.1198 14.4818 67.6855 13.916C68.2585 13.3503 68.5449 12.6592 68.5449 11.8428C68.5449 11.0335 68.2585 10.346 67.6855 9.78027C67.1198 9.20736 66.4287 8.9209 65.6123 8.9209Z" fill="#003470"/>
<path d="M12.9979 3.20522C11.5929 1.80023 9.88273 1.08809 7.90527 1.08809V2.48809C9.50855 2.48809 10.8635 3.05068 12.008 4.19517L12.9979 3.20522ZM7.90527 1.08809C5.92782 1.08809 4.21764 1.80023 2.81264 3.20522L3.80259 4.19517C4.94708 3.05068 6.302 2.48809 7.90527 2.48809V1.08809ZM2.81264 3.20522C1.40765 4.61021 0.695508 6.3204 0.695508 8.29785H2.09551C2.09551 6.69458 2.65811 5.33966 3.80259 4.19517L2.81264 3.20522ZM0.695508 8.29785C0.695508 10.2753 1.40765 11.9855 2.81264 13.3905L3.80259 12.4005C2.65811 11.256 2.09551 9.90112 2.09551 8.29785H0.695508ZM2.81264 13.3905C4.21764 14.7955 5.92782 15.5076 7.90527 15.5076V14.1076C6.302 14.1076 4.94708 13.545 3.80259 12.4005L2.81264 13.3905ZM7.90527 15.5076C9.88273 15.5076 11.5929 14.7955 12.9979 13.3905L12.008 12.4005C10.8635 13.545 9.50855 14.1076 7.90527 14.1076V15.5076ZM12.9979 13.3905C14.4086 11.9798 15.1258 10.2701 15.1258 8.29785H13.7258C13.7258 9.89196 13.161 11.2475 12.008 12.4005L12.9979 13.3905ZM15.1258 8.29785C15.1258 6.32556 14.4086 4.61595 12.9979 3.20522L12.008 4.19517C13.161 5.34825 13.7258 6.70374 13.7258 8.29785H15.1258ZM12.9318 13.3244C11.5376 14.7186 9.87506 15.4074 7.90527 15.4074V16.8074C10.2467 16.8074 12.2652 15.9709 13.9217 14.3143L12.9318 13.3244ZM7.90527 15.4074C5.93548 15.4074 4.27299 14.7186 2.87876 13.3244L1.88881 14.3143C3.54537 15.9709 5.56386 16.8074 7.90527 16.8074V15.4074ZM2.87876 13.3244C1.48454 11.9301 0.795703 10.2676 0.795703 8.29785H-0.604297C-0.604297 10.6393 0.23226 12.6578 1.88881 14.3143L2.87876 13.3244ZM0.795703 8.29785C0.795703 6.32806 1.48454 4.66557 2.87876 3.27134L1.88881 2.28139C0.23226 3.93795 -0.604297 5.95644 -0.604297 8.29785H0.795703ZM2.87876 3.27134C4.27299 1.87711 5.93548 1.18828 7.90527 1.18828V-0.211719C5.56386 -0.211719 3.54537 0.624838 1.88881 2.28139L2.87876 3.27134ZM7.90527 1.18828C9.87506 1.18828 11.5376 1.87711 12.9318 3.27134L13.9217 2.28139C12.2652 0.624838 10.2467 -0.211719 7.90527 -0.211719V1.18828ZM12.9318 3.27134C14.326 4.66557 15.0148 6.32806 15.0148 8.29785H16.4148C16.4148 5.95644 15.5783 3.93795 13.9217 2.28139L12.9318 3.27134ZM15.0148 8.29785C15.0148 10.2676 14.326 11.9301 12.9318 13.3244L13.9217 14.3143C15.5783 12.6578 16.4148 10.6393 16.4148 8.29785H15.0148ZM19.0127 15.8066L18.5646 15.2689L18.5402 15.2892L18.5177 15.3117L19.0127 15.8066ZM18.1104 15.8066L18.6481 15.3585L18.6085 15.311L18.5612 15.2712L18.1104 15.8066ZM18.1104 14.2383L18.5612 14.7737L18.6085 14.7339L18.6481 14.6864L18.1104 14.2383ZM19.0127 14.2383L18.5177 14.7333L18.5402 14.7557L18.5646 14.776L19.0127 14.2383ZM18.5061 14.6787V15.3662H19.9061V14.6787H18.5061ZM18.5061 15.3662C18.5061 15.3779 18.5043 15.363 18.5168 15.3346C18.5301 15.3041 18.5498 15.2812 18.5646 15.2689L19.4608 16.3444C19.7681 16.0883 19.9061 15.7344 19.9061 15.3662H18.5061ZM18.5177 15.3117C18.5142 15.3152 18.5136 15.3152 18.5163 15.3133C18.5191 15.3114 18.5238 15.3086 18.5302 15.306C18.5367 15.3033 18.5427 15.3016 18.5473 15.3007C18.5519 15.2998 18.5534 15.3 18.5508 15.3V16.7C18.9192 16.7 19.2502 16.5591 19.5077 16.3016L18.5177 15.3117ZM18.5508 15.3C18.5391 15.3 18.554 15.2982 18.5824 15.3107C18.6129 15.3241 18.6358 15.3437 18.6481 15.3585L17.5726 16.2548C17.8287 16.562 18.1826 16.7 18.5508 16.7V15.3ZM18.5612 15.2712C18.5636 15.2732 18.5792 15.2879 18.5924 15.3163C18.5984 15.3293 18.6022 15.3414 18.6042 15.3514C18.6063 15.3611 18.6063 15.3665 18.6063 15.3662H17.2062C17.2062 15.7502 17.3643 16.0935 17.6595 16.3421L18.5612 15.2712ZM18.6063 15.3662V14.6787H17.2062V15.3662H18.6063ZM18.6063 14.6787C18.6063 14.6784 18.6063 14.6838 18.6042 14.6935C18.6022 14.7035 18.5984 14.7156 18.5924 14.7286C18.5792 14.757 18.5636 14.7717 18.5612 14.7737L17.6595 13.7028C17.3643 13.9514 17.2062 14.2947 17.2062 14.6787H18.6063ZM18.6481 14.6864C18.6358 14.7012 18.6129 14.7208 18.5824 14.7342C18.554 14.7467 18.5391 14.7449 18.5508 14.7449V13.3449C18.1826 13.3449 17.8287 13.4829 17.5726 13.7902L18.6481 14.6864ZM18.5508 14.7449C18.5534 14.7449 18.5519 14.7451 18.5473 14.7443C18.5427 14.7433 18.5367 14.7417 18.5302 14.739C18.5238 14.7363 18.5191 14.7335 18.5163 14.7316C18.5136 14.7298 18.5142 14.7298 18.5177 14.7333L19.5077 13.7433C19.2502 13.4858 18.9192 13.3449 18.5508 13.3449V14.7449ZM18.5646 14.776C18.5498 14.7637 18.5301 14.7408 18.5168 14.7103C18.5043 14.6819 18.5061 14.667 18.5061 14.6787H19.9061C19.9061 14.3105 19.7681 13.9566 19.4608 13.7005L18.5646 14.776ZM27.9287 9.15723V8.45723L27.6234 9.78713L27.9287 9.15723ZM30.0557 12.2725L29.5286 12.7332L29.5323 12.7373L30.0557 12.2725ZM26.7578 9.99512L26.4908 10.6422L26.4937 10.6434L26.7578 9.99512ZM22.0527 8.97461L21.5278 9.43774L21.5353 9.44618L21.543 9.45436L22.0527 8.97461ZM22.0527 8.07227L21.5295 7.60721L21.5221 7.61556L21.515 7.62414L22.0527 8.07227ZM30.4531 7.00879L30.9451 7.5068L30.9481 7.50376L30.4531 7.00879ZM30.4531 2.74414L29.9552 3.23612L29.9582 3.23912L30.4531 2.74414ZM21.5693 1.68066L21.0444 2.1438L21.0589 2.16019L21.0744 2.17564L21.5693 1.68066ZM21.5693 0.789062L21.0462 0.324008L21.0387 0.332355L21.0316 0.340933L21.5693 0.789062ZM31.3555 7.91113L31.8483 8.40823L31.8504 8.40611L31.3555 7.91113ZM28.3154 8.45723H27.9287V9.85723H28.3154V8.45723ZM27.6234 9.78713C28.9459 10.4281 29.9906 11.2438 30.7766 12.2263L31.8699 11.3518C30.9372 10.1859 29.7188 9.247 28.234 8.52732L27.6234 9.78713ZM30.7766 12.2263C31.542 13.1831 31.9123 14.2229 31.9123 15.3662H33.3123C33.3123 13.8884 32.8232 12.5435 31.8699 11.3518L30.7766 12.2263ZM31.9123 15.3662C31.9123 15.3986 31.9072 15.3967 31.9161 15.3751C31.9206 15.3641 31.9277 15.3505 31.9381 15.3363C31.9485 15.322 31.96 15.3101 31.9708 15.3011L32.8671 16.3766C33.1928 16.1052 33.3123 15.7277 33.3123 15.3662H31.9123ZM31.9708 15.3011C31.9681 15.3034 31.9673 15.3037 31.9684 15.303C31.9696 15.3023 31.9716 15.3014 31.974 15.3005C31.9764 15.2996 31.9778 15.2994 31.9776 15.2995C31.9772 15.2995 31.9742 15.3 31.9678 15.3V16.7C32.2991 16.7 32.6091 16.5916 32.8671 16.3766L31.9708 15.3011ZM31.9678 15.3C31.958 15.3 31.9529 15.2993 31.9515 15.2991C31.9503 15.2988 31.9521 15.2991 31.9561 15.3005C31.9603 15.302 31.9651 15.3042 31.9699 15.307C31.9748 15.3099 31.9781 15.3125 31.9797 15.314L31.0535 16.3638C31.3166 16.5959 31.6371 16.7 31.9678 16.7V15.3ZM31.9797 15.314C31.9917 15.3246 32.0032 15.3374 32.0131 15.3517C32.0229 15.3659 32.029 15.3786 32.0326 15.3879C32.0395 15.4057 32.034 15.4029 32.034 15.3662H30.634C30.634 15.7148 30.7413 16.0884 31.0535 16.3638L31.9797 15.314ZM32.034 15.3662C32.034 14.0644 31.5253 12.8731 30.5791 11.8076L29.5323 12.7373C30.2905 13.5911 30.634 14.4623 30.634 15.3662H32.034ZM30.5827 11.8118C29.6565 10.7521 28.4625 9.93374 27.0219 9.34685L26.4937 10.6434C27.7602 11.1594 28.7648 11.8592 29.5286 12.7331L30.5827 11.8118ZM27.0249 9.34806C25.5868 8.75459 24.0889 8.45723 22.5361 8.45723V9.85723C23.9052 9.85723 25.2218 10.1185 26.4908 10.6422L27.0249 9.34806ZM22.5361 8.45723C22.4999 8.45723 22.494 8.45187 22.5069 8.45674C22.5135 8.45923 22.523 8.46369 22.5339 8.47091C22.5449 8.47817 22.5546 8.48649 22.5625 8.49485L21.543 9.45436C21.8206 9.74932 22.1854 9.85723 22.5361 9.85723V8.45723ZM22.5776 8.51147C22.5791 8.51314 22.5817 8.51645 22.5846 8.52129C22.5874 8.52614 22.5896 8.53096 22.5911 8.53507C22.5925 8.53911 22.5928 8.54095 22.5926 8.5397C22.5923 8.53835 22.5916 8.53317 22.5916 8.52344H21.1916C21.1916 8.85416 21.2957 9.17463 21.5278 9.43774L22.5776 8.51147ZM22.5916 8.52344C22.5916 8.51703 22.5921 8.51397 22.5921 8.51364C22.5922 8.51338 22.592 8.51477 22.5911 8.51717C22.5902 8.51959 22.5893 8.52159 22.5886 8.52278C22.5879 8.52392 22.5882 8.52312 22.5905 8.52039L21.515 7.62414C21.3 7.88214 21.1916 8.19215 21.1916 8.52344H22.5916ZM22.5759 8.53732C22.5694 8.54471 22.5604 8.55301 22.5493 8.56078C22.5383 8.56855 22.5278 8.57386 22.5195 8.57718C22.5028 8.58384 22.5042 8.57891 22.5361 8.57891V7.17891C22.173 7.17891 21.8039 7.29855 21.5295 7.60721L22.5759 8.53732ZM22.5361 8.57891H28.3154V7.17891H22.5361V8.57891ZM28.3154 8.57891C29.3344 8.57891 30.2246 8.21846 30.9451 7.50679L29.9612 6.51079C29.5072 6.95927 28.9723 7.17891 28.3154 7.17891V8.57891ZM30.9481 7.50376C31.6679 6.78394 32.034 5.89277 32.034 4.87109H30.634C30.634 5.5252 30.4128 6.05916 29.9582 6.51381L30.9481 7.50376ZM32.034 4.87109C32.034 3.85478 31.6667 2.96772 30.9481 2.24917L29.9582 3.23912C30.4141 3.69504 30.634 4.22595 30.634 4.87109H32.034ZM30.9511 2.25217C30.2319 1.52424 29.3399 1.15254 28.3154 1.15254V2.55254C28.9668 2.55254 29.4998 2.77524 29.9552 3.23611L30.9511 2.25217ZM28.3154 1.15254H22.0527V2.55254H28.3154V1.15254ZM22.0527 1.15254C22.0122 1.15254 22.0017 1.14685 22.0106 1.15002C22.0153 1.1517 22.0238 1.15528 22.0343 1.16183C22.0449 1.16844 22.0552 1.17659 22.0643 1.18569L21.0744 2.17564C21.3544 2.45572 21.7142 2.55254 22.0527 2.55254V1.15254ZM22.0942 1.21753C22.0945 1.21788 22.0965 1.22021 22.0991 1.22451C22.1017 1.22886 22.1041 1.23377 22.1059 1.23874C22.1077 1.24367 22.1084 1.24705 22.1085 1.2481C22.1087 1.24906 22.1082 1.24668 22.1082 1.24023H20.7082C20.7082 1.57177 20.8172 1.88623 21.0444 2.1438L22.0942 1.21753ZM22.1082 1.24023C22.1082 1.23383 22.1087 1.23077 22.1087 1.23044C22.1088 1.23018 22.1086 1.23157 22.1077 1.23397C22.1068 1.23639 22.1059 1.23838 22.1052 1.23958C22.1045 1.24072 22.1048 1.23991 22.1071 1.23719L21.0316 0.340933C20.8166 0.598934 20.7082 0.908943 20.7082 1.24023H22.1082ZM22.0925 1.25412C22.086 1.2615 22.077 1.26981 22.0659 1.27758C22.0549 1.28534 22.0444 1.29066 22.0361 1.29398C22.0194 1.30064 22.0208 1.2957 22.0527 1.2957V-0.104297C21.6896 -0.104297 21.3205 0.0153513 21.0462 0.324008L22.0925 1.25412ZM22.0527 1.2957H28.3154V-0.104297H22.0527V1.2957ZM28.3154 1.2957C29.3193 1.2957 30.1544 1.64138 30.8605 2.34751L31.8504 1.35756C30.8808 0.387919 29.6892 -0.104297 28.3154 -0.104297V1.2957ZM30.8605 2.34751C31.5684 3.05545 31.9123 3.88412 31.9123 4.87109H33.3123C33.3123 3.50911 32.8183 2.32541 31.8504 1.35756L30.8605 2.34751ZM31.9123 4.87109C31.9123 5.87492 31.5666 6.71002 30.8605 7.41616L31.8504 8.40611C32.8201 7.43646 33.3123 6.24487 33.3123 4.87109H31.9123ZM30.8626 7.41404C30.1569 8.11369 29.3212 8.45723 28.3154 8.45723V9.85723C29.6873 9.85723 30.8782 9.37003 31.8483 8.40823L30.8626 7.41404ZM35.9209 15.8066L35.4728 15.2689L35.4484 15.2892L35.4259 15.3117L35.9209 15.8066ZM35.0186 15.8066L35.5563 15.3585L35.5167 15.311L35.4694 15.2712L35.0186 15.8066ZM35.0186 14.2383L35.4694 14.7737L35.5167 14.7339L35.5563 14.6864L35.0186 14.2383ZM35.9209 14.2383L35.4259 14.7333L35.4484 14.7557L35.4728 14.776L35.9209 14.2383ZM35.4143 14.6787V15.3662H36.8143V14.6787H35.4143ZM35.4143 15.3662C35.4143 15.3779 35.4125 15.363 35.425 15.3346C35.4383 15.3041 35.458 15.2812 35.4728 15.2689L36.369 16.3444C36.6763 16.0883 36.8143 15.7344 36.8143 15.3662H35.4143ZM35.4259 15.3117C35.4224 15.3152 35.4218 15.3152 35.4245 15.3133C35.4273 15.3114 35.432 15.3086 35.4384 15.306C35.4449 15.3033 35.4509 15.3016 35.4555 15.3007C35.4601 15.2998 35.4616 15.3 35.459 15.3V16.7C35.8274 16.7 36.1584 16.5591 36.4159 16.3016L35.4259 15.3117ZM35.459 15.3C35.4473 15.3 35.4622 15.2982 35.4906 15.3107C35.5211 15.3241 35.544 15.3437 35.5563 15.3585L34.4808 16.2548C34.7369 16.562 35.0908 16.7 35.459 16.7V15.3ZM35.4694 15.2712C35.4718 15.2732 35.4874 15.2879 35.5006 15.3163C35.5066 15.3293 35.5104 15.3414 35.5124 15.3514C35.5145 15.3611 35.5145 15.3665 35.5145 15.3662H34.1145C34.1145 15.7502 34.2725 16.0935 34.5677 16.3421L35.4694 15.2712ZM35.5145 15.3662V14.6787H34.1145V15.3662H35.5145ZM35.5145 14.6787C35.5145 14.6784 35.5145 14.6838 35.5124 14.6935C35.5104 14.7035 35.5066 14.7156 35.5006 14.7286C35.4874 14.757 35.4718 14.7717 35.4694 14.7737L34.5677 13.7028C34.2725 13.9514 34.1145 14.2947 34.1145 14.6787H35.5145ZM35.5563 14.6864C35.544 14.7012 35.5211 14.7208 35.4906 14.7342C35.4622 14.7467 35.4473 14.7449 35.459 14.7449V13.3449C35.0908 13.3449 34.7369 13.4829 34.4808 13.7902L35.5563 14.6864ZM35.459 14.7449C35.4616 14.7449 35.4601 14.7451 35.4555 14.7443C35.4509 14.7433 35.4449 14.7417 35.4384 14.739C35.432 14.7363 35.4273 14.7335 35.4245 14.7316C35.4218 14.7298 35.4224 14.7298 35.4259 14.7333L36.4159 13.7433C36.1584 13.4858 35.8274 13.3449 35.459 13.3449V14.7449ZM35.4728 14.776C35.458 14.7637 35.4383 14.7408 35.425 14.7103C35.4125 14.6819 35.4143 14.667 35.4143 14.6787H36.8143C36.8143 14.3105 36.6763 13.9566 36.369 13.7005L35.4728 14.776ZM51.2186 3.20522C49.8136 1.80023 48.1034 1.08809 46.126 1.08809V2.48809C47.7292 2.48809 49.0842 3.05068 50.2287 4.19517L51.2186 3.20522ZM46.126 1.08809C44.1485 1.08809 42.4383 1.80023 41.0333 3.20522L42.0233 4.19517C43.1678 3.05068 44.5227 2.48809 46.126 2.48809V1.08809ZM41.0333 3.20522C39.6284 4.61021 38.9162 6.3204 38.9162 8.29785H40.3162C40.3162 6.69458 40.8788 5.33966 42.0233 4.19517L41.0333 3.20522ZM38.9162 8.29785C38.9162 10.2753 39.6284 11.9855 41.0333 13.3905L42.0233 12.4005C40.8788 11.256 40.3162 9.90112 40.3162 8.29785H38.9162ZM41.0333 13.3905C42.4383 14.7955 44.1485 15.5076 46.126 15.5076V14.1076C44.5227 14.1076 43.1678 13.545 42.0233 12.4005L41.0333 13.3905ZM46.126 15.5076C48.1034 15.5076 49.8136 14.7955 51.2186 13.3905L50.2287 12.4005C49.0842 13.545 47.7292 14.1076 46.126 14.1076V15.5076ZM51.2186 13.3905C52.6293 11.9798 53.3465 10.2701 53.3465 8.29785H51.9465C51.9465 9.89196 51.3817 11.2475 50.2287 12.4005L51.2186 13.3905ZM53.3465 8.29785C53.3465 6.32556 52.6293 4.61595 51.2186 3.20522L50.2287 4.19517C51.3817 5.34825 51.9465 6.70374 51.9465 8.29785H53.3465ZM51.1525 13.3244C49.7583 14.7186 48.0958 15.4074 46.126 15.4074V16.8074C48.4674 16.8074 50.4859 15.9709 52.1424 14.3143L51.1525 13.3244ZM46.126 15.4074C44.1562 15.4074 42.4937 14.7186 41.0995 13.3244L40.1095 14.3143C41.7661 15.9709 43.7846 16.8074 46.126 16.8074V15.4074ZM41.0995 13.3244C39.7052 11.9301 39.0164 10.2676 39.0164 8.29785H37.6164C37.6164 10.6393 38.453 12.6578 40.1095 14.3143L41.0995 13.3244ZM39.0164 8.29785C39.0164 6.32806 39.7052 4.66557 41.0995 3.27134L40.1095 2.28139C38.453 3.93795 37.6164 5.95644 37.6164 8.29785H39.0164ZM41.0995 3.27134C42.4937 1.87711 44.1562 1.18828 46.126 1.18828V-0.211719C43.7846 -0.211719 41.7661 0.624838 40.1095 2.28139L41.0995 3.27134ZM46.126 1.18828C48.0958 1.18828 49.7583 1.87711 51.1525 3.27134L52.1424 2.28139C50.4859 0.624838 48.4674 -0.211719 46.126 -0.211719V1.18828ZM51.1525 3.27134C52.5467 4.66557 53.2355 6.32806 53.2355 8.29785H54.6355C54.6355 5.95644 53.799 3.93795 52.1424 2.28139L51.1525 3.27134ZM53.2355 8.29785C53.2355 10.2676 52.5467 11.9301 51.1525 13.3244L52.1424 14.3143C53.799 12.6578 54.6355 10.6393 54.6355 8.29785H53.2355ZM57.2334 15.8066L56.7853 15.2689L56.7609 15.2892L56.7384 15.3117L57.2334 15.8066ZM56.3311 15.8066L56.8688 15.3585L56.8292 15.311L56.7819 15.2712L56.3311 15.8066ZM56.3311 14.2383L56.7819 14.7737L56.8292 14.7339L56.8688 14.6864L56.3311 14.2383ZM57.2334 14.2383L56.7384 14.7333L56.7609 14.7557L56.7853 14.776L57.2334 14.2383ZM56.7268 14.6787V15.3662H58.1268V14.6787H56.7268ZM56.7268 15.3662C56.7268 15.3779 56.725 15.363 56.7375 15.3346C56.7508 15.3041 56.7705 15.2812 56.7853 15.2689L57.6815 16.3444C57.9888 16.0883 58.1268 15.7344 58.1268 15.3662H56.7268ZM56.7384 15.3117C56.7349 15.3152 56.7343 15.3152 56.737 15.3133C56.7398 15.3114 56.7445 15.3086 56.7509 15.306C56.7574 15.3033 56.7634 15.3016 56.768 15.3007C56.7726 15.2998 56.7741 15.3 56.7715 15.3V16.7C57.1399 16.7 57.4709 16.5591 57.7284 16.3016L56.7384 15.3117ZM56.7715 15.3C56.7598 15.3 56.7747 15.2982 56.8031 15.3107C56.8336 15.3241 56.8565 15.3437 56.8688 15.3585L55.7933 16.2548C56.0494 16.562 56.4033 16.7 56.7715 16.7V15.3ZM56.7819 15.2712C56.7843 15.2732 56.7999 15.2879 56.8131 15.3163C56.8191 15.3293 56.8229 15.3414 56.8249 15.3514C56.827 15.3611 56.827 15.3665 56.827 15.3662H55.427C55.427 15.7502 55.585 16.0935 55.8802 16.3421L56.7819 15.2712ZM56.827 15.3662V14.6787H55.427V15.3662H56.827ZM56.827 14.6787C56.827 14.6784 56.827 14.6838 56.8249 14.6935C56.8229 14.7035 56.8191 14.7156 56.8131 14.7286C56.7999 14.757 56.7843 14.7717 56.7819 14.7737L55.8802 13.7028C55.585 13.9514 55.427 14.2947 55.427 14.6787H56.827ZM56.8688 14.6864C56.8565 14.7012 56.8336 14.7208 56.8031 14.7342C56.7747 14.7467 56.7598 14.7449 56.7715 14.7449V13.3449C56.4033 13.3449 56.0494 13.4829 55.7933 13.7902L56.8688 14.6864ZM56.7715 14.7449C56.7741 14.7449 56.7726 14.7451 56.768 14.7443C56.7634 14.7433 56.7574 14.7417 56.7509 14.739C56.7445 14.7363 56.7398 14.7335 56.737 14.7316C56.7343 14.7298 56.7349 14.7298 56.7384 14.7333L57.7284 13.7433C57.4709 13.4858 57.1399 13.3449 56.7715 13.3449V14.7449ZM56.7853 14.776C56.7705 14.7637 56.7508 14.7408 56.7375 14.7103C56.725 14.6819 56.7268 14.667 56.7268 14.6787H58.1268C58.1268 14.3105 57.9888 13.9566 57.6815 13.7005L56.7853 14.776ZM60.8428 7.69629L60.3456 8.18908L60.3478 8.19126L60.8428 7.69629ZM68.9961 0.77832L68.4557 1.22332L68.4633 1.23252L68.4712 1.24146L68.9961 0.77832ZM68.9961 1.65918L68.4712 1.19604L68.4693 1.19823L68.9961 1.65918ZM61.7129 2.67969L61.2179 2.18471L61.7129 2.67969ZM61.7129 6.83691L61.2148 7.32878L61.2179 7.33189L61.7129 6.83691ZM68.5557 8.91016L68.0607 9.40514L68.0629 9.40731L68.5557 8.91016ZM68.5557 14.7861L69.0485 15.2833L69.0506 15.2811L68.5557 14.7861ZM60.3916 15.8174L59.8667 16.2805L59.8742 16.2889L59.8819 16.2971L60.3916 15.8174ZM60.3916 14.958L59.8684 14.4929L59.8667 14.4949L60.3916 14.958ZM67.6855 13.916L67.1937 13.4179L67.1906 13.421L67.6855 13.916ZM67.6855 9.78027L67.1874 10.2722L67.1937 10.2784L67.6855 9.78027ZM65.6123 8.2209H64.1406V9.6209H65.6123V8.2209ZM64.1406 8.2209H63.7861V9.6209H64.1406V8.2209ZM63.7861 8.2209C62.8275 8.2209 62.024 7.88757 61.3377 7.20131L60.3478 8.19126C61.2944 9.13782 62.4531 9.6209 63.7861 9.6209V8.2209ZM61.3399 7.2035C60.6602 6.51771 60.3289 5.71351 60.3289 4.75293H58.9289C58.9289 6.08401 59.4069 7.24205 60.3456 8.18908L61.3399 7.2035ZM60.3289 4.75293C60.3289 3.79249 60.66 2.99308 61.3377 2.31529L60.3478 1.32534C59.4071 2.26604 58.9289 3.4217 58.9289 4.75293H60.3289ZM61.3377 2.31529C62.024 1.62903 62.8275 1.2957 63.7861 1.2957V-0.104297C62.4531 -0.104297 61.2944 0.378782 60.3478 1.32534L61.3377 2.31529ZM63.7861 1.2957H68.5449V-0.104297H63.7861V1.2957ZM68.5449 1.2957C68.5757 1.2957 68.5709 1.3005 68.5455 1.29022C68.5325 1.28495 68.5163 1.2766 68.4993 1.26419C68.4822 1.25172 68.4675 1.23759 68.4557 1.22332L69.5364 0.333325C69.2685 0.00793982 68.893 -0.104297 68.5449 -0.104297V1.2957ZM68.4712 1.24146C68.4709 1.2411 68.4689 1.23878 68.4663 1.23448C68.4637 1.23013 68.4614 1.22521 68.4596 1.22024C68.4578 1.21532 68.4571 1.21193 68.4569 1.21088C68.4567 1.20993 68.4572 1.21231 68.4572 1.21875H69.8572C69.8572 0.887209 69.7483 0.572757 69.521 0.315185L68.4712 1.24146ZM68.4572 1.21875C68.4572 1.22519 68.4567 1.22757 68.4569 1.22662C68.4571 1.22557 68.4578 1.22218 68.4596 1.21726C68.4614 1.21229 68.4637 1.20737 68.4663 1.20302C68.4689 1.19872 68.4709 1.1964 68.4712 1.19604L69.521 2.12231C69.7483 1.86474 69.8572 1.55029 69.8572 1.21875H68.4572ZM68.4693 1.19823C68.4827 1.18284 68.4985 1.1688 68.5156 1.15706C68.5326 1.14544 68.5478 1.13818 68.5589 1.13394C68.5802 1.12584 68.5802 1.13105 68.5449 1.13105V2.53105C68.8794 2.53105 69.2508 2.43116 69.5229 2.12013L68.4693 1.19823ZM68.5449 1.13105H63.7861V2.53105H68.5449V1.13105ZM63.7861 1.13105C62.7883 1.13105 61.9179 1.48471 61.2179 2.18471L62.2079 3.17466C62.6394 2.74315 63.1511 2.53105 63.7861 2.53105V1.13105ZM61.2179 2.18471C60.5179 2.88471 60.1643 3.75511 60.1643 4.75293H61.5643C61.5643 4.11793 61.7764 3.60617 62.2079 3.17466L61.2179 2.18471ZM60.1643 4.75293C60.1643 5.75058 60.5177 6.6228 61.2148 7.32877L62.211 6.34506C61.7766 5.90519 61.5643 5.38809 61.5643 4.75293H60.1643ZM61.2179 7.33189C61.9179 8.03189 62.7883 8.38555 63.7861 8.38555V6.98555C63.1511 6.98555 62.6394 6.77345 62.2079 6.34194L61.2179 7.33189ZM63.7861 8.38555H65.6123V6.98555H63.7861V8.38555ZM65.6123 8.38555C66.5709 8.38555 67.3744 8.71887 68.0607 9.40513L69.0506 8.41518C68.1041 7.46863 66.9454 6.98555 65.6123 6.98555V8.38555ZM68.0629 9.40731C68.7472 10.0856 69.0803 10.8843 69.0803 11.8428H70.4803C70.4803 10.5095 69.997 9.35322 69.0485 8.41301L68.0629 9.40731ZM69.0803 11.8428C69.0803 12.8014 68.7469 13.6049 68.0607 14.2912L69.0506 15.2811C69.9972 14.3346 70.4803 13.1758 70.4803 11.8428H69.0803ZM68.0629 14.289C67.3771 14.9688 66.5729 15.3 65.6123 15.3V16.7C66.9434 16.7 68.1014 16.222 69.0485 15.2833L68.0629 14.289ZM65.6123 15.3H60.8643V16.7H65.6123V15.3ZM60.8643 15.3C60.8345 15.3 60.8328 15.2955 60.848 15.3014C60.8555 15.3043 60.8652 15.309 60.8756 15.316C60.8861 15.323 60.8948 15.3306 60.9013 15.3376L59.8819 16.2971C60.1548 16.5871 60.5123 16.7 60.8643 16.7V15.3ZM60.9165 15.3542C60.9156 15.3533 60.9169 15.3546 60.9192 15.3583C60.9215 15.3621 60.924 15.3671 60.9262 15.3729C60.9283 15.3786 60.9295 15.3835 60.9301 15.3869C60.9307 15.3902 60.9305 15.3907 60.9305 15.3877H59.5305C59.5305 15.7202 59.6447 16.0289 59.8667 16.2805L60.9165 15.3542ZM60.9305 15.3877C60.9305 15.3847 60.9307 15.3852 60.9301 15.3885C60.9295 15.3918 60.9283 15.3968 60.9262 15.4025C60.924 15.4083 60.9215 15.4133 60.9192 15.4171C60.9169 15.4208 60.9156 15.4221 60.9165 15.4211L59.8667 14.4949C59.6447 14.7465 59.5305 15.0551 59.5305 15.3877H60.9305ZM60.9148 15.4231C60.9095 15.429 60.9015 15.4366 60.891 15.444C60.8805 15.4515 60.87 15.4571 60.8607 15.4609C60.8418 15.4686 60.839 15.4646 60.8643 15.4646V14.0646C60.4996 14.0646 60.1379 14.1898 59.8684 14.493L60.9148 15.4231ZM60.8643 15.4646H65.6123V14.0646H60.8643V15.4646ZM65.6123 15.4646C66.6101 15.4646 67.4805 15.111 68.1805 14.411L67.1906 13.421C66.7591 13.8526 66.2473 14.0646 65.6123 14.0646V15.4646ZM68.1774 14.4141C68.8856 13.7148 69.2449 12.8434 69.2449 11.8428H67.8449C67.8449 12.4749 67.6314 12.9858 67.1937 13.4179L68.1774 14.4141ZM69.2449 11.8428C69.2449 10.8474 68.8843 9.98022 68.1774 9.2822L67.1937 10.2784C67.6327 10.7118 67.8449 11.2196 67.8449 11.8428H69.2449ZM68.1836 9.28842C67.4843 8.58025 66.613 8.2209 65.6123 8.2209V9.6209C66.2445 9.6209 66.7553 9.83447 67.1875 10.2721L68.1836 9.28842Z" fill="#003470" mask="url(#path-1-outside-1_879_678)"/>
</svg>
