<svg width="30" height="30" viewBox="0 0 30 30" fill="none" xmlns="http://www.w3.org/2000/svg">
<g clip-path="url(#clip0_856_388)">
<path d="M19.4624 2.5H10.5374C10.9744 1.74134 11.6033 1.11098 12.3609 0.672169C13.1185 0.23336 13.9782 0.00154829 14.8537 0L15.1462 0C16.0217 0.00154829 16.8814 0.23336 17.639 0.672169C18.3966 1.11098 19.0255 1.74134 19.4624 2.5V2.5ZM25.6249 17.5H24.9999V20C24.9999 20.3315 24.8683 20.6495 24.6338 20.8839C24.3994 21.1183 24.0815 21.25 23.7499 21.25C23.4184 21.25 23.1005 21.1183 22.8661 20.8839C22.6316 20.6495 22.4999 20.3315 22.4999 20V17.5H7.49995V20C7.49995 20.3315 7.36825 20.6495 7.13383 20.8839C6.89941 21.1183 6.58147 21.25 6.24995 21.25C5.91843 21.25 5.60049 21.1183 5.36607 20.8839C5.13165 20.6495 4.99995 20.3315 4.99995 20V17.5H4.37495C3.27002 17.4978 2.20539 17.9148 1.3958 18.6667C0.586203 19.4187 0.0919033 20.4497 0.0126057 21.5517C-0.0666919 22.6538 0.274914 23.7449 0.968515 24.6051C1.66212 25.4652 2.65609 26.0302 3.74995 26.1862V27.5C3.74995 28.163 4.01334 28.7989 4.48218 29.2678C4.95102 29.7366 5.58691 30 6.24995 30C6.91299 30 7.54888 29.7366 8.01772 29.2678C8.48656 28.7989 8.74995 28.163 8.74995 27.5V26.25H21.2499V27.5C21.2499 28.163 21.5133 28.7989 21.9822 29.2678C22.451 29.7366 23.0869 30 23.7499 30C24.413 30 25.0489 29.7366 25.5177 29.2678C25.9866 28.7989 26.2499 28.163 26.2499 27.5V26.1888C27.2866 26.0502 28.2378 25.5406 28.9273 24.7543C29.6169 23.968 29.998 22.9583 29.9999 21.9125V21.875C29.9999 20.7147 29.539 19.6019 28.7185 18.7814C27.8981 17.9609 26.7853 17.5 25.6249 17.5V17.5ZM2.03495 15.6138C2.97085 15.2084 3.98002 14.9995 4.99995 15H24.9999C26.0199 14.9995 27.029 15.2084 27.9649 15.6138L26.0349 9.39875C25.6443 8.1218 24.853 7.00453 23.778 6.21231C22.703 5.42009 21.4015 4.99502 20.0662 5H9.9337C8.59851 4.99494 7.29715 5.41983 6.22219 6.21181C5.14723 7.00379 4.35578 8.12078 3.96495 9.3975L2.03495 15.6138Z" fill="#638EFF"/>
</g>
<defs>
<clipPath id="clip0_856_388">
<rect width="30" height="30" fill="white"/>
</clipPath>
</defs>
</svg>
