<svg width="20" height="20" viewBox="0 0 20 20" fill="none" xmlns="http://www.w3.org/2000/svg">
<g clip-path="url(#clip0_879_2133)">
<path d="M9.16667 11.4358C8.91344 11.2913 8.70295 11.0823 8.55654 10.8301C8.41014 10.578 8.33302 10.2916 8.33302 10C8.33302 9.70842 8.41014 9.42202 8.55654 9.16985C8.70295 8.91769 8.91344 8.70873 9.16667 8.56417V5.83333C9.16667 5.61232 9.25446 5.40036 9.41074 5.24408C9.56702 5.0878 9.77899 5 10 5C10.221 5 10.433 5.0878 10.5893 5.24408C10.7455 5.40036 10.8333 5.61232 10.8333 5.83333V8.56417C11.0866 8.70873 11.297 8.91769 11.4435 9.16985C11.5899 9.42202 11.667 9.70842 11.667 10C11.667 10.2916 11.5899 10.578 11.4435 10.8301C11.297 11.0823 11.0866 11.2913 10.8333 11.4358V13.3333C10.8333 13.5543 10.7455 13.7663 10.5893 13.9226C10.433 14.0789 10.221 14.1667 10 14.1667C9.77899 14.1667 9.56702 14.0789 9.41074 13.9226C9.25446 13.7663 9.16667 13.5543 9.16667 13.3333V11.4358ZM10 0C9.77899 0 9.56702 0.0877974 9.41074 0.244078C9.25446 0.400358 9.16667 0.61232 9.16667 0.833333C9.16667 1.05435 9.25446 1.26631 9.41074 1.42259C9.56702 1.57887 9.77899 1.66667 10 1.66667C12.2101 1.66667 14.3298 2.54464 15.8926 4.10744C17.4554 5.67025 18.3333 7.78986 18.3333 10C18.3333 12.2101 17.4554 14.3298 15.8926 15.8926C14.3298 17.4554 12.2101 18.3333 10 18.3333C9.77899 18.3333 9.56702 18.4211 9.41074 18.5774C9.25446 18.7337 9.16667 18.9457 9.16667 19.1667C9.16667 19.3877 9.25446 19.5996 9.41074 19.7559C9.56702 19.9122 9.77899 20 10 20C12.6522 20 15.1957 18.9464 17.0711 17.0711C18.9464 15.1957 20 12.6522 20 10C20 7.34783 18.9464 4.8043 17.0711 2.92893C15.1957 1.05357 12.6522 0 10 0V0ZM1.5225 5.65333C1.35768 5.65333 1.19657 5.70221 1.05953 5.79378C0.922484 5.88534 0.815674 6.01549 0.752601 6.16776C0.689528 6.32004 0.673025 6.48759 0.705179 6.64924C0.737334 6.81089 0.816701 6.95938 0.933245 7.07592C1.04979 7.19247 1.19827 7.27183 1.35993 7.30399C1.52158 7.33614 1.68913 7.31964 1.8414 7.25657C1.99367 7.19349 2.12382 7.08668 2.21539 6.94964C2.30696 6.8126 2.35583 6.65148 2.35583 6.48667C2.35583 6.26565 2.26804 6.05369 2.11176 5.89741C1.95548 5.74113 1.74351 5.65333 1.5225 5.65333V5.65333ZM1.66667 10C1.66667 9.83518 1.61779 9.67407 1.52623 9.53702C1.43466 9.39998 1.30451 9.29317 1.15224 9.2301C0.999965 9.16703 0.832409 9.15052 0.670758 9.18268C0.509108 9.21483 0.360622 9.2942 0.244078 9.41074C0.127534 9.52729 0.048167 9.67577 0.0160126 9.83742C-0.0161417 9.99908 0.000361068 10.1666 0.0634341 10.3189C0.126507 10.4712 0.233318 10.6013 0.370358 10.6929C0.507399 10.7845 0.668516 10.8333 0.833334 10.8333C1.05435 10.8333 1.26631 10.7455 1.42259 10.5893C1.57887 10.433 1.66667 10.221 1.66667 10ZM3.5175 2.6725C3.35268 2.6725 3.19157 2.72137 3.05453 2.81294C2.91748 2.90451 2.81067 3.03466 2.7476 3.18693C2.68453 3.3392 2.66803 3.50676 2.70018 3.66841C2.73233 3.83006 2.8117 3.97855 2.92824 4.09509C3.04479 4.21163 3.19327 4.291 3.35493 4.32315C3.51658 4.35531 3.68413 4.33881 3.8364 4.27573C3.98867 4.21266 4.11882 4.10585 4.21039 3.96881C4.30196 3.83177 4.35083 3.67065 4.35083 3.50583C4.35083 3.28482 4.26304 3.07286 4.10676 2.91658C3.95048 2.7603 3.73851 2.6725 3.5175 2.6725V2.6725ZM6.4825 0.700833C6.31768 0.700833 6.15657 0.749707 6.01952 0.841275C5.88248 0.932843 5.77567 1.06299 5.7126 1.21526C5.64953 1.36754 5.63303 1.53509 5.66518 1.69674C5.69733 1.85839 5.7767 2.00688 5.89324 2.12342C6.00979 2.23997 6.15827 2.31933 6.31992 2.35149C6.48158 2.38364 6.64913 2.36714 6.8014 2.30407C6.95367 2.24099 7.08382 2.13418 7.17539 1.99714C7.26696 1.8601 7.31583 1.69898 7.31583 1.53417C7.31583 1.31315 7.22804 1.10119 7.07176 0.944911C6.91548 0.788631 6.70351 0.700833 6.4825 0.700833V0.700833ZM1.5225 12.68C1.35768 12.68 1.19657 12.7289 1.05953 12.8204C0.922484 12.912 0.815674 13.0422 0.752601 13.1944C0.689528 13.3467 0.673025 13.5143 0.705179 13.6759C0.737334 13.8376 0.816701 13.986 0.933245 14.1026C1.04979 14.2191 1.19827 14.2985 1.35993 14.3307C1.52158 14.3628 1.68913 14.3463 1.8414 14.2832C1.99367 14.2202 2.12382 14.1133 2.21539 13.9763C2.30696 13.8393 2.35583 13.6782 2.35583 13.5133C2.35583 13.2923 2.26804 13.0804 2.11176 12.9241C1.95548 12.7678 1.74351 12.68 1.5225 12.68V12.68ZM3.5175 15.6608C3.35268 15.6608 3.19157 15.7097 3.05453 15.8013C2.91748 15.8928 2.81067 16.023 2.7476 16.1753C2.68453 16.3275 2.66803 16.4951 2.70018 16.6567C2.73233 16.8184 2.8117 16.9669 2.92824 17.0834C3.04479 17.2 3.19327 17.2793 3.35493 17.3115C3.51658 17.3436 3.68413 17.3271 3.8364 17.2641C3.98867 17.201 4.11882 17.0942 4.21039 16.9571C4.30196 16.8201 4.35083 16.659 4.35083 16.4942C4.35083 16.2732 4.26304 16.0612 4.10676 15.9049C3.95048 15.7486 3.73851 15.6608 3.5175 15.6608ZM6.4825 17.6325C6.31768 17.6325 6.15657 17.6814 6.01952 17.7729C5.88248 17.8645 5.77567 17.9947 5.7126 18.1469C5.64953 18.2992 5.63303 18.4668 5.66518 18.6284C5.69733 18.7901 5.7767 18.9385 5.89324 19.0551C6.00979 19.1716 6.15827 19.251 6.31992 19.2832C6.48158 19.3153 6.64913 19.2988 6.8014 19.2357C6.95367 19.1727 7.08382 19.0658 7.17539 18.9288C7.26696 18.7918 7.31583 18.6307 7.31583 18.4658C7.31583 18.2448 7.22804 18.0329 7.07176 17.8766C6.91548 17.7203 6.70351 17.6325 6.4825 17.6325V17.6325Z" fill="#374957"/>
</g>
<defs>
<clipPath id="clip0_879_2133">
<rect width="20" height="20" fill="white"/>
</clipPath>
</defs>
</svg>
