<svg width="24" height="25" viewBox="0 0 24 25" fill="none" xmlns="http://www.w3.org/2000/svg">
<g clip-path="url(#clip0_965_253)">
<path d="M4.99975 14.5C5.55204 14.5 5.99975 14.0523 5.99975 13.5C5.99975 12.9477 5.55204 12.5 4.99975 12.5C4.44747 12.5 3.99976 12.9477 3.99976 13.5C3.99976 14.0523 4.44747 14.5 4.99975 14.5Z" fill="#C5C5C5"/>
<path d="M1 10.5002C1.55228 10.5002 2 10.0525 2 9.50024C2 8.94796 1.55228 8.50024 1 8.50024C0.447715 8.50024 0 8.94796 0 9.50024C0 10.0525 0.447715 10.5002 1 10.5002Z" fill="#C5C5C5"/>
<path d="M4.99975 6.49975C5.55204 6.49975 5.99975 6.05204 5.99975 5.49975C5.99975 4.94747 5.55204 4.49976 4.99975 4.49976C4.44747 4.49976 3.99976 4.94747 3.99976 5.49975C3.99976 6.05204 4.44747 6.49975 4.99975 6.49975Z" fill="#C5C5C5"/>
<path d="M1 2.5C1.55228 2.5 2 2.05228 2 1.5C2 0.947715 1.55228 0.5 1 0.5C0.447715 0.5 0 0.947715 0 1.5C0 2.05228 0.447715 2.5 1 2.5Z" fill="#C5C5C5"/>
<path d="M22.9997 14.5C23.552 14.5 23.9997 14.0523 23.9997 13.5C23.9997 12.9477 23.552 12.5 22.9997 12.5C22.4475 12.5 21.9998 12.9477 21.9998 13.5C21.9998 14.0523 22.4475 14.5 22.9997 14.5Z" fill="#C5C5C5"/>
<path d="M19 10.5002C19.5523 10.5002 20 10.0525 20 9.50024C20 8.94796 19.5523 8.50024 19 8.50024C18.4477 8.50024 18 8.94796 18 9.50024C18 10.0525 18.4477 10.5002 19 10.5002Z" fill="#C5C5C5"/>
<path d="M22.9997 6.49975C23.552 6.49975 23.9997 6.05204 23.9997 5.49975C23.9997 4.94747 23.552 4.49976 22.9997 4.49976C22.4475 4.49976 21.9998 4.94747 21.9998 5.49975C21.9998 6.05204 22.4475 6.49975 22.9997 6.49975Z" fill="#C5C5C5"/>
<path d="M19 2.5C19.5523 2.5 20 2.05228 20 1.5C20 0.947715 19.5523 0.5 19 0.5C18.4477 0.5 18 0.947715 18 1.5C18 2.05228 18.4477 2.5 19 2.5Z" fill="#C5C5C5"/>
<path d="M13.9998 24.4997C14.552 24.4997 14.9998 24.052 14.9998 23.4997C14.9998 22.9475 14.552 22.4998 13.9998 22.4998C13.4475 22.4998 12.9998 22.9475 12.9998 23.4997C12.9998 24.052 13.4475 24.4997 13.9998 24.4997Z" fill="#C5C5C5"/>
<path d="M10 20.5C10.5523 20.5 11 20.0523 11 19.5C11 18.9477 10.5523 18.5 10 18.5C9.44771 18.5 9 18.9477 9 19.5C9 20.0523 9.44771 20.5 10 20.5Z" fill="#C5C5C5"/>
<path d="M13.9998 16.5003C14.552 16.5003 14.9998 16.0525 14.9998 15.5002C14.9998 14.948 14.552 14.5002 13.9998 14.5002C13.4475 14.5002 12.9998 14.948 12.9998 15.5002C12.9998 16.0525 13.4475 16.5003 13.9998 16.5003Z" fill="#C5C5C5"/>
<path d="M10 12.4998C10.5523 12.4998 11 12.052 11 11.4998C11 10.9475 10.5523 10.4998 10 10.4998C9.44771 10.4998 9 10.9475 9 11.4998C9 12.052 9.44771 12.4998 10 12.4998Z" fill="#C5C5C5"/>
<path d="M15.0002 3.5C14.4698 3.5 13.9611 3.28929 13.586 2.91421C13.2109 2.53914 13.0002 2.03043 13.0002 1.5C13.0002 1.23478 12.8949 0.98043 12.7073 0.792893C12.5198 0.605357 12.2655 0.5 12.0002 0.5C11.735 0.5 11.4807 0.605357 11.2931 0.792893C11.1056 0.98043 11.0002 1.23478 11.0002 1.5C11.0002 2.03043 10.7895 2.53914 10.4145 2.91421C10.0394 3.28929 9.53067 3.5 9.00024 3.5C8.73503 3.5 8.48067 3.60536 8.29314 3.79289C8.1056 3.98043 8.00024 4.23478 8.00024 4.5C8.00024 4.76522 8.1056 5.01957 8.29314 5.20711C8.48067 5.39464 8.73503 5.5 9.00024 5.5C9.53067 5.5 10.0394 5.71071 10.4145 6.08579C10.7895 6.46086 11.0002 6.96957 11.0002 7.5C11.0002 7.76522 11.1056 8.01957 11.2931 8.20711C11.4807 8.39464 11.735 8.5 12.0002 8.5C12.2655 8.5 12.5198 8.39464 12.7073 8.20711C12.8949 8.01957 13.0002 7.76522 13.0002 7.5C13.0002 6.96957 13.2109 6.46086 13.586 6.08579C13.9611 5.71071 14.4698 5.5 15.0002 5.5C15.2654 5.5 15.5198 5.39464 15.7073 5.20711C15.8949 5.01957 16.0002 4.76522 16.0002 4.5C16.0002 4.23478 15.8949 3.98043 15.7073 3.79289C15.5198 3.60536 15.2654 3.5 15.0002 3.5Z" fill="#C5C5C5"/>
<path d="M7 19.4998C6.46957 19.4998 5.96086 19.289 5.58579 18.914C5.21071 18.5389 5 18.0302 5 17.4998C5 17.2345 4.89464 16.9802 4.70711 16.7926C4.51957 16.6051 4.26522 16.4998 4 16.4998C3.73478 16.4998 3.48043 16.6051 3.29289 16.7926C3.10536 16.9802 3 17.2345 3 17.4998C3 18.0302 2.78929 18.5389 2.41421 18.914C2.03914 19.289 1.53043 19.4998 1 19.4998C0.734784 19.4998 0.48043 19.6051 0.292893 19.7926C0.105357 19.9802 0 20.2345 0 20.4997C0 20.765 0.105357 21.0193 0.292893 21.2069C0.48043 21.3944 0.734784 21.4997 1 21.4997C1.53043 21.4997 2.03914 21.7105 2.41421 22.0855C2.78929 22.4606 3 22.9693 3 23.4997C3 23.765 3.10536 24.0193 3.29289 24.2068C3.48043 24.3944 3.73478 24.4997 4 24.4997C4.26522 24.4997 4.51957 24.3944 4.70711 24.2068C4.89464 24.0193 5 23.765 5 23.4997C5 22.9693 5.21071 22.4606 5.58579 22.0855C5.96086 21.7105 6.46957 21.4997 7 21.4997C7.26522 21.4997 7.51957 21.3944 7.70711 21.2069C7.89464 21.0193 8 20.765 8 20.4997C8 20.2345 7.89464 19.9802 7.70711 19.7926C7.51957 19.6051 7.26522 19.4998 7 19.4998Z" fill="#C5C5C5"/>
<path d="M22.9997 19.4998C22.4693 19.4998 21.9606 19.289 21.5855 18.914C21.2105 18.5389 20.9997 18.0302 20.9997 17.4998C20.9997 17.2345 20.8944 16.9802 20.7069 16.7926C20.5193 16.6051 20.265 16.4998 19.9997 16.4998C19.7345 16.4998 19.4802 16.6051 19.2926 16.7926C19.1051 16.9802 18.9998 17.2345 18.9998 17.4998C18.9998 18.0302 18.789 18.5389 18.414 18.914C18.0389 19.289 17.5302 19.4998 16.9998 19.4998C16.7345 19.4998 16.4802 19.6051 16.2926 19.7926C16.1051 19.9802 15.9998 20.2345 15.9998 20.4997C15.9998 20.765 16.1051 21.0193 16.2926 21.2069C16.4802 21.3944 16.7345 21.4997 16.9998 21.4997C17.5302 21.4997 18.0389 21.7105 18.414 22.0855C18.789 22.4606 18.9998 22.9693 18.9998 23.4997C18.9998 23.765 19.1051 24.0193 19.2926 24.2068C19.4802 24.3944 19.7345 24.4997 19.9997 24.4997C20.265 24.4997 20.5193 24.3944 20.7069 24.2068C20.8944 24.0193 20.9997 23.765 20.9997 23.4997C20.9997 22.9693 21.2105 22.4606 21.5855 22.0855C21.9606 21.7105 22.4693 21.4997 22.9997 21.4997C23.265 21.4997 23.5193 21.3944 23.7068 21.2069C23.8944 21.0193 23.9997 20.765 23.9997 20.4997C23.9997 20.2345 23.8944 19.9802 23.7068 19.7926C23.5193 19.6051 23.265 19.4998 22.9997 19.4998Z" fill="#C5C5C5"/>
</g>
<defs>
<clipPath id="clip0_965_253">
<rect width="24" height="24" fill="white" transform="translate(0 0.5)"/>
</clipPath>
</defs>
</svg>
